<svg xmlns="http://www.w3.org/2000/svg" xmlns:xlink="http://www.w3.org/1999/xlink" viewBox="0 0 1081.27 1299.67"><defs><style>.cls-1{fill:url(#linear-gradient);}.cls-2{fill:#fff;stroke-width:0.5px;}.cls-2,.cls-3,.cls-4{stroke:#000;stroke-miterlimit:10;}.cls-3,.cls-4{fill:none;}.cls-3{stroke-width:0.3px;}</style><linearGradient id="linear-gradient" y1="649.83" x2="1081.27" y2="649.83" gradientUnits="userSpaceOnUse"><stop offset="0" stop-color="lime"/><stop offset="0" stop-color="#09ff09"/><stop offset="0.01" stop-color="#37ff37"/><stop offset="0.01" stop-color="#62ff62"/><stop offset="0.02" stop-color="#8f8"/><stop offset="0.03" stop-color="#a8ffa8"/><stop offset="0.04" stop-color="#c4ffc4"/><stop offset="0.05" stop-color="#daffda"/><stop offset="0.06" stop-color="#ebffeb"/><stop offset="0.08" stop-color="#f6fff6"/><stop offset="0.1" stop-color="#fdfffd"/><stop offset="0.16" stop-color="#fff"/></linearGradient></defs><g id="레이어_2" data-name="레이어 2"><g id="배경"><rect class="cls-1" width="1081.27" height="1299.67"/></g><g id="그래픽"><polygon class="cls-2" points="902.45 67.32 902.45 39.54 821.05 39.54 821.05 73.17 832.79 73.17 832.79 102.97 953.6 102.97 953.6 67.32 902.45 67.32"/><path d="M843.71,60v1.45h-2v3.25H840V61.43H833.6v-1l6.26-9.69h1.9V60ZM840,60V53.05l-.29.54L835.57,60Z"/><path d="M850.41,65a5.05,5.05,0,0,1-1.22,1.68l-1.1-.61a4.61,4.61,0,0,0,.65-1.43,6.25,6.25,0,0,0,.19-1.57V61.31h1.93V63A4.77,4.77,0,0,1,850.41,65Zm-1.49-12.09a1.3,1.3,0,0,1,1.05-.4,1.33,1.33,0,0,1,1,.4,1.39,1.39,0,0,1,.36,1,1.32,1.32,0,0,1-.36.95,1.38,1.38,0,0,1-1,.38,1.32,1.32,0,0,1-1-.38,1.35,1.35,0,0,1-.35-.95A1.44,1.44,0,0,1,848.92,52.87Z"/><path d="M858.47,64.14V62.93h6.69V58.84h1.43v4.09h6.75v1.21Zm8.19-11.54V53c0,2.59,3.63,5,6.11,5.49l-.74,1.2c-2.64-.74-5.35-2.8-6.13-4.6-.69,1.86-3.41,3.88-6.14,4.57l-.69-1.21c2.6-.46,6.09-2.83,6.09-5.45V52.6h-5.41V51.45H872.1V52.6Z"/><path d="M874.67,53.52V52.35h9.59v1.17Zm4.8,6c-2.23,0-3.82-1.05-3.82-2.66s1.55-2.67,3.82-2.67,3.82,1,3.82,2.67S881.7,59.52,879.47,59.52ZM877,66.12v-6h1.44v1.75H886V60.12h1.44v6Zm2.43-10.78c-1.28,0-2.41.55-2.41,1.52s1.15,1.52,2.41,1.52,2.39-.58,2.39-1.52S880.76,55.34,879.47,55.34Zm-2.37-4.12V50h4.74v1.21ZM886,63.07h-7.48v1.84H886Zm1.44-7.43v3.68H886V49.78h1.44v4.66h2.51v1.2Z"/><path class="cls-3" d="M849.71,91.77a5,5,0,0,1-.1-.69,6.08,6.08,0,0,1-.66.56,5.1,5.1,0,0,1-.79.46,5.78,5.78,0,0,1-.94.32,5,5,0,0,1-1.05.11,5,5,0,0,1-1.64-.26,3.86,3.86,0,0,1-1.24-.72,3,3,0,0,1-.79-1.06,3.11,3.11,0,0,1-.28-1.33,3.45,3.45,0,0,1,.37-1.64,3.24,3.24,0,0,1,1.06-1.18,5,5,0,0,1,1.65-.7,9.45,9.45,0,0,1,2.15-.23h2.13v-.89a2.27,2.27,0,0,0-.19-.93,2.2,2.2,0,0,0-.54-.71,2.72,2.72,0,0,0-.85-.44,3.83,3.83,0,0,0-1.12-.16,3.39,3.39,0,0,0-1,.15,2.65,2.65,0,0,0-.77.39,1.71,1.71,0,0,0-.49.58,1.4,1.4,0,0,0-.17.68h-2a2.62,2.62,0,0,1,.32-1.22,3.51,3.51,0,0,1,.9-1.08,4.69,4.69,0,0,1,1.42-.77,5.57,5.57,0,0,1,1.9-.3,6.53,6.53,0,0,1,1.8.24,4.41,4.41,0,0,1,1.44.71,3.59,3.59,0,0,1,.95,1.2,3.85,3.85,0,0,1,.35,1.68v5.3a7.37,7.37,0,0,0,.1,1.2,4.93,4.93,0,0,0,.3,1.11v.17h-2A2.22,2.22,0,0,1,849.71,91.77Zm-2.2-1.08a4.16,4.16,0,0,0,.91-.39,3.21,3.21,0,0,0,.69-.55,2.73,2.73,0,0,0,.47-.65V86.79h-1.81A7.66,7.66,0,0,0,846,87a2.79,2.79,0,0,0-1.19.53,1.72,1.72,0,0,0-.48.6,1.8,1.8,0,0,0-.17.79,2,2,0,0,0,.15.78,1.52,1.52,0,0,0,.42.61,2.09,2.09,0,0,0,.72.41,3,3,0,0,0,1,.15A3.62,3.62,0,0,0,847.51,90.69Z"/><path class="cls-3" d="M862.78,88.67a1.36,1.36,0,0,0-.46-.51,3.81,3.81,0,0,0-.86-.43,10.2,10.2,0,0,0-1.34-.35,13.24,13.24,0,0,1-1.79-.48,5.66,5.66,0,0,1-1.37-.69,2.78,2.78,0,0,1-.89-.92,2.29,2.29,0,0,1-.32-1.24,2.7,2.7,0,0,1,.33-1.3,3.37,3.37,0,0,1,.91-1.06A4.55,4.55,0,0,1,858.4,81a5.65,5.65,0,0,1,1.79-.27,6.17,6.17,0,0,1,1.9.28,4.15,4.15,0,0,1,1.43.76,3.27,3.27,0,0,1,.91,1.13,3,3,0,0,1,.32,1.39h-1.94a1.61,1.61,0,0,0-.19-.72,2.22,2.22,0,0,0-.53-.62,2.8,2.8,0,0,0-.82-.45,3.31,3.31,0,0,0-1.08-.16,4,4,0,0,0-1.09.13,2.4,2.4,0,0,0-.77.37,1.5,1.5,0,0,0-.47.54,1.28,1.28,0,0,0-.16.63,1.43,1.43,0,0,0,.12.6,1.25,1.25,0,0,0,.45.47,3.15,3.15,0,0,0,.82.38,9.71,9.71,0,0,0,1.32.33,15.87,15.87,0,0,1,1.89.51,5.54,5.54,0,0,1,1.4.69,2.89,2.89,0,0,1,.87,1,2.5,2.5,0,0,1,.3,1.24,2.77,2.77,0,0,1-.34,1.38,3.13,3.13,0,0,1-1,1.06,4.39,4.39,0,0,1-1.46.69,6.86,6.86,0,0,1-1.86.24,6.3,6.3,0,0,1-2.07-.31,4.7,4.7,0,0,1-1.52-.83,3.31,3.31,0,0,1-1-1.18,3.13,3.13,0,0,1-.33-1.4h1.95a2.05,2.05,0,0,0,.32,1,2.32,2.32,0,0,0,.7.66,2.76,2.76,0,0,0,.92.36,4.85,4.85,0,0,0,1,.1,4.5,4.5,0,0,0,1.35-.18,2.39,2.39,0,0,0,.91-.51,1.51,1.51,0,0,0,.31-.45,1.25,1.25,0,0,0,.1-.51A1.33,1.33,0,0,0,862.78,88.67Z"/><path class="cls-3" d="M875.73,88.67a1.4,1.4,0,0,0-.47-.51,3.61,3.61,0,0,0-.86-.43,9.79,9.79,0,0,0-1.34-.35,13.09,13.09,0,0,1-1.78-.48,5.56,5.56,0,0,1-1.38-.69,2.88,2.88,0,0,1-.89-.92,2.38,2.38,0,0,1-.32-1.24,2.7,2.7,0,0,1,.33-1.3,3.4,3.4,0,0,1,.92-1.06,4.5,4.5,0,0,1,1.4-.71,5.71,5.71,0,0,1,1.8-.27A6.15,6.15,0,0,1,875,81a4.3,4.3,0,0,1,1.44.76,3.52,3.52,0,0,1,.91,1.13,3.15,3.15,0,0,1,.32,1.39h-2a1.49,1.49,0,0,0-.19-.72,2.06,2.06,0,0,0-.53-.62,2.62,2.62,0,0,0-.81-.45,3.31,3.31,0,0,0-1.08-.16,3.92,3.92,0,0,0-1.09.13,2.46,2.46,0,0,0-.78.37,1.5,1.5,0,0,0-.47.54,1.38,1.38,0,0,0,0,1.23,1.15,1.15,0,0,0,.44.47,3.08,3.08,0,0,0,.83.38,9,9,0,0,0,1.32.33,16.21,16.21,0,0,1,1.88.51,5.22,5.22,0,0,1,1.4.69,2.89,2.89,0,0,1,.87,1,2.5,2.5,0,0,1,.3,1.24,2.77,2.77,0,0,1-.34,1.38,3.21,3.21,0,0,1-1,1.06,4.54,4.54,0,0,1-1.47.69,6.81,6.81,0,0,1-1.86.24,6.24,6.24,0,0,1-2.06-.31,4.65,4.65,0,0,1-1.53-.83,3.38,3.38,0,0,1-1-1.18,3,3,0,0,1-.34-1.4h2a2.16,2.16,0,0,0,.32,1,2.32,2.32,0,0,0,.7.66,2.85,2.85,0,0,0,.92.36,4.92,4.92,0,0,0,1,.1,4.62,4.62,0,0,0,1.36-.18,2.34,2.34,0,0,0,.9-.51,1.35,1.35,0,0,0,.31-.45,1.26,1.26,0,0,0,.11-.51A1.46,1.46,0,0,0,875.73,88.67Z"/><path class="cls-3" d="M884.06,92.12a5,5,0,0,1-2.83-2.9,5.82,5.82,0,0,1-.4-2.2v-.44a6.44,6.44,0,0,1,.44-2.47,5.64,5.64,0,0,1,1.18-1.85,5.11,5.11,0,0,1,1.66-1.15,4.88,4.88,0,0,1,1.91-.4,5.12,5.12,0,0,1,2.15.43,4.19,4.19,0,0,1,1.53,1.18,5.1,5.1,0,0,1,.92,1.78,7.77,7.77,0,0,1,.3,2.21v.87h-8.15v.08a4.82,4.82,0,0,0,.34,1.46,3.55,3.55,0,0,0,.71,1.12,3.46,3.46,0,0,0,1.11.81,3.61,3.61,0,0,0,1.45.29,3.93,3.93,0,0,0,3.2-1.54l1.19.93a5,5,0,0,1-1.7,1.53,5.4,5.4,0,0,1-2.8.67A5.87,5.87,0,0,1,884.06,92.12Zm.84-9.59a3,3,0,0,0-.95.63,3.86,3.86,0,0,0-.71,1,4.78,4.78,0,0,0-.4,1.4H889v-.09a3.75,3.75,0,0,0-.2-1.14,3.34,3.34,0,0,0-.56-1,2.66,2.66,0,0,0-.9-.72,2.86,2.86,0,0,0-1.29-.27A3,3,0,0,0,884.9,82.53Z"/><path class="cls-3" d="M895.13,82a2.57,2.57,0,0,1,.91-.94,2.74,2.74,0,0,1,1.36-.35,3.41,3.41,0,0,1,.82.1,2.5,2.5,0,0,1,.64.29,2,2,0,0,1,.36.36.34.34,0,1,0,.63,0,2.54,2.54,0,0,1,.43-.37,2.85,2.85,0,0,1,.66-.28,3.19,3.19,0,0,1,.79-.12,3,3,0,0,1,1.07.18,2.15,2.15,0,0,1,.8.51,2.5,2.5,0,0,1,.54,1,4.72,4.72,0,0,1,.19,1.43v8.51h-1.85V83.79a2.35,2.35,0,0,0-.08-.63,1.27,1.27,0,0,0-.25-.46,1.13,1.13,0,0,0-.41-.25,2,2,0,0,0-.58-.08,1.8,1.8,0,0,0-.6.09,1.25,1.25,0,0,0-.42.26,1.22,1.22,0,0,0-.26.38,1.41,1.41,0,0,0-.13.48v8.74H897.9V83.78a2.35,2.35,0,0,0-.08-.63,1,1,0,0,0-.25-.45.85.85,0,0,0-.39-.25,1.61,1.61,0,0,0-.56-.08,1.82,1.82,0,0,0-.6.08,1.4,1.4,0,0,0-.44.22,1.55,1.55,0,0,0-.24.27,1.82,1.82,0,0,0-.16.31v9.07h-1.85V80.93h1.75Z"/><path class="cls-3" d="M916.67,88.19a7.16,7.16,0,0,1-.32,1.29,5.72,5.72,0,0,1-.74,1.41,4.17,4.17,0,0,1-1.1,1,3.89,3.89,0,0,1-1,.44,4.2,4.2,0,0,1-1.2.16,4.72,4.72,0,0,1-1.34-.18,3.9,3.9,0,0,1-1.09-.51c-.15-.12-.3-.24-.44-.37A5.66,5.66,0,0,1,909,91l-.1,1.29h-1.79V76.14h2v6a3.58,3.58,0,0,1,.54-.56,4.31,4.31,0,0,1,.63-.42,3.8,3.8,0,0,1,.93-.34,4.73,4.73,0,0,1,1.09-.12,4.22,4.22,0,0,1,1.36.21,4,4,0,0,1,1.13.55,4.2,4.2,0,0,1,.81.82,5.58,5.58,0,0,1,.63,1.07,6.32,6.32,0,0,1,.43,1.47,9.19,9.19,0,0,1,.15,1.7v.22A9.55,9.55,0,0,1,916.67,88.19Zm-1.91-2.71a5.62,5.62,0,0,0-.2-1,4.21,4.21,0,0,0-.5-1,2.24,2.24,0,0,0-.74-.73,2.67,2.67,0,0,0-.69-.3,3.12,3.12,0,0,0-.84-.1,3,3,0,0,0-.93.13,2.59,2.59,0,0,0-1.34.93,3.32,3.32,0,0,0-.44.7v5a4.19,4.19,0,0,0,.45.7,3.13,3.13,0,0,0,.59.56,2.85,2.85,0,0,0,.76.38,3.37,3.37,0,0,0,.93.13,3,3,0,0,0,.88-.12,2.21,2.21,0,0,0,.72-.36,2.51,2.51,0,0,0,.71-.74,4.1,4.1,0,0,0,.45-1,4.94,4.94,0,0,0,.2-.9,8,8,0,0,0,.06-1v-.22A7.22,7.22,0,0,0,914.76,85.48Z"/><path class="cls-3" d="M926.2,76.14v14.5h3.71v1.68h-9.54V90.64h3.88V77.84h-3.88v-1.7Z"/><path class="cls-3" d="M933.28,96.86l-.55-.11.31-1.59.52,0,.41,0a1.33,1.33,0,0,0,.73-.22,3.35,3.35,0,0,0,.6-.53,4.38,4.38,0,0,0,.43-.63c.13-.22.22-.4.29-.54l.78-1.52-4.9-10.85h2.17l3.13,7.35.51,1.38.54-1.34,2.93-7.39h2.18l-5.78,13.15a7.43,7.43,0,0,1-.51.94,5,5,0,0,1-.75.91,4.19,4.19,0,0,1-1,.71,3.12,3.12,0,0,1-1.36.28A4.12,4.12,0,0,1,933.28,96.86Z"/><polygon class="cls-2" points="681.76 67.32 681.76 39.54 600.36 39.54 600.36 73.17 612.65 73.17 612.65 102.97 769.47 102.97 769.47 67.32 681.76 67.32"/><path d="M617.75,56.83a3.53,3.53,0,0,0,1.18-.18,2.62,2.62,0,0,0,.87-.5,2.13,2.13,0,0,0,.53-.76,2.58,2.58,0,0,0,.18-1,3.25,3.25,0,0,0-.16-1.09,2.06,2.06,0,0,0-.48-.78,2,2,0,0,0-.76-.44,3.37,3.37,0,0,0-1.05-.15,2.86,2.86,0,0,0-1,.17,2.18,2.18,0,0,0-.79.48,2.1,2.1,0,0,0-.52.76,2.61,2.61,0,0,0-.18,1h-1.79a3.63,3.63,0,0,1,.31-1.5,3.74,3.74,0,0,1,.88-1.24,4.12,4.12,0,0,1,1.36-.82,5,5,0,0,1,1.76-.3,5.45,5.45,0,0,1,1.72.25,3.61,3.61,0,0,1,1.34.76,3.25,3.25,0,0,1,.86,1.24,4.31,4.31,0,0,1,.31,1.71,3.08,3.08,0,0,1-.12.83,3.19,3.19,0,0,1-.39.84,3.4,3.4,0,0,1-.67.77,3.46,3.46,0,0,1-1,.6,3.81,3.81,0,0,1,1.14.58,3.05,3.05,0,0,1,.73.8,2.9,2.9,0,0,1,.38.93,4,4,0,0,1,.11,1,4.35,4.35,0,0,1-.33,1.74,3.76,3.76,0,0,1-.94,1.28,3.94,3.94,0,0,1-1.4.8,5.55,5.55,0,0,1-1.76.27,5.45,5.45,0,0,1-1.73-.26,4,4,0,0,1-1.41-.76,3.66,3.66,0,0,1-.94-1.22,3.62,3.62,0,0,1-.35-1.64h1.77a2.48,2.48,0,0,0,.19,1,2.08,2.08,0,0,0,.53.77,2.48,2.48,0,0,0,.84.49,3.48,3.48,0,0,0,1.1.17,3.44,3.44,0,0,0,1.1-.16,2.25,2.25,0,0,0,.84-.48,2.28,2.28,0,0,0,.53-.81,3.34,3.34,0,0,0,.19-1.15,2.78,2.78,0,0,0-.22-1.13,2.28,2.28,0,0,0-.6-.8,2.73,2.73,0,0,0-.95-.47,4.61,4.61,0,0,0-1.21-.15h-1.27V56.83Z"/><path d="M630.27,65a5.05,5.05,0,0,1-1.22,1.68L627.94,66a4.19,4.19,0,0,0,.65-1.43,6.25,6.25,0,0,0,.2-1.57V61.31h1.93V63A4.77,4.77,0,0,1,630.27,65Zm-1.49-12.09a1.29,1.29,0,0,1,1-.4,1.35,1.35,0,0,1,1.06.4,1.39,1.39,0,0,1,.36,1,1.29,1.29,0,0,1-.37.95,1.35,1.35,0,0,1-1,.38,1.33,1.33,0,0,1-1-.38,1.39,1.39,0,0,1-.35-.95A1.44,1.44,0,0,1,628.78,52.87Z"/><path d="M646.45,56.4v1.77h6.74v1.19H638.33V58.17H645V56.4h-4.79V50.17h1.43v2h8.23v-2h1.43V56.4Zm4.92,4.6v5.35h-1.44V62.19H640V61Zm-1.49-7.64h-8.23v1.86h8.23Z"/><path d="M662.1,62.35a9.69,9.69,0,0,1-3.38-4.48,8.67,8.67,0,0,1-3.41,4.92l-1-1a8.46,8.46,0,0,0,3.66-7V52.9h-3.27V51.71h7.84V52.9h-3.15v1.8A7.4,7.4,0,0,0,663,61.3Zm1.72,3.06V57h-2.64V55.82h2.64V50.17h1.39V65.41Zm3.25.83V49.78h1.42V66.24Z"/><path class="cls-3" d="M628.64,81.13a3.2,3.2,0,0,1,.88.2l-.26,1.9q-.57-.12-1.08-.18a9.2,9.2,0,0,0-1.07-.06,4.28,4.28,0,0,0-1.29.18,3.08,3.08,0,0,0-1.69,1.23,3.69,3.69,0,0,0-.48.95v7.31h-2V81.27h1.85l.09,1.52v.29a5.12,5.12,0,0,1,1.67-1.48,4.47,4.47,0,0,1,2.21-.54A8.63,8.63,0,0,1,628.64,81.13Z"/><path class="cls-3" d="M635.83,92.46a4.91,4.91,0,0,1-1.72-1.15A5.2,5.2,0,0,1,633,89.56a5.82,5.82,0,0,1-.4-2.2v-.44a6.63,6.63,0,0,1,.44-2.47,5.81,5.81,0,0,1,1.18-1.85,5.18,5.18,0,0,1,1.66-1.14,4.74,4.74,0,0,1,1.91-.4,5.12,5.12,0,0,1,2.15.42,4.32,4.32,0,0,1,1.54,1.18,5.08,5.08,0,0,1,.91,1.78,7.77,7.77,0,0,1,.3,2.21v.87h-8.14v.08a5.14,5.14,0,0,0,.33,1.46,3.74,3.74,0,0,0,.71,1.12,3.39,3.39,0,0,0,1.12.81,3.53,3.53,0,0,0,1.44.29,3.93,3.93,0,0,0,3.2-1.54l1.19.93a5,5,0,0,1-1.7,1.53,5.38,5.38,0,0,1-2.8.67A5.82,5.82,0,0,1,635.83,92.46Zm.83-9.59a2.93,2.93,0,0,0-.94.63,3.64,3.64,0,0,0-.71,1,4.78,4.78,0,0,0-.41,1.4h6.13v-.09a3.75,3.75,0,0,0-.2-1.14,3.15,3.15,0,0,0-.56-1,2.66,2.66,0,0,0-.9-.72,2.86,2.86,0,0,0-1.29-.27A3.05,3.05,0,0,0,636.66,82.87Z"/><path class="cls-3" d="M645.93,81.27h1.78l.1,1.24a3.16,3.16,0,0,1,.5-.53,3.29,3.29,0,0,1,.59-.41,3.57,3.57,0,0,1,1-.38,4.79,4.79,0,0,1,1.16-.13,4.17,4.17,0,0,1,1.94.43,4.07,4.07,0,0,1,1.41,1.2,5.34,5.34,0,0,1,.86,1.83,8.74,8.74,0,0,1,.3,2.35v.22a8.38,8.38,0,0,1-.3,2.28,5.49,5.49,0,0,1-.86,1.84A4.13,4.13,0,0,1,653,92.43a4,4,0,0,1-1.91.44,4.67,4.67,0,0,1-1.21-.14,4.24,4.24,0,0,1-1-.38,6,6,0,0,1-.52-.36,4.47,4.47,0,0,1-.45-.42V97h-2Zm7.5,4a4.31,4.31,0,0,0-.57-1.33,2.82,2.82,0,0,0-1-.9,2.73,2.73,0,0,0-1.41-.34,3.22,3.22,0,0,0-.84.1,2.69,2.69,0,0,0-.69.31,2.8,2.8,0,0,0-.6.49,3.88,3.88,0,0,0-.46.66v5.48a4.13,4.13,0,0,0,.41.59,2.35,2.35,0,0,0,.53.47,3.24,3.24,0,0,0,.75.35,3.36,3.36,0,0,0,.92.12,2.72,2.72,0,0,0,1.4-.34,2.85,2.85,0,0,0,1-.92,4.27,4.27,0,0,0,.57-1.34,6.92,6.92,0,0,0,.18-1.59v-.22A6.86,6.86,0,0,0,653.43,85.28Z"/><path class="cls-3" d="M665,76.48V91h3.71v1.68h-9.54V91h3.88V78.18h-3.88v-1.7Z"/><path class="cls-3" d="M678,81.27V91h3.72v1.68h-9.54V91H676V83h-3.87V81.27Zm-2.12-3.47a.87.87,0,0,1,.25-.38.86.86,0,0,1,.35-.21,1.26,1.26,0,0,1,.49-.08,1.21,1.21,0,0,1,.48.08.93.93,0,0,1,.35.21.87.87,0,0,1,.25.37,1.28,1.28,0,0,1,.09.48,1.23,1.23,0,0,1-2.05.79,1.13,1.13,0,0,1-.29-.79A1.5,1.5,0,0,1,675.84,77.8Z"/><path class="cls-3" d="M690.66,91.12a3,3,0,0,0,.89-.47,2.43,2.43,0,0,0,.62-.7,1.8,1.8,0,0,0,.25-.88h1.84a3,3,0,0,1-.39,1.45,4.06,4.06,0,0,1-1,1.2,5.31,5.31,0,0,1-1.47.84,4.91,4.91,0,0,1-1.74.31,5.23,5.23,0,0,1-2.27-.46,4.75,4.75,0,0,1-1.61-1.25,5.46,5.46,0,0,1-1-1.81,7.4,7.4,0,0,1-.32-2.17v-.44a7.38,7.38,0,0,1,.32-2.16,5.61,5.61,0,0,1,1-1.82,4.73,4.73,0,0,1,1.61-1.24,5.23,5.23,0,0,1,2.27-.46,5.12,5.12,0,0,1,1.86.32,4.69,4.69,0,0,1,1.47.87,4.31,4.31,0,0,1,1,1.31,3.89,3.89,0,0,1,.34,1.62h-1.84a2.3,2.3,0,0,0-.23-1,2.46,2.46,0,0,0-.58-.81,2.71,2.71,0,0,0-.88-.54,2.87,2.87,0,0,0-1.1-.2,3,3,0,0,0-1.52.36,3,3,0,0,0-1,.94,4.08,4.08,0,0,0-.54,1.32,6.53,6.53,0,0,0-.16,1.46v.44a6.64,6.64,0,0,0,.16,1.48,4.08,4.08,0,0,0,.54,1.32,2.91,2.91,0,0,0,1,1,3,3,0,0,0,1.53.36A3,3,0,0,0,690.66,91.12Z"/><path class="cls-3" d="M705,92.11c0-.22-.08-.45-.1-.69a4.63,4.63,0,0,1-.66.56,4.67,4.67,0,0,1-.79.46,5.78,5.78,0,0,1-.94.32,5,5,0,0,1-1,.11,5,5,0,0,1-1.64-.26,3.86,3.86,0,0,1-1.24-.72,3,3,0,0,1-.79-1.06,3.11,3.11,0,0,1-.28-1.33,3.45,3.45,0,0,1,.37-1.64A3.32,3.32,0,0,1,699,86.68a5.17,5.17,0,0,1,1.65-.7,9.45,9.45,0,0,1,2.15-.23h2.13v-.89a2.12,2.12,0,0,0-.19-.93,2.07,2.07,0,0,0-.54-.71,2.78,2.78,0,0,0-.84-.44,4,4,0,0,0-1.13-.16,3.28,3.28,0,0,0-1,.15,2.59,2.59,0,0,0-.78.39,1.71,1.71,0,0,0-.49.58,1.53,1.53,0,0,0-.17.69h-2a2.75,2.75,0,0,1,.32-1.23,3.51,3.51,0,0,1,.9-1.08,4.69,4.69,0,0,1,1.42-.77,5.62,5.62,0,0,1,1.9-.29,6.43,6.43,0,0,1,1.8.23,4.31,4.31,0,0,1,1.44.71,3.59,3.59,0,0,1,1,1.2,3.85,3.85,0,0,1,.35,1.68v5.3a7.37,7.37,0,0,0,.1,1.2,4.93,4.93,0,0,0,.3,1.11v.17h-2A2.2,2.2,0,0,1,705,92.11ZM702.83,91a4.08,4.08,0,0,0,.9-.39,3.55,3.55,0,0,0,.7-.55,3,3,0,0,0,.46-.65V87.13h-1.81a7.72,7.72,0,0,0-1.77.18,2.79,2.79,0,0,0-1.19.53,1.72,1.72,0,0,0-.48.6,1.8,1.8,0,0,0-.16.79,2,2,0,0,0,.14.78,1.54,1.54,0,0,0,.43.61,2,2,0,0,0,.71.41,3,3,0,0,0,1,.15A3.69,3.69,0,0,0,702.83,91Z"/><path class="cls-3" d="M715.27,81.27h4.34v1.5h-4.34V89a3.1,3.1,0,0,0,.17,1.1,1.65,1.65,0,0,0,.47.68,1.56,1.56,0,0,0,.68.37,3,3,0,0,0,.81.11,4.82,4.82,0,0,0,.65,0c.23,0,.45-.05.67-.09l.59-.11.46-.1.28,1.38a2.69,2.69,0,0,1-.59.26,7.71,7.71,0,0,1-.76.18,7.91,7.91,0,0,1-.87.13c-.31,0-.61,0-.91,0a4.64,4.64,0,0,1-1.42-.21,3,3,0,0,1-1.14-.69,3.36,3.36,0,0,1-.77-1.21,5.25,5.25,0,0,1-.27-1.8V82.77h-3v-1.5h3V78.51h1.95Z"/><path class="cls-3" d="M729.73,81.27V91h3.72v1.68h-9.54V91h3.88V83h-3.88V81.27Zm-2.12-3.47a1,1,0,0,1,.25-.38.93.93,0,0,1,.35-.21,1.29,1.29,0,0,1,.49-.08,1.26,1.26,0,0,1,.49.08,1.06,1.06,0,0,1,.6.58,1.51,1.51,0,0,1,.08.48,1.17,1.17,0,1,1-2.34,0A1.5,1.5,0,0,1,727.61,77.8Z"/><path class="cls-3" d="M736.36,84.57a5.42,5.42,0,0,1,1-1.84A4.71,4.71,0,0,1,739,81.5a5,5,0,0,1,2.16-.44,5.12,5.12,0,0,1,2.18.44A4.75,4.75,0,0,1,745,82.73a5.42,5.42,0,0,1,1,1.84,7,7,0,0,1,.35,2.29v.23a7.09,7.09,0,0,1-.35,2.29,5.47,5.47,0,0,1-1,1.83,4.72,4.72,0,0,1-1.63,1.22,5.55,5.55,0,0,1-4.33,0,4.72,4.72,0,0,1-1.63-1.22,5.47,5.47,0,0,1-1-1.83,7.09,7.09,0,0,1-.36-2.29v-.23A7,7,0,0,1,736.36,84.57Zm1.79,4.13a4.11,4.11,0,0,0,.61,1.34,2.86,2.86,0,0,0,2.43,1.25A2.78,2.78,0,0,0,742.6,91a3.05,3.05,0,0,0,1-.91,4.56,4.56,0,0,0,.6-1.34,6.51,6.51,0,0,0,.2-1.61v-.23a6,6,0,0,0-.21-1.6,4.56,4.56,0,0,0-.6-1.34,3.19,3.19,0,0,0-1-.92,2.84,2.84,0,0,0-1.42-.34,2.78,2.78,0,0,0-1.41.34,3,3,0,0,0-1,.92,4.11,4.11,0,0,0-.61,1.34,6.43,6.43,0,0,0-.2,1.6v.23A6.51,6.51,0,0,0,738.15,88.7Z"/><path class="cls-3" d="M749.49,81.27h1.75l.14,1.68a5.07,5.07,0,0,1,.55-.66,3.94,3.94,0,0,1,.64-.52,4.28,4.28,0,0,1,2.36-.71,4.87,4.87,0,0,1,1.62.25,3.07,3.07,0,0,1,1.25.79,3.58,3.58,0,0,1,.8,1.36,6.36,6.36,0,0,1,.28,2v7.23h-2V85.47a4.34,4.34,0,0,0-.17-1.29,2,2,0,0,0-.5-.85,1.83,1.83,0,0,0-.81-.47,3.7,3.7,0,0,0-1.1-.15,3.22,3.22,0,0,0-1,.15,3.27,3.27,0,0,0-.86.42,3.58,3.58,0,0,0-1,1.21v8.17h-2Z"/><polygon class="cls-2" points="535.85 67.32 535.85 39.54 454.45 39.54 454.45 73.17 466.03 73.17 466.03 102.97 548.78 102.97 548.78 67.32 535.85 67.32"/><path d="M468.8,64.68V63.4l4.58-5.09c.41-.46.75-.86,1-1.21a8.44,8.44,0,0,0,.66-1,3.66,3.66,0,0,0,.36-.84,3.23,3.23,0,0,0,.1-.82,2.84,2.84,0,0,0-.17-1,2.27,2.27,0,0,0-.48-.79,2.46,2.46,0,0,0-.79-.54,2.56,2.56,0,0,0-1-.19,3.16,3.16,0,0,0-1.21.2,2.06,2.06,0,0,0-.85.57,2.37,2.37,0,0,0-.52.9,4,4,0,0,0-.17,1.18h-1.78a4.66,4.66,0,0,1,.3-1.67,4,4,0,0,1,.9-1.36,4.1,4.1,0,0,1,1.42-.94,5.57,5.57,0,0,1,3.69-.05,4,4,0,0,1,1.34.81,3.62,3.62,0,0,1,.85,1.23,4.15,4.15,0,0,1,.29,1.55,3.7,3.7,0,0,1-.21,1.23,6.31,6.31,0,0,1-.57,1.21A9.86,9.86,0,0,1,475.7,58c-.32.38-.65.77-1,1.15l-3.75,4.08h7v1.45Z"/><path d="M485.24,65A4.92,4.92,0,0,1,484,66.64l-1.1-.61a4.39,4.39,0,0,0,.65-1.43,6.25,6.25,0,0,0,.19-1.57V61.31h1.94V63A4.78,4.78,0,0,1,485.24,65Zm-1.49-12.09a1.3,1.3,0,0,1,1.05-.4,1.33,1.33,0,0,1,1.05.4,1.39,1.39,0,0,1,.36,1,1.32,1.32,0,0,1-.36.95,1.35,1.35,0,0,1-1.05.38,1.32,1.32,0,0,1-1-.38,1.39,1.39,0,0,1-.35-.95A1.44,1.44,0,0,1,483.75,52.87Z"/><path d="M501.34,59.3A7.12,7.12,0,0,1,497.17,56a7.39,7.39,0,0,1-4.29,3.71l-.78-1.13c2.13-.64,4.23-2.49,4.32-4.55h-3.73V52.83h9V54h-3.77c.09,2,2.2,3.68,4.19,4.13ZM494.76,66V60.38H505.5V66Zm.21-14.6v-1.2h4.48v1.2Zm9.1,10.16h-7.88v3.26h7.88Zm0-2.11V49.78h1.43v9.68Z"/><path d="M517.21,54.44c0,2.33-1.91,3.8-4.23,3.8s-4.23-1.47-4.23-3.78a4.25,4.25,0,0,1,8.46,0Zm-7,0a2.6,2.6,0,0,0,2.8,2.62,2.62,2.62,0,1,0,0-5.22A2.59,2.59,0,0,0,510.18,54.44Zm1,11.57V59.5h1.43v2.09h7.75V59.5h1.43V66Zm9.18-3.26h-7.75v2.09h7.75Zm0-4.15V49.78h1.43V58.6Z"/><path class="cls-3" d="M479.18,91.8a4.86,4.86,0,0,1-1.72-1.15,5.26,5.26,0,0,1-1.12-1.74,6.11,6.11,0,0,1-.4-2.21v-.44a6.63,6.63,0,0,1,.44-2.47,5.92,5.92,0,0,1,1.18-1.85,5.18,5.18,0,0,1,1.66-1.14,4.74,4.74,0,0,1,1.91-.4,5.17,5.17,0,0,1,2.16.42A4.37,4.37,0,0,1,484.82,82a5,5,0,0,1,.91,1.78A7.82,7.82,0,0,1,486,86v.87h-8.14v.08a5.14,5.14,0,0,0,.33,1.46,3.74,3.74,0,0,0,.71,1.12,3.39,3.39,0,0,0,1.12.81,3.56,3.56,0,0,0,1.44.29,4,4,0,0,0,1.86-.42,3.93,3.93,0,0,0,1.34-1.11l1.19.92a4.83,4.83,0,0,1-1.7,1.53,5.34,5.34,0,0,1-2.79.67A5.68,5.68,0,0,1,479.18,91.8Zm.84-9.59a3.15,3.15,0,0,0-.95.63,3.55,3.55,0,0,0-.71,1,5,5,0,0,0-.41,1.39h6.13v-.09a3.42,3.42,0,0,0-.2-1.13,3.27,3.27,0,0,0-.55-1.05,2.6,2.6,0,0,0-.91-.72,2.86,2.86,0,0,0-1.29-.27A3,3,0,0,0,480,82.21Z"/><path class="cls-3" d="M489.3,80.61h1.75l.13,1.68a6,6,0,0,1,.55-.66,5,5,0,0,1,.64-.52,4.44,4.44,0,0,1,1.1-.52,4.37,4.37,0,0,1,1.26-.19,4.94,4.94,0,0,1,1.63.25,3.14,3.14,0,0,1,1.25.79,3.57,3.57,0,0,1,.79,1.36,6.08,6.08,0,0,1,.28,2V92h-1.95V84.81a4.07,4.07,0,0,0-.17-1.29,1.85,1.85,0,0,0-1.31-1.32,3.66,3.66,0,0,0-1.1-.15,3.17,3.17,0,0,0-1.85.57,3.32,3.32,0,0,0-.59.54,3.6,3.6,0,0,0-.46.67V92H489.3Z"/><path class="cls-3" d="M506.85,80.61h4.34v1.5h-4.34v6.2A3.08,3.08,0,0,0,507,89.4a1.66,1.66,0,0,0,.47.69,1.68,1.68,0,0,0,.67.36,3.12,3.12,0,0,0,.82.11,4.82,4.82,0,0,0,.65,0c.23,0,.45,0,.67-.09l.59-.11.46-.1.27,1.38a2.32,2.32,0,0,1-.59.26,5.15,5.15,0,0,1-.75.18,7.91,7.91,0,0,1-.87.13c-.31,0-.61,0-.91,0a4.64,4.64,0,0,1-1.42-.21,3,3,0,0,1-1.14-.69,3.15,3.15,0,0,1-.77-1.21,5.21,5.21,0,0,1-.28-1.79v-6.2h-3v-1.5h3V77.85h2Z"/><path class="cls-3" d="M523.77,80.47a3.61,3.61,0,0,1,.88.2l-.26,1.91a9.47,9.47,0,0,0-1.08-.19,9.2,9.2,0,0,0-1.07-.06,4.28,4.28,0,0,0-1.29.18,2.88,2.88,0,0,0-1,.51,3.34,3.34,0,0,0-.68.72,4,4,0,0,0-.47,1V92h-2V80.61h1.85l.08,1.52v.29a5.22,5.22,0,0,1,1.67-1.48,4.5,4.5,0,0,1,2.22-.54A8.74,8.74,0,0,1,523.77,80.47Z"/><path class="cls-3" d="M528.4,96.54l-.56-.1.32-1.59.52,0,.41,0a1.36,1.36,0,0,0,.73-.22,3,3,0,0,0,.59-.53,3.76,3.76,0,0,0,.44-.63l.29-.54.78-1.51L527,80.61h2.18L532.32,88l.5,1.38.54-1.34,2.94-7.39h2.18L532.7,93.76a8.07,8.07,0,0,1-.51.94,4.65,4.65,0,0,1-.76.91,3.63,3.63,0,0,1-1,.71,3.06,3.06,0,0,1-1.36.28A4.11,4.11,0,0,1,528.4,96.54Z"/><polygon class="cls-2" points="327 67.32 327 39.54 245.6 39.54 245.6 73.17 257.18 73.17 257.18 102.97 402.86 102.97 402.86 67.32 327 67.32"/><path class="cls-3" d="M274.19,91.88a5,5,0,0,1-.1-.69,5.13,5.13,0,0,1-.66.56,4.81,4.81,0,0,1-.8.47,5.64,5.64,0,0,1-.93.31,4.53,4.53,0,0,1-1.06.12,4.74,4.74,0,0,1-1.64-.27,3.62,3.62,0,0,1-1.23-.71,3.07,3.07,0,0,1-.8-1.06,3.3,3.3,0,0,1-.28-1.33,3.46,3.46,0,0,1,.38-1.65,3.38,3.38,0,0,1,1.05-1.18,5.16,5.16,0,0,1,1.65-.69,9,9,0,0,1,2.16-.23h2.12v-.9a2.1,2.1,0,0,0-.19-.92,2,2,0,0,0-.53-.71,2.45,2.45,0,0,0-.85-.44,3.57,3.57,0,0,0-1.12-.16,3.35,3.35,0,0,0-1,.15,2.65,2.65,0,0,0-.77.39,1.66,1.66,0,0,0-.49.57,1.42,1.42,0,0,0-.18.69h-2a2.76,2.76,0,0,1,.33-1.22,3.38,3.38,0,0,1,.9-1.09,4.73,4.73,0,0,1,1.41-.77,5.88,5.88,0,0,1,1.9-.29,6.42,6.42,0,0,1,1.8.24,4.18,4.18,0,0,1,1.45.71,3.52,3.52,0,0,1,1,1.2,3.8,3.8,0,0,1,.34,1.67V90a7.55,7.55,0,0,0,.11,1.21,6,6,0,0,0,.29,1.11v.17h-2A1.94,1.94,0,0,1,274.19,91.88ZM272,90.8a3.52,3.52,0,0,0,.91-.39,3.41,3.41,0,0,0,.69-.55,2.5,2.5,0,0,0,.46-.65v-2.3h-1.81a7.67,7.67,0,0,0-1.76.17,3,3,0,0,0-1.2.53,1.72,1.72,0,0,0-.48.6,2,2,0,0,0-.16.79,2.21,2.21,0,0,0,.14.78,1.65,1.65,0,0,0,.43.61,1.81,1.81,0,0,0,.72.41,3,3,0,0,0,1,.15A3.62,3.62,0,0,0,272,90.8Z"/><path class="cls-3" d="M284.44,81h4.34v1.51h-4.34v6.19a2.92,2.92,0,0,0,.17,1.1,1.67,1.67,0,0,0,.46.68,1.62,1.62,0,0,0,.68.37,3.12,3.12,0,0,0,.82.1l.65,0,.66-.09.6-.11.46-.1.27,1.38a3,3,0,0,1-.59.25,5,5,0,0,1-.76.19,7.31,7.31,0,0,1-.87.12c-.3,0-.61.05-.91.05a4.58,4.58,0,0,1-1.41-.22,2.88,2.88,0,0,1-1.15-.69,3.17,3.17,0,0,1-.76-1.2,5.08,5.08,0,0,1-.28-1.8V82.55h-3V81h3V78.28h2Z"/><path class="cls-3" d="M297.38,81h4.34v1.51h-4.34v6.19a3.14,3.14,0,0,0,.17,1.1,1.78,1.78,0,0,0,.46.68,1.68,1.68,0,0,0,.68.37,3.12,3.12,0,0,0,.82.1l.65,0,.67-.09.59-.11.46-.1.27,1.38a2.75,2.75,0,0,1-.59.25,5,5,0,0,1-.76.19,7.43,7.43,0,0,1-.86.12c-.31,0-.61.05-.91.05a4.64,4.64,0,0,1-1.42-.22,2.78,2.78,0,0,1-1.14-.69,3.19,3.19,0,0,1-.77-1.2,5.32,5.32,0,0,1-.28-1.8V82.55h-3V81h3V78.28h2Z"/><path class="cls-3" d="M313,91.88a5,5,0,0,1-.1-.69,5.13,5.13,0,0,1-.66.56,4.81,4.81,0,0,1-.8.47,5.34,5.34,0,0,1-.93.31,4.47,4.47,0,0,1-1.06.12,4.64,4.64,0,0,1-1.63-.27,3.57,3.57,0,0,1-1.24-.71,3.07,3.07,0,0,1-.8-1.06,3.3,3.3,0,0,1-.28-1.33,3.46,3.46,0,0,1,.38-1.65A3.32,3.32,0,0,1,307,86.45a5,5,0,0,1,1.64-.69,9,9,0,0,1,2.16-.23h2.13v-.9a2.26,2.26,0,0,0-.19-.92,2.1,2.1,0,0,0-.54-.71,2.45,2.45,0,0,0-.85-.44,3.57,3.57,0,0,0-1.12-.16,3.35,3.35,0,0,0-1,.15,2.65,2.65,0,0,0-.77.39,1.66,1.66,0,0,0-.49.57,1.42,1.42,0,0,0-.18.69h-1.95a2.62,2.62,0,0,1,.32-1.22,3.38,3.38,0,0,1,.9-1.09,4.86,4.86,0,0,1,1.41-.77,5.88,5.88,0,0,1,1.9-.29,6.55,6.55,0,0,1,1.81.24,4.22,4.22,0,0,1,1.44.71,3.52,3.52,0,0,1,.95,1.2,3.8,3.8,0,0,1,.34,1.67V90a7.55,7.55,0,0,0,.11,1.21,6,6,0,0,0,.29,1.11v.17h-2A1.94,1.94,0,0,1,313,91.88Zm-2.2-1.08a3.52,3.52,0,0,0,.91-.39,3.41,3.41,0,0,0,.69-.55,2.81,2.81,0,0,0,.47-.65v-2.3h-1.82a7.67,7.67,0,0,0-1.76.17,3,3,0,0,0-1.2.53,1.59,1.59,0,0,0-.47.6,1.83,1.83,0,0,0-.17.79,2.21,2.21,0,0,0,.14.78,1.65,1.65,0,0,0,.43.61,1.81,1.81,0,0,0,.72.41,3,3,0,0,0,1,.15A3.62,3.62,0,0,0,310.82,90.8Z"/><path class="cls-3" d="M324.54,90.9a2.83,2.83,0,0,0,.89-.48,2.22,2.22,0,0,0,.63-.7,1.78,1.78,0,0,0,.24-.87h1.85a3,3,0,0,1-.4,1.44,4.23,4.23,0,0,1-1,1.21,5.17,5.17,0,0,1-1.47.84,5.1,5.1,0,0,1-1.74.31,5.15,5.15,0,0,1-2.26-.47,4.46,4.46,0,0,1-1.61-1.25,5,5,0,0,1-1-1.81,7,7,0,0,1-.33-2.16v-.44a7.07,7.07,0,0,1,.33-2.16,5.08,5.08,0,0,1,1-1.82,4.57,4.57,0,0,1,1.61-1.25,5.15,5.15,0,0,1,2.26-.46,5.26,5.26,0,0,1,1.86.32,4.85,4.85,0,0,1,1.47.87,3.94,3.94,0,0,1,1,1.32,3.83,3.83,0,0,1,.35,1.62H326.3a2.38,2.38,0,0,0-.22-1,2.72,2.72,0,0,0-.59-.8,2.63,2.63,0,0,0-.88-.55,3,3,0,0,0-1.1-.2,3,3,0,0,0-1.52.36,3.13,3.13,0,0,0-1,.95,4.12,4.12,0,0,0-.54,1.31,6.69,6.69,0,0,0-.16,1.47V87a6.71,6.71,0,0,0,.16,1.48,3.94,3.94,0,0,0,.54,1.31,2.83,2.83,0,0,0,2.52,1.32A3.27,3.27,0,0,0,324.54,90.9Z"/><path class="cls-3" d="M334.06,82.1a4.77,4.77,0,0,1,.6-.51,3.8,3.8,0,0,1,1.12-.56,4.47,4.47,0,0,1,1.29-.2,4.87,4.87,0,0,1,1.62.26,3.09,3.09,0,0,1,1.25.8,3.71,3.71,0,0,1,.8,1.39,6.48,6.48,0,0,1,.28,2v7.18h-1.95v-7.2a4.16,4.16,0,0,0-.16-1.18,2.31,2.31,0,0,0-.46-.85,2,2,0,0,0-.83-.55,3.31,3.31,0,0,0-1.13-.18,3.27,3.27,0,0,0-1,.15,3.4,3.4,0,0,0-.88.42,3.86,3.86,0,0,0-.58.49,3.66,3.66,0,0,0-.48.62v8.28H331.6V76.26h1.95v6.48A3.59,3.59,0,0,1,334.06,82.1Z"/><path class="cls-3" d="M345.49,82.12a2.57,2.57,0,0,1,.91-.94,2.68,2.68,0,0,1,1.37-.35,2.9,2.9,0,0,1,.81.1,2.09,2.09,0,0,1,.64.29,2,2,0,0,1,.36.36,2,2,0,0,1,.28.47,2.86,2.86,0,0,1,.78-.82,2.79,2.79,0,0,1,.66-.28,3.07,3.07,0,0,1,1.86,0,2.29,2.29,0,0,1,.8.51,2.63,2.63,0,0,1,.55,1,5,5,0,0,1,.19,1.43v8.51h-1.86V83.91a2.49,2.49,0,0,0-.08-.64,1.37,1.37,0,0,0-.24-.45,1,1,0,0,0-.42-.25,1.66,1.66,0,0,0-.57-.09,1.71,1.71,0,0,0-.6.1,1.39,1.39,0,0,0-.43.25,1.16,1.16,0,0,0-.26.39,1.71,1.71,0,0,0-.12.47v8.75h-1.86V83.9a2.12,2.12,0,0,0-.08-.64,1,1,0,0,0-.25-.45,1,1,0,0,0-.39-.25,1.82,1.82,0,0,0-.55-.08,2.2,2.2,0,0,0-.61.08,1.41,1.41,0,0,0-.44.23,1.13,1.13,0,0,0-.23.26,2,2,0,0,0-.17.32v9.07h-1.85V81h1.75Z"/><path class="cls-3" d="M360.32,92.24a5.09,5.09,0,0,1-1.73-1.15,5.28,5.28,0,0,1-1.11-1.75,5.86,5.86,0,0,1-.4-2.2V86.7a6.4,6.4,0,0,1,.44-2.47,5.54,5.54,0,0,1,1.18-1.85,5.11,5.11,0,0,1,1.66-1.15,4.74,4.74,0,0,1,1.91-.4,5,5,0,0,1,2.15.43A4.18,4.18,0,0,1,366,82.43a5.26,5.26,0,0,1,.91,1.78,7.82,7.82,0,0,1,.3,2.21v.88H359v.07a4.82,4.82,0,0,0,.33,1.46,3.51,3.51,0,0,0,.71,1.12,3.18,3.18,0,0,0,1.11.81,3.45,3.45,0,0,0,1.45.3,4,4,0,0,0,1.85-.42,4.22,4.22,0,0,0,1.35-1.12l1.19.93a5.22,5.22,0,0,1-1.7,1.53,5.5,5.5,0,0,1-2.8.67A5.82,5.82,0,0,1,360.32,92.24Zm.83-9.59a3.05,3.05,0,0,0-.95.62,3.92,3.92,0,0,0-.71,1,5,5,0,0,0-.4,1.4h6.13v-.1a3.69,3.69,0,0,0-.2-1.13,3.51,3.51,0,0,0-.56-1,2.74,2.74,0,0,0-2.19-1A2.83,2.83,0,0,0,361.15,82.65Z"/><path class="cls-3" d="M370.43,81h1.75l.14,1.69a4.38,4.38,0,0,1,.55-.66,3.47,3.47,0,0,1,.64-.52,3.84,3.84,0,0,1,1.1-.52,4.26,4.26,0,0,1,1.26-.2,4.92,4.92,0,0,1,1.62.25,3.07,3.07,0,0,1,1.25.79,3.76,3.76,0,0,1,.8,1.37,6.31,6.31,0,0,1,.27,2v7.24h-1.94v-7.2A4.31,4.31,0,0,0,377.7,84a2,2,0,0,0-.5-.85,1.94,1.94,0,0,0-.81-.48,3.7,3.7,0,0,0-1.1-.15,3.18,3.18,0,0,0-1,.16,3.59,3.59,0,0,0-.86.41,4.22,4.22,0,0,0-.58.54,3.51,3.51,0,0,0-.47.67v8.18h-1.95Z"/><path class="cls-3" d="M388,81h4.34v1.51H388v6.19a2.92,2.92,0,0,0,.17,1.1,1.67,1.67,0,0,0,.46.68,1.62,1.62,0,0,0,.68.37,3.12,3.12,0,0,0,.82.1l.65,0,.66-.09.6-.11.45-.1.28,1.38a3,3,0,0,1-.59.25,5.27,5.27,0,0,1-.76.19,7.31,7.31,0,0,1-.87.12c-.3,0-.61.05-.91.05a4.69,4.69,0,0,1-1.42-.22,2.85,2.85,0,0,1-1.14-.69,3.17,3.17,0,0,1-.76-1.2,5.08,5.08,0,0,1-.28-1.8V82.55h-3V81h3V78.28h2Z"/><path d="M262.66,64.79V53.07L259,54.46V52.84l5.29-2h.15v14Z"/><path d="M274.53,65.07a5,5,0,0,1-1.21,1.68l-1.11-.61a4.11,4.11,0,0,0,.65-1.43,6.25,6.25,0,0,0,.2-1.57V61.42H275v1.69A4.63,4.63,0,0,1,274.53,65.07ZM273.05,53a1.29,1.29,0,0,1,1-.4,1.31,1.31,0,0,1,1.05.4,1.35,1.35,0,0,1,.37,1,1.33,1.33,0,0,1-.37.95,1.36,1.36,0,0,1-1.05.39,1.32,1.32,0,0,1-1-.39,1.49,1.49,0,0,1,0-1.92Z"/><path d="M288,66.37V60.94h-6.68V59.73h14.86v1.21h-6.74v5.43Zm-4.88-8.58V50.53h1.43V53H293V50.53h1.43v7.26ZM293,54.12h-8.39V56.6H293Z"/><path d="M297.83,53.13h8.83V54.3H303c.12,2,2.07,3.63,4,4.09l-.73,1.11a7.34,7.34,0,0,1-4-3.29A7.13,7.13,0,0,1,298.15,60l-.78-1.1c2.14-.63,4.05-2.54,4.16-4.58h-3.7Zm12.4,7.59v5.63H308.8V61.91h-9.2V60.72ZM300,50.37h4.6v1.24H300Zm10.26,5.1v4.4h-1.41v-10h1.41v4.37h2.51v1.2Z"/><polygon class="cls-2" points="131.21 67.32 131.21 39.54 49.81 39.54 49.81 73.17 61.39 73.17 61.39 102.97 194.02 102.97 194.02 67.32 131.21 67.32"/><path d="M72.93,61.89a4.92,4.92,0,0,1-.88,1.74,3.75,3.75,0,0,1-1.41,1.08,4.82,4.82,0,0,1-1.91.36,4.87,4.87,0,0,1-1.92-.36,3.7,3.7,0,0,1-1.43-1.08,4.77,4.77,0,0,1-.89-1.74,8,8,0,0,1-.31-2.36V56.25a8.15,8.15,0,0,1,.31-2.37,4.77,4.77,0,0,1,.89-1.74,3.66,3.66,0,0,1,1.42-1.08,5.11,5.11,0,0,1,3.82,0,3.7,3.7,0,0,1,1.43,1.08,4.92,4.92,0,0,1,.88,1.74,8.15,8.15,0,0,1,.31,2.37v3.28A8,8,0,0,1,72.93,61.89ZM71.42,55a5.63,5.63,0,0,0-.28-1.22,2.51,2.51,0,0,0-.53-.89,2,2,0,0,0-.8-.55,3.13,3.13,0,0,0-1.1-.18,3,3,0,0,0-1.12.19,2.22,2.22,0,0,0-.82.58,3,3,0,0,0-.6,1.21,6.43,6.43,0,0,0-.2,1.73v3.31Zm0,2.93V56.69L66,60.85a4.8,4.8,0,0,0,.3,1.24,2.65,2.65,0,0,0,.58.88,2.2,2.2,0,0,0,.79.49,3.06,3.06,0,0,0,1,.17,3,3,0,0,0,1.07-.18,2.12,2.12,0,0,0,.8-.53,2.9,2.9,0,0,0,.65-1.23,6.79,6.79,0,0,0,.2-1.79Z"/><path d="M80.32,63.89a5.05,5.05,0,0,1-1.22,1.68L78,65a4.39,4.39,0,0,0,.65-1.43A6.25,6.25,0,0,0,78.84,62V60.23h1.93v1.7A4.77,4.77,0,0,1,80.32,63.89ZM78.83,51.8a1.3,1.3,0,0,1,1-.4,1.36,1.36,0,0,1,1.05.39,1.43,1.43,0,0,1,.36,1,1.34,1.34,0,0,1-.36.95,1.38,1.38,0,0,1-1.05.38,1.32,1.32,0,0,1-1-.39,1.31,1.31,0,0,1-.35-.94A1.44,1.44,0,0,1,78.83,51.8Z"/><path d="M96.35,55.17a4.45,4.45,0,0,0-8.87,0c0,2.46,1.93,4.07,4.45,4.07A4.11,4.11,0,0,0,96.35,55.17Zm-7.5,0a3.08,3.08,0,0,1,6.14,0A2.82,2.82,0,0,1,91.93,58,2.88,2.88,0,0,1,88.85,55.17Z"/><polygon points="91.27 60.81 89.84 60.81 89.84 65.89 100.97 65.89 100.97 64.7 91.27 64.7 91.27 60.81"/><rect x="99.13" y="49.98" width="1.43" height="12.01"/><path d="M108.36,54.92a8.06,8.06,0,0,0,4.12,3.89l.85-1.13c-2-.67-4.28-2.69-4.28-5.33V50.66H107.6v1.75a6.67,6.67,0,0,1-4.34,5.82l.89,1.15A8.19,8.19,0,0,0,108.36,54.92Z"/><polygon points="105.86 61.87 115.4 61.87 115.4 66.44 116.83 66.44 116.83 60.69 105.86 60.69 105.86 61.87"/><rect x="115.4" y="49.98" width="1.43" height="9.8"/><path class="cls-3" d="M78.06,92.13a5,5,0,0,1-.1-.69,5.13,5.13,0,0,1-.66.56,4.81,4.81,0,0,1-.8.47,5.34,5.34,0,0,1-.93.31,4.47,4.47,0,0,1-1.06.12,4.64,4.64,0,0,1-1.63-.27,3.57,3.57,0,0,1-1.24-.71,3.07,3.07,0,0,1-.8-1.06,3.3,3.3,0,0,1-.28-1.33,3.46,3.46,0,0,1,.38-1.65A3.32,3.32,0,0,1,72,86.7,4.8,4.8,0,0,1,73.64,86a9,9,0,0,1,2.16-.23h2.13v-.9a2.26,2.26,0,0,0-.19-.92,2.1,2.1,0,0,0-.54-.71,2.45,2.45,0,0,0-.85-.44,3.57,3.57,0,0,0-1.12-.16,3.35,3.35,0,0,0-1,.15,2.42,2.42,0,0,0-.77.39,1.66,1.66,0,0,0-.49.57,1.42,1.42,0,0,0-.18.69h-2a2.62,2.62,0,0,1,.32-1.22,3.38,3.38,0,0,1,.9-1.09,4.86,4.86,0,0,1,1.41-.77,5.88,5.88,0,0,1,1.9-.29,6.55,6.55,0,0,1,1.81.24,4.22,4.22,0,0,1,1.44.71,3.52,3.52,0,0,1,1,1.2,3.8,3.8,0,0,1,.34,1.67v5.3A7.55,7.55,0,0,0,80,91.41a6,6,0,0,0,.29,1.11v.17h-2A1.94,1.94,0,0,1,78.06,92.13Zm-2.2-1.08a3.52,3.52,0,0,0,.91-.39,3.41,3.41,0,0,0,.69-.55,2.81,2.81,0,0,0,.47-.65v-2.3H76.11a7.67,7.67,0,0,0-1.76.17,3,3,0,0,0-1.2.53,1.59,1.59,0,0,0-.47.6,1.83,1.83,0,0,0-.17.79,2.21,2.21,0,0,0,.14.78,1.65,1.65,0,0,0,.43.61,1.81,1.81,0,0,0,.72.41,3,3,0,0,0,1,.15A3.62,3.62,0,0,0,75.86,91.05Z"/><path class="cls-3" d="M82.37,81.29H84.1l1.32,7.27.24,1.63.28-1.63,1.82-7.27H89l1.81,7.27.3,1.79.29-1.79,1.26-7.27h1.73L92,92.69H90.45l-1.78-7-.3-1.77-.28,1.77-1.76,7H84.79Z"/><path class="cls-3" d="M103.94,92.13c0-.22-.07-.45-.1-.69a4.44,4.44,0,0,1-.65.56,5.25,5.25,0,0,1-.8.47,5.45,5.45,0,0,1-.94.31,4.44,4.44,0,0,1-1,.12,4.74,4.74,0,0,1-1.64-.27,3.66,3.66,0,0,1-1.24-.71,3.12,3.12,0,0,1-1.07-2.39,3.58,3.58,0,0,1,.37-1.65,3.41,3.41,0,0,1,1.06-1.18A4.94,4.94,0,0,1,99.53,86a8.92,8.92,0,0,1,2.15-.23h2.13v-.9a2.1,2.1,0,0,0-.19-.92,2,2,0,0,0-.53-.71,2.54,2.54,0,0,0-.85-.44,3.61,3.61,0,0,0-1.12-.16,3.3,3.3,0,0,0-1,.15,2.48,2.48,0,0,0-.78.39,1.63,1.63,0,0,0-.48.57,1.42,1.42,0,0,0-.18.69h-2A2.88,2.88,0,0,1,97,83.23a3.66,3.66,0,0,1,.9-1.09,4.92,4.92,0,0,1,1.42-.77,5.88,5.88,0,0,1,1.9-.29,6.42,6.42,0,0,1,1.8.24,4.18,4.18,0,0,1,1.45.71,3.37,3.37,0,0,1,.94,1.2,3.8,3.8,0,0,1,.35,1.67v5.3a7.55,7.55,0,0,0,.11,1.21,5.27,5.27,0,0,0,.29,1.11v.17h-2A2.29,2.29,0,0,1,103.94,92.13Zm-2.19-1.08a3.31,3.31,0,0,0,.9-.39,3.21,3.21,0,0,0,.7-.55,2.5,2.5,0,0,0,.46-.65v-2.3H102a7.67,7.67,0,0,0-1.76.17,3,3,0,0,0-1.2.53,1.72,1.72,0,0,0-.48.6,1.83,1.83,0,0,0-.16.79,2.21,2.21,0,0,0,.14.78,1.65,1.65,0,0,0,.43.61,1.84,1.84,0,0,0,.71.41,3,3,0,0,0,1,.15A3.69,3.69,0,0,0,101.75,91.05Z"/><path class="cls-3" d="M118.17,81.15a3.61,3.61,0,0,1,.88.2l-.26,1.91a9.35,9.35,0,0,0-1.08-.18,9.2,9.2,0,0,0-1.07-.06,4.76,4.76,0,0,0-1.3.17,3.08,3.08,0,0,0-1.69,1.23,4.28,4.28,0,0,0-.47,1v7.31h-2V81.29h1.85l.08,1.53v.28a5.34,5.34,0,0,1,1.67-1.48,4.5,4.5,0,0,1,2.22-.54A8.74,8.74,0,0,1,118.17,81.15Z"/><path class="cls-3" d="M125.36,92.49a5.09,5.09,0,0,1-1.73-1.15,5.28,5.28,0,0,1-1.11-1.75,5.86,5.86,0,0,1-.4-2.2V87a6.4,6.4,0,0,1,.44-2.47,5.54,5.54,0,0,1,1.18-1.85,5.11,5.11,0,0,1,1.66-1.15,4.74,4.74,0,0,1,1.91-.4,5,5,0,0,1,2.15.43A4.18,4.18,0,0,1,131,82.68a5.26,5.26,0,0,1,.91,1.78,7.82,7.82,0,0,1,.3,2.21v.88h-8.14v.07a4.82,4.82,0,0,0,.33,1.46,3.51,3.51,0,0,0,.71,1.12,3.32,3.32,0,0,0,1.11.81,3.45,3.45,0,0,0,1.45.3,3.86,3.86,0,0,0,1.85-.43,4.07,4.07,0,0,0,1.35-1.11l1.19.93a5.22,5.22,0,0,1-1.7,1.53,5.5,5.5,0,0,1-2.8.67A5.82,5.82,0,0,1,125.36,92.49Zm.83-9.59a3.05,3.05,0,0,0-1,.62,3.92,3.92,0,0,0-.71,1,5,5,0,0,0-.4,1.4h6.13v-.1a3.69,3.69,0,0,0-.2-1.13,3.39,3.39,0,0,0-.56-1,2.92,2.92,0,0,0-.9-.72,3.09,3.09,0,0,0-2.41,0Z"/><path class="cls-3" d="M135.47,81.29h1.75l.14,1.69a4.38,4.38,0,0,1,.55-.66,3.47,3.47,0,0,1,.64-.52,4.15,4.15,0,0,1,1.1-.53,4.62,4.62,0,0,1,1.26-.19,4.92,4.92,0,0,1,1.62.25,3.07,3.07,0,0,1,1.25.79,3.76,3.76,0,0,1,.8,1.37,6.31,6.31,0,0,1,.27,2v7.24h-1.94v-7.2a4.31,4.31,0,0,0-.17-1.28,2.08,2.08,0,0,0-.5-.86,2,2,0,0,0-.81-.47,3.7,3.7,0,0,0-1.1-.15,2.91,2.91,0,0,0-1,.16,3.59,3.59,0,0,0-.86.41,4.22,4.22,0,0,0-.58.54,3.51,3.51,0,0,0-.47.67v8.18h-1.95Z"/><path class="cls-3" d="M151.24,92.49a5.14,5.14,0,0,1-1.72-1.15,5.3,5.3,0,0,1-1.12-1.75,6.06,6.06,0,0,1-.4-2.2V87a6.4,6.4,0,0,1,.45-2.47,5.39,5.39,0,0,1,1.18-1.85,5.07,5.07,0,0,1,1.65-1.15,4.79,4.79,0,0,1,1.92-.4,5,5,0,0,1,2.15.43,4.15,4.15,0,0,1,1.53,1.17,5.09,5.09,0,0,1,.91,1.78,7.82,7.82,0,0,1,.3,2.21v.88H150v.07a5.14,5.14,0,0,0,.33,1.46A3.53,3.53,0,0,0,151,90.2a3.22,3.22,0,0,0,1.11.81,3.44,3.44,0,0,0,1.44.3,3.87,3.87,0,0,0,1.86-.43,4.07,4.07,0,0,0,1.35-1.11l1.19.93a5.22,5.22,0,0,1-1.7,1.53,5.5,5.5,0,0,1-2.8.67A5.87,5.87,0,0,1,151.24,92.49Zm.84-9.59a2.94,2.94,0,0,0-1,.62,3.69,3.69,0,0,0-.71,1A4.69,4.69,0,0,0,150,86h6.13v-.1a3.44,3.44,0,0,0-.21-1.13,3.18,3.18,0,0,0-.55-1,2.66,2.66,0,0,0-2.19-1A2.8,2.8,0,0,0,152.08,82.9Z"/><path class="cls-3" d="M168.79,89a1.29,1.29,0,0,0-.46-.51,3.44,3.44,0,0,0-.86-.43,8.83,8.83,0,0,0-1.34-.35,14.85,14.85,0,0,1-1.79-.49,6,6,0,0,1-1.37-.68,3,3,0,0,1-.9-.92,2.4,2.4,0,0,1-.31-1.24,2.67,2.67,0,0,1,.33-1.3,3.16,3.16,0,0,1,.91-1.06,4.68,4.68,0,0,1,1.41-.72,6,6,0,0,1,1.79-.26,6.18,6.18,0,0,1,1.9.27,4.52,4.52,0,0,1,1.43.76,3.49,3.49,0,0,1,.91,1.13,3.06,3.06,0,0,1,.32,1.4h-1.94a1.55,1.55,0,0,0-.19-.72,2.12,2.12,0,0,0-.53-.63,2.79,2.79,0,0,0-.82-.44,3.31,3.31,0,0,0-1.08-.17,4,4,0,0,0-1.09.14,2.21,2.21,0,0,0-.77.37,1.47,1.47,0,0,0-.47.53,1.35,1.35,0,0,0-.16.64,1.46,1.46,0,0,0,.12.6,1.33,1.33,0,0,0,.45.47,3,3,0,0,0,.82.38q.53.16,1.32.33a13.15,13.15,0,0,1,1.89.51,5.54,5.54,0,0,1,1.4.69,3,3,0,0,1,.87.94,2.54,2.54,0,0,1,.3,1.25,2.94,2.94,0,0,1-.34,1.38,3.23,3.23,0,0,1-1,1.06,4.59,4.59,0,0,1-1.46.68,6.49,6.49,0,0,1-1.86.25,6.58,6.58,0,0,1-2.07-.31,5.08,5.08,0,0,1-1.53-.83,3.48,3.48,0,0,1-1-1.18,3.16,3.16,0,0,1-.33-1.4h1.95a2,2,0,0,0,.32,1,2.1,2.1,0,0,0,.7.66,2.76,2.76,0,0,0,.92.36,4.86,4.86,0,0,0,1,.11,4.19,4.19,0,0,0,1.35-.19,2.15,2.15,0,0,0,.91-.51,1.47,1.47,0,0,0,.31-.44,1.42,1.42,0,0,0,0-1.14Z"/><path class="cls-3" d="M181.74,89a1.32,1.32,0,0,0-.47-.51,3.27,3.27,0,0,0-.86-.43,8.52,8.52,0,0,0-1.34-.35,14.18,14.18,0,0,1-1.78-.49,5.92,5.92,0,0,1-1.38-.68,3,3,0,0,1-.89-.92,2.41,2.41,0,0,1-.32-1.24,2.67,2.67,0,0,1,.33-1.3,3.28,3.28,0,0,1,.91-1.06,4.93,4.93,0,0,1,1.41-.72,6,6,0,0,1,1.8-.26,6.16,6.16,0,0,1,1.89.27,4.52,4.52,0,0,1,1.43.76,3.53,3.53,0,0,1,.92,1.13,3.19,3.19,0,0,1,.32,1.4h-2a1.44,1.44,0,0,0-.19-.72,2,2,0,0,0-.53-.63,2.61,2.61,0,0,0-.81-.44,3.31,3.31,0,0,0-1.08-.17,3.9,3.9,0,0,0-1.09.14,2.26,2.26,0,0,0-.78.37,1.47,1.47,0,0,0-.47.53,1.35,1.35,0,0,0-.16.64,1.32,1.32,0,0,0,.13.6,1.21,1.21,0,0,0,.44.47,3.08,3.08,0,0,0,.83.38,12.59,12.59,0,0,0,1.32.33,13,13,0,0,1,1.88.51,5.37,5.37,0,0,1,1.4.69,3,3,0,0,1,.87.94,2.54,2.54,0,0,1,.3,1.25,2.82,2.82,0,0,1-.34,1.38,3.31,3.31,0,0,1-.95,1.06,4.75,4.75,0,0,1-1.47.68,6.49,6.49,0,0,1-1.86.25,6.62,6.62,0,0,1-2.07-.31,4.9,4.9,0,0,1-1.52-.83,3.63,3.63,0,0,1-1-1.18,3.16,3.16,0,0,1-.33-1.4h1.95a2.08,2.08,0,0,0,.32,1,2.2,2.2,0,0,0,.7.66,2.85,2.85,0,0,0,.92.36,4.94,4.94,0,0,0,1,.11,4.3,4.3,0,0,0,1.36-.19,2.11,2.11,0,0,0,.9-.51,1.31,1.31,0,0,0,.31-.44,1.27,1.27,0,0,0,.1-.52A1.38,1.38,0,0,0,181.74,89Z"/><circle class="cls-4" cx="692.44" cy="422.16" r="41.5"/><path d="M575.4,455.55a1.62,1.62,0,0,1,1.13-2h0a1.62,1.62,0,0,1,2,1.12h0a1.62,1.62,0,0,1-1.13,2h0a1.71,1.71,0,0,1-.84,0h0A1.65,1.65,0,0,1,575.4,455.55Zm19.15-5.42a1.62,1.62,0,0,1,1.12-2h0a1.63,1.63,0,0,1,2,1.12h0a1.63,1.63,0,0,1-1.13,2h0a1.6,1.6,0,0,1-.84,0h0A1.63,1.63,0,0,1,594.55,450.13Zm19.15-5.42a1.62,1.62,0,0,1,1.12-2h0a1.63,1.63,0,0,1,2,1.12h0a1.64,1.64,0,0,1-1.11,2h0a1.76,1.76,0,0,1-.85,0h0A1.62,1.62,0,0,1,613.7,444.71Zm19.14-5.41a1.62,1.62,0,0,1,1.12-2h0a1.62,1.62,0,0,1,2,1.12h0a1.63,1.63,0,0,1-1.13,2h0a1.6,1.6,0,0,1-.84,0h0A1.61,1.61,0,0,1,632.84,439.3Z"/><path d="M557.42,462.11a1.5,1.5,0,0,1-.57-.27,1.61,1.61,0,0,1-.61-1.7,1.65,1.65,0,0,1,.75-1,1.63,1.63,0,0,1,1.53-.07l.27.16a2.29,2.29,0,0,1,.23.21,2.26,2.26,0,0,1,.2.26,1.6,1.6,0,0,1,.13.3.73.73,0,0,1,.07.29,1.22,1.22,0,0,1,0,.33,1.87,1.87,0,0,1,0,.32,1.82,1.82,0,0,1-.27.56,1.65,1.65,0,0,1-.48.43,1.39,1.39,0,0,1-.6.21A1.35,1.35,0,0,1,557.42,462.11Z"/><polygon points="557.89 452.09 546.59 463.71 562.31 467.69 557.89 452.09"/><path class="cls-4" d="M550,485.41a241.46,241.46,0,0,1-19.22,129.47C476.1,737.24,332.6,792.1,210.25,737.43S33,539.26,87.69,416.91,285.87,239.69,408.22,294.36a242,242,0,0,1,132.2,147.85"/><path class="cls-3" d="M221.57,272l-.49-1.46,7.21-6.68.67,2-5.32,4.49-.47.35h.59l6.94.28.66,2Z"/><path class="cls-3" d="M244.65,269.46l.46,1.6L236,273.67l-4.23-14.83,1.89-.54,3.76,13.23Z"/><path class="cls-3" d="M253.72,253.19l.38,1.66-3.6.83,2.7,11.71,3.6-.83.38,1.65-9.08,2.09-.38-1.65,3.52-.81-2.7-11.71-3.52.81-.38-1.66Z"/><path class="cls-3" d="M261.56,260.43l1.19,6.7-1.95.34-2.7-15.17,9.32-1.66.29,1.65-7.37,1.31.93,5.19,6.31-1.12.29,1.63Z"/><path class="cls-3" d="M274.41,258l.68,5.42,7.44-.94.21,1.65-9.39,1.18L271.43,250l9.3-1.16.2,1.66-7.35.92.62,4.92,6.38-.81.21,1.65Z"/><path class="cls-3" d="M285.88,265.45l-.12-1.59,9.69-.72.11,1.59Z"/><path class="cls-3" d="M308.11,260.1a4.94,4.94,0,0,1-1,1.55,4.65,4.65,0,0,1-1.55,1,5.58,5.58,0,0,1-2,.4,5.29,5.29,0,0,1-1.73-.23,4.64,4.64,0,0,1-1.4-.72,4.7,4.7,0,0,1-1.08-1.1,6.41,6.41,0,0,1-.76-1.39,7.59,7.59,0,0,1-.47-1.58,10.68,10.68,0,0,1-.2-1.69l-.05-2.15a12,12,0,0,1,.12-1.7,8.43,8.43,0,0,1,.4-1.61,7,7,0,0,1,.69-1.43,5.14,5.14,0,0,1,1-1.15,4.68,4.68,0,0,1,1.36-.78,5.44,5.44,0,0,1,1.73-.31,5.85,5.85,0,0,1,2.07.31,4.58,4.58,0,0,1,1.59,1,5.1,5.1,0,0,1,1.09,1.55,6.85,6.85,0,0,1,.57,2l-2,0a5.21,5.21,0,0,0-.36-1.29,3.69,3.69,0,0,0-.64-1,3,3,0,0,0-1-.69,3.28,3.28,0,0,0-1.34-.23,3.09,3.09,0,0,0-1.23.26,2.58,2.58,0,0,0-.9.64,3.13,3.13,0,0,0-.63.92,5.86,5.86,0,0,0-.4,1.11,9.39,9.39,0,0,0-.2,1.2c0,.41,0,.8,0,1.18l.05,2.17a9.89,9.89,0,0,0,.1,1.18,8.12,8.12,0,0,0,.25,1.19,6.31,6.31,0,0,0,.44,1.1,3.31,3.31,0,0,0,.67.89,2.78,2.78,0,0,0,.93.61,3.22,3.22,0,0,0,1.25.2,3.18,3.18,0,0,0,1.33-.28,2.64,2.64,0,0,0,.94-.7,3.2,3.2,0,0,0,.6-1,5.34,5.34,0,0,0,.3-1.31l2,0A6.71,6.71,0,0,1,308.11,260.1Z"/><path class="cls-3" d="M320.07,247.6l2.22.06-5.06,9.53-.2,5.74-1.82-.05.13-5.74-4.52-9.8,2.23.06,3.29,7.84Z"/><path class="cls-3" d="M334,261.31a5.24,5.24,0,0,1-1.18,1.44,4.51,4.51,0,0,1-1.65.87,5.42,5.42,0,0,1-2,.2,5.24,5.24,0,0,1-1.7-.41,4.47,4.47,0,0,1-1.32-.85,4.83,4.83,0,0,1-1-1.2,6.72,6.72,0,0,1-.61-1.46,8.11,8.11,0,0,1-.32-1.63,12,12,0,0,1,0-1.7l.17-2.15a11.91,11.91,0,0,1,.29-1.67,8,8,0,0,1,.57-1.56,6.61,6.61,0,0,1,.83-1.35,4.89,4.89,0,0,1,1.14-1,4.63,4.63,0,0,1,1.43-.64,5.22,5.22,0,0,1,1.75-.13,5.46,5.46,0,0,1,2,.52,4.5,4.5,0,0,1,1.49,1.12,5,5,0,0,1,.92,1.64,7,7,0,0,1,.37,2.05l-2-.16a5.6,5.6,0,0,0-.22-1.32,3.42,3.42,0,0,0-.54-1.1,2.74,2.74,0,0,0-.9-.79,3.2,3.2,0,0,0-1.31-.37,3.32,3.32,0,0,0-1.25.13,2.84,2.84,0,0,0-1,.55,3.49,3.49,0,0,0-.72.85,6.57,6.57,0,0,0-.51,1.07,9.18,9.18,0,0,0-.32,1.17,9.93,9.93,0,0,0-.16,1.17l-.17,2.16a11.47,11.47,0,0,0,0,1.18,8.15,8.15,0,0,0,.14,1.21,6,6,0,0,0,.32,1.14,3.3,3.3,0,0,0,.57,1,2.83,2.83,0,0,0,.87.7,3.12,3.12,0,0,0,1.22.33,3.41,3.41,0,0,0,1.35-.14,2.66,2.66,0,0,0,1-.61,3.35,3.35,0,0,0,.7-1,5.58,5.58,0,0,0,.43-1.27l2,.16A6.8,6.8,0,0,1,334,261.31Z"/><path class="cls-3" d="M347,263.94l-.22,1.65-9.41-1.23,2-15.28,1.95.25L339.56,263Z"/><path class="cls-3" d="M353.16,259.44l-1,5.37,7.38,1.35-.3,1.64L350,266.09l2.77-15.16,9.22,1.69-.3,1.64-7.29-1.33-.89,4.87,6.33,1.16-.3,1.63Z"/><path class="cls-3" d="M377,263.63a5.48,5.48,0,0,1,1.51-1.49,4.87,4.87,0,0,1,1.91-.73,5.12,5.12,0,0,1,2.21.17,5.34,5.34,0,0,1,2,1,4.82,4.82,0,0,1,1.23,1.65,5.51,5.51,0,0,1,.48,2.06,7.27,7.27,0,0,1-.3,2.31l-.06.22a7,7,0,0,1-1,2.11,5.41,5.41,0,0,1-1.5,1.48,4.57,4.57,0,0,1-1.91.72,5.12,5.12,0,0,1-2.21-.17,5.2,5.2,0,0,1-2-1,4.54,4.54,0,0,1-1.23-1.63,5.37,5.37,0,0,1-.48-2.06A7,7,0,0,1,376,266l.07-.22A7.06,7.06,0,0,1,377,263.63Zm.58,4.49a3.86,3.86,0,0,0,.21,1.46,3,3,0,0,0,.72,1.17,2.92,2.92,0,0,0,1.28.72,2.78,2.78,0,0,0,1.45.07,3,3,0,0,0,1.24-.6,4.26,4.26,0,0,0,.95-1.13,6.06,6.06,0,0,0,.65-1.49l.06-.23a5.85,5.85,0,0,0,.25-1.59,4.36,4.36,0,0,0-.21-1.47,3.2,3.2,0,0,0-.72-1.17,3.1,3.1,0,0,0-2.73-.79,3,3,0,0,0-1.23.6,4.26,4.26,0,0,0-1,1.13,6,6,0,0,0-.64,1.49l-.07.22A6.49,6.49,0,0,0,377.59,268.12Z"/><path class="cls-3" d="M393.23,266.7l-3-1,.5-1.43,3,1,.26-.76a5.22,5.22,0,0,1,.94-1.72,3.79,3.79,0,0,1,1.32-1,3.87,3.87,0,0,1,1.61-.34,5.63,5.63,0,0,1,1.83.33,5.92,5.92,0,0,1,.77.32l.74.38.46.28.47.3-.75,1.46a7.71,7.71,0,0,0-.87-.58,7.86,7.86,0,0,0-1.13-.51,4.1,4.1,0,0,0-1.17-.23,2.19,2.19,0,0,0-1,.19,2.13,2.13,0,0,0-.8.65,4.13,4.13,0,0,0-.59,1.13l-.26.76,4.18,1.44-.5,1.44-4.17-1.44-3.24,9.39L390,276.1Z"/><path class="cls-3" d="M416.63,269.82l1.9.88-1.75,11.87-.12.77.54-.6,7.91-9,1.89.88-10.87,11.95-1.55-.72Z"/><path class="cls-3" d="M438.17,280.41l-.79,1.51-3.27-1.71-5.58,10.63,3.27,1.72-.79,1.5-8.25-4.33.79-1.5,3.19,1.68,5.59-10.64-3.2-1.68.79-1.51Z"/><path class="cls-3" d="M439,291.38l-3.2,5.41-1.68-1L442,282.53l3.89,2.3a7.39,7.39,0,0,1,1.6,1.3,5,5,0,0,1,1,1.59,3.9,3.9,0,0,1,.23,1.8,4.44,4.44,0,0,1-.68,2,4,4,0,0,1-.88,1.08,4.27,4.27,0,0,1-1.09.67,4.41,4.41,0,0,1-1.25.31,5.48,5.48,0,0,1-1.34,0l-.53,7.34-.08.1-1.77-1.05.59-6.95Zm3.08-.05a3.82,3.82,0,0,0,1.17.45,3.09,3.09,0,0,0,1.17,0,2.75,2.75,0,0,0,1.05-.43,2.85,2.85,0,0,0,.85-.93,3.27,3.27,0,0,0,.45-1.25,2.62,2.62,0,0,0-.11-1.15,2.81,2.81,0,0,0-.6-1,4.24,4.24,0,0,0-1-.84l-2.22-1.31-3,5.08Z"/><path class="cls-3" d="M455.88,303.55a5.46,5.46,0,0,1-1.43,1.48,5.34,5.34,0,0,1-1.78.79,4.86,4.86,0,0,1-1.94.06,5.15,5.15,0,0,1-1.91-.78,5.07,5.07,0,0,1-1.49-1.46,4.79,4.79,0,0,1-.7-1.8,5.08,5.08,0,0,1,.05-1.94,5.63,5.63,0,0,1,.8-1.9l5.78-8.7,1.55,1-5.72,8.73a4.51,4.51,0,0,0-.55,1.23,3.4,3.4,0,0,0-.12,1.26,2.84,2.84,0,0,0,1.31,2.16,2.87,2.87,0,0,0,1.27.49,2.75,2.75,0,0,0,1.24-.13,3.42,3.42,0,0,0,1.1-.61,5,5,0,0,0,.92-1l5.78-8.69,1.58,1Z"/><path class="cls-3" d="M465,310a2.91,2.91,0,0,0-.18-1.16,5.31,5.31,0,0,0-.57-1.11c-.24-.36-.47-.69-.7-1q-.5-.71-1-1.5a7.74,7.74,0,0,1-.69-1.64,4.46,4.46,0,0,1-.16-1.7,3.26,3.26,0,0,1,.67-1.65,3.59,3.59,0,0,1,1.41-1.18,4.43,4.43,0,0,1,1.71-.38,5.27,5.27,0,0,1,1.78.29,6.16,6.16,0,0,1,1.63.85,5.73,5.73,0,0,1,1.36,1.42A5.34,5.34,0,0,1,471,303a4.66,4.66,0,0,1,.07,1.86,4.59,4.59,0,0,1-.77,1.82l-1.62-1.2a4.34,4.34,0,0,0,.45-1.17,2.93,2.93,0,0,0,0-1.14,2.84,2.84,0,0,0-.41-1.05,3.36,3.36,0,0,0-.89-.92,3.63,3.63,0,0,0-1-.52,2.77,2.77,0,0,0-1.05-.18,2.29,2.29,0,0,0-1,.23,2.19,2.19,0,0,0-.84.72,2,2,0,0,0-.4,1.11,2.75,2.75,0,0,0,.21,1.12,5.21,5.21,0,0,0,.56,1.07c.23.35.46.67.67,1a14.92,14.92,0,0,1,1,1.53,6.43,6.43,0,0,1,.7,1.7,4.21,4.21,0,0,1,.12,1.73,3.66,3.66,0,0,1-.73,1.72,3.49,3.49,0,0,1-1.44,1.18,4.25,4.25,0,0,1-1.72.33,5.19,5.19,0,0,1-1.79-.36,6.8,6.8,0,0,1-1.64-.88,6.35,6.35,0,0,1-1.52-1.58,5.42,5.42,0,0,1-.86-2,4.7,4.7,0,0,1,0-1.79,4.22,4.22,0,0,1,.72-1.72l1.61,1.19a3.73,3.73,0,0,0-.44,1.26,3.06,3.06,0,0,0,.06,1.21,3.1,3.1,0,0,0,.51,1.11,4.3,4.3,0,0,0,1,.94,4.37,4.37,0,0,0,1,.56,3.09,3.09,0,0,0,1.06.22,2.4,2.4,0,0,0,1-.19A2.36,2.36,0,0,0,465,310Z"/><path class="cls-3" d="M468.62,314l6.94,2.34.6.26-.36-.56-3.7-6.3,1.28-1.57,4.71,9-1,1.19-9.78-2.81Z"/><path class="cls-3" d="M555.36,572,568,574.88l-.6-4.27,1.74.4.89,6.18,0,.16-15-3.43Z"/><path class="cls-3" d="M426.58,739.46l.63,1.26-2,7.28c-.18.65-.32,1.21-.42,1.7a7.39,7.39,0,0,0-.17,1.29,4,4,0,0,0,.06,1,3.25,3.25,0,0,0,.3.86,2.92,2.92,0,0,0,.65.88,2.57,2.57,0,0,0,.86.55,2.76,2.76,0,0,0,1,.14,2.8,2.8,0,0,0,1.11-.32,3.52,3.52,0,0,0,1.1-.8,2.43,2.43,0,0,0,.62-2.12,4.29,4.29,0,0,0-.41-1.24l1.76-.88a5.09,5.09,0,0,1,.52,1.79,4.5,4.5,0,0,1-.21,1.79,4.79,4.79,0,0,1-.94,1.62,5.48,5.48,0,0,1-1.72,1.28,5.55,5.55,0,0,1-1.9.59,4.24,4.24,0,0,1-1.72-.14,3.82,3.82,0,0,1-1.43-.8,4.28,4.28,0,0,1-1.05-1.38,4,4,0,0,1-.4-1.32,7.15,7.15,0,0,1,0-1.47,13.09,13.09,0,0,1,.25-1.57c.12-.54.26-1.09.42-1.64l1.7-5.86-6.92,3.45-.72-1.43Z"/><path class="cls-3" d="M203.47,754.61a3.91,3.91,0,0,0-1.28-.35,3,3,0,0,0-1.1.11,2.29,2.29,0,0,0-.87.53,2.73,2.73,0,0,0-.62.89,3.59,3.59,0,0,0-.33,1.17,2.09,2.09,0,0,0,.7,1.79,3.74,3.74,0,0,0,1,.62,3.15,3.15,0,0,0,1.12.29,2.26,2.26,0,0,0,1-.13A2.32,2.32,0,0,0,204,759a2.94,2.94,0,0,0,.63-.91l1.79.81a4.12,4.12,0,0,1-1,1.37,4,4,0,0,1-1.44.84,4.68,4.68,0,0,1-1.74.22,5.62,5.62,0,0,1-1.91-.49,6.45,6.45,0,0,1-1.61-1,4.16,4.16,0,0,1-1-1.36,3.61,3.61,0,0,1-.31-1.64,4.79,4.79,0,0,1,.46-1.86,3.32,3.32,0,0,1,.5-.78,3.27,3.27,0,0,1,.76-.67,4,4,0,0,1,1-.48,3.9,3.9,0,0,1,1.25-.16,4.26,4.26,0,0,1-.88-1.09,3.41,3.41,0,0,1-.38-1.14,3.45,3.45,0,0,1,0-1.11,4.85,4.85,0,0,1,.32-1,4.7,4.7,0,0,1,1.13-1.6,3.88,3.88,0,0,1,1.51-.86,4.22,4.22,0,0,1,1.78-.17,5.8,5.8,0,0,1,1.88.51,6.31,6.31,0,0,1,1.63,1,4.55,4.55,0,0,1,1.07,1.4,3.86,3.86,0,0,1,.4,1.65,4.12,4.12,0,0,1-.38,1.81l-1.79-.8a2.89,2.89,0,0,0,.26-1.09,2.3,2.3,0,0,0-.19-1,2.45,2.45,0,0,0-.62-.87,3.6,3.6,0,0,0-1-.67,4,4,0,0,0-1.17-.34,2.33,2.33,0,0,0-1.06.12,2.4,2.4,0,0,0-.91.57,3.61,3.61,0,0,0-.7,1.07,3,3,0,0,0-.29,1.23,2.4,2.4,0,0,0,.24,1.07,3,3,0,0,0,.74.9,5,5,0,0,0,1.16.7l1.27.58-.65,1.44Z"/><path class="cls-3" d="M59.29,578.56l1.54-.42.57,2.07,3.45-.94.52,1.89-3.46.94,1.85,6.79-1.11.3-12.12-3.85-.55-2,9.88-2.7Zm1.08,4-7.36,2,.65.15,8,2.53Z"/><path class="cls-3" d="M88.89,363.63l4.58-6.45,1.55,1.1-3.62,5.11,3.09,2.73a5.72,5.72,0,0,1,.26-1.16,5.17,5.17,0,0,1,2.1-2.67,4.19,4.19,0,0,1,1.68-.57,4.79,4.79,0,0,1,1.85.2,7.33,7.33,0,0,1,3.41,2.39,4.59,4.59,0,0,1,.8,1.67,4.13,4.13,0,0,1,0,1.85,5.46,5.46,0,0,1-.92,2,6,6,0,0,1-1.25,1.3,4.5,4.5,0,0,1-1.5.75,4.24,4.24,0,0,1-1.71.1,5,5,0,0,1-1.83-.66l1.08-1.52a3.09,3.09,0,0,0,2.18.37,3,3,0,0,0,1.73-1.26,2.89,2.89,0,0,0,.51-1.16,2.49,2.49,0,0,0-.06-1.15,3,3,0,0,0-.58-1.09,5.31,5.31,0,0,0-1.06-1,4.36,4.36,0,0,0-1.22-.61,3.12,3.12,0,0,0-1.24-.14,2.82,2.82,0,0,0-1.14.36,3.15,3.15,0,0,0-1,.92,5.47,5.47,0,0,0-.43.73,2.91,2.91,0,0,0-.21.63,3.26,3.26,0,0,0-.06.62c0,.2,0,.42,0,.65l-1.23,1Z"/><path class="cls-3" d="M697.09,426.59a5.54,5.54,0,0,1-1,1.91,4.22,4.22,0,0,1-1.56,1.19,5.36,5.36,0,0,1-2.11.4,5.21,5.21,0,0,1-2.1-.4,4,4,0,0,1-1.58-1.19,5.4,5.4,0,0,1-1-1.91,9.4,9.4,0,0,1-.33-2.61v-3.61a9.4,9.4,0,0,1,.33-2.61,5.45,5.45,0,0,1,1-1.92,4.07,4.07,0,0,1,1.56-1.19,5.61,5.61,0,0,1,4.21,0,4.21,4.21,0,0,1,1.58,1.19,5.59,5.59,0,0,1,1,1.92,9,9,0,0,1,.34,2.61V424A9,9,0,0,1,697.09,426.59ZM695.42,419a6.12,6.12,0,0,0-.3-1.35,2.88,2.88,0,0,0-.59-1,2.3,2.3,0,0,0-.89-.6,3.45,3.45,0,0,0-1.21-.2,3.14,3.14,0,0,0-1.23.22,2.33,2.33,0,0,0-.91.63,3.46,3.46,0,0,0-.66,1.33,7.77,7.77,0,0,0-.22,1.91v3.65Zm0,3.23v-1.35l-6,4.58a4.75,4.75,0,0,0,.34,1.36,2.81,2.81,0,0,0,.63,1,2.29,2.29,0,0,0,.87.54,3.17,3.17,0,0,0,1.14.19,3.37,3.37,0,0,0,1.19-.2,2.55,2.55,0,0,0,.88-.58,3.2,3.2,0,0,0,.71-1.36,7.61,7.61,0,0,0,.23-2Z"/></g></g></svg>