<svg xmlns="http://www.w3.org/2000/svg" viewBox="0 0 156.05 92.97"><g id="레이어_2" data-name="레이어 2"><g id="그래픽"><path d="M.79,3.42V3.07L6,0V.64L1.56,3.24,6,5.75v.64ZM7.63,3h4.2v.6H7.63ZM6.1,22.16A2.73,2.73,0,0,1,3.25,24.9a2.73,2.73,0,1,1,0-5.45A2.71,2.71,0,0,1,6.1,22.16Zm-5,0a2.12,2.12,0,0,0,2.19,2.11,2.11,2.11,0,1,0,0-4.21A2.12,2.12,0,0,0,1.06,22.16ZM2,29.46V26.1h.69v2.76h6.8v.6Zm6.5-2.64v-8.1h.69v8.1Zm2.67,1.47v-.6H21.21v.6Zm9.19-3.21a7.53,7.53,0,0,1-4.17-3.38A6.73,6.73,0,0,1,12,25l-.36-.55c1.82-.41,4.17-2.27,4.17-4v-.76h.71v.76c0,1.74,2.47,3.59,4.21,4Zm3.07,1.34A30.59,30.59,0,0,0,28.81,26l.08.63a36.3,36.3,0,0,1-5.2.42h-1V19.82h5.18v.6H23.4v2.51h4.12v.6H23.4Zm7.27-3.15h1.9v.6h-1.9v6H30V18.72h.7Zm2.55,4.9v-.6H43.29v.6ZM41.85,20a35.68,35.68,0,0,1-.57,6.57l-.7-.11a32.33,32.33,0,0,0,.53-5.85H34.27V20Zm8,4.39a25.48,25.48,0,0,1-4.09.36h-.9v-3h3.43V20.14H44.8v-.6H49v2.85H45.53v1.78a23.72,23.72,0,0,0,4.2-.36Zm-3.4,5.27V26h7.2v3.7Zm6.52-3.1H47.11v2.5h5.83Zm0-1.23v-3H51.27v2.85h-.69V18.92h.69v2.87H52.9V18.72h.71v6.65Zm2.4,2.92v-.6H65.37v.6Zm5-3c-2.35,0-3.91-1.09-3.91-2.77s1.56-2.77,3.91-2.77,3.92,1.1,3.92,2.77S62.67,25.26,60.32,25.26Zm0-4.92c-1.94,0-3.18.94-3.18,2.15s1.24,2.16,3.18,2.16,3.19-.94,3.19-2.16S62.28,20.34,60.32,20.34Zm6,8.08v-.6H71V25.63H67.69V22.24h6.63v-2H67.7v-.61H75v3.21H68.39V25h7v.6H71.71v2.19h4.7v.6Zm14.79-8.56H87v.6H84.39v.89a4,4,0,0,0,2.77,3.31l-.38.57A5.43,5.43,0,0,1,84,22.64a5.73,5.73,0,0,1-2.9,2.89L80.74,25c1.4-.57,3-2.16,3-3.67v-.88H81.13Zm1.57,9.6V26.08h.69v2.76H90v.62Zm6.41-2.57V22.54H86.85v-.62h2.26v-3.2h.69v8.17Zm8.4-4.95a2.77,2.77,0,1,1-2.76-2.58A2.58,2.58,0,0,1,97.51,21.94Zm-4.83,0a2,2,0,0,0,2.07,2,2,2,0,1,0,0-3.94A2,2,0,0,0,92.68,21.94Zm1.13,7.77V25.77h7v3.94Zm6.36-3.33H94.51V29.1h5.66ZM97.83,20.3h2.32V18.72h.69v6.49h-.69V23.49H97.83v-.56h2.32V20.87H97.83ZM110.4,27c-.86.09-2.35.19-3.79.27s-2.68.1-3.51.12l-.13-.66c.75,0,2.11,0,3.52-.08s3.14-.17,3.85-.25Zm-1.17-4.81a2.89,2.89,0,1,1-2.86-2.53A2.64,2.64,0,0,1,109.23,22.19Zm-5,0a2,2,0,0,0,2.14,1.9,1.9,1.9,0,0,0,2.14-1.89,1.92,1.92,0,0,0-2.14-1.91A2,2,0,0,0,104.23,22.19Zm7.62-3.47V29.88h-.7V18.72Zm11,.68c-.34,2.75-2.25,4.44-5.07,5.38l-.4-.57c2.71-.82,4.29-2.37,4.65-4.22H118V19.4Zm-3.64,10.4V27.1h6.38V25.68h-6.47v-.59h7.16v2.59H119.9v1.54h6.83v.58ZM123,20.5h2.57V18.72h.69v5.72h-.69V23.06h-2.67v-.59h2.67V21.08H123ZM135.3,27c-1.09.16-2.62.28-3.59.34-1.12.05-2.53.09-3.5.09l-.15-.66c.51,0,1.78,0,2.59,0V23.28h.7v3.48a36.58,36.58,0,0,0,3.87-.36Zm-1-7a27.27,27.27,0,0,1-.38,4.91l-.67-.09a23.06,23.06,0,0,0,.33-4.21h-4.92V20Zm2.42,4v5.81H136V18.72h.7v4.75h1.9v.6Zm2.56.54v-.56h10.07v.56Zm1.27,5V27.25h6.8v-1h-6.83v-.6h7.52v2.2h-6.81V29h7.22v.6Zm.07-6.62V20.76h6.68v-1h-6.7v-.6H148v2.21h-6.69v1h6.88V23ZM.26,46.59a5.51,5.51,0,0,1,5.62-5.81,4.27,4.27,0,0,1,4.58,4.4c0,2.37-1.11,3.75-2.89,3.75-.84,0-1.29-.29-1.42-.78H6.08a2,2,0,0,1-1.53.77c-1.12,0-1.78-.77-1.78-2.06,0-2.15,1-3.55,2.66-3.55a1.93,1.93,0,0,1,1.35.48h.06l.07-.37H8.05l-.76,4c-.07.38,0,.67.48.67,1.06,0,1.68-1,1.68-2.83a3.29,3.29,0,0,0-3.61-3.61c-3,0-4.57,2.17-4.57,4.92,0,2.46,1.37,3.91,4.08,3.91A10,10,0,0,0,8.22,50v.74a7.3,7.3,0,0,1-2.88.59C2.15,51.31.26,49.59.26,46.59Zm5.81.88.51-2.86a1.49,1.49,0,0,0-1.09-.39C4.39,44.22,4,45.31,4,46.85c0,.76.32,1.17.87,1.17A1.74,1.74,0,0,0,6.07,47.47Zm9.41.26H11.54v-.84l4.24-6.16h1v6h1.35v1H16.74v1.78H15.48Zm0-1V42.94l-2.58,3.77ZM18.41,50h4.26v.83H18.41Zm5.16-9.88h1.26v9.31H23.57Zm2.6,6.2v-.22c0-2.07,1.23-3.31,3-3.31s3,1.21,3,3.28v.18c0,2.07-1.23,3.3-3,3.3S26.17,48.36,26.17,46.33Zm4.73.06V46c0-1.71-.77-2.23-1.72-2.23s-1.71.76-1.71,2.18v.35c0,1.73.78,2.23,1.75,2.23S30.9,47.82,30.9,46.39Zm2.6-3.45h1.21v.56h.06A4,4,0,0,1,37,42.8c1.27,0,1.88.53,1.88,1.79v4.85H37.57V44.89c0-.72-.22-1-1.19-1a4.12,4.12,0,0,0-1.62.41v5.15H33.5Zm6.59,3.33V46.1c0-2.24,1.34-3.3,2.92-3.3,1.83,0,2.68,1.07,2.68,3.12v.61h-4.3c.08,1.49.81,2,2.08,2a4.33,4.33,0,0,0,2-.48v.89a3.85,3.85,0,0,1-2.24.63C41.15,49.56,40.09,48.31,40.09,46.27Zm1.3-.66h3c0-1.31-.5-1.81-1.43-1.81C42.26,43.8,41.48,44.16,41.39,45.61ZM47,40.13h1.25v9.31H47Zm2.64,11v-.87a2.65,2.65,0,0,0,.62.07c.61,0,1.07,0,1.26-.55l.27-.72-2.48-6.15h1.34l1.77,4.55h0l1.63-4.55h1.23L52.71,50c-.44,1.22-1,1.35-2.18,1.35A2.09,2.09,0,0,1,49.66,51.16ZM55.54,50h4.25v.83H55.54ZM60,49.93c0-.69.56-1.12,1.21-1.35v-.06c-.37-.13-.65-.28-.65-.72a1.45,1.45,0,0,1,.74-1.19A1.83,1.83,0,0,1,60.5,45v-.12c0-1.35,1.06-2.11,2.53-2.11a4.41,4.41,0,0,1,1,.11h2.2v.9h-1a1.56,1.56,0,0,1,.35,1.06V45c0,1.36-1.09,2-2.51,2A3.92,3.92,0,0,1,62,46.87a.67.67,0,0,0-.26.47c0,.33.18.36.6.36H64.1c1.22,0,2.09.43,2.09,1.69s-.94,1.94-3.19,1.94C61,51.33,60,50.9,60,49.93Zm4.86-.35c0-.54-.3-.76-1.07-.76H62.06a1,1,0,0,0-.75.93c0,.51.48.65,1.66.65C64.39,50.4,64.88,50.2,64.88,49.58ZM64.29,45v-.18c0-.81-.49-1.15-1.27-1.15s-1.27.4-1.27,1.13V45c0,.77.5,1.13,1.27,1.13S64.29,45.78,64.29,45Zm2.56,1.3v-.22c0-2.07,1.22-3.31,3-3.31s3,1.21,3,3.28v.18c0,2.07-1.23,3.3-3,3.3S66.85,48.36,66.85,46.33Zm4.73.06V46c0-1.71-.77-2.23-1.72-2.23s-1.71.76-1.71,2.18v.35c0,1.73.78,2.23,1.75,2.23S71.58,47.82,71.58,46.39Zm2.57,1.27V42.94h1.26v4.49c0,.77.26,1.07,1.14,1.07a3.76,3.76,0,0,0,1.59-.42V42.94h1.25v6.5H78.32l-.13-.56h-.06a3.34,3.34,0,0,1-2,.68A1.73,1.73,0,0,1,74.15,47.66Zm6.93-4.72h1.21v.73h.06a2.39,2.39,0,0,1,1.74-.82,1.27,1.27,0,0,1,.41.06V44a3.16,3.16,0,0,0-2.16.43v5H81.08Zm4.51,0h1.22v.56h.06a3.59,3.59,0,0,1,2-.7,1.62,1.62,0,0,1,1.53.74h.06a4.07,4.07,0,0,1,2.18-.74,1.59,1.59,0,0,1,1.8,1.79v4.85H93.17V44.89c0-.72-.27-1-1.08-1a3.44,3.44,0,0,0-1.48.42c0,.11,0,.21,0,.34v4.8H89.38V44.89c0-.72-.26-1-1.06-1a3.31,3.31,0,0,0-1.47.41v5.15H85.59ZM95.7,46.27V46.1c0-2.24,1.34-3.3,2.91-3.3,1.84,0,2.69,1.07,2.69,3.12v.61H97c.09,1.49.82,2,2.09,2a4.36,4.36,0,0,0,2-.48v.89a3.89,3.89,0,0,1-2.25.63C96.75,49.56,95.7,48.31,95.7,46.27ZM97,45.61h3c0-1.31-.49-1.81-1.43-1.81C97.87,43.8,97.09,44.16,97,45.61Zm6,2.27V43.94h-.93v-1H103V41.4h1.26v1.54h1.57v1h-1.57V47.7c0,.58.19.8.9.8a5.29,5.29,0,0,0,.8-.08v.84a2.53,2.53,0,0,1-1.16.25C103.73,49.51,103,49.06,103,47.88Zm7.18-2.27v-.56h10.08v.56Zm1.28,5V48.25h6.8v-1h-6.83v-.6H119v2.2h-6.81V50h7.22v.6Zm.07-6.62V41.76h6.68v-1h-6.71v-.6h7.4v2.21h-6.68v1h6.88V44Zm14.82,3.37a17.69,17.69,0,0,0,3.52-.31l.09.6a20,20,0,0,1-4.26.33h-.59V41.12h4.22v.6h-3.52V44h3.39v.6h-3.39v2.71Zm6.91,3.53v-6h-1.78v5.33h-.7V40h.7v4.29h1.78V39.72H134V50.88Zm2.36-1.71v-.6h10.08v.6ZM144.27,41a34.83,34.83,0,0,1-.58,6.57L143,47.5a32.33,32.33,0,0,0,.53-5.85h-6.84V41Zm2.42,2v-.6h5.59V43Zm2.86,5.1a2.12,2.12,0,0,1-2.28-2.1,2.29,2.29,0,1,1,2.28,2.1Zm0-3.6a1.5,1.5,0,1,0,0,3A1.5,1.5,0,0,0,151.16,46,1.49,1.49,0,0,0,149.55,44.54Zm-1.48-3.26v-.61H151v.61Zm7.29,9.6V45.07h-1.67v5.21H153V40h.69v4.45h1.67V39.72h.69V50.88ZM.6,66.45V61.3h.7v1.9H4.88V61.3h.7v5.15ZM4.88,63.8H1.3v2H4.88Zm.19,8.06c-2.29,0-3.67-.81-3.67-2.11s1.38-2.11,3.67-2.11,3.7.81,3.7,2.11S7.36,71.86,5.07,71.86ZM2.13,69.75c0,.93,1.13,1.49,2.94,1.49s3-.56,3-1.49-1.16-1.5-3-1.5S2.13,68.82,2.13,69.75ZM8.59,64.4v3h-.7V60.72h.7V63.8h1.76v.6Zm3.85,7.33V69.28h6.73v-1H12.41v-.59h3.4V66.59H11.14V66H21.21v.6h-4.7v1.08h3.34v2.21H13.14v1.25h7.18v.6Zm7.83-6.32c-1.59-.24-3.54-.86-4.1-1.91-.52,1.09-2.35,1.68-4,1.93l-.32-.57c1.76-.22,3.6-.8,4-1.92H12.26v-.6h7.81v.6H16.59c.4,1.12,2.41,1.69,4,1.89ZM14.43,61.5v-.6h3.49v.6ZM22.15,64v-.6h6.54V64Zm3.35,5.38a2.27,2.27,0,1,1,0-4.5,2.27,2.27,0,1,1,0,4.5Zm0-3.9a1.66,1.66,0,1,0,0,3.3,1.66,1.66,0,1,0,0-3.3Zm-1.73-3.34v-.61H27v.61Zm6.9,3.93v5.77H30V60.72h.7v4.8h1.89v.59Zm3.12.74V61.78h5v5.07Zm4.27-4.47H34.49v3.87h3.57Zm-2.88,9.08V68.07h.69v2.77h6.65v.62Zm4-8.12v-.6h2.37v-2h.69v8.1h-.69v-3H39.22v-.6h2.37V63.34Zm14.15.82a2.79,2.79,0,1,1-2.78-2.66A2.66,2.66,0,0,1,53.37,64.16Zm-4.88,0a2,2,0,0,0,2.1,2,2,2,0,1,0,0-4.06A2,2,0,0,0,48.49,64.16Zm1.09,7.3V68h.7v2.87h6.63v.6Zm4.27-7v-.61H56V60.72h.69v8.14H56V64.5Zm7.71-3c1.62,0,2.7,1.52,2.7,3.91s-1.08,3.89-2.7,3.89-2.7-1.53-2.7-3.91S59.94,61.54,61.56,61.54Zm0,.62c-1.2,0-2,1.4-2,3.29s.78,3.27,2,3.27,2-1.41,2-3.27S62.76,62.16,61.56,62.16Zm3.26,3.55v-.6H67V60.72h.69V71.88H67V65.71Zm5.27-3.85h5.85v.6H73.35v.89a4,4,0,0,0,2.77,3.31l-.38.57A5.43,5.43,0,0,1,73,64.64a5.73,5.73,0,0,1-2.9,2.89L69.7,67c1.4-.57,3-2.16,3-3.67v-.88H70.09Zm1.57,9.6V68.08h.69v2.76H79v.62Zm6.41-2.57V64.54H75.81v-.62h2.26v-3.2h.69v8.17Zm8.4-5a2.77,2.77,0,1,1-2.76-2.58A2.58,2.58,0,0,1,86.47,63.94Zm-4.83,0a2,2,0,0,0,2.07,2,2,2,0,1,0,0-3.94A2,2,0,0,0,81.64,63.94Zm1.13,7.77V67.77h7v3.94Zm6.36-3.33H83.47V71.1h5.66ZM86.79,62.3h2.32V60.72h.69v6.49h-.69V65.49H86.79v-.56h2.32V62.87H86.79ZM95.6,69v-7.3h.7v2.88h3.59V61.73h.69V69Zm4.29-3.82H96.3v3.22h3.59Zm3.74.7v6h-.7V60.72h.7v4.61h1.89v.58Zm5.81-4.3c1.62,0,2.7,1.52,2.7,3.91s-1.08,3.9-2.7,3.9-2.7-1.54-2.7-3.91S107.82,61.61,109.44,61.61Zm0,.62c-1.2,0-2,1.41-2,3.29s.78,3.27,2,3.27,2-1.41,2-3.27S110.64,62.23,109.44,62.23Zm5.1,9.65V60.72h.69V71.88Zm9-3.12a38.79,38.79,0,0,1-4.71.36h-1.16V65h4.2V62.39h-4.2v-.6h4.89v3.76h-4.19v2.94a36.27,36.27,0,0,0,5.11-.36Zm2,3.12V65.79h-2.27v-.6h2.27V60.72h.68V71.88Zm2.68-1.59v-.6h10.07v.6Zm9.2-3.21a7.52,7.52,0,0,1-4.18-3.38A6.73,6.73,0,0,1,129.12,67l-.36-.55c1.82-.41,4.17-2.27,4.17-4v-.76h.71v.76c0,1.74,2.47,3.59,4.21,4Zm7.41-5.14a8.58,8.58,0,0,1-5,7.63l-.42-.55a7.9,7.9,0,0,0,4.67-6.48h-4.31v-.6Zm2.92,3.55h1.92v.6h-1.92v5.79h-.7V60.72h.7ZM5.24,90a7.14,7.14,0,0,1-2.33-3.44A6.39,6.39,0,0,1,.5,90.31L0,89.75A5.94,5.94,0,0,0,2.54,84.9v-2h.71v2a5.86,5.86,0,0,0,2.46,4.61Zm3.54,2.85V87H7.05v5.31H6.34V82h.71v4.37H8.78V81.72h.69V92.88Zm2.36-1.46v-.6h4.67V88.63H12.49V85.24h6.63v-2H12.5v-.61h7.32v3.21H13.19V88h7v.6H16.51v2.19h4.7v.6Zm15.74-.93V88.13h-4.7v-.6H32.25v.6H27.56v2.36Zm.33-4.18c-2.46,0-3.79-.8-3.79-2.09s1.33-2.12,3.79-2.12S31,82.92,31,84.22,29.67,86.31,27.21,86.31Zm-3.68,6.17v-3h.68v2.44H31v.61Zm3.68-9.76c-1.92,0-3.07.58-3.07,1.5s1.15,1.48,3.07,1.48,3.1-.57,3.1-1.48S29.13,82.72,27.21,82.72Zm14.07,6.73V87.69h-4.7v-.61H46.65v.61H42v1.76h3.39V93h-.69V90h-7v-.59Zm4.45-3.51a6.21,6.21,0,0,1-4.12-2.62,5.61,5.61,0,0,1-4,2.64l-.36-.59c1.87-.21,4.07-1.62,4.07-3.12v-.4H42v.4c0,1.51,2.35,2.88,4.1,3.09Zm6.56,6.94V88.8H47.62v-.6H57.69v.6H53v4.08ZM56.79,87c-2.06-.4-3.68-1.54-4.14-2.52-.39,1-1.94,2.14-4.07,2.52l-.35-.6c1.88-.22,4.08-1.43,4.08-3v-.2H48.66v-.6h8v.6H53v.2c0,1.56,2.44,2.76,4.13,3Zm1.87.62v-.56H68.73v.56Zm1.27,5V90.25h6.8v-1H59.9v-.6h7.52v2.2H60.61V92h7.22v.6ZM60,86V83.76h6.68v-1H60v-.6h7.4v2.21H60.69v1h6.88V86Zm19,2a5.1,5.1,0,0,1-2.76-2.35,5,5,0,0,1-2.87,2.66l-.39-.56c1.58-.52,2.91-1.91,2.91-3.18V84.4H73.3v-.6h5.78v.6H76.55v.14c0,1.22,1.51,2.57,2.81,2.85Zm2.76,1v.6H78.57c.21,1,1.87,2.47,3.79,2.72l-.37.58a5.93,5.93,0,0,1-3.8-2.57,5.15,5.15,0,0,1-3.79,2.56L74,92.3c2.08-.29,3.58-1.62,3.78-2.71H74.57V89Zm-7-6.32v-.61h3v.61Zm6.85,2.82V88.4h-.7V81.72h.7v3.17h1.76v.6Zm5.52-2.89c1.62,0,2.7,1.52,2.7,3.91s-1.08,3.89-2.7,3.89-2.7-1.53-2.7-3.91S85.45,82.6,87.07,82.6Zm0,.62c-1.2,0-2,1.4-2,3.29s.78,3.27,2,3.27,2-1.41,2-3.27S88.27,83.22,87.07,83.22Zm5.52,3.69v6h-.7V81.72h.7v4.59h1.92v.6Zm8-4.43c-.25,2.88-2.26,4.45-5.15,5.37l-.35-.61c2.39-.58,4.47-2.18,4.71-4.16H95.6v-.6ZM96.73,92.72V88.27h.7v1.57h5.5V88.23h.7v4.49Zm6.2-2.28h-5.5v1.68h5.5Zm.7-5.19V87.6h-.7V81.72h.7v2.93h1.76v.6Zm9.54,4.12a31.53,31.53,0,0,1-5.19.53h-1V83h.7V89.3a27,27,0,0,0,5.45-.55Zm1.93,3.51h-.7V81.72h.7Zm4.08-3.48a28.39,28.39,0,0,0,4.66-.37l.08.58a31,31,0,0,1-4.82.4h-1.36V82.87h5.07v.6h-4.37V89.4Zm6.53-3.13h1.9v.6h-1.9v6H125V81.72h.7Zm2.67,4.49h.82v.8h-.82Z"/></g></g></svg>