<svg xmlns="http://www.w3.org/2000/svg" viewBox="0 0 462.91 232.98"><defs><style>.cls-1{fill:lime;}.cls-1,.cls-2{stroke:#000;stroke-miterlimit:10;stroke-width:0.3px;}.cls-2{fill:none;}</style></defs><g id="레이어_2" data-name="레이어 2"><g id="그래픽"><rect class="cls-1" x="129.11" y="125.27" width="333.65" height="45.58" transform="translate(591.87 296.13) rotate(180)"/><path d="M151.4,139.31c3.34,0,5.3,2.9,5.3,7.32s-2,7.27-5.3,7.27-5.32-2.89-5.32-7.29S148.06,139.31,151.4,139.31Zm0,2c-1.76,0-3,2-3,5.34s1.21,5.35,3,5.35,3-2,3-5.35S153.18,141.27,151.4,141.27Zm8.82,17.27V137.68h2.4v20.86Z"/><path d="M176.3,139.35c-.22,5.63-3.78,9.48-9.26,11.27l-1.3-2c4-.9,7.48-3.85,8-7.31h-6.93v-2Zm6.5,19.43c-2.84-.55-5.9-2.66-6.87-4.55-.79,1.93-3.85,4-6.86,4.53l-1.15-1.9c3.37-.37,6.82-2.77,6.82-5.74v-.77h2.49v.77c0,3,3.54,5.24,6.73,5.77Zm-2.34-7.28v-6.14h-4.11v-2h4.11v-5.7h2.4V151.5Z"/><path d="M191.88,139.31c3.34,0,5.3,2.9,5.3,7.32s-2,7.27-5.3,7.27-5.32-2.89-5.32-7.29S188.54,139.31,191.88,139.31Zm0,2c-1.76,0-3,2-3,5.34s1.21,5.35,3,5.35,3-2,3-5.35S193.66,141.27,191.88,141.27Zm8.82,17.27V137.68h2.4v20.86Z"/><path d="M215.31,144.17l-2,1.34-.82-1.47,2.16-1-2.16-1,.82-1.48,2,1.33-.09-2.47h1.67l-.08,2.47,2-1.33.83,1.48-2.13,1,2.13,1-.83,1.47-2-1.34.08,2.49h-1.67Z"/><path d="M231.08,149.47c-3.19,0-5.37-2.11-5.37-5.08a5.37,5.37,0,1,1,5.37,5.08Zm0-8.2a3.09,3.09,0,0,0,0,6.18,2.89,2.89,0,0,0,2.95-3.08A2.84,2.84,0,0,0,231.08,141.27Zm-2.15,16.67v-6.55h2.39V156H243v1.93ZM237,145.36v-2h3.09v-5.68h2.39v15.16h-2.39v-7.48Z"/><path d="M251.08,139.13c3.39,0,5.32,3,5.32,7.44s-1.93,7.39-5.32,7.39-5.3-3-5.3-7.41S247.74,139.13,251.08,139.13Zm0,1.94c-1.72,0-3,2.15-3,5.5s1.23,5.48,3,5.48,3-2.16,3-5.48S252.86,141.07,251.08,141.07Zm9.29,17.47V147.45h-3.2v-2h3.2v-7.79h2.42v20.86Z"/><path d="M271.8,149.43c-3.19,0-5.36-2.11-5.36-5.08a5.36,5.36,0,1,1,5.36,5.08Zm0-8.21a3.09,3.09,0,0,0,0,6.18,2.89,2.89,0,0,0,2.95-3.08A2.85,2.85,0,0,0,271.8,141.22Zm-2.59,16.72v-6.55h2.4V156h11.88v1.93Zm11.39-5.12V137.68H283v15.14Z"/><path d="M296.8,139.88c-.16,6.47-3.33,11.46-9.33,14.74l-1.5-1.83a13.77,13.77,0,0,0,8.25-10.93h-7v-2Zm5.47,7.94v10.72h-2.39V137.68h2.39v8.14h3.11v2Z"/><path d="M308.72,150c0-1.63.83-2.27,2.4-3.52a3.75,3.75,0,0,0,1.38-3.13c0-1.61-1-2.18-2.77-2.18a8.29,8.29,0,0,0-3.1.57v-1.8a8.85,8.85,0,0,1,3.72-.7c2.55,0,4.66,1.12,4.66,4,0,2-.68,3.08-2.37,4.49-1.15.9-1.76,1.36-1.76,2.46v1h-2.16Zm-.18,3.47h2.58V156h-2.58Z"/><path d="M326,144.17l-2,1.34-.82-1.47,2.16-1-2.16-1,.82-1.48,2,1.33-.09-2.47h1.68l-.09,2.47,2-1.33.83,1.48-2.13,1,2.13,1-.83,1.47-2-1.34.09,2.49h-1.68Z"/><path d="M342,139.31c3.35,0,5.31,2.9,5.31,7.32s-2,7.27-5.31,7.27-5.32-2.89-5.32-7.29S338.66,139.31,342,139.31Zm0,2c-1.76,0-3,2-3,5.34s1.21,5.35,3,5.35,3-2,3-5.35S343.79,141.27,342,141.27Zm8.83,17.27V137.68h2.4v20.86Z"/><path d="M367.13,153.17h-9.79V139.7h9.79Zm-2.42-11.55h-5v9.61h5Zm6.36,16.92V137.68h2.39v20.86Z"/><path d="M388.18,153.5c-2-1.08-4.49-3.74-5.15-5.9a11.06,11.06,0,0,1-5.12,6.34l-1.54-1.76a10.39,10.39,0,0,0,5.41-9.4v-1h-4.36v-1.89h11.09v1.89h-4.24v1a10,10,0,0,0,5.3,9Zm3.15,5V137.68h2.4v20.86Z"/><path d="M402.74,149.43c-3.19,0-5.36-2.11-5.36-5.08a5.36,5.36,0,1,1,5.36,5.08Zm0-8.21a3.09,3.09,0,0,0,0,6.18,2.89,2.89,0,0,0,2.95-3.08A2.85,2.85,0,0,0,402.74,141.22Zm-2.59,16.72v-6.55h2.4V156h11.88v1.93Zm11.4-5.12V137.68h2.39v15.14Z"/><path d="M427.74,139.88c-.16,6.47-3.33,11.46-9.33,14.74l-1.5-1.83a13.77,13.77,0,0,0,8.25-10.93h-7v-2Zm5.48,7.94v10.72h-2.4V137.68h2.4v8.14h3.1v2Z"/><path d="M439.66,150c0-1.63.84-2.27,2.4-3.52a3.75,3.75,0,0,0,1.38-3.13c0-1.61-1-2.18-2.77-2.18a8.33,8.33,0,0,0-3.1.57v-1.8a8.88,8.88,0,0,1,3.72-.7c2.55,0,4.66,1.12,4.66,4,0,2-.68,3.08-2.37,4.49-1.15.9-1.76,1.36-1.76,2.46v1h-2.16Zm-.18,3.47h2.58V156h-2.58Z"/><path d="M163,199.14a10.76,10.76,0,0,1-3.88-4.8,10.35,10.35,0,0,1-3.84,5.23l-.68-.77c2-1.18,4.06-4.11,4.06-6.58v-2.83h.94v2.82c0,2.61,2.09,5.15,4,6.16Zm2.86,3.71V188h.93v14.88Z"/><path d="M177.46,195.82a34.36,34.36,0,0,1-4.72.31H170V192h5.54v-2.29H170v-.8h6.49v3.89h-5.54v2.58h1.81a31.1,31.1,0,0,0,4.62-.31Zm4,2.21V203h-.92v-4.15h-9.09V198Zm-.92-.84v-2.87h-3v-.77h3v-2.43h-3v-.77h3V188h.93v9.22Z"/><path d="M190.24,194.56v3.57a23.57,23.57,0,0,0,5.31-.43l.13.81a28.38,28.38,0,0,1-6.37.48v-9.18h5.4v.8h-4.47v3.15h3.65v.8Zm4.64-.16v-.8h2.34v-5.25h.93v13.7h-.93V194.4Zm5.3,8.45V188h.93v14.88Z"/><path d="M203.31,200.74v-.8h13.45v.8Zm12.28-4.29c-2.77-.93-5.11-3.23-5.57-4.51-.39,1.26-2.61,3.58-5.56,4.46l-.48-.74c2.44-.54,5.57-3,5.57-5.34v-1h.95v1c0,2.32,3.29,4.78,5.62,5.36Z"/><path d="M218,200.91v-.8h13.45v.8Zm2.74-7.37v2.69h9v.8h-9.92v-7.54h9.76v.8h-8.83v2.46h8.42v.79Z"/><path d="M232.75,195.82v-.75H246.2v.75Zm1.7,6.66v-3.13h9.07V198h-9.11v-.8h10v2.93h-9.09v1.53H245v.8Zm.09-8.83v-3h8.92v-1.35h-9v-.8h9.88v3h-8.92v1.36h9.17v.8Z"/><path d="M259.14,194.27V196h6.26v.82H252V196h6.27v-1.73h-4.46v-5.46h9.76v.8h-8.83v1.46h8.38v.8h-8.38v1.6h8.91v.8Zm-.47,8.55c-3.28,0-5.1-1-5.1-2.54s1.82-2.57,5.1-2.57,5.12,1,5.12,2.57S262,202.82,258.67,202.82Zm0-4.29c-2.56,0-4.14.69-4.14,1.75s1.58,1.72,4.14,1.72,4.18-.67,4.18-1.72S261.23,198.53,258.67,198.53Z"/><path d="M266.69,192.4v-.8h7.46v.8Zm3.82,6.8a2.83,2.83,0,0,1-3-2.8,3.05,3.05,0,1,1,3,2.8Zm0-4.8a2,2,0,1,0,0,4,2,2,0,0,0,2.15-2A2,2,0,0,0,270.51,194.4Zm-2-4.35v-.82h3.92v.82Zm9.73,12.8V195.1H276v7h-.92v-13.7H276v5.94h2.23V188h.93v14.88Z"/><path d="M286.67,196.15v-7.3h.93v2.83h4.56v-2.83h.93v7.3Zm5.49-3.67H287.6v2.86h4.56Zm.93,10.39c-3.12,0-5-1.07-5-2.79s1.88-2.78,5-2.78,5,1,5,2.78S296.21,202.87,293.09,202.87Zm-4-2.79c0,1.2,1.55,2,4,2s4.05-.76,4.05-2-1.59-2-4.05-2S289.07,198.87,289.07,200.08Zm8.9-2.7H297v-3.11h-3.1v-.8H297V191.1h-3.1v-.8H297V188H298Z"/><path d="M304.75,198.59v-2.73c-1.34.08-2.62.09-4.05.13l-.22-.87c1.81,0,3.34-.05,4.94-.1s3.14-.16,4.66-.32l.08.76c-.89.11-2.77.22-4.48.33v2.8Zm.51-4.46c-2.24,0-3.69-1.06-3.69-2.68s1.45-2.73,3.69-2.73,3.69,1.12,3.69,2.72S307.44,194.13,305.26,194.13Zm0-4.58c-1.6,0-2.75.72-2.75,1.89s1.22,1.86,2.75,1.86,2.74-.69,2.74-1.86S306.9,189.55,305.26,189.55Zm-2.59,12.93v-4.22h.93v3.42H313v.8Zm9-3.18v-1.68h-3v-.82h3V188h.93V199.3Z"/><path d="M319.5,192.7v1a6,6,0,0,0,3.28,5.15l-.59.75a7.43,7.43,0,0,1-3.15-4,7.54,7.54,0,0,1-3.17,4.37l-.61-.64a6.9,6.9,0,0,0,3.27-5.6v-1h-3v-.8h7v.8Zm-2.43-3.34H321v.83h-3.92Zm4.37,5.86v-.8h2.5v-6.07h.93v13.7h-.93v-6.83Zm5.46,7.63V188h.93v14.88Z"/><path d="M336.56,193.94h2.16v-5.69h1V202.1h-1v-7.36h-2.16c-.1,2.88-1.23,4.53-3.09,4.53s-3.12-1.81-3.12-5,1.15-4.95,3.12-4.95S336.48,191,336.56,193.94Zm-3.09-3.77c-1.31,0-2.18,1.52-2.18,4.15s.87,4.15,2.18,4.15,2.16-1.53,2.16-4.15S334.77,190.17,333.47,190.17Zm8.13,12.68V188h.95v14.88Z"/><path d="M356.4,195.84V200h6.27v.82H349.23V200h6.24v-4.13H351v-6.48h.93V195h9.14v.82Z"/><path d="M365.69,202.66v-3.27h9V198h-9v-.8h4.54v-1.44H364V195H377.4v.8h-6.28v1.44h4.47v3h-9v1.67h9.59v.8Zm10.46-8.44c-2.13-.32-4.74-1.15-5.48-2.54-.7,1.46-3.14,2.24-5.39,2.58l-.43-.77c2.35-.29,4.8-1.07,5.28-2.56h-4.68v-.8h10.42v.8h-4.64c.53,1.49,3.22,2.25,5.35,2.53Zm-7.8-5.21v-.8H373v.8Z"/><path d="M384,195.26v3.49c1.76-.08,3.62-.24,4.47-.35l.06.8c-1,.11-3,.29-4.78.39s-4,.14-4.82.14l-.16-.9c1,0,2.56,0,4.3,0v-3.53H380V189.5h7.39v.8h-6.46v4.16h6.59v.8Zm5.8,7.59V188h.93v14.88Z"/><path d="M393.39,196.64v-.82h13.44v.82Zm1.9-3.1v-5.06h.93v4.26h9v.8Zm0,8.93v-4.31h.93v3.51h9v.8Z"/><path d="M414.14,195.18H415a29.06,29.06,0,0,0,6-.48l.11.82a33.25,33.25,0,0,1-6.29.48h-1.57v-6.63h6.52v.8h-5.59Zm.77,7.13v-4.45h.91v3.63h8.79v.82Zm9-9.11v5.59H423V188h.93v4.43h2.35v.8Z"/><path d="M433.62,189.89c-.16,4.4-2.33,7.39-5.7,9.6l-.66-.75a10.24,10.24,0,0,0,5.36-8.05H428v-.8Zm2.51,12.16v-5.3h-2.74V196h2.74v-3h-2.48v-.8h2.48v-3.83h.93v13.7Zm2.77.8V188h.93v14.88Z"/><path d="M442,200.91v-.8h6.24v-2.92h-4.43v-4.53h8.85V190h-8.84v-.81h9.77v4.29h-8.85v2.93h9.3v.8H449.2v2.92h6.27v.8Z"/><path d="M0,229.06v-9.75H.93v3.84H5.71v-3.84h.93v9.75ZM5.71,224H.93v4.31H5.71Zm5,1v7.95H9.78V218h.93v6.14h2.53v.79Z"/><path d="M18.45,219.15c2.16,0,3.6,2,3.6,5.22s-1.44,5.2-3.6,5.2-3.6-2-3.6-5.22S16.29,219.15,18.45,219.15Zm0,.83c-1.6,0-2.64,1.88-2.64,4.39s1,4.37,2.64,4.37,2.64-1.89,2.64-4.37S20.05,220,18.45,220Zm6.8,12.87V218h.93v14.88Z"/><path d="M37.25,228.69a50.21,50.21,0,0,1-6.27.48c-.52,0-1,0-1.56,0v-5.57H35v-3.43H29.42v-.8H36v5h-5.6v3.92a49.32,49.32,0,0,0,6.82-.48ZM40,232.85v-8.11H37v-.8h3v-6h.91v14.88Z"/><path d="M43.54,230.74v-.8H57v.8Zm12.27-4.29c-2.77-.93-5.1-3.23-5.57-4.51-.38,1.26-2.61,3.58-5.55,4.46l-.48-.74c2.43-.54,5.57-3,5.57-5.34v-1h.94v1c0,2.32,3.3,4.78,5.62,5.36Z"/><path d="M62.73,230.91v-.8h3.86v-3.53h.93v3.53h3.86v-3.53h.93v3.53h3.87v.8Zm1.35-10.69v-.81H74.77v.81Zm0,5.59V225h2.5l-.45-3.81,1-.11.34,3.92h3.9l.5-3.89.94.1L72.24,225h2.53v.82Z"/><path d="M78.22,226.15v-6.78h6.61v6.78Zm5.7-6H79.15v5.17h4.77Zm-3.84,12.12v-4.51H81v3.7h8.89v.81Zm5.39-10.84v-.8h3.16V218h.93v10.8h-.93v-4H85.47V224h3.16v-2.52Z"/><path d="M102.29,229c-1.14.13-3.14.26-5.06.37s-3.57.13-4.67.16l-.18-.88c1,0,2.82,0,4.69-.11s4.2-.23,5.14-.34Zm-1.55-6.42a3.85,3.85,0,1,1-3.83-3.38C99,219.21,100.74,220.51,100.74,222.59Zm-6.68,0a2.63,2.63,0,0,0,2.85,2.55c1.73,0,2.87-1,2.87-2.53a2.57,2.57,0,0,0-2.87-2.55A2.6,2.6,0,0,0,94.06,222.59ZM104.23,218v14.88h-.93V218Z"/><path d="M112.93,225.18h.85a29.12,29.12,0,0,0,6-.48l.11.82a33.25,33.25,0,0,1-6.29.48H112v-6.63h6.51v.8h-5.58Zm.77,7.13v-4.45h.91v3.63h8.79v.82Zm9-9.11v5.59h-.93V218h.93v4.43h2.35v.8Z"/><path d="M126.9,225.71V219h.92v2.38h3.86V219h.93v6.7Zm4.78-3.52h-3.86v2.72h3.86Zm6,10.66v-4.42h-8.95v-.8h9.89v5.22Zm0-6v-4.11h-2.19v4h-.93v-8.45h.93v3.66h2.19V218h.93v8.86Z"/><path d="M141.47,219h8v.8h-3.57v.57c0,2,2,3.77,3.81,4.39-.19.24-.35.51-.53.75a7.56,7.56,0,0,1-3.75-3.36c-.38,1.36-2.16,3-3.85,3.76-.16-.22-.34-.48-.52-.7,1.85-.75,3.94-2.8,3.94-4.77v-.64h-3.52Zm2.05,13.78v-3.62H152v-1.74h-8.58v-.8h9.49v3.34h-8.5v2h9.11v.8Zm8.47-7V218h.93v7.74Z"/><path d="M155.53,226.61v-.8H169v.8Zm6.73-2.4c-3.28,0-5.06-1.07-5.06-2.8s1.78-2.82,5.06-2.82,5.07,1.09,5.07,2.82S165.54,224.21,162.26,224.21Zm-4.92,8.16v-4.1h.93v3.29h9.06v.81Zm4.92-13c-2.56,0-4.1.78-4.1,2s1.54,2,4.1,2,4.13-.77,4.13-2S164.82,219.41,162.26,219.41Z"/><path d="M174.75,226.77V226h13.43v.82Zm11.64,1.55V233h-.92v-3.84h-9.23v-.82Zm-8.92-6.43v1.71h8.84v.8h-9.77v-5.68h9.78v.8h-8.85v1.57h8.4v.8Z"/><path d="M190,219.17h7.83v.8h-3.47v1c0,2,1.87,3.84,3.71,4.43l-.53.79a7.51,7.51,0,0,1-3.68-3.49c-.37,1.36-2.13,3.07-3.83,3.87l-.51-.69c1.88-.75,3.94-2.89,3.94-4.92v-1H190Zm6.69,13.67c-3.26,0-5-1.08-5-2.74s1.76-2.74,5-2.74,5,1.07,5,2.74S199.92,232.84,196.67,232.84Zm-4-2.74c0,1.17,1.49,1.92,4,1.92s4-.75,4-1.92-1.47-1.92-4-1.92S192.64,228.93,192.64,230.1Zm4.93-7.44v-.8h3.06V218h.93v9.2h-.93v-4.51Z"/><path d="M204.14,221.69v-.79h8.47v.79Zm4.18,6c-1.87,0-3.33-1-3.33-2.57s1.44-2.56,3.33-2.56,3.36,1,3.36,2.56S210.22,227.71,208.32,227.71Zm0-4.33c-1.31,0-2.4.68-2.4,1.76s1.1,1.77,2.4,1.77,2.43-.65,2.43-1.77S209.65,223.38,208.32,223.38Zm-2-3.83v-.8h4.21v.8Zm.11,12.74v-3.66h.93v2.85h8.88v.81Zm9.13-8.16v4.69h-.93V218h.93v5.36h2.35v.8Z"/><path d="M229.65,228.27v-2.33h-6.28v-.82h13.45v.82h-6.26v2.33h4.53V233h-.93v-3.91h-9.28v-.8Zm5.94-4.67a8.26,8.26,0,0,1-5.49-3.51c-.52,1.3-2.63,3-5.41,3.53l-.48-.79c2.49-.27,5.42-2.16,5.42-4.16v-.53h1v.53c0,2,3.13,3.84,5.47,4.13Z"/><path d="M244.34,232.85v-5.44h-6.25v-.8h13.45v.8h-6.28v5.44Zm6-7.86c-2.75-.53-4.92-2.05-5.52-3.36-.53,1.3-2.6,2.87-5.45,3.36l-.46-.8c2.51-.29,5.44-1.9,5.44-4V220h-4.86v-.8h10.64v.8H245.3v.27c0,2.08,3.25,3.68,5.5,3.94Z"/><path d="M262.93,229c-1.14.13-3.14.26-5.06.37s-3.57.13-4.67.16l-.18-.88c1,0,2.82,0,4.69-.11s4.2-.23,5.14-.34Zm-1.55-6.42a3.85,3.85,0,1,1-3.83-3.38C259.63,219.21,261.38,220.51,261.38,222.59Zm-6.68,0a2.63,2.63,0,0,0,2.85,2.55c1.73,0,2.87-1,2.87-2.53a2.57,2.57,0,0,0-2.87-2.55A2.6,2.6,0,0,0,254.7,222.59ZM264.87,218v14.88h-.93V218Z"/><path d="M278.88,229.06a9.49,9.49,0,0,1-3.11-4.6,8.55,8.55,0,0,1-3.21,5l-.67-.76a7.9,7.9,0,0,0,3.39-6.46v-2.69h.94v2.66a7.88,7.88,0,0,0,3.28,6.16Zm1.78,3v-7.76H277.9v-.8h2.76v-5.14h.92v13.7Zm2.94.8V218h.93v14.88Z"/><path d="M293.9,226.37v3.74h6.28v.8H286.73v-.8H293v-3.74h-4.9v-.8h2.51l-.42-4.24,1-.19.31,4.43h3.9l.56-4.4.95.17-.64,4.23h2.51v.8Zm-5.82-6v-.81h10.69v.81Z"/><path d="M301.45,225.82v-.75H314.9v.75Zm1.7,6.66v-3.13h9.08V228h-9.11v-.8h10v2.93h-9.09v1.53h9.64v.8Zm.1-8.83v-3h8.91v-1.35h-9v-.8h9.88v3h-8.92v1.36h9.18v.8Z"/><path d="M328.67,222.56a3.82,3.82,0,1,1-3.81-3.62A3.64,3.64,0,0,1,328.67,222.56Zm-6.74,0a2.85,2.85,0,0,0,2.93,2.82,2.81,2.81,0,1,0,0-5.62A2.84,2.84,0,0,0,321.93,222.56Zm1.22,9.73v-4.48h.93v3.68h9.07v.8Zm8.68-3.52V218h.92v10.8Z"/><path d="M343.47,225.82a7.14,7.14,0,0,1-3.58-3.72,7.74,7.74,0,0,1-3.72,4.16l-.62-.72a6.17,6.17,0,0,0,3.81-5.35V218.7h.94v1.47c0,2.44,2.07,4.28,3.75,4.92Zm3.08,7v-4.34h-8.92v-.81h9.84v5.15Zm0-6V218h.92v8.88Z"/><path d="M350.06,222.4v-.8h8.72v.8Zm4.47,7.17a3,3,0,1,1,3.39-3A3.11,3.11,0,0,1,354.53,229.57Zm0-5.2a2.21,2.21,0,1,0,2.46,2.21A2.29,2.29,0,0,0,354.53,224.37Zm-2.31-4.45v-.82h4.24v.82Zm9.21,5.23v7.7h-.93V218h.93v6.4H364v.78Z"/><path d="M364.81,230.91v-.8h6.25V226h-4.44v-6.66h9.89v.8h-9v5.06h9v.8H372v4.14h6.28v.8Z"/><path d="M386.7,224.43v1.81H393v.8H379.53v-.8h6.24v-1.81h-4.44V221h8.91v-1.68h-8.95v-.8h9.88v3.28h-8.92v1.81h9.14v.8Zm4.47,4.2V233h-.91v-3.54H381v-.81Z"/><path d="M398.73,230.91v-.8H405V226h-4.43v-6.66h9.89v.8h-9v5.06h9v.8H405.9v4.14h6.28v.8Z"/><path d="M421.7,222.48a3.41,3.41,0,0,1-3.29,3.33v2.67c1.75-.09,3.51-.24,4.41-.37l.08.8c-1,.15-2.95.32-4.81.45-1.71.11-3.31.15-4.61.15l-.17-.87c1,0,2.54,0,4.19-.09v-2.73a3.43,3.43,0,0,1-3.39-3.32,3.5,3.5,0,0,1,3.79-3.37C420,219.13,421.7,220.41,421.7,222.48Zm-6.63,0A2.62,2.62,0,0,0,417.9,225a2.54,2.54,0,1,0,0-5A2.58,2.58,0,0,0,415.07,222.48Zm9.68,2.66v7.71h-.93V218h.93v6.37h2.56v.8Z"/><path d="M434.41,229.59v-3.08h-6.24v-.81h13.45v.81h-6.28v3.08Zm1-10v.16c0,2,3.23,3.53,5.52,3.81l-.45.8c-2.71-.52-4.9-1.9-5.56-3.2-.52,1.28-2.72,2.69-5.49,3.2l-.44-.81c2.46-.29,5.47-1.76,5.47-3.8v-.16h-4.95v-.8h10.78v.8ZM430,232.32v-4.24h.91v3.43h9.24v.81Z"/><path d="M445.52,228.21a36.12,36.12,0,0,0,6.21-.5l.11.79a42.77,42.77,0,0,1-6.44.53h-1.8V219.5h6.75v.8h-5.83v7.91Zm8.7-4.18h2.55v.8h-2.55v8h-.92V218h.92Z"/><path d="M457.77,230h1.11v1.06h-1.11Z"/><path d="M347.09,30.73a12.74,12.74,0,0,1-2.28,4.47A9.56,9.56,0,0,1,341.17,38a12.35,12.35,0,0,1-4.93.94A12.5,12.5,0,0,1,331.3,38a9.53,9.53,0,0,1-3.69-2.79,12.45,12.45,0,0,1-2.31-4.47,21.82,21.82,0,0,1-.79-6.11V16.16a21.7,21.7,0,0,1,.79-6.1,12.6,12.6,0,0,1,2.31-4.5,9.62,9.62,0,0,1,3.65-2.79,13.16,13.16,0,0,1,9.87,0,9.88,9.88,0,0,1,3.68,2.79,12.89,12.89,0,0,1,2.28,4.5,21.34,21.34,0,0,1,.79,6.1v8.46A21.46,21.46,0,0,1,347.09,30.73Zm-3.92-17.81a13.16,13.16,0,0,0-.7-3.16,6.72,6.72,0,0,0-1.38-2.3A5.38,5.38,0,0,0,339,6.05a7.93,7.93,0,0,0-2.84-.47,7.59,7.59,0,0,0-2.88.51,5.69,5.69,0,0,0-2.12,1.47,7.9,7.9,0,0,0-1.55,3.14,17.4,17.4,0,0,0-.51,4.45V23.7Zm.1,7.56V17.31L329.25,28a11.94,11.94,0,0,0,.79,3.18,6.72,6.72,0,0,0,1.48,2.27,5.71,5.71,0,0,0,2,1.28,8,8,0,0,0,2.68.43,7.69,7.69,0,0,0,2.77-.47,5.54,5.54,0,0,0,2.06-1.36,7.48,7.48,0,0,0,1.67-3.18,17.45,17.45,0,0,0,.53-4.61Z"/><path d="M366.15,35.86A12.75,12.75,0,0,1,363,40.2l-2.85-1.56a11.35,11.35,0,0,0,1.69-3.7,16.42,16.42,0,0,0,.49-4.06V26.44h5V30.8A12.31,12.31,0,0,1,366.15,35.86ZM362.31,4.68a3.36,3.36,0,0,1,2.7-1,3.45,3.45,0,0,1,2.71,1,3.64,3.64,0,0,1,.93,2.52,3.41,3.41,0,0,1-.94,2.45,3.56,3.56,0,0,1-2.7,1,3.43,3.43,0,0,1-2.69-1,3.54,3.54,0,0,1-.9-2.44A3.71,3.71,0,0,1,362.31,4.68Z"/><path d="M407.49,13.37c0-6.3-5-10.59-11.46-10.59s-11.41,4.34-11.41,10.64,5,10.5,11.46,10.5S407.49,19.72,407.49,13.37Zm-19.35,0C388.14,9.08,391.56,6,396,6c4.71,0,8,3.05,8,7.39s-3.24,7.26-7.9,7.26C391.61,20.68,388.14,17.66,388.14,13.37Z"/><polygon points="394.39 27.93 390.69 27.93 390.69 41.03 419.4 41.03 419.4 37.98 394.39 37.98 394.39 27.93"/><rect x="414.66" width="3.7" height="30.99"/><path d="M438.47,12.73c1.68,4.34,6.43,8.18,10.63,10.05l2.19-2.92c-5.11-1.74-11-6.94-11-13.74V1.73H436.5V6.25c0,6.76-5.15,12.51-11.18,15l2.28,3C432.94,21.5,437.19,17.12,438.47,12.73Z"/><polygon points="432.03 30.67 456.63 30.67 456.63 42.45 460.33 42.45 460.33 27.61 432.03 27.61 432.03 30.67"/><rect x="456.63" width="3.7" height="25.29"/><path class="cls-2" d="M187.5,89.61a16.94,16.94,0,0,1-.26-1.78,14.31,14.31,0,0,1-1.7,1.44,12.08,12.08,0,0,1-2,1.19,12.53,12.53,0,0,1-2.42.82,11.78,11.78,0,0,1-2.71.3,12.51,12.51,0,0,1-4.23-.68,9.67,9.67,0,0,1-3.19-1.85,7.74,7.74,0,0,1-2.05-2.73,8.25,8.25,0,0,1-.72-3.44,9,9,0,0,1,1-4.24,8.72,8.72,0,0,1,2.73-3,12.91,12.91,0,0,1,4.26-1.79,23.66,23.66,0,0,1,5.55-.6h5.49V70.9a5.58,5.58,0,0,0-.49-2.39,5.24,5.24,0,0,0-1.38-1.82,6.5,6.5,0,0,0-2.19-1.14,9.65,9.65,0,0,0-2.89-.41,8.85,8.85,0,0,0-2.68.38,6.7,6.7,0,0,0-2,1A4.45,4.45,0,0,0,174.27,68a3.76,3.76,0,0,0-.45,1.78h-5a7,7,0,0,1,.83-3.15,8.71,8.71,0,0,1,2.32-2.8,12,12,0,0,1,3.65-2,14.93,14.93,0,0,1,4.91-.76,17.18,17.18,0,0,1,4.64.61,10.8,10.8,0,0,1,3.72,1.84,8.79,8.79,0,0,1,2.45,3.1,9.75,9.75,0,0,1,.9,4.32V84.62a19.14,19.14,0,0,0,.27,3.11,13.55,13.55,0,0,0,.76,2.87V91H188A5.9,5.9,0,0,1,187.5,89.61Zm-5.67-2.79a10.31,10.31,0,0,0,2.34-1A8.59,8.59,0,0,0,186,84.39a6.81,6.81,0,0,0,1.2-1.67v-6h-4.67a20.29,20.29,0,0,0-4.55.45,7.5,7.5,0,0,0-3.09,1.37,4.36,4.36,0,0,0-1.23,1.55,4.77,4.77,0,0,0-.42,2,5.52,5.52,0,0,0,.36,2,4.14,4.14,0,0,0,1.1,1.57,5,5,0,0,0,1.85,1.06,7.79,7.79,0,0,0,2.58.38A9.31,9.31,0,0,0,181.83,86.82Z"/><path class="cls-2" d="M198.63,61.64h4.45l3.42,18.74.6,4.21.74-4.21,4.69-18.74h3.24l4.67,18.74.79,4.62.73-4.62,3.26-18.74h4.46L223.43,91h-4l-4.59-18-.76-4.56L213.38,73l-4.54,18h-4Z"/><path class="cls-2" d="M254.28,89.61a14.67,14.67,0,0,1-.26-1.78,14.31,14.31,0,0,1-1.7,1.44,12.08,12.08,0,0,1-2,1.19,12.76,12.76,0,0,1-2.42.82,11.81,11.81,0,0,1-2.72.3,12.49,12.49,0,0,1-4.22-.68,9.67,9.67,0,0,1-3.19-1.85,7.74,7.74,0,0,1-2.05-2.73,8.25,8.25,0,0,1-.72-3.44,9,9,0,0,1,1-4.24,8.52,8.52,0,0,1,2.73-3,12.94,12.94,0,0,1,4.25-1.79,23.75,23.75,0,0,1,5.56-.6h5.49V70.9a5.73,5.73,0,0,0-.49-2.39,5.27,5.27,0,0,0-1.39-1.82,6.35,6.35,0,0,0-2.18-1.14,9.67,9.67,0,0,0-2.9-.41,8.78,8.78,0,0,0-2.67.38,6.58,6.58,0,0,0-2,1A4.45,4.45,0,0,0,241.05,68a3.76,3.76,0,0,0-.45,1.78h-5.06a7.12,7.12,0,0,1,.83-3.15,8.87,8.87,0,0,1,2.33-2.8,11.88,11.88,0,0,1,3.65-2,14.87,14.87,0,0,1,4.9-.76,17.2,17.2,0,0,1,4.65.61,10.8,10.8,0,0,1,3.72,1.84,8.91,8.91,0,0,1,2.45,3.1A9.89,9.89,0,0,1,259,71V84.62a19.14,19.14,0,0,0,.27,3.11A14.16,14.16,0,0,0,260,90.6V91h-5.25A5.14,5.14,0,0,1,254.28,89.61Zm-5.67-2.79a10.71,10.71,0,0,0,2.34-1,8.86,8.86,0,0,0,1.79-1.43,6.81,6.81,0,0,0,1.2-1.67v-6h-4.68a20.42,20.42,0,0,0-4.55.45,7.51,7.51,0,0,0-3.08,1.37,4.39,4.39,0,0,0-1.24,1.55,4.77,4.77,0,0,0-.42,2,5.52,5.52,0,0,0,.37,2,4,4,0,0,0,1.1,1.57,4.92,4.92,0,0,0,1.85,1.06,7.79,7.79,0,0,0,2.58.38A9.31,9.31,0,0,0,248.61,86.82Z"/><path class="cls-2" d="M291,61.28a8.9,8.9,0,0,1,2.27.52l-.68,4.92a26.64,26.64,0,0,0-2.78-.48,24.45,24.45,0,0,0-2.76-.15,11.53,11.53,0,0,0-3.34.45,7.92,7.92,0,0,0-4.36,3.18,10.9,10.9,0,0,0-1.24,2.46V91h-5V61.64h4.78l.22,3.94,0,.73a13.64,13.64,0,0,1,4.31-3.82,11.57,11.57,0,0,1,5.72-1.4A24.43,24.43,0,0,1,291,61.28Z"/><path class="cls-2" d="M309.51,90.52a12.93,12.93,0,0,1-4.44-3,13.57,13.57,0,0,1-2.88-4.5,15.29,15.29,0,0,1-1-5.68V76.23a16.79,16.79,0,0,1,1.14-6.37,14.5,14.5,0,0,1,3-4.77,13.06,13.06,0,0,1,4.28-3,12.33,12.33,0,0,1,4.93-1,13.12,13.12,0,0,1,5.55,1.1,11.09,11.09,0,0,1,4,3,13.3,13.3,0,0,1,2.35,4.59,20.42,20.42,0,0,1,.77,5.71v2.25h-21V78a12.9,12.9,0,0,0,.86,3.77,9.18,9.18,0,0,0,1.83,2.88,8.48,8.48,0,0,0,2.88,2.09,8.87,8.87,0,0,0,3.72.76,10.23,10.23,0,0,0,4.78-1.08,10.42,10.42,0,0,0,3.48-2.88l3.07,2.39a13.12,13.12,0,0,1-4.39,3.95,14,14,0,0,1-7.21,1.73A15,15,0,0,1,309.51,90.52Zm2.16-24.74a7.58,7.58,0,0,0-2.45,1.62A9.53,9.53,0,0,0,307.39,70a12.65,12.65,0,0,0-1.05,3.6h15.82V73.4a9.49,9.49,0,0,0-.52-2.92,8.5,8.5,0,0,0-1.44-2.7,7.06,7.06,0,0,0-2.32-1.85,7.36,7.36,0,0,0-3.33-.71A7.54,7.54,0,0,0,311.67,65.78Z"/><path class="cls-2" d="M335.6,61.64h4.51l.36,4.34a13,13,0,0,1,1.42-1.69,10.38,10.38,0,0,1,1.65-1.35,10.66,10.66,0,0,1,2.83-1.34,11.57,11.57,0,0,1,3.25-.51,12.67,12.67,0,0,1,4.2.66,8,8,0,0,1,3.22,2,9.3,9.3,0,0,1,2,3.52,15.89,15.89,0,0,1,.72,5.07V91h-5V72.48a11,11,0,0,0-.43-3.32,5.41,5.41,0,0,0-1.28-2.2,5.13,5.13,0,0,0-2.1-1.22,9.81,9.81,0,0,0-2.84-.38,8.21,8.21,0,0,0-2.58.39,8.83,8.83,0,0,0-2.2,1.08,9.37,9.37,0,0,0-1.51,1.38A9.65,9.65,0,0,0,340.63,70V91h-5Z"/><path class="cls-2" d="M376.29,90.52a13.07,13.07,0,0,1-4.45-3,13.57,13.57,0,0,1-2.88-4.5,15.5,15.5,0,0,1-1-5.68V76.23a16.79,16.79,0,0,1,1.14-6.37,14.69,14.69,0,0,1,3.05-4.77,13.06,13.06,0,0,1,4.28-3,12.33,12.33,0,0,1,4.93-1,13.12,13.12,0,0,1,5.55,1.1,11.05,11.05,0,0,1,3.95,3,13,13,0,0,1,2.35,4.59,20.05,20.05,0,0,1,.78,5.71v2.25H373V78a12.91,12.91,0,0,0,.85,3.77,9.39,9.39,0,0,0,1.84,2.88,8.38,8.38,0,0,0,2.88,2.09,8.87,8.87,0,0,0,3.72.76A10.26,10.26,0,0,0,387,86.39a10.42,10.42,0,0,0,3.48-2.88l3.07,2.39a13.12,13.12,0,0,1-4.39,3.95A14,14,0,0,1,382,91.58,15,15,0,0,1,376.29,90.52Zm2.16-24.74A7.58,7.58,0,0,0,376,67.4,9.53,9.53,0,0,0,374.17,70a12.65,12.65,0,0,0-1.05,3.6h15.81V73.4a9.46,9.46,0,0,0-.51-2.92,8.7,8.7,0,0,0-1.44-2.7,7,7,0,0,0-2.33-1.85,7.29,7.29,0,0,0-3.32-.71A7.5,7.5,0,0,0,378.45,65.78Z"/><path class="cls-2" d="M421.56,81.62a3.57,3.57,0,0,0-1.19-1.32,9.64,9.64,0,0,0-2.23-1.1,24.77,24.77,0,0,0-3.45-.91A34,34,0,0,1,410.08,77a15,15,0,0,1-3.54-1.76,7.46,7.46,0,0,1-2.31-2.38,6.15,6.15,0,0,1-.82-3.19,6.88,6.88,0,0,1,.85-3.36,8.6,8.6,0,0,1,2.36-2.73,11.92,11.92,0,0,1,3.63-1.85,15.05,15.05,0,0,1,4.63-.68,15.81,15.81,0,0,1,4.89.71,11,11,0,0,1,3.69,2,8.65,8.65,0,0,1,2.35,2.92,7.87,7.87,0,0,1,.83,3.6h-5a3.92,3.92,0,0,0-.49-1.86,5.35,5.35,0,0,0-1.36-1.62,7,7,0,0,0-2.11-1.14,8.32,8.32,0,0,0-2.78-.44,9.83,9.83,0,0,0-2.81.36,6,6,0,0,0-2,1,4.06,4.06,0,0,0-1.22,1.38,3.55,3.55,0,0,0-.41,1.63,3.5,3.5,0,0,0,.33,1.55,3,3,0,0,0,1.14,1.22,7.88,7.88,0,0,0,2.13,1,30.36,30.36,0,0,0,3.41.84,41,41,0,0,1,4.86,1.32,14.71,14.71,0,0,1,3.62,1.78,7.73,7.73,0,0,1,2.24,2.45,6.5,6.5,0,0,1,.77,3.2,7.23,7.23,0,0,1-.88,3.56,8.46,8.46,0,0,1-2.46,2.75A12,12,0,0,1,419.82,91a17.37,17.37,0,0,1-4.8.63,16.5,16.5,0,0,1-5.33-.8,12.45,12.45,0,0,1-3.94-2.14,8.89,8.89,0,0,1-2.49-3,8.07,8.07,0,0,1-.85-3.61h5a5.23,5.23,0,0,0,.83,2.6,5.82,5.82,0,0,0,1.81,1.72,7.4,7.4,0,0,0,2.36.92,12.73,12.73,0,0,0,2.59.27,11.52,11.52,0,0,0,3.5-.48,5.72,5.72,0,0,0,2.34-1.31,3.74,3.74,0,0,0,.78-1.14,3.33,3.33,0,0,0,.27-1.33A3.57,3.57,0,0,0,421.56,81.62Z"/><path class="cls-2" d="M455,81.62a3.65,3.65,0,0,0-1.19-1.32,9.84,9.84,0,0,0-2.23-1.1,24.77,24.77,0,0,0-3.45-.91A34,34,0,0,1,443.47,77a14.8,14.8,0,0,1-3.54-1.76,7.46,7.46,0,0,1-2.31-2.38,6.06,6.06,0,0,1-.82-3.19,7,7,0,0,1,.84-3.36A8.63,8.63,0,0,1,440,63.62a12,12,0,0,1,3.62-1.85,15.16,15.16,0,0,1,4.64-.68,15.81,15.81,0,0,1,4.89.71,11,11,0,0,1,3.69,2,8.65,8.65,0,0,1,2.35,2.92,8,8,0,0,1,.83,3.6h-5a3.9,3.9,0,0,0-.48-1.86,5.35,5.35,0,0,0-1.36-1.62,7,7,0,0,0-2.11-1.14,8.32,8.32,0,0,0-2.78-.44,9.83,9.83,0,0,0-2.81.36,5.91,5.91,0,0,0-2,1,4.06,4.06,0,0,0-1.22,1.38,3.43,3.43,0,0,0-.41,1.63,3.64,3.64,0,0,0,.32,1.55,3.15,3.15,0,0,0,1.15,1.22,7.88,7.88,0,0,0,2.13,1,29.81,29.81,0,0,0,3.41.84,41,41,0,0,1,4.86,1.32,14.46,14.46,0,0,1,3.61,1.78,7.5,7.5,0,0,1,2.24,2.45,6.4,6.4,0,0,1,.78,3.2,7.34,7.34,0,0,1-.88,3.56A8.46,8.46,0,0,1,457,89.19,12,12,0,0,1,453.21,91a17.44,17.44,0,0,1-4.81.63,16.48,16.48,0,0,1-5.32-.8,12.45,12.45,0,0,1-3.94-2.14,8.89,8.89,0,0,1-2.49-3A8.07,8.07,0,0,1,435.8,82h5a5.23,5.23,0,0,0,.83,2.6,5.72,5.72,0,0,0,1.81,1.72,7.31,7.31,0,0,0,2.36.92,12.71,12.71,0,0,0,2.58.27,11.55,11.55,0,0,0,3.51-.48,5.61,5.61,0,0,0,2.33-1.31,3.6,3.6,0,0,0,.79-1.14,3.33,3.33,0,0,0,.27-1.33A3.57,3.57,0,0,0,455,81.62Z"/></g></g></svg>