<svg xmlns="http://www.w3.org/2000/svg" xmlns:xlink="http://www.w3.org/1999/xlink" viewBox="0 0 1081.27 1299.67"><defs><style>.cls-1{fill:url(#linear-gradient);}.cls-2{fill:lime;}.cls-2,.cls-3,.cls-4,.cls-6{stroke:#000;stroke-miterlimit:10;}.cls-2,.cls-3{stroke-width:0.3px;}.cls-3,.cls-6{fill:none;}.cls-4{fill:#fff;stroke-width:0.5px;}.cls-5{font-size:16px;font-family:SDGothicNeoa-bUltLt-KSCpc-EUC-H, Sandoll GothicNeo1;}</style><linearGradient id="linear-gradient" y1="649.83" x2="1081.27" y2="649.83" gradientUnits="userSpaceOnUse"><stop offset="0" stop-color="lime"/><stop offset="0" stop-color="#09ff09"/><stop offset="0.01" stop-color="#37ff37"/><stop offset="0.01" stop-color="#62ff62"/><stop offset="0.02" stop-color="#8f8"/><stop offset="0.03" stop-color="#a8ffa8"/><stop offset="0.04" stop-color="#c4ffc4"/><stop offset="0.05" stop-color="#daffda"/><stop offset="0.06" stop-color="#ebffeb"/><stop offset="0.08" stop-color="#f6fff6"/><stop offset="0.1" stop-color="#fdfffd"/><stop offset="0.16" stop-color="#fff"/></linearGradient></defs><g id="레이어_2" data-name="레이어 2"><g id="그래픽"><rect class="cls-1" width="1081.27" height="1299.67"/><rect class="cls-2" x="718.83" y="537.16" width="333.65" height="45.58" transform="translate(1771.31 1119.91) rotate(180)"/><path d="M741.12,551.2c3.34,0,5.3,2.9,5.3,7.32s-2,7.27-5.3,7.27-5.32-2.89-5.32-7.29S737.78,551.2,741.12,551.2Zm0,2c-1.76,0-3,2-3,5.34s1.21,5.35,3,5.35,3-2,3-5.35S742.9,553.16,741.12,553.16Zm8.82,17.27V549.57h2.4v20.86Z"/><path d="M766,551.24c-.21,5.64-3.78,9.49-9.26,11.27l-1.3-2c4-.9,7.48-3.85,8-7.31H756.5v-2Zm6.5,19.43c-2.84-.55-5.9-2.66-6.87-4.55-.79,1.93-3.85,4-6.86,4.53l-1.15-1.89c3.37-.38,6.82-2.78,6.82-5.75v-.77H767V563c0,3,3.54,5.24,6.73,5.77Zm-2.34-7.28v-6.14h-4.11v-2h4.11v-5.7h2.4v13.82Z"/><path d="M781.6,551.2c3.34,0,5.3,2.9,5.3,7.32s-2,7.27-5.3,7.27-5.32-2.89-5.32-7.29S778.26,551.2,781.6,551.2Zm0,2c-1.76,0-3,2-3,5.34s1.21,5.35,3,5.35,3-2,3-5.35S783.38,553.16,781.6,553.16Zm8.82,17.27V549.57h2.4v20.86Z"/><path d="M805,556.06l-2,1.34-.82-1.47,2.16-1-2.16-1,.82-1.47,2,1.32-.09-2.47h1.67l-.08,2.47,2-1.32.83,1.47-2.13,1,2.13,1-.83,1.47-2-1.34.08,2.49h-1.67Z"/><path d="M820.8,561.36c-3.19,0-5.37-2.11-5.37-5.08a5.37,5.37,0,1,1,5.37,5.08Zm0-8.2a3.09,3.09,0,0,0,0,6.18,2.89,2.89,0,0,0,3-3.08A2.84,2.84,0,0,0,820.8,553.16Zm-2.15,16.67v-6.55H821v4.62h11.67v1.93Zm8.12-12.58v-2h3.08v-5.68h2.39v15.16h-2.39v-7.48Z"/><path d="M840.8,551c3.39,0,5.33,3,5.33,7.44s-1.94,7.39-5.33,7.39-5.3-3-5.3-7.41S837.46,551,840.8,551Zm0,1.94c-1.72,0-2.95,2.15-2.95,5.5s1.23,5.48,2.95,5.48,3-2.16,3-5.48S842.58,553,840.8,553Zm9.29,17.47V559.34H846.9v-2h3.19v-7.79h2.42v20.86Z"/><path d="M861.52,561.32c-3.19,0-5.36-2.11-5.36-5.08a5.36,5.36,0,1,1,5.36,5.08Zm0-8.21a3.09,3.09,0,0,0,0,6.18,2.89,2.89,0,0,0,3-3.08A2.85,2.85,0,0,0,861.52,553.11Zm-2.59,16.72v-6.55h2.4v4.62h11.88v1.93Zm11.4-5.12V549.57h2.39v15.14Z"/><path d="M886.52,551.77c-.16,6.47-3.33,11.46-9.33,14.74l-1.5-1.82a13.8,13.8,0,0,0,8.25-10.94h-7v-2Zm5.48,7.94v10.72h-2.4V549.57H892v8.14h3.1v2Z"/><path d="M898.44,561.85c0-1.63.83-2.27,2.4-3.52a3.75,3.75,0,0,0,1.38-3.13c0-1.6-1-2.18-2.77-2.18a8.27,8.27,0,0,0-3.1.58v-1.81a8.85,8.85,0,0,1,3.72-.7c2.55,0,4.66,1.12,4.66,4,0,2-.68,3.08-2.37,4.49-1.15.9-1.76,1.36-1.76,2.46v1h-2.16Zm-.18,3.47h2.58v2.53h-2.58Z"/><path d="M915.73,556.06l-2,1.34-.82-1.47,2.16-1-2.16-1,.82-1.47,2,1.32-.09-2.47h1.68l-.09,2.47,2-1.32.83,1.47-2.13,1,2.13,1-.83,1.47-2-1.34.09,2.49h-1.68Z"/><path d="M931.72,551.2c3.35,0,5.31,2.9,5.31,7.32s-2,7.27-5.31,7.27-5.32-2.89-5.32-7.29S928.38,551.2,931.72,551.2Zm0,2c-1.76,0-3,2-3,5.34s1.21,5.35,3,5.35,3-2,3-5.35S933.51,553.16,931.72,553.16Zm8.83,17.27V549.57H943v20.86Z"/><path d="M956.85,565.06h-9.79V551.59h9.79Zm-2.42-11.55h-5v9.61h5Zm6.36,16.92V549.57h2.4v20.86Z"/><path d="M977.9,565.39c-2-1.08-4.49-3.74-5.15-5.9a11.06,11.06,0,0,1-5.12,6.34l-1.54-1.76a10.39,10.39,0,0,0,5.41-9.4v-1h-4.36v-1.89h11.09v1.89H974v1a10,10,0,0,0,5.3,9Zm3.15,5V549.57h2.4v20.86Z"/><path d="M992.46,561.32c-3.19,0-5.36-2.11-5.36-5.08a5.36,5.36,0,1,1,5.36,5.08Zm0-8.21a3.09,3.09,0,0,0,0,6.18,2.89,2.89,0,0,0,2.95-3.08A2.85,2.85,0,0,0,992.46,553.11Zm-2.59,16.72v-6.55h2.4v4.62h11.88v1.93Zm11.4-5.12V549.57h2.39v15.14Z"/><path d="M1017.46,551.77c-.16,6.47-3.33,11.46-9.33,14.74l-1.5-1.82a13.8,13.8,0,0,0,8.25-10.94h-7v-2Zm5.48,7.94v10.72h-2.4V549.57h2.4v8.14h3.1v2Z"/><path d="M1029.38,561.85c0-1.63.84-2.27,2.4-3.52a3.75,3.75,0,0,0,1.38-3.13c0-1.6-1-2.18-2.77-2.18a8.31,8.31,0,0,0-3.1.58v-1.81a8.88,8.88,0,0,1,3.72-.7c2.55,0,4.66,1.12,4.66,4,0,2-.68,3.08-2.37,4.49-1.15.9-1.76,1.36-1.76,2.46v1h-2.16Zm-.18,3.47h2.58v2.53h-2.58Z"/><path d="M752.7,611a10.68,10.68,0,0,1-3.87-4.8,10.43,10.43,0,0,1-3.85,5.23l-.68-.77c2-1.18,4.06-4.11,4.06-6.58v-2.83h.95v2.82a7.64,7.64,0,0,0,4.05,6.16Zm2.86,3.71V599.86h.93v14.88Z"/><path d="M767.18,607.72a36.15,36.15,0,0,1-4.72.3h-2.74v-4.18h5.54v-2.29H759.7v-.8h6.49v3.89h-5.54v2.58h1.81a32.49,32.49,0,0,0,4.62-.3Zm4,2.2v5h-.92v-4.15h-9.09v-.8Zm-.92-.84v-2.87h-3v-.77h3V603h-3v-.77h3v-2.38h.93v9.22Z"/><path d="M780,606.45V610a23.57,23.57,0,0,0,5.31-.43l.13.82a29.08,29.08,0,0,1-6.37.47V601.7h5.4v.8H780v3.15h3.65v.8Zm4.64-.16v-.8h2.34v-5.25h.93v13.7h-.93v-7.65Zm5.3,8.45V599.86h.93v14.88Z"/><path d="M793,612.63v-.8h13.45v.8Zm12.28-4.29c-2.77-.93-5.11-3.23-5.57-4.51-.39,1.26-2.61,3.58-5.56,4.46l-.48-.73c2.44-.55,5.57-3,5.57-5.35v-1h1v1c0,2.32,3.3,4.79,5.62,5.36Z"/><path d="M807.75,612.81V612H821.2v.8Zm2.74-7.38v2.69h9v.8h-9.92v-7.54h9.76v.8h-8.83v2.46h8.42v.79Z"/><path d="M822.47,607.72V607h13.45v.76Zm1.7,6.66v-3.14h9.07v-1.33h-9.11v-.8h10V612h-9.09v1.53h9.64v.81Zm.09-8.84v-3h8.92v-1.35h-8.95v-.8h9.88v3h-8.92v1.36h9.17v.8Z"/><path d="M848.86,606.16v1.73h6.26v.82H841.67v-.82h6.27v-1.73h-4.46v-5.45h9.76v.79h-8.83V603h8.38v.8h-8.38v1.6h8.91v.8Zm-.47,8.55c-3.28,0-5.1-1-5.1-2.54s1.82-2.57,5.1-2.57,5.12,1,5.12,2.57S851.67,614.71,848.39,614.71Zm0-4.29c-2.56,0-4.14.69-4.14,1.75s1.58,1.72,4.14,1.72,4.18-.67,4.18-1.72S851,610.42,848.39,610.42Z"/><path d="M856.41,604.29v-.8h7.46v.8Zm3.82,6.8a2.83,2.83,0,0,1-3-2.8,3.05,3.05,0,1,1,3,2.8Zm0-4.8a2,2,0,1,0,0,4,2,2,0,0,0,2.15-2A2,2,0,0,0,860.23,606.29Zm-2-4.35v-.82h3.92v.82Zm9.73,12.8V607h-2.23v6.94h-.92v-13.7h.92v5.94H868v-6.32h.93v14.88Z"/><path d="M876.39,608v-7.3h.93v2.83h4.56v-2.83h.93V608Zm5.49-3.67h-4.56v2.87h4.56Zm.93,10.39c-3.12,0-5-1.07-5-2.79s1.88-2.78,5-2.78,5,1.06,5,2.78S885.93,614.76,882.81,614.76Zm-4-2.79c0,1.2,1.55,2,4,2s4.05-.76,4.05-2-1.59-2-4.05-2S878.79,610.76,878.79,612Zm8.9-2.7h-.93v-3.11h-3.1v-.8h3.1V603h-3.1v-.8h3.1v-2.33h.93Z"/><path d="M894.47,610.49v-2.74c-1.34.08-2.62.09-4.05.13l-.22-.87c1.81,0,3.34,0,4.94-.09s3.14-.16,4.66-.32l.08.75c-.89.11-2.77.22-4.48.33v2.81ZM895,606c-2.24,0-3.69-1.06-3.69-2.67s1.45-2.74,3.69-2.74,3.69,1.12,3.69,2.72S897.16,606,895,606Zm0-4.58c-1.6,0-2.75.72-2.75,1.89s1.22,1.86,2.75,1.86,2.74-.69,2.74-1.86S896.62,601.44,895,601.44Zm-2.59,12.94v-4.23h.93v3.42h9.38v.81Zm9-3.19v-1.68h-3v-.82h3v-8.83h.93v11.33Z"/><path d="M909.22,604.59v.95a6,6,0,0,0,3.28,5.15l-.59.76a7.49,7.49,0,0,1-3.15-4,7.54,7.54,0,0,1-3.17,4.37l-.61-.64a6.89,6.89,0,0,0,3.27-5.6v-1h-3v-.8h7v.8Zm-2.43-3.34h3.92v.83h-3.92Zm4.37,5.86v-.8h2.5v-6.07h.93v13.7h-.93v-6.83Zm5.46,7.63V599.86h.93v14.88Z"/><path d="M926.28,605.83h2.16v-5.69h1V614h-1v-7.36h-2.16c-.1,2.88-1.23,4.53-3.09,4.53s-3.12-1.81-3.12-4.95,1.15-4.94,3.12-4.94S926.2,602.93,926.28,605.83Zm-3.09-3.76c-1.31,0-2.18,1.52-2.18,4.14s.87,4.15,2.18,4.15,2.16-1.52,2.16-4.15S924.49,602.07,923.19,602.07Zm8.13,12.67V599.86h.95v14.88Z"/><path d="M946.12,607.73v4.13h6.27v.82H939v-.82h6.24v-4.13h-4.48v-6.48h.93v5.67h9.14v.81Z"/><path d="M955.41,614.55v-3.26h9v-1.37h-9v-.8h4.54v-1.44h-6.24v-.8h13.45v.8h-6.28v1.44h4.47v3h-9v1.66h9.59v.8Zm10.46-8.43c-2.13-.33-4.74-1.16-5.48-2.55-.7,1.46-3.14,2.24-5.39,2.58l-.43-.77c2.35-.29,4.8-1.07,5.28-2.56h-4.68V602h10.42v.8H961c.53,1.49,3.22,2.26,5.35,2.53Zm-7.8-5.22v-.8h4.66v.8Z"/><path d="M973.7,607.16v3.48c1.76-.07,3.62-.23,4.47-.35l.06.8c-1,.12-3,.29-4.78.39s-4,.14-4.82.14l-.16-.9c1,0,2.56,0,4.3,0v-3.52h-3.1v-5.77h7.39v.8H970.6v4.17h6.59v.8Zm5.8,7.58V599.86h.93v14.88Z"/><path d="M983.11,608.53v-.81h13.44v.81Zm1.9-3.1v-5.06h.93v4.26h9v.8Zm0,8.93v-4.31h.93v3.51h9v.8Z"/><path d="M1003.86,607.08h.85a29.78,29.78,0,0,0,6-.48l.11.81a33.25,33.25,0,0,1-6.29.48h-1.57v-6.62h6.52v.8h-5.59Zm.77,7.12v-4.45h.91v3.63h8.79v.82Zm9-9.11v5.59h-.93V599.86h.93v4.43H1016v.8Z"/><path d="M1023.34,601.78c-.16,4.4-2.33,7.39-5.7,9.6l-.66-.75a10.24,10.24,0,0,0,5.36-8h-4.65v-.8Zm2.51,12.16v-5.3h-2.74v-.8h2.74v-3h-2.48v-.8h2.48v-3.83h.93v13.7Zm2.77.8V599.86h.93v14.88Z"/><path d="M1031.75,612.81V612H1038v-2.93h-4.43v-4.53h8.85v-2.68h-8.84v-.81h9.77v4.29h-8.85v2.93h9.3v.8h-4.87V612h6.27v.8Z"/><path d="M589.72,641V631.2h.93V635h4.78V631.2h.93V641Zm5.71-5.11h-4.78v4.31h4.78Zm5,.95v8h-.93V629.86h.93V636H603v.79Z"/><path d="M608.17,631c2.16,0,3.6,2,3.6,5.22s-1.44,5.2-3.6,5.2-3.6-2.05-3.6-5.22S606,631,608.17,631Zm0,.83c-1.6,0-2.64,1.88-2.64,4.39s1,4.37,2.64,4.37,2.64-1.89,2.64-4.37S609.77,631.87,608.17,631.87Zm6.8,12.87V629.86h.93v14.88Z"/><path d="M627,640.58a50.21,50.21,0,0,1-6.27.48c-.52,0-1,0-1.56,0v-5.57h5.61v-3.43h-5.61v-.8h6.53v5h-5.6v3.92a49.32,49.32,0,0,0,6.82-.48Zm2.72,4.16v-8.11h-3v-.8h3v-6h.91v14.88Z"/><path d="M633.26,642.63v-.8H646.7v.8Zm12.27-4.29c-2.77-.93-5.1-3.23-5.57-4.51-.38,1.26-2.61,3.58-5.55,4.46l-.48-.73c2.43-.55,5.57-3,5.57-5.35v-1h.94v1c0,2.32,3.3,4.79,5.62,5.36Z"/><path d="M652.46,642.81V642h3.85v-3.54h.93V642h3.86v-3.54H662V642h3.87v.8Zm1.34-10.7v-.81h10.69v.81Zm0,5.59v-.82h2.5l-.45-3.81,1-.11.34,3.92h3.9l.5-3.89.94.1-.56,3.79h2.53v.82Z"/><path d="M667.94,638v-6.77h6.61V638Zm5.7-6h-4.77v5.17h4.77Zm-3.84,12.11v-4.51h.91v3.7h8.89v.81Zm5.39-10.83v-.8h3.16v-2.69h.93v10.8h-.93v-4h-3.16v-.8h3.16v-2.51Z"/><path d="M692,640.9c-1.13.13-3.14.26-5.06.37s-3.57.13-4.67.16l-.18-.88c1,0,2.82,0,4.69-.11s4.2-.23,5.14-.34Zm-1.55-6.42a3.85,3.85,0,1,1-3.83-3.37C688.71,631.11,690.46,632.4,690.46,634.48Zm-6.68,0a2.63,2.63,0,0,0,2.85,2.55c1.73,0,2.87-1,2.87-2.53a2.57,2.57,0,0,0-2.87-2.55A2.6,2.6,0,0,0,683.78,634.48ZM694,629.86v14.88H693V629.86Z"/><path d="M702.65,637.08h.85a29.85,29.85,0,0,0,6-.48l.11.81a33.25,33.25,0,0,1-6.29.48h-1.57v-6.62h6.51v.8h-5.58Zm.77,7.12v-4.45h.91v3.63h8.79v.82Zm9-9.11v5.59h-.93V629.86h.93v4.43h2.35v.8Z"/><path d="M716.62,637.6v-6.7h.92v2.38h3.86V630.9h.93v6.7Zm4.78-3.52h-3.86v2.72h3.86Zm6,10.66v-4.41h-8.95v-.81h9.89v5.22Zm0-6v-4.11h-2.19v4h-.93v-8.45h.93v3.66h2.19v-3.93h.93v8.86Z"/><path d="M731.19,630.85h8v.8h-3.57v.58c0,2,2,3.76,3.81,4.38-.19.24-.35.51-.53.75a7.56,7.56,0,0,1-3.75-3.36c-.38,1.36-2.16,3-3.85,3.76-.16-.22-.34-.48-.52-.7,1.85-.75,3.94-2.8,3.94-4.77v-.64h-3.52Zm2,13.78V641h8.5v-1.74h-8.58v-.8h9.49v3.34h-8.5v2h9.11v.8Zm8.47-7v-7.74h.93v7.74Z"/><path d="M745.25,638.5v-.8H758.7v.8Zm6.73-2.4c-3.28,0-5.06-1.07-5.06-2.8s1.78-2.82,5.06-2.82,5.07,1.09,5.07,2.82S755.26,636.1,752,636.1Zm-4.92,8.16v-4.09H748v3.28h9.06v.81Zm4.92-13c-2.56,0-4.1.78-4.1,2s1.54,2,4.1,2,4.13-.77,4.13-2S754.54,631.3,752,631.3Z"/><path d="M764.47,638.66v-.82H777.9v.82Zm11.64,1.55v4.66h-.92V641H766v-.82Zm-8.92-6.43v1.71H776v.8h-9.77v-5.68H776v.8h-8.85V633h8.4v.8Z"/><path d="M779.7,631.06h7.83v.8h-3.47v1c0,2,1.87,3.84,3.71,4.44l-.53.78a7.51,7.51,0,0,1-3.68-3.49c-.37,1.36-2.13,3.07-3.83,3.87l-.51-.68c1.88-.76,3.94-2.9,3.94-4.93v-1H779.7Zm6.69,13.67c-3.26,0-5-1.08-5-2.74s1.76-2.74,5-2.74,5,1.08,5,2.74S789.64,644.73,786.39,644.73Zm-4-2.74c0,1.17,1.49,1.92,4,1.92s4-.75,4-1.92-1.47-1.92-4-1.92S782.36,640.82,782.36,642Zm4.93-7.44v-.8h3.06v-3.89h.93v9.2h-.93v-4.51Z"/><path d="M793.86,633.59v-.8h8.47v.8Zm4.18,6c-1.87,0-3.33-1-3.33-2.57s1.44-2.56,3.33-2.56,3.36,1,3.36,2.56S799.94,639.6,798,639.6Zm0-4.33c-1.31,0-2.4.69-2.4,1.76s1.1,1.77,2.4,1.77,2.43-.65,2.43-1.77S799.37,635.27,798,635.27Zm-2-3.83v-.8h4.21v.8Zm.11,12.74v-3.66H797v2.85h8.89v.81Zm9.13-8.16v4.69h-.93V629.86h.93v5.36h2.35v.8Z"/><path d="M819.37,640.17v-2.34h-6.28V637h13.45v.82h-6.26v2.34h4.53v4.7h-.93V641H814.6v-.79Zm5.94-4.68a8.29,8.29,0,0,1-5.49-3.5c-.52,1.29-2.63,3-5.41,3.52l-.48-.79c2.49-.27,5.42-2.16,5.42-4.16V630h.95v.53c0,2,3.13,3.84,5.47,4.13Z"/><path d="M834.06,644.74V639.3h-6.25v-.8h13.45v.8H835v5.44Zm6-7.86c-2.75-.52-4.91-2-5.52-3.36-.53,1.3-2.6,2.87-5.45,3.36l-.46-.8c2.51-.29,5.44-1.9,5.44-4v-.27h-4.86V631h10.64v.8H835v.27c0,2.08,3.25,3.68,5.5,3.94Z"/><path d="M852.65,640.9c-1.14.13-3.14.26-5.06.37s-3.57.13-4.67.16l-.18-.88c1,0,2.82,0,4.69-.11s4.2-.23,5.14-.34Zm-1.55-6.42a3.85,3.85,0,1,1-3.83-3.37C849.35,631.11,851.1,632.4,851.1,634.48Zm-6.68,0a2.63,2.63,0,0,0,2.85,2.55c1.73,0,2.87-1,2.87-2.53a2.57,2.57,0,0,0-2.87-2.55A2.6,2.6,0,0,0,844.42,634.48Zm10.17-4.62v14.88h-.93V629.86Z"/><path d="M868.6,641a9.42,9.42,0,0,1-3.1-4.59,8.63,8.63,0,0,1-3.22,5l-.67-.75A7.92,7.92,0,0,0,865,634.1v-2.69h.94v2.66a7.87,7.87,0,0,0,3.28,6.16Zm1.78,3v-7.76h-2.76v-.8h2.76v-5.14h.93v13.7Zm2.94.8V629.86h.93v14.88Z"/><path d="M883.62,638.26V642h6.28v.8H876.45V642h6.25v-3.75h-4.9v-.8h2.51l-.41-4.24,1-.19.31,4.43h3.9l.56-4.4,1,.17-.64,4.23h2.51v.8Zm-5.82-6v-.81h10.69v.81Z"/><path d="M891.17,637.72V637h13.45v.76Zm1.7,6.66v-3.14H902v-1.33h-9.11v-.8h10V642h-9.09v1.53h9.64v.81Zm.1-8.84v-3h8.91v-1.35h-9v-.8h9.88v3h-8.92v1.36h9.18v.8Z"/><path d="M918.39,634.45a3.82,3.82,0,1,1-3.81-3.62A3.64,3.64,0,0,1,918.39,634.45Zm-6.74,0a2.85,2.85,0,0,0,2.93,2.82,2.81,2.81,0,1,0,0-5.62A2.84,2.84,0,0,0,911.65,634.45Zm1.22,9.73V639.7h.93v3.68h9.07v.8Zm8.68-3.52v-10.8h.92v10.8Z"/><path d="M933.19,637.72a7.2,7.2,0,0,1-3.58-3.73,7.74,7.74,0,0,1-3.72,4.16l-.62-.72a6.17,6.17,0,0,0,3.81-5.35v-1.49H930v1.48c0,2.43,2.07,4.27,3.75,4.91Zm3.08,7v-4.33h-8.92v-.82h9.84v5.15Zm0-6v-8.88h.92v8.88Z"/><path d="M939.78,634.29v-.8h8.72v.8Zm4.47,7.17a3,3,0,1,1,3.39-3A3.11,3.11,0,0,1,944.25,641.46Zm0-5.2a2.21,2.21,0,1,0,2.46,2.21A2.29,2.29,0,0,0,944.25,636.26Zm-2.31-4.45V631h4.24v.82Zm9.21,5.23v7.7h-.93V629.86h.93v6.4h2.52V637Z"/><path d="M954.53,642.81V642h6.25v-4.15h-4.44V631.2h9.89v.8h-9v5.06h9v.8H961.7V642H968v.8Z"/><path d="M976.42,636.32v1.81h6.28v.8H969.25v-.8h6.25v-1.81h-4.45v-3.41H980v-1.68h-9v-.8h9.88v3.28H972v1.81h9.14v.8Zm4.47,4.2v4.35H980v-3.54h-9.22v-.81Z"/><path d="M988.45,642.81V642h6.24v-4.15h-4.43V631.2h9.89v.8h-9v5.06h9v.8h-4.58V642h6.28v.8Z"/><path d="M1011.42,634.37a3.41,3.41,0,0,1-3.29,3.33v2.67c1.75-.09,3.51-.24,4.41-.37l.08.8c-1,.15-3,.32-4.81.45-1.71.12-3.31.15-4.61.15l-.17-.87c1,0,2.54,0,4.19-.09v-2.72a3.44,3.44,0,0,1-3.39-3.33,3.5,3.5,0,0,1,3.79-3.36C1009.69,631,1011.42,632.31,1011.42,634.37Zm-6.63,0a2.61,2.61,0,0,0,2.83,2.53c1.72,0,2.84-1,2.84-2.51a2.54,2.54,0,0,0-2.84-2.53A2.58,2.58,0,0,0,1004.79,634.37Zm9.68,2.66v7.71h-.93V629.86h.93v6.37H1017v.8Z"/><path d="M1024.13,641.48V638.4h-6.24v-.81h13.45v.81h-6.28v3.08Zm1-10v.17c0,2,3.23,3.52,5.52,3.8l-.45.81c-2.71-.53-4.9-1.91-5.56-3.21-.52,1.28-2.72,2.69-5.49,3.21l-.44-.82c2.46-.29,5.47-1.76,5.47-3.79v-.17h-5v-.79H1030v.79Zm-5.4,12.71V640h.91v3.43h9.24v.81Z"/><path d="M1035.24,640.1a36.12,36.12,0,0,0,6.21-.5l.11.79a42.74,42.74,0,0,1-6.43.53h-1.81v-9.53h6.75v.8h-5.83v7.91Zm8.7-4.18h2.55v.8h-2.55v8H1043V629.86h.92Z"/><path d="M1047.49,641.93h1.11V643h-1.11Z"/><path class="cls-3" d="M746,929a14.23,14.23,0,0,1-.25-1.77,14.26,14.26,0,0,1-1.7,1.43,12.05,12.05,0,0,1-4.45,2,11.76,11.76,0,0,1-2.7.3,12.4,12.4,0,0,1-4.21-.67,9.78,9.78,0,0,1-3.18-1.84,7.77,7.77,0,0,1-2-2.72,8.21,8.21,0,0,1-.72-3.43,8.91,8.91,0,0,1,1-4.22,8.48,8.48,0,0,1,2.72-3,12.73,12.73,0,0,1,4.23-1.78,23.57,23.57,0,0,1,5.54-.6h5.46v-2.3a5.68,5.68,0,0,0-.48-2.38,5.33,5.33,0,0,0-1.38-1.81,6.54,6.54,0,0,0-2.18-1.14,9.59,9.59,0,0,0-2.88-.4,8.79,8.79,0,0,0-2.67.37,6.87,6.87,0,0,0-2,1,4.55,4.55,0,0,0-1.26,1.48,3.86,3.86,0,0,0-.44,1.77h-5a7,7,0,0,1,.82-3.14,8.74,8.74,0,0,1,2.31-2.78,12,12,0,0,1,3.64-2,14.55,14.55,0,0,1,4.89-.76,17,17,0,0,1,4.62.61,10.83,10.83,0,0,1,3.71,1.83,9,9,0,0,1,2.44,3.08,9.83,9.83,0,0,1,.89,4.3V924a19,19,0,0,0,.27,3.1,13.29,13.29,0,0,0,.76,2.86v.43H746.5A5.47,5.47,0,0,1,746,929Zm-5.64-2.77a10.19,10.19,0,0,0,2.33-1,8.39,8.39,0,0,0,1.78-1.41,7,7,0,0,0,1.19-1.67v-5.92H741a20.21,20.21,0,0,0-4.53.44,7.4,7.4,0,0,0-3.07,1.37,4.14,4.14,0,0,0-1.23,1.54,4.69,4.69,0,0,0-.42,2,5.43,5.43,0,0,0,.36,2,4,4,0,0,0,1.1,1.57,5,5,0,0,0,1.84,1.06,8,8,0,0,0,2.57.37A9.63,9.63,0,0,0,740.38,926.18Z"/><path class="cls-3" d="M772.36,901.09h11.15V905H772.36v15.91a7.8,7.8,0,0,0,.44,2.82,4.31,4.31,0,0,0,2.93,2.7,8,8,0,0,0,2.1.27,16.34,16.34,0,0,0,1.68-.09c.57-.06,1.14-.14,1.7-.23s1-.19,1.53-.29.87-.18,1.18-.25l.7,3.54a6.64,6.64,0,0,1-1.51.67,18.61,18.61,0,0,1-2,.47,21.18,21.18,0,0,1-2.24.32c-.78.07-1.56.11-2.34.11a11.55,11.55,0,0,1-3.63-.55,7.39,7.39,0,0,1-2.94-1.78,8,8,0,0,1-2-3.09,13.11,13.11,0,0,1-.72-4.62V905h-7.68v-3.87h7.68V894h5Z"/><path class="cls-3" d="M805.62,901.09h11.15V905H805.62v15.91a7.82,7.82,0,0,0,.43,2.82,4.45,4.45,0,0,0,1.19,1.76,4.32,4.32,0,0,0,1.75.94,7.82,7.82,0,0,0,2.09.27,16.34,16.34,0,0,0,1.68-.09c.58-.06,1.15-.14,1.71-.23s1-.19,1.52-.29.87-.18,1.18-.25l.7,3.54a6.64,6.64,0,0,1-1.51.67,18.61,18.61,0,0,1-2,.47,21,21,0,0,1-2.23.32c-.79.07-1.57.11-2.34.11a11.61,11.61,0,0,1-3.64-.55,7.39,7.39,0,0,1-2.94-1.78,8.16,8.16,0,0,1-2-3.09,13.11,13.11,0,0,1-.72-4.62V905H792.9v-3.87h7.68V894h5Z"/><path class="cls-3" d="M845.79,929a14.22,14.22,0,0,1-.26-1.77,15,15,0,0,1-1.69,1.43,12.08,12.08,0,0,1-2.05,1.19,12.24,12.24,0,0,1-5.11,1.11,12.44,12.44,0,0,1-4.21-.67,9.88,9.88,0,0,1-3.18-1.84,7.89,7.89,0,0,1-2-2.72,8.21,8.21,0,0,1-.72-3.43,8.91,8.91,0,0,1,1-4.22,8.48,8.48,0,0,1,2.72-3,12.88,12.88,0,0,1,4.24-1.78,23.49,23.49,0,0,1,5.53-.6h5.47v-2.3a5.54,5.54,0,0,0-.49-2.38,5.09,5.09,0,0,0-1.38-1.81A6.35,6.35,0,0,0,841.4,905a9.55,9.55,0,0,0-2.88-.4,8.84,8.84,0,0,0-2.67.37,6.8,6.8,0,0,0-2,1,4.43,4.43,0,0,0-1.26,1.48,3.75,3.75,0,0,0-.45,1.77h-5a7.1,7.1,0,0,1,.82-3.14,8.91,8.91,0,0,1,2.32-2.78,11.81,11.81,0,0,1,3.64-2,14.49,14.49,0,0,1,4.88-.76,17.11,17.11,0,0,1,4.63.61,10.87,10.87,0,0,1,3.7,1.83,9,9,0,0,1,2.44,3.08,9.69,9.69,0,0,1,.89,4.3V924a19,19,0,0,0,.27,3.1,13.9,13.9,0,0,0,.76,2.86v.43h-5.22A5.14,5.14,0,0,1,845.79,929Zm-5.65-2.77a10,10,0,0,0,2.33-1,8.45,8.45,0,0,0,1.79-1.41,7.25,7.25,0,0,0,1.19-1.67v-5.92h-4.66a20.21,20.21,0,0,0-4.53.44,7.46,7.46,0,0,0-3.07,1.37,4.24,4.24,0,0,0-1.23,1.54,4.69,4.69,0,0,0-.42,2,5.23,5.23,0,0,0,.37,2,3.94,3.94,0,0,0,1.09,1.57,5.09,5.09,0,0,0,1.84,1.06,8,8,0,0,0,2.57.37A9.53,9.53,0,0,0,840.14,926.18Z"/><path class="cls-3" d="M875.39,926.42a7.45,7.45,0,0,0,2.28-1.22,5.87,5.87,0,0,0,1.61-1.8,4.56,4.56,0,0,0,.64-2.26h4.74a7.76,7.76,0,0,1-1,3.72A10.41,10.41,0,0,1,881,928a13.15,13.15,0,0,1-3.79,2.15,12.45,12.45,0,0,1-4.46.8,13.41,13.41,0,0,1-5.82-1.19,11.81,11.81,0,0,1-4.14-3.22,13.27,13.27,0,0,1-2.51-4.64,18.21,18.21,0,0,1-.84-5.56v-1.14a18.18,18.18,0,0,1,.84-5.54,13.54,13.54,0,0,1,2.51-4.68,12,12,0,0,1,4.14-3.2,14.53,14.53,0,0,1,10.6-.36,12.06,12.06,0,0,1,3.77,2.23,10.29,10.29,0,0,1,2.46,3.38,9.83,9.83,0,0,1,.9,4.17h-4.74a6.11,6.11,0,0,0-.58-2.5,6.7,6.7,0,0,0-1.5-2.07,6.87,6.87,0,0,0-2.26-1.41,7.77,7.77,0,0,0-2.83-.51,7.28,7.28,0,0,0-6.47,3.35,10.44,10.44,0,0,0-1.39,3.38,17.13,17.13,0,0,0-.42,3.76v1.14a17.35,17.35,0,0,0,.42,3.8,10,10,0,0,0,1.39,3.37,7.33,7.33,0,0,0,2.53,2.45,7.68,7.68,0,0,0,3.94.93A8.2,8.2,0,0,0,875.39,926.42Z"/><path class="cls-3" d="M899.86,903.81a11.75,11.75,0,0,1,1.54-1.31,9.71,9.71,0,0,1,2.86-1.43,11.52,11.52,0,0,1,3.31-.52,12.26,12.26,0,0,1,4.18.67,7.88,7.88,0,0,1,3.21,2.07,9.47,9.47,0,0,1,2,3.55,16.17,16.17,0,0,1,.72,5.1v18.43h-5V911.89a10.32,10.32,0,0,0-.4-3,5.65,5.65,0,0,0-1.19-2.18,5.19,5.19,0,0,0-2.11-1.42,7.88,7.88,0,0,0-2.93-.45,8.73,8.73,0,0,0-2.57.38,8.14,8.14,0,0,0-2.24,1.08,9,9,0,0,0-1.5,1.26,10,10,0,0,0-1.23,1.58v21.27h-5V888.81h5v16.64A10.53,10.53,0,0,1,899.86,903.81Z"/><path class="cls-3" d="M929.22,903.85a6.68,6.68,0,0,1,2.34-2.41,7,7,0,0,1,3.5-.89,7.94,7.94,0,0,1,2.1.26,5.47,5.47,0,0,1,1.64.74,5.06,5.06,0,0,1,.93.92,5.85,5.85,0,0,1,.72,1.22,7,7,0,0,1,.89-1.16,6.65,6.65,0,0,1,1.11-.95,7,7,0,0,1,1.69-.73,8.24,8.24,0,0,1,2.05-.3,7.82,7.82,0,0,1,2.73.45,5.43,5.43,0,0,1,2.05,1.31,6.26,6.26,0,0,1,1.41,2.53,12.17,12.17,0,0,1,.49,3.67v21.86h-4.76V908.45a5.67,5.67,0,0,0-.22-1.62,3,3,0,0,0-.62-1.16,2.71,2.71,0,0,0-1.07-.65,5.07,5.07,0,0,0-3,0,2.9,2.9,0,0,0-1.76,1.64,4.27,4.27,0,0,0-.32,1.23v22.46h-4.76V908.43a5.71,5.71,0,0,0-.21-1.63,2.71,2.71,0,0,0-.63-1.16,2.44,2.44,0,0,0-1-.64,4.63,4.63,0,0,0-1.42-.2,5.5,5.5,0,0,0-1.55.2,3.19,3.19,0,0,0-1.13.59,3.55,3.55,0,0,0-.61.67,3.63,3.63,0,0,0-.41.81v23.3h-4.77V901.09h4.5Z"/><path class="cls-3" d="M967.3,929.86a13,13,0,0,1-4.42-3,13.5,13.5,0,0,1-2.87-4.49,15.39,15.39,0,0,1-1-5.66v-1.14a16.7,16.7,0,0,1,1.14-6.34,14.66,14.66,0,0,1,3-4.75,13.31,13.31,0,0,1,4.26-2.95,12.47,12.47,0,0,1,4.91-1,13.07,13.07,0,0,1,5.54,1.1,10.84,10.84,0,0,1,3.93,3,12.85,12.85,0,0,1,2.34,4.57,19.84,19.84,0,0,1,.78,5.68v2.25H964v.19a13.24,13.24,0,0,0,.85,3.76,9.09,9.09,0,0,0,1.83,2.86,8.47,8.47,0,0,0,2.87,2.09,9,9,0,0,0,3.7.76,10.1,10.1,0,0,0,4.77-1.09,10.27,10.27,0,0,0,3.46-2.86l3.06,2.38a13,13,0,0,1-4.37,3.93,13.89,13.89,0,0,1-7.19,1.72A15,15,0,0,1,967.3,929.86Zm2.16-24.64a7.57,7.57,0,0,0-2.44,1.61,9.53,9.53,0,0,0-1.83,2.64,12.74,12.74,0,0,0-1,3.58H979.9v-.24a9.4,9.4,0,0,0-.51-2.91,8.65,8.65,0,0,0-1.44-2.69,6.9,6.9,0,0,0-2.31-1.84,7.29,7.29,0,0,0-3.32-.7A7.43,7.43,0,0,0,969.46,905.22Z"/><path class="cls-3" d="M993.29,901.09h4.49l.36,4.33a12.83,12.83,0,0,1,1.42-1.69,10.74,10.74,0,0,1,1.63-1.34,11.32,11.32,0,0,1,2.83-1.34,11.8,11.8,0,0,1,3.24-.5,12.86,12.86,0,0,1,4.18.65,8,8,0,0,1,3.2,2,9.18,9.18,0,0,1,2.05,3.51,16,16,0,0,1,.71,5v18.59h-5V911.89a10.85,10.85,0,0,0-.44-3.3,5.35,5.35,0,0,0-1.27-2.19,5.07,5.07,0,0,0-2.1-1.22,9.67,9.67,0,0,0-2.82-.38,8.19,8.19,0,0,0-2.57.39,8.8,8.8,0,0,0-2.2,1.07,9.75,9.75,0,0,0-1.5,1.38,9.53,9.53,0,0,0-1.2,1.73v21h-5Z"/><path class="cls-3" d="M1038.4,901.09h11.15V905H1038.4v15.91a7.82,7.82,0,0,0,.43,2.82,4.45,4.45,0,0,0,1.19,1.76,4.32,4.32,0,0,0,1.75.94,8,8,0,0,0,2.1.27,16,16,0,0,0,1.67-.09c.58-.06,1.15-.14,1.71-.23s1-.19,1.53-.29.87-.18,1.17-.25l.71,3.54a6.73,6.73,0,0,1-1.52.67,17.47,17.47,0,0,1-2,.47,20.61,20.61,0,0,1-2.23.32c-.78.07-1.56.11-2.34.11a11.61,11.61,0,0,1-3.64-.55,7.35,7.35,0,0,1-2.93-1.78,8.18,8.18,0,0,1-2-3.09,13.35,13.35,0,0,1-.71-4.62V905h-7.69v-3.87h7.69V894h5Z"/><path d="M922,876.77V846.66l-9.4,3.58v-4.18l13.6-5.23h.37v35.94Z"/><path d="M952.49,877.49a12.72,12.72,0,0,1-3.13,4.32l-2.84-1.56a11.44,11.44,0,0,0,1.68-3.68,16.26,16.26,0,0,0,.49-4v-4.42h5v4.34A12.22,12.22,0,0,1,952.49,877.49Zm-3.82-31.06a3.34,3.34,0,0,1,2.68-1,3.48,3.48,0,0,1,2.71,1,3.59,3.59,0,0,1,.92,2.51,3.42,3.42,0,0,1-.93,2.44,3.56,3.56,0,0,1-2.7,1,3.43,3.43,0,0,1-2.67-1,3.51,3.51,0,0,1-.9-2.43A3.67,3.67,0,0,1,948.67,846.43Z"/><path d="M987.12,880.83v-14H969.94v-3.1h38.18v3.1H990.8v14Zm-12.55-22.05V840.14h3.69v6.23H999.8v-6.23h3.69v18.64Zm25.23-9.41H978.26v6.37H999.8Z"/><path d="M1012.33,846.83H1035v3h-9.32c.32,5.09,5.32,9.32,10.14,10.5l-1.87,2.86a19,19,0,0,1-10.18-8.45c-1.36,3.77-5.77,8-10.64,9.68l-2-2.82c5.5-1.63,10.41-6.54,10.69-11.77h-9.51Zm31.87,19.5v14.46h-3.68V869.38h-23.64v-3Zm-26.37-26.59h11.82v3.18h-11.82Zm26.37,13.09v11.32h-3.63V838.51h3.63v11.23h6.46v3.09Z"/><polygon class="cls-4" points="902.45 67.32 902.45 39.54 821.05 39.54 821.05 73.17 832.79 73.17 832.79 102.97 953.6 102.97 953.6 67.32 902.45 67.32"/><path d="M843.71,60v1.45h-2v3.25H840V61.43H833.6v-1l6.26-9.69h1.9V60ZM840,60V53.05l-.29.54L835.57,60Z"/><path d="M850.41,65a5.05,5.05,0,0,1-1.22,1.68l-1.1-.61a4.61,4.61,0,0,0,.65-1.43,6.25,6.25,0,0,0,.19-1.57V61.31h1.93V63A4.77,4.77,0,0,1,850.41,65Zm-1.49-12.09a1.3,1.3,0,0,1,1.05-.4,1.33,1.33,0,0,1,1,.4,1.39,1.39,0,0,1,.36,1,1.32,1.32,0,0,1-.36.95,1.38,1.38,0,0,1-1,.38,1.32,1.32,0,0,1-1-.38,1.35,1.35,0,0,1-.35-.95A1.44,1.44,0,0,1,848.92,52.87Z"/><path d="M858.47,64.14V62.93h6.69V58.84h1.43v4.09h6.75v1.21Zm8.19-11.54V53c0,2.59,3.63,5,6.11,5.49l-.74,1.2c-2.64-.74-5.35-2.8-6.13-4.6-.69,1.86-3.41,3.88-6.14,4.57l-.69-1.21c2.6-.46,6.09-2.83,6.09-5.45V52.6h-5.41V51.45H872.1V52.6Z"/><path d="M874.67,53.52V52.35h9.59v1.17Zm4.8,6c-2.23,0-3.82-1.05-3.82-2.66s1.55-2.67,3.82-2.67,3.82,1,3.82,2.67S881.7,59.52,879.47,59.52ZM877,66.12v-6h1.44v1.75H886V60.12h1.44v6Zm2.43-10.78c-1.28,0-2.41.55-2.41,1.52s1.15,1.52,2.41,1.52,2.39-.58,2.39-1.52S880.76,55.34,879.47,55.34Zm-2.37-4.12V50h4.74v1.21ZM886,63.07h-7.48v1.84H886Zm1.44-7.43v3.68H886V49.78h1.44v4.66h2.51v1.2Z"/><path class="cls-3" d="M849.71,91.77a5,5,0,0,1-.1-.69,6.08,6.08,0,0,1-.66.56,5.1,5.1,0,0,1-.79.46,5.78,5.78,0,0,1-.94.32,5,5,0,0,1-1.05.11,5,5,0,0,1-1.64-.26,3.86,3.86,0,0,1-1.24-.72,3,3,0,0,1-.79-1.06,3.11,3.11,0,0,1-.28-1.33,3.45,3.45,0,0,1,.37-1.64,3.24,3.24,0,0,1,1.06-1.18,5,5,0,0,1,1.65-.7,9.45,9.45,0,0,1,2.15-.23h2.13v-.89a2.27,2.27,0,0,0-.19-.93,2.2,2.2,0,0,0-.54-.71,2.72,2.72,0,0,0-.85-.44,3.83,3.83,0,0,0-1.12-.16,3.39,3.39,0,0,0-1,.15,2.65,2.65,0,0,0-.77.39,1.71,1.71,0,0,0-.49.58,1.4,1.4,0,0,0-.17.68h-2a2.62,2.62,0,0,1,.32-1.22,3.51,3.51,0,0,1,.9-1.08,4.69,4.69,0,0,1,1.42-.77,5.57,5.57,0,0,1,1.9-.3,6.53,6.53,0,0,1,1.8.24,4.41,4.41,0,0,1,1.44.71,3.59,3.59,0,0,1,.95,1.2,3.85,3.85,0,0,1,.35,1.68v5.3a7.37,7.37,0,0,0,.1,1.2,4.93,4.93,0,0,0,.3,1.11v.17h-2A2.22,2.22,0,0,1,849.71,91.77Zm-2.2-1.08a4.16,4.16,0,0,0,.91-.39,3.21,3.21,0,0,0,.69-.55,2.73,2.73,0,0,0,.47-.65V86.79h-1.81A7.66,7.66,0,0,0,846,87a2.79,2.79,0,0,0-1.19.53,1.72,1.72,0,0,0-.48.6,1.8,1.8,0,0,0-.17.79,2,2,0,0,0,.15.78,1.52,1.52,0,0,0,.42.61,2.09,2.09,0,0,0,.72.41,3,3,0,0,0,1,.15A3.62,3.62,0,0,0,847.51,90.69Z"/><path class="cls-3" d="M862.78,88.67a1.36,1.36,0,0,0-.46-.51,3.81,3.81,0,0,0-.86-.43,10.2,10.2,0,0,0-1.34-.35,13.24,13.24,0,0,1-1.79-.48,5.66,5.66,0,0,1-1.37-.69,2.78,2.78,0,0,1-.89-.92,2.29,2.29,0,0,1-.32-1.24,2.7,2.7,0,0,1,.33-1.3,3.37,3.37,0,0,1,.91-1.06A4.55,4.55,0,0,1,858.4,81a5.65,5.65,0,0,1,1.79-.27,6.17,6.17,0,0,1,1.9.28,4.15,4.15,0,0,1,1.43.76,3.27,3.27,0,0,1,.91,1.13,3,3,0,0,1,.32,1.39h-1.94a1.61,1.61,0,0,0-.19-.72,2.22,2.22,0,0,0-.53-.62,2.8,2.8,0,0,0-.82-.45,3.31,3.31,0,0,0-1.08-.16,4,4,0,0,0-1.09.13,2.4,2.4,0,0,0-.77.37,1.5,1.5,0,0,0-.47.54,1.28,1.28,0,0,0-.16.63,1.43,1.43,0,0,0,.12.6,1.25,1.25,0,0,0,.45.47,3.15,3.15,0,0,0,.82.38,9.71,9.71,0,0,0,1.32.33,15.87,15.87,0,0,1,1.89.51,5.54,5.54,0,0,1,1.4.69,2.89,2.89,0,0,1,.87,1,2.5,2.5,0,0,1,.3,1.24,2.77,2.77,0,0,1-.34,1.38,3.13,3.13,0,0,1-1,1.06,4.39,4.39,0,0,1-1.46.69,6.86,6.86,0,0,1-1.86.24,6.3,6.3,0,0,1-2.07-.31,4.7,4.7,0,0,1-1.52-.83,3.31,3.31,0,0,1-1-1.18,3.13,3.13,0,0,1-.33-1.4h1.95a2.05,2.05,0,0,0,.32,1,2.32,2.32,0,0,0,.7.66,2.76,2.76,0,0,0,.92.36,4.85,4.85,0,0,0,1,.1,4.5,4.5,0,0,0,1.35-.18,2.39,2.39,0,0,0,.91-.51,1.51,1.51,0,0,0,.31-.45,1.25,1.25,0,0,0,.1-.51A1.33,1.33,0,0,0,862.78,88.67Z"/><path class="cls-3" d="M875.73,88.67a1.4,1.4,0,0,0-.47-.51,3.61,3.61,0,0,0-.86-.43,9.79,9.79,0,0,0-1.34-.35,13.09,13.09,0,0,1-1.78-.48,5.56,5.56,0,0,1-1.38-.69,2.88,2.88,0,0,1-.89-.92,2.38,2.38,0,0,1-.32-1.24,2.7,2.7,0,0,1,.33-1.3,3.4,3.4,0,0,1,.92-1.06,4.5,4.5,0,0,1,1.4-.71,5.71,5.71,0,0,1,1.8-.27A6.15,6.15,0,0,1,875,81a4.3,4.3,0,0,1,1.44.76,3.52,3.52,0,0,1,.91,1.13,3.15,3.15,0,0,1,.32,1.39h-2a1.49,1.49,0,0,0-.19-.72,2.06,2.06,0,0,0-.53-.62,2.62,2.62,0,0,0-.81-.45,3.31,3.31,0,0,0-1.08-.16,3.92,3.92,0,0,0-1.09.13,2.46,2.46,0,0,0-.78.37,1.5,1.5,0,0,0-.47.54,1.38,1.38,0,0,0,0,1.23,1.15,1.15,0,0,0,.44.47,3.08,3.08,0,0,0,.83.38,9,9,0,0,0,1.32.33,16.21,16.21,0,0,1,1.88.51,5.22,5.22,0,0,1,1.4.69,2.89,2.89,0,0,1,.87,1,2.5,2.5,0,0,1,.3,1.24,2.77,2.77,0,0,1-.34,1.38,3.21,3.21,0,0,1-1,1.06,4.54,4.54,0,0,1-1.47.69,6.81,6.81,0,0,1-1.86.24,6.24,6.24,0,0,1-2.06-.31,4.65,4.65,0,0,1-1.53-.83,3.38,3.38,0,0,1-1-1.18,3,3,0,0,1-.34-1.4h2a2.16,2.16,0,0,0,.32,1,2.32,2.32,0,0,0,.7.66,2.85,2.85,0,0,0,.92.36,4.92,4.92,0,0,0,1,.1,4.62,4.62,0,0,0,1.36-.18,2.34,2.34,0,0,0,.9-.51,1.35,1.35,0,0,0,.31-.45,1.26,1.26,0,0,0,.11-.51A1.46,1.46,0,0,0,875.73,88.67Z"/><path class="cls-3" d="M884.06,92.12a5,5,0,0,1-2.83-2.9,5.82,5.82,0,0,1-.4-2.2v-.44a6.44,6.44,0,0,1,.44-2.47,5.64,5.64,0,0,1,1.18-1.85,5.11,5.11,0,0,1,1.66-1.15,4.88,4.88,0,0,1,1.91-.4,5.12,5.12,0,0,1,2.15.43,4.19,4.19,0,0,1,1.53,1.18,5.1,5.1,0,0,1,.92,1.78,7.77,7.77,0,0,1,.3,2.21v.87h-8.15v.08a4.82,4.82,0,0,0,.34,1.46,3.55,3.55,0,0,0,.71,1.12,3.46,3.46,0,0,0,1.11.81,3.61,3.61,0,0,0,1.45.29,3.93,3.93,0,0,0,3.2-1.54l1.19.93a5,5,0,0,1-1.7,1.53,5.4,5.4,0,0,1-2.8.67A5.87,5.87,0,0,1,884.06,92.12Zm.84-9.59a3,3,0,0,0-.95.63,3.86,3.86,0,0,0-.71,1,4.78,4.78,0,0,0-.4,1.4H889v-.09a3.75,3.75,0,0,0-.2-1.14,3.34,3.34,0,0,0-.56-1,2.66,2.66,0,0,0-.9-.72,2.86,2.86,0,0,0-1.29-.27A3,3,0,0,0,884.9,82.53Z"/><path class="cls-3" d="M895.13,82a2.57,2.57,0,0,1,.91-.94,2.74,2.74,0,0,1,1.36-.35,3.41,3.41,0,0,1,.82.1,2.5,2.5,0,0,1,.64.29,2,2,0,0,1,.36.36.34.34,0,1,0,.63,0,2.54,2.54,0,0,1,.43-.37,2.85,2.85,0,0,1,.66-.28,3.19,3.19,0,0,1,.79-.12,3,3,0,0,1,1.07.18,2.15,2.15,0,0,1,.8.51,2.5,2.5,0,0,1,.54,1,4.72,4.72,0,0,1,.19,1.43v8.51h-1.85V83.79a2.35,2.35,0,0,0-.08-.63,1.27,1.27,0,0,0-.25-.46,1.13,1.13,0,0,0-.41-.25,2,2,0,0,0-.58-.08,1.8,1.8,0,0,0-.6.09,1.25,1.25,0,0,0-.42.26,1.22,1.22,0,0,0-.26.38,1.41,1.41,0,0,0-.13.48v8.74H897.9V83.78a2.35,2.35,0,0,0-.08-.63,1,1,0,0,0-.25-.45.85.85,0,0,0-.39-.25,1.61,1.61,0,0,0-.56-.08,1.82,1.82,0,0,0-.6.08,1.4,1.4,0,0,0-.44.22,1.55,1.55,0,0,0-.24.27,1.82,1.82,0,0,0-.16.31v9.07h-1.85V80.93h1.75Z"/><path class="cls-3" d="M916.67,88.19a7.16,7.16,0,0,1-.32,1.29,5.72,5.72,0,0,1-.74,1.41,4.17,4.17,0,0,1-1.1,1,3.89,3.89,0,0,1-1,.44,4.2,4.2,0,0,1-1.2.16,4.72,4.72,0,0,1-1.34-.18,3.9,3.9,0,0,1-1.09-.51c-.15-.12-.3-.24-.44-.37A5.66,5.66,0,0,1,909,91l-.1,1.29h-1.79V76.14h2v6a3.58,3.58,0,0,1,.54-.56,4.31,4.31,0,0,1,.63-.42,3.8,3.8,0,0,1,.93-.34,4.73,4.73,0,0,1,1.09-.12,4.22,4.22,0,0,1,1.36.21,4,4,0,0,1,1.13.55,4.2,4.2,0,0,1,.81.82,5.58,5.58,0,0,1,.63,1.07,6.32,6.32,0,0,1,.43,1.47,9.19,9.19,0,0,1,.15,1.7v.22A9.55,9.55,0,0,1,916.67,88.19Zm-1.91-2.71a5.62,5.62,0,0,0-.2-1,4.21,4.21,0,0,0-.5-1,2.24,2.24,0,0,0-.74-.73,2.67,2.67,0,0,0-.69-.3,3.12,3.12,0,0,0-.84-.1,3,3,0,0,0-.93.13,2.59,2.59,0,0,0-1.34.93,3.32,3.32,0,0,0-.44.7v5a4.19,4.19,0,0,0,.45.7,3.13,3.13,0,0,0,.59.56,2.85,2.85,0,0,0,.76.38,3.37,3.37,0,0,0,.93.13,3,3,0,0,0,.88-.12,2.21,2.21,0,0,0,.72-.36,2.51,2.51,0,0,0,.71-.74,4.1,4.1,0,0,0,.45-1,4.94,4.94,0,0,0,.2-.9,8,8,0,0,0,.06-1v-.22A7.22,7.22,0,0,0,914.76,85.48Z"/><path class="cls-3" d="M926.2,76.14v14.5h3.71v1.68h-9.54V90.64h3.88V77.84h-3.88v-1.7Z"/><path class="cls-3" d="M933.28,96.86l-.55-.11.31-1.59.52,0,.41,0a1.33,1.33,0,0,0,.73-.22,3.35,3.35,0,0,0,.6-.53,4.38,4.38,0,0,0,.43-.63c.13-.22.22-.4.29-.54l.78-1.52-4.9-10.85h2.17l3.13,7.35.51,1.38.54-1.34,2.93-7.39h2.18l-5.78,13.15a7.43,7.43,0,0,1-.51.94,5,5,0,0,1-.75.91,4.19,4.19,0,0,1-1,.71,3.12,3.12,0,0,1-1.36.28A4.12,4.12,0,0,1,933.28,96.86Z"/><polygon class="cls-4" points="681.76 67.32 681.76 39.54 600.36 39.54 600.36 73.17 612.65 73.17 612.65 102.97 769.47 102.97 769.47 67.32 681.76 67.32"/><path d="M617.75,56.83a3.53,3.53,0,0,0,1.18-.18,2.62,2.62,0,0,0,.87-.5,2.13,2.13,0,0,0,.53-.76,2.58,2.58,0,0,0,.18-1,3.25,3.25,0,0,0-.16-1.09,2.06,2.06,0,0,0-.48-.78,2,2,0,0,0-.76-.44,3.37,3.37,0,0,0-1.05-.15,2.86,2.86,0,0,0-1,.17,2.18,2.18,0,0,0-.79.48,2.1,2.1,0,0,0-.52.76,2.61,2.61,0,0,0-.18,1h-1.79a3.63,3.63,0,0,1,.31-1.5,3.74,3.74,0,0,1,.88-1.24,4.12,4.12,0,0,1,1.36-.82,5,5,0,0,1,1.76-.3,5.45,5.45,0,0,1,1.72.25,3.61,3.61,0,0,1,1.34.76,3.25,3.25,0,0,1,.86,1.24,4.31,4.31,0,0,1,.31,1.71,3.08,3.08,0,0,1-.12.83,3.19,3.19,0,0,1-.39.84,3.4,3.4,0,0,1-.67.77,3.46,3.46,0,0,1-1,.6,3.81,3.81,0,0,1,1.14.58,3.05,3.05,0,0,1,.73.8,2.9,2.9,0,0,1,.38.93,4,4,0,0,1,.11,1,4.35,4.35,0,0,1-.33,1.74,3.76,3.76,0,0,1-.94,1.28,3.94,3.94,0,0,1-1.4.8,5.55,5.55,0,0,1-1.76.27,5.45,5.45,0,0,1-1.73-.26,4,4,0,0,1-1.41-.76,3.66,3.66,0,0,1-.94-1.22,3.62,3.62,0,0,1-.35-1.64h1.77a2.48,2.48,0,0,0,.19,1,2.08,2.08,0,0,0,.53.77,2.48,2.48,0,0,0,.84.49,3.48,3.48,0,0,0,1.1.17,3.44,3.44,0,0,0,1.1-.16,2.25,2.25,0,0,0,.84-.48,2.28,2.28,0,0,0,.53-.81,3.34,3.34,0,0,0,.19-1.15,2.78,2.78,0,0,0-.22-1.13,2.28,2.28,0,0,0-.6-.8,2.73,2.73,0,0,0-.95-.47,4.61,4.61,0,0,0-1.21-.15h-1.27V56.83Z"/><path d="M630.27,65a5.05,5.05,0,0,1-1.22,1.68L627.94,66a4.19,4.19,0,0,0,.65-1.43,6.25,6.25,0,0,0,.2-1.57V61.31h1.93V63A4.77,4.77,0,0,1,630.27,65Zm-1.49-12.09a1.29,1.29,0,0,1,1-.4,1.35,1.35,0,0,1,1.06.4,1.39,1.39,0,0,1,.36,1,1.29,1.29,0,0,1-.37.95,1.35,1.35,0,0,1-1,.38,1.33,1.33,0,0,1-1-.38,1.39,1.39,0,0,1-.35-.95A1.44,1.44,0,0,1,628.78,52.87Z"/><path d="M646.45,56.4v1.77h6.74v1.19H638.33V58.17H645V56.4h-4.79V50.17h1.43v2h8.23v-2h1.43V56.4Zm4.92,4.6v5.35h-1.44V62.19H640V61Zm-1.49-7.64h-8.23v1.86h8.23Z"/><path d="M662.1,62.35a9.69,9.69,0,0,1-3.38-4.48,8.67,8.67,0,0,1-3.41,4.92l-1-1a8.46,8.46,0,0,0,3.66-7V52.9h-3.27V51.71h7.84V52.9h-3.15v1.8A7.4,7.4,0,0,0,663,61.3Zm1.72,3.06V57h-2.64V55.82h2.64V50.17h1.39V65.41Zm3.25.83V49.78h1.42V66.24Z"/><path class="cls-3" d="M628.64,81.13a3.2,3.2,0,0,1,.88.2l-.26,1.9q-.57-.12-1.08-.18a9.2,9.2,0,0,0-1.07-.06,4.28,4.28,0,0,0-1.29.18,3.08,3.08,0,0,0-1.69,1.23,3.69,3.69,0,0,0-.48.95v7.31h-2V81.27h1.85l.09,1.52v.29a5.12,5.12,0,0,1,1.67-1.48,4.47,4.47,0,0,1,2.21-.54A8.63,8.63,0,0,1,628.64,81.13Z"/><path class="cls-3" d="M635.83,92.46a4.91,4.91,0,0,1-1.72-1.15A5.2,5.2,0,0,1,633,89.56a5.82,5.82,0,0,1-.4-2.2v-.44a6.63,6.63,0,0,1,.44-2.47,5.81,5.81,0,0,1,1.18-1.85,5.18,5.18,0,0,1,1.66-1.14,4.74,4.74,0,0,1,1.91-.4,5.12,5.12,0,0,1,2.15.42,4.32,4.32,0,0,1,1.54,1.18,5.08,5.08,0,0,1,.91,1.78,7.77,7.77,0,0,1,.3,2.21v.87h-8.14v.08a5.14,5.14,0,0,0,.33,1.46,3.74,3.74,0,0,0,.71,1.12,3.39,3.39,0,0,0,1.12.81,3.53,3.53,0,0,0,1.44.29,3.93,3.93,0,0,0,3.2-1.54l1.19.93a5,5,0,0,1-1.7,1.53,5.38,5.38,0,0,1-2.8.67A5.82,5.82,0,0,1,635.83,92.46Zm.83-9.59a2.93,2.93,0,0,0-.94.63,3.64,3.64,0,0,0-.71,1,4.78,4.78,0,0,0-.41,1.4h6.13v-.09a3.75,3.75,0,0,0-.2-1.14,3.15,3.15,0,0,0-.56-1,2.66,2.66,0,0,0-.9-.72,2.86,2.86,0,0,0-1.29-.27A3.05,3.05,0,0,0,636.66,82.87Z"/><path class="cls-3" d="M645.93,81.27h1.78l.1,1.24a3.16,3.16,0,0,1,.5-.53,3.29,3.29,0,0,1,.59-.41,3.57,3.57,0,0,1,1-.38,4.79,4.79,0,0,1,1.16-.13,4.17,4.17,0,0,1,1.94.43,4.07,4.07,0,0,1,1.41,1.2,5.34,5.34,0,0,1,.86,1.83,8.74,8.74,0,0,1,.3,2.35v.22a8.38,8.38,0,0,1-.3,2.28,5.49,5.49,0,0,1-.86,1.84A4.13,4.13,0,0,1,653,92.43a4,4,0,0,1-1.91.44,4.67,4.67,0,0,1-1.21-.14,4.24,4.24,0,0,1-1-.38,6,6,0,0,1-.52-.36,4.47,4.47,0,0,1-.45-.42V97h-2Zm7.5,4a4.31,4.31,0,0,0-.57-1.33,2.82,2.82,0,0,0-1-.9,2.73,2.73,0,0,0-1.41-.34,3.22,3.22,0,0,0-.84.1,2.69,2.69,0,0,0-.69.31,2.8,2.8,0,0,0-.6.49,3.88,3.88,0,0,0-.46.66v5.48a4.13,4.13,0,0,0,.41.59,2.35,2.35,0,0,0,.53.47,3.24,3.24,0,0,0,.75.35,3.36,3.36,0,0,0,.92.12,2.72,2.72,0,0,0,1.4-.34,2.85,2.85,0,0,0,1-.92,4.27,4.27,0,0,0,.57-1.34,6.92,6.92,0,0,0,.18-1.59v-.22A6.86,6.86,0,0,0,653.43,85.28Z"/><path class="cls-3" d="M665,76.48V91h3.71v1.68h-9.54V91h3.88V78.18h-3.88v-1.7Z"/><path class="cls-3" d="M678,81.27V91h3.72v1.68h-9.54V91H676V83h-3.87V81.27Zm-2.12-3.47a.87.87,0,0,1,.25-.38.86.86,0,0,1,.35-.21,1.26,1.26,0,0,1,.49-.08,1.21,1.21,0,0,1,.48.08.93.93,0,0,1,.35.21.87.87,0,0,1,.25.37,1.28,1.28,0,0,1,.09.48,1.23,1.23,0,0,1-2.05.79,1.13,1.13,0,0,1-.29-.79A1.5,1.5,0,0,1,675.84,77.8Z"/><path class="cls-3" d="M690.66,91.12a3,3,0,0,0,.89-.47,2.43,2.43,0,0,0,.62-.7,1.8,1.8,0,0,0,.25-.88h1.84a3,3,0,0,1-.39,1.45,4.06,4.06,0,0,1-1,1.2,5.31,5.31,0,0,1-1.47.84,4.91,4.91,0,0,1-1.74.31,5.23,5.23,0,0,1-2.27-.46,4.75,4.75,0,0,1-1.61-1.25,5.46,5.46,0,0,1-1-1.81,7.4,7.4,0,0,1-.32-2.17v-.44a7.38,7.38,0,0,1,.32-2.16,5.61,5.61,0,0,1,1-1.82,4.73,4.73,0,0,1,1.61-1.24,5.23,5.23,0,0,1,2.27-.46,5.12,5.12,0,0,1,1.86.32,4.69,4.69,0,0,1,1.47.87,4.31,4.31,0,0,1,1,1.31,3.89,3.89,0,0,1,.34,1.62h-1.84a2.3,2.3,0,0,0-.23-1,2.46,2.46,0,0,0-.58-.81,2.71,2.71,0,0,0-.88-.54,2.87,2.87,0,0,0-1.1-.2,3,3,0,0,0-1.52.36,3,3,0,0,0-1,.94,4.08,4.08,0,0,0-.54,1.32,6.53,6.53,0,0,0-.16,1.46v.44a6.64,6.64,0,0,0,.16,1.48,4.08,4.08,0,0,0,.54,1.32,2.91,2.91,0,0,0,1,1,3,3,0,0,0,1.53.36A3,3,0,0,0,690.66,91.12Z"/><path class="cls-3" d="M705,92.11c0-.22-.08-.45-.1-.69a4.63,4.63,0,0,1-.66.56,4.67,4.67,0,0,1-.79.46,5.78,5.78,0,0,1-.94.32,5,5,0,0,1-1,.11,5,5,0,0,1-1.64-.26,3.86,3.86,0,0,1-1.24-.72,3,3,0,0,1-.79-1.06,3.11,3.11,0,0,1-.28-1.33,3.45,3.45,0,0,1,.37-1.64A3.32,3.32,0,0,1,699,86.68a5.17,5.17,0,0,1,1.65-.7,9.45,9.45,0,0,1,2.15-.23h2.13v-.89a2.12,2.12,0,0,0-.19-.93,2.07,2.07,0,0,0-.54-.71,2.78,2.78,0,0,0-.84-.44,4,4,0,0,0-1.13-.16,3.28,3.28,0,0,0-1,.15,2.59,2.59,0,0,0-.78.39,1.71,1.71,0,0,0-.49.58,1.53,1.53,0,0,0-.17.69h-2a2.75,2.75,0,0,1,.32-1.23,3.51,3.51,0,0,1,.9-1.08,4.69,4.69,0,0,1,1.42-.77,5.62,5.62,0,0,1,1.9-.29,6.43,6.43,0,0,1,1.8.23,4.31,4.31,0,0,1,1.44.71,3.59,3.59,0,0,1,1,1.2,3.85,3.85,0,0,1,.35,1.68v5.3a7.37,7.37,0,0,0,.1,1.2,4.93,4.93,0,0,0,.3,1.11v.17h-2A2.2,2.2,0,0,1,705,92.11ZM702.83,91a4.08,4.08,0,0,0,.9-.39,3.55,3.55,0,0,0,.7-.55,3,3,0,0,0,.46-.65V87.13h-1.81a7.72,7.72,0,0,0-1.77.18,2.79,2.79,0,0,0-1.19.53,1.72,1.72,0,0,0-.48.6,1.8,1.8,0,0,0-.16.79,2,2,0,0,0,.14.78,1.54,1.54,0,0,0,.43.61,2,2,0,0,0,.71.41,3,3,0,0,0,1,.15A3.69,3.69,0,0,0,702.83,91Z"/><path class="cls-3" d="M715.27,81.27h4.34v1.5h-4.34V89a3.1,3.1,0,0,0,.17,1.1,1.65,1.65,0,0,0,.47.68,1.56,1.56,0,0,0,.68.37,3,3,0,0,0,.81.11,4.82,4.82,0,0,0,.65,0c.23,0,.45-.05.67-.09l.59-.11.46-.1.28,1.38a2.69,2.69,0,0,1-.59.26,7.71,7.71,0,0,1-.76.18,7.91,7.91,0,0,1-.87.13c-.31,0-.61,0-.91,0a4.64,4.64,0,0,1-1.42-.21,3,3,0,0,1-1.14-.69,3.36,3.36,0,0,1-.77-1.21,5.25,5.25,0,0,1-.27-1.8V82.77h-3v-1.5h3V78.51h1.95Z"/><path class="cls-3" d="M729.73,81.27V91h3.72v1.68h-9.54V91h3.88V83h-3.88V81.27Zm-2.12-3.47a1,1,0,0,1,.25-.38.93.93,0,0,1,.35-.21,1.29,1.29,0,0,1,.49-.08,1.26,1.26,0,0,1,.49.08,1.06,1.06,0,0,1,.6.58,1.51,1.51,0,0,1,.08.48,1.17,1.17,0,1,1-2.34,0A1.5,1.5,0,0,1,727.61,77.8Z"/><path class="cls-3" d="M736.36,84.57a5.42,5.42,0,0,1,1-1.84A4.71,4.71,0,0,1,739,81.5a5,5,0,0,1,2.16-.44,5.12,5.12,0,0,1,2.18.44A4.75,4.75,0,0,1,745,82.73a5.42,5.42,0,0,1,1,1.84,7,7,0,0,1,.35,2.29v.23a7.09,7.09,0,0,1-.35,2.29,5.47,5.47,0,0,1-1,1.83,4.72,4.72,0,0,1-1.63,1.22,5.55,5.55,0,0,1-4.33,0,4.72,4.72,0,0,1-1.63-1.22,5.47,5.47,0,0,1-1-1.83,7.09,7.09,0,0,1-.36-2.29v-.23A7,7,0,0,1,736.36,84.57Zm1.79,4.13a4.11,4.11,0,0,0,.61,1.34,2.86,2.86,0,0,0,2.43,1.25A2.78,2.78,0,0,0,742.6,91a3.05,3.05,0,0,0,1-.91,4.56,4.56,0,0,0,.6-1.34,6.51,6.51,0,0,0,.2-1.61v-.23a6,6,0,0,0-.21-1.6,4.56,4.56,0,0,0-.6-1.34,3.19,3.19,0,0,0-1-.92,2.84,2.84,0,0,0-1.42-.34,2.78,2.78,0,0,0-1.41.34,3,3,0,0,0-1,.92,4.11,4.11,0,0,0-.61,1.34,6.43,6.43,0,0,0-.2,1.6v.23A6.51,6.51,0,0,0,738.15,88.7Z"/><path class="cls-3" d="M749.49,81.27h1.75l.14,1.68a5.07,5.07,0,0,1,.55-.66,3.94,3.94,0,0,1,.64-.52,4.28,4.28,0,0,1,2.36-.71,4.87,4.87,0,0,1,1.62.25,3.07,3.07,0,0,1,1.25.79,3.58,3.58,0,0,1,.8,1.36,6.36,6.36,0,0,1,.28,2v7.23h-2V85.47a4.34,4.34,0,0,0-.17-1.29,2,2,0,0,0-.5-.85,1.83,1.83,0,0,0-.81-.47,3.7,3.7,0,0,0-1.1-.15,3.22,3.22,0,0,0-1,.15,3.27,3.27,0,0,0-.86.42,3.58,3.58,0,0,0-1,1.21v8.17h-2Z"/><polygon class="cls-4" points="535.85 67.32 535.85 39.54 454.45 39.54 454.45 73.17 466.03 73.17 466.03 102.97 548.78 102.97 548.78 67.32 535.85 67.32"/><path d="M468.8,64.68V63.4l4.58-5.09c.41-.46.75-.86,1-1.21a8.44,8.44,0,0,0,.66-1,3.66,3.66,0,0,0,.36-.84,3.23,3.23,0,0,0,.1-.82,2.84,2.84,0,0,0-.17-1,2.27,2.27,0,0,0-.48-.79,2.46,2.46,0,0,0-.79-.54,2.56,2.56,0,0,0-1-.19,3.16,3.16,0,0,0-1.21.2,2.06,2.06,0,0,0-.85.57,2.37,2.37,0,0,0-.52.9,4,4,0,0,0-.17,1.18h-1.78a4.66,4.66,0,0,1,.3-1.67,4,4,0,0,1,.9-1.36,4.1,4.1,0,0,1,1.42-.94,5.57,5.57,0,0,1,3.69-.05,4,4,0,0,1,1.34.81,3.62,3.62,0,0,1,.85,1.23,4.15,4.15,0,0,1,.29,1.55,3.7,3.7,0,0,1-.21,1.23,6.31,6.31,0,0,1-.57,1.21A9.86,9.86,0,0,1,475.7,58c-.32.38-.65.77-1,1.15l-3.75,4.08h7v1.45Z"/><path d="M485.24,65A4.92,4.92,0,0,1,484,66.64l-1.1-.61a4.39,4.39,0,0,0,.65-1.43,6.25,6.25,0,0,0,.19-1.57V61.31h1.94V63A4.78,4.78,0,0,1,485.24,65Zm-1.49-12.09a1.3,1.3,0,0,1,1.05-.4,1.33,1.33,0,0,1,1.05.4,1.39,1.39,0,0,1,.36,1,1.32,1.32,0,0,1-.36.95,1.35,1.35,0,0,1-1.05.38,1.32,1.32,0,0,1-1-.38,1.39,1.39,0,0,1-.35-.95A1.44,1.44,0,0,1,483.75,52.87Z"/><path d="M501.34,59.3A7.12,7.12,0,0,1,497.17,56a7.39,7.39,0,0,1-4.29,3.71l-.78-1.13c2.13-.64,4.23-2.49,4.32-4.55h-3.73V52.83h9V54h-3.77c.09,2,2.2,3.68,4.19,4.13ZM494.76,66V60.38H505.5V66Zm.21-14.6v-1.2h4.48v1.2Zm9.1,10.16h-7.88v3.26h7.88Zm0-2.11V49.78h1.43v9.68Z"/><path d="M517.21,54.44c0,2.33-1.91,3.8-4.23,3.8s-4.23-1.47-4.23-3.78a4.25,4.25,0,0,1,8.46,0Zm-7,0a2.6,2.6,0,0,0,2.8,2.62,2.62,2.62,0,1,0,0-5.22A2.59,2.59,0,0,0,510.18,54.44Zm1,11.57V59.5h1.43v2.09h7.75V59.5h1.43V66Zm9.18-3.26h-7.75v2.09h7.75Zm0-4.15V49.78h1.43V58.6Z"/><path class="cls-3" d="M479.18,91.8a4.86,4.86,0,0,1-1.72-1.15,5.26,5.26,0,0,1-1.12-1.74,6.11,6.11,0,0,1-.4-2.21v-.44a6.63,6.63,0,0,1,.44-2.47,5.92,5.92,0,0,1,1.18-1.85,5.18,5.18,0,0,1,1.66-1.14,4.74,4.74,0,0,1,1.91-.4,5.17,5.17,0,0,1,2.16.42A4.37,4.37,0,0,1,484.82,82a5,5,0,0,1,.91,1.78A7.82,7.82,0,0,1,486,86v.87h-8.14v.08a5.14,5.14,0,0,0,.33,1.46,3.74,3.74,0,0,0,.71,1.12,3.39,3.39,0,0,0,1.12.81,3.56,3.56,0,0,0,1.44.29,4,4,0,0,0,1.86-.42,3.93,3.93,0,0,0,1.34-1.11l1.19.92a4.83,4.83,0,0,1-1.7,1.53,5.34,5.34,0,0,1-2.79.67A5.68,5.68,0,0,1,479.18,91.8Zm.84-9.59a3.15,3.15,0,0,0-.95.63,3.55,3.55,0,0,0-.71,1,5,5,0,0,0-.41,1.39h6.13v-.09a3.42,3.42,0,0,0-.2-1.13,3.27,3.27,0,0,0-.55-1.05,2.6,2.6,0,0,0-.91-.72,2.86,2.86,0,0,0-1.29-.27A3,3,0,0,0,480,82.21Z"/><path class="cls-3" d="M489.3,80.61h1.75l.13,1.68a6,6,0,0,1,.55-.66,5,5,0,0,1,.64-.52,4.44,4.44,0,0,1,1.1-.52,4.37,4.37,0,0,1,1.26-.19,4.94,4.94,0,0,1,1.63.25,3.14,3.14,0,0,1,1.25.79,3.57,3.57,0,0,1,.79,1.36,6.08,6.08,0,0,1,.28,2V92h-1.95V84.81a4.07,4.07,0,0,0-.17-1.29,1.85,1.85,0,0,0-1.31-1.32,3.66,3.66,0,0,0-1.1-.15,3.17,3.17,0,0,0-1.85.57,3.32,3.32,0,0,0-.59.54,3.6,3.6,0,0,0-.46.67V92H489.3Z"/><path class="cls-3" d="M506.85,80.61h4.34v1.5h-4.34v6.2A3.08,3.08,0,0,0,507,89.4a1.66,1.66,0,0,0,.47.69,1.68,1.68,0,0,0,.67.36,3.12,3.12,0,0,0,.82.11,4.82,4.82,0,0,0,.65,0c.23,0,.45,0,.67-.09l.59-.11.46-.1.27,1.38a2.32,2.32,0,0,1-.59.26,5.15,5.15,0,0,1-.75.18,7.91,7.91,0,0,1-.87.13c-.31,0-.61,0-.91,0a4.64,4.64,0,0,1-1.42-.21,3,3,0,0,1-1.14-.69,3.15,3.15,0,0,1-.77-1.21,5.21,5.21,0,0,1-.28-1.79v-6.2h-3v-1.5h3V77.85h2Z"/><path class="cls-3" d="M523.77,80.47a3.61,3.61,0,0,1,.88.2l-.26,1.91a9.47,9.47,0,0,0-1.08-.19,9.2,9.2,0,0,0-1.07-.06,4.28,4.28,0,0,0-1.29.18,2.88,2.88,0,0,0-1,.51,3.34,3.34,0,0,0-.68.72,4,4,0,0,0-.47,1V92h-2V80.61h1.85l.08,1.52v.29a5.22,5.22,0,0,1,1.67-1.48,4.5,4.5,0,0,1,2.22-.54A8.74,8.74,0,0,1,523.77,80.47Z"/><path class="cls-3" d="M528.4,96.54l-.56-.1.32-1.59.52,0,.41,0a1.36,1.36,0,0,0,.73-.22,3,3,0,0,0,.59-.53,3.76,3.76,0,0,0,.44-.63l.29-.54.78-1.51L527,80.61h2.18L532.32,88l.5,1.38.54-1.34,2.94-7.39h2.18L532.7,93.76a8.07,8.07,0,0,1-.51.94,4.65,4.65,0,0,1-.76.91,3.63,3.63,0,0,1-1,.71,3.06,3.06,0,0,1-1.36.28A4.11,4.11,0,0,1,528.4,96.54Z"/><polygon class="cls-4" points="327 67.32 327 39.54 245.6 39.54 245.6 73.17 257.18 73.17 257.18 102.97 402.86 102.97 402.86 67.32 327 67.32"/><path class="cls-3" d="M274.19,91.88a5,5,0,0,1-.1-.69,5.13,5.13,0,0,1-.66.56,4.81,4.81,0,0,1-.8.47,5.64,5.64,0,0,1-.93.31,4.53,4.53,0,0,1-1.06.12,4.74,4.74,0,0,1-1.64-.27,3.62,3.62,0,0,1-1.23-.71,3.07,3.07,0,0,1-.8-1.06,3.3,3.3,0,0,1-.28-1.33,3.46,3.46,0,0,1,.38-1.65,3.38,3.38,0,0,1,1.05-1.18,5.16,5.16,0,0,1,1.65-.69,9,9,0,0,1,2.16-.23h2.12v-.9a2.1,2.1,0,0,0-.19-.92,2,2,0,0,0-.53-.71,2.45,2.45,0,0,0-.85-.44,3.57,3.57,0,0,0-1.12-.16,3.35,3.35,0,0,0-1,.15,2.65,2.65,0,0,0-.77.39,1.66,1.66,0,0,0-.49.57,1.42,1.42,0,0,0-.18.69h-2a2.76,2.76,0,0,1,.33-1.22,3.38,3.38,0,0,1,.9-1.09,4.73,4.73,0,0,1,1.41-.77,5.88,5.88,0,0,1,1.9-.29,6.42,6.42,0,0,1,1.8.24,4.18,4.18,0,0,1,1.45.71,3.52,3.52,0,0,1,1,1.2,3.8,3.8,0,0,1,.34,1.67V90a7.55,7.55,0,0,0,.11,1.21,6,6,0,0,0,.29,1.11v.17h-2A1.94,1.94,0,0,1,274.19,91.88ZM272,90.8a3.52,3.52,0,0,0,.91-.39,3.41,3.41,0,0,0,.69-.55,2.5,2.5,0,0,0,.46-.65v-2.3h-1.81a7.67,7.67,0,0,0-1.76.17,3,3,0,0,0-1.2.53,1.72,1.72,0,0,0-.48.6,2,2,0,0,0-.16.79,2.21,2.21,0,0,0,.14.78,1.65,1.65,0,0,0,.43.61,1.81,1.81,0,0,0,.72.41,3,3,0,0,0,1,.15A3.62,3.62,0,0,0,272,90.8Z"/><path class="cls-3" d="M284.44,81h4.34v1.51h-4.34v6.19a2.92,2.92,0,0,0,.17,1.1,1.67,1.67,0,0,0,.46.68,1.62,1.62,0,0,0,.68.37,3.12,3.12,0,0,0,.82.1l.65,0,.66-.09.6-.11.46-.1.27,1.38a3,3,0,0,1-.59.25,5,5,0,0,1-.76.19,7.31,7.31,0,0,1-.87.12c-.3,0-.61.05-.91.05a4.58,4.58,0,0,1-1.41-.22,2.88,2.88,0,0,1-1.15-.69,3.17,3.17,0,0,1-.76-1.2,5.08,5.08,0,0,1-.28-1.8V82.55h-3V81h3V78.28h2Z"/><path class="cls-3" d="M297.38,81h4.34v1.51h-4.34v6.19a3.14,3.14,0,0,0,.17,1.1,1.78,1.78,0,0,0,.46.68,1.68,1.68,0,0,0,.68.37,3.12,3.12,0,0,0,.82.1l.65,0,.67-.09.59-.11.46-.1.27,1.38a2.75,2.75,0,0,1-.59.25,5,5,0,0,1-.76.19,7.43,7.43,0,0,1-.86.12c-.31,0-.61.05-.91.05a4.64,4.64,0,0,1-1.42-.22,2.78,2.78,0,0,1-1.14-.69,3.19,3.19,0,0,1-.77-1.2,5.32,5.32,0,0,1-.28-1.8V82.55h-3V81h3V78.28h2Z"/><path class="cls-3" d="M313,91.88a5,5,0,0,1-.1-.69,5.13,5.13,0,0,1-.66.56,4.81,4.81,0,0,1-.8.47,5.34,5.34,0,0,1-.93.31,4.47,4.47,0,0,1-1.06.12,4.64,4.64,0,0,1-1.63-.27,3.57,3.57,0,0,1-1.24-.71,3.07,3.07,0,0,1-.8-1.06,3.3,3.3,0,0,1-.28-1.33,3.46,3.46,0,0,1,.38-1.65A3.32,3.32,0,0,1,307,86.45a5,5,0,0,1,1.64-.69,9,9,0,0,1,2.16-.23h2.13v-.9a2.26,2.26,0,0,0-.19-.92,2.1,2.1,0,0,0-.54-.71,2.45,2.45,0,0,0-.85-.44,3.57,3.57,0,0,0-1.12-.16,3.35,3.35,0,0,0-1,.15,2.65,2.65,0,0,0-.77.39,1.66,1.66,0,0,0-.49.57,1.42,1.42,0,0,0-.18.69h-1.95a2.62,2.62,0,0,1,.32-1.22,3.38,3.38,0,0,1,.9-1.09,4.86,4.86,0,0,1,1.41-.77,5.88,5.88,0,0,1,1.9-.29,6.55,6.55,0,0,1,1.81.24,4.22,4.22,0,0,1,1.44.71,3.52,3.52,0,0,1,.95,1.2,3.8,3.8,0,0,1,.34,1.67V90a7.55,7.55,0,0,0,.11,1.21,6,6,0,0,0,.29,1.11v.17h-2A1.94,1.94,0,0,1,313,91.88Zm-2.2-1.08a3.52,3.52,0,0,0,.91-.39,3.41,3.41,0,0,0,.69-.55,2.81,2.81,0,0,0,.47-.65v-2.3h-1.82a7.67,7.67,0,0,0-1.76.17,3,3,0,0,0-1.2.53,1.59,1.59,0,0,0-.47.6,1.83,1.83,0,0,0-.17.79,2.21,2.21,0,0,0,.14.78,1.65,1.65,0,0,0,.43.61,1.81,1.81,0,0,0,.72.41,3,3,0,0,0,1,.15A3.62,3.62,0,0,0,310.82,90.8Z"/><path class="cls-3" d="M324.54,90.9a2.83,2.83,0,0,0,.89-.48,2.22,2.22,0,0,0,.63-.7,1.78,1.78,0,0,0,.24-.87h1.85a3,3,0,0,1-.4,1.44,4.23,4.23,0,0,1-1,1.21,5.17,5.17,0,0,1-1.47.84,5.1,5.1,0,0,1-1.74.31,5.15,5.15,0,0,1-2.26-.47,4.46,4.46,0,0,1-1.61-1.25,5,5,0,0,1-1-1.81,7,7,0,0,1-.33-2.16v-.44a7.07,7.07,0,0,1,.33-2.16,5.08,5.08,0,0,1,1-1.82,4.57,4.57,0,0,1,1.61-1.25,5.15,5.15,0,0,1,2.26-.46,5.26,5.26,0,0,1,1.86.32,4.85,4.85,0,0,1,1.47.87,3.94,3.94,0,0,1,1,1.32,3.83,3.83,0,0,1,.35,1.62H326.3a2.38,2.38,0,0,0-.22-1,2.72,2.72,0,0,0-.59-.8,2.63,2.63,0,0,0-.88-.55,3,3,0,0,0-1.1-.2,3,3,0,0,0-1.52.36,3.13,3.13,0,0,0-1,.95,4.12,4.12,0,0,0-.54,1.31,6.69,6.69,0,0,0-.16,1.47V87a6.71,6.71,0,0,0,.16,1.48,3.94,3.94,0,0,0,.54,1.31,2.83,2.83,0,0,0,2.52,1.32A3.27,3.27,0,0,0,324.54,90.9Z"/><path class="cls-3" d="M334.06,82.1a4.77,4.77,0,0,1,.6-.51,3.8,3.8,0,0,1,1.12-.56,4.47,4.47,0,0,1,1.29-.2,4.87,4.87,0,0,1,1.62.26,3.09,3.09,0,0,1,1.25.8,3.71,3.71,0,0,1,.8,1.39,6.48,6.48,0,0,1,.28,2v7.18h-1.95v-7.2a4.16,4.16,0,0,0-.16-1.18,2.31,2.31,0,0,0-.46-.85,2,2,0,0,0-.83-.55,3.31,3.31,0,0,0-1.13-.18,3.27,3.27,0,0,0-1,.15,3.4,3.4,0,0,0-.88.42,3.86,3.86,0,0,0-.58.49,3.66,3.66,0,0,0-.48.62v8.28H331.6V76.26h1.95v6.48A3.59,3.59,0,0,1,334.06,82.1Z"/><path class="cls-3" d="M345.49,82.12a2.57,2.57,0,0,1,.91-.94,2.68,2.68,0,0,1,1.37-.35,2.9,2.9,0,0,1,.81.1,2.09,2.09,0,0,1,.64.29,2,2,0,0,1,.36.36,2,2,0,0,1,.28.47,2.86,2.86,0,0,1,.78-.82,2.79,2.79,0,0,1,.66-.28,3.07,3.07,0,0,1,1.86,0,2.29,2.29,0,0,1,.8.51,2.63,2.63,0,0,1,.55,1,5,5,0,0,1,.19,1.43v8.51h-1.86V83.91a2.49,2.49,0,0,0-.08-.64,1.37,1.37,0,0,0-.24-.45,1,1,0,0,0-.42-.25,1.66,1.66,0,0,0-.57-.09,1.71,1.71,0,0,0-.6.1,1.39,1.39,0,0,0-.43.25,1.16,1.16,0,0,0-.26.39,1.71,1.71,0,0,0-.12.47v8.75h-1.86V83.9a2.12,2.12,0,0,0-.08-.64,1,1,0,0,0-.25-.45,1,1,0,0,0-.39-.25,1.82,1.82,0,0,0-.55-.08,2.2,2.2,0,0,0-.61.08,1.41,1.41,0,0,0-.44.23,1.13,1.13,0,0,0-.23.26,2,2,0,0,0-.17.32v9.07h-1.85V81h1.75Z"/><path class="cls-3" d="M360.32,92.24a5.09,5.09,0,0,1-1.73-1.15,5.28,5.28,0,0,1-1.11-1.75,5.86,5.86,0,0,1-.4-2.2V86.7a6.4,6.4,0,0,1,.44-2.47,5.54,5.54,0,0,1,1.18-1.85,5.11,5.11,0,0,1,1.66-1.15,4.74,4.74,0,0,1,1.91-.4,5,5,0,0,1,2.15.43A4.18,4.18,0,0,1,366,82.43a5.26,5.26,0,0,1,.91,1.78,7.82,7.82,0,0,1,.3,2.21v.88H359v.07a4.82,4.82,0,0,0,.33,1.46,3.51,3.51,0,0,0,.71,1.12,3.18,3.18,0,0,0,1.11.81,3.45,3.45,0,0,0,1.45.3,4,4,0,0,0,1.85-.42,4.22,4.22,0,0,0,1.35-1.12l1.19.93a5.22,5.22,0,0,1-1.7,1.53,5.5,5.5,0,0,1-2.8.67A5.82,5.82,0,0,1,360.32,92.24Zm.83-9.59a3.05,3.05,0,0,0-.95.62,3.92,3.92,0,0,0-.71,1,5,5,0,0,0-.4,1.4h6.13v-.1a3.69,3.69,0,0,0-.2-1.13,3.51,3.51,0,0,0-.56-1,2.74,2.74,0,0,0-2.19-1A2.83,2.83,0,0,0,361.15,82.65Z"/><path class="cls-3" d="M370.43,81h1.75l.14,1.69a4.38,4.38,0,0,1,.55-.66,3.47,3.47,0,0,1,.64-.52,3.84,3.84,0,0,1,1.1-.52,4.26,4.26,0,0,1,1.26-.2,4.92,4.92,0,0,1,1.62.25,3.07,3.07,0,0,1,1.25.79,3.76,3.76,0,0,1,.8,1.37,6.31,6.31,0,0,1,.27,2v7.24h-1.94v-7.2A4.31,4.31,0,0,0,377.7,84a2,2,0,0,0-.5-.85,1.94,1.94,0,0,0-.81-.48,3.7,3.7,0,0,0-1.1-.15,3.18,3.18,0,0,0-1,.16,3.59,3.59,0,0,0-.86.41,4.22,4.22,0,0,0-.58.54,3.51,3.51,0,0,0-.47.67v8.18h-1.95Z"/><path class="cls-3" d="M388,81h4.34v1.51H388v6.19a2.92,2.92,0,0,0,.17,1.1,1.67,1.67,0,0,0,.46.68,1.62,1.62,0,0,0,.68.37,3.12,3.12,0,0,0,.82.1l.65,0,.66-.09.6-.11.45-.1.28,1.38a3,3,0,0,1-.59.25,5.27,5.27,0,0,1-.76.19,7.31,7.31,0,0,1-.87.12c-.3,0-.61.05-.91.05a4.69,4.69,0,0,1-1.42-.22,2.85,2.85,0,0,1-1.14-.69,3.17,3.17,0,0,1-.76-1.2,5.08,5.08,0,0,1-.28-1.8V82.55h-3V81h3V78.28h2Z"/><path d="M262.66,64.79V53.07L259,54.46V52.84l5.29-2h.15v14Z"/><path d="M274.53,65.07a5,5,0,0,1-1.21,1.68l-1.11-.61a4.11,4.11,0,0,0,.65-1.43,6.25,6.25,0,0,0,.2-1.57V61.42H275v1.69A4.63,4.63,0,0,1,274.53,65.07ZM273.05,53a1.29,1.29,0,0,1,1-.4,1.31,1.31,0,0,1,1.05.4,1.35,1.35,0,0,1,.37,1,1.33,1.33,0,0,1-.37.95,1.36,1.36,0,0,1-1.05.39,1.32,1.32,0,0,1-1-.39,1.49,1.49,0,0,1,0-1.92Z"/><path d="M288,66.37V60.94h-6.68V59.73h14.86v1.21h-6.74v5.43Zm-4.88-8.58V50.53h1.43V53H293V50.53h1.43v7.26ZM293,54.12h-8.39V56.6H293Z"/><path d="M297.83,53.13h8.83V54.3H303c.12,2,2.07,3.63,4,4.09l-.73,1.11a7.34,7.34,0,0,1-4-3.29A7.13,7.13,0,0,1,298.15,60l-.78-1.1c2.14-.63,4.05-2.54,4.16-4.58h-3.7Zm12.4,7.59v5.63H308.8V61.91h-9.2V60.72ZM300,50.37h4.6v1.24H300Zm10.26,5.1v4.4h-1.41v-10h1.41v4.37h2.51v1.2Z"/><polygon class="cls-4" points="131.21 67.32 131.21 39.54 49.81 39.54 49.81 73.17 61.39 73.17 61.39 102.97 194.02 102.97 194.02 67.32 131.21 67.32"/><path d="M72.93,61.89a4.92,4.92,0,0,1-.88,1.74,3.75,3.75,0,0,1-1.41,1.08,4.82,4.82,0,0,1-1.91.36,4.87,4.87,0,0,1-1.92-.36,3.7,3.7,0,0,1-1.43-1.08,4.77,4.77,0,0,1-.89-1.74,8,8,0,0,1-.31-2.36V56.25a8.15,8.15,0,0,1,.31-2.37,4.77,4.77,0,0,1,.89-1.74,3.66,3.66,0,0,1,1.42-1.08,5.11,5.11,0,0,1,3.82,0,3.7,3.7,0,0,1,1.43,1.08,4.92,4.92,0,0,1,.88,1.74,8.15,8.15,0,0,1,.31,2.37v3.28A8,8,0,0,1,72.93,61.89ZM71.42,55a5.63,5.63,0,0,0-.28-1.22,2.51,2.51,0,0,0-.53-.89,2,2,0,0,0-.8-.55,3.13,3.13,0,0,0-1.1-.18,3,3,0,0,0-1.12.19,2.22,2.22,0,0,0-.82.58,3,3,0,0,0-.6,1.21,6.43,6.43,0,0,0-.2,1.73v3.31Zm0,2.93V56.69L66,60.85a4.8,4.8,0,0,0,.3,1.24,2.65,2.65,0,0,0,.58.88,2.2,2.2,0,0,0,.79.49,3.06,3.06,0,0,0,1,.17,3,3,0,0,0,1.07-.18,2.12,2.12,0,0,0,.8-.53,2.9,2.9,0,0,0,.65-1.23,6.79,6.79,0,0,0,.2-1.79Z"/><path d="M80.32,63.89a5.05,5.05,0,0,1-1.22,1.68L78,65a4.39,4.39,0,0,0,.65-1.43A6.25,6.25,0,0,0,78.84,62V60.23h1.93v1.7A4.77,4.77,0,0,1,80.32,63.89ZM78.83,51.8a1.3,1.3,0,0,1,1-.4,1.36,1.36,0,0,1,1.05.39,1.43,1.43,0,0,1,.36,1,1.34,1.34,0,0,1-.36.95,1.38,1.38,0,0,1-1.05.38,1.32,1.32,0,0,1-1-.39,1.31,1.31,0,0,1-.35-.94A1.44,1.44,0,0,1,78.83,51.8Z"/><path d="M96.35,55.17a4.45,4.45,0,0,0-8.87,0c0,2.46,1.93,4.07,4.45,4.07A4.11,4.11,0,0,0,96.35,55.17Zm-7.5,0a3.08,3.08,0,0,1,6.14,0A2.82,2.82,0,0,1,91.93,58,2.88,2.88,0,0,1,88.85,55.17Z"/><polygon points="91.27 60.81 89.84 60.81 89.84 65.89 100.97 65.89 100.97 64.7 91.27 64.7 91.27 60.81"/><rect x="99.13" y="49.98" width="1.43" height="12.01"/><path d="M108.36,54.92a8.06,8.06,0,0,0,4.12,3.89l.85-1.13c-2-.67-4.28-2.69-4.28-5.33V50.66H107.6v1.75a6.67,6.67,0,0,1-4.34,5.82l.89,1.15A8.19,8.19,0,0,0,108.36,54.92Z"/><polygon points="105.86 61.87 115.4 61.87 115.4 66.44 116.83 66.44 116.83 60.69 105.86 60.69 105.86 61.87"/><rect x="115.4" y="49.98" width="1.43" height="9.8"/><path class="cls-3" d="M78.06,92.13a5,5,0,0,1-.1-.69,5.13,5.13,0,0,1-.66.56,4.81,4.81,0,0,1-.8.47,5.34,5.34,0,0,1-.93.31,4.47,4.47,0,0,1-1.06.12,4.64,4.64,0,0,1-1.63-.27,3.57,3.57,0,0,1-1.24-.71,3.07,3.07,0,0,1-.8-1.06,3.3,3.3,0,0,1-.28-1.33,3.46,3.46,0,0,1,.38-1.65A3.32,3.32,0,0,1,72,86.7,4.8,4.8,0,0,1,73.64,86a9,9,0,0,1,2.16-.23h2.13v-.9a2.26,2.26,0,0,0-.19-.92,2.1,2.1,0,0,0-.54-.71,2.45,2.45,0,0,0-.85-.44,3.57,3.57,0,0,0-1.12-.16,3.35,3.35,0,0,0-1,.15,2.42,2.42,0,0,0-.77.39,1.66,1.66,0,0,0-.49.57,1.42,1.42,0,0,0-.18.69h-2a2.62,2.62,0,0,1,.32-1.22,3.38,3.38,0,0,1,.9-1.09,4.86,4.86,0,0,1,1.41-.77,5.88,5.88,0,0,1,1.9-.29,6.55,6.55,0,0,1,1.81.24,4.22,4.22,0,0,1,1.44.71,3.52,3.52,0,0,1,1,1.2,3.8,3.8,0,0,1,.34,1.67v5.3A7.55,7.55,0,0,0,80,91.41a6,6,0,0,0,.29,1.11v.17h-2A1.94,1.94,0,0,1,78.06,92.13Zm-2.2-1.08a3.52,3.52,0,0,0,.91-.39,3.41,3.41,0,0,0,.69-.55,2.81,2.81,0,0,0,.47-.65v-2.3H76.11a7.67,7.67,0,0,0-1.76.17,3,3,0,0,0-1.2.53,1.59,1.59,0,0,0-.47.6,1.83,1.83,0,0,0-.17.79,2.21,2.21,0,0,0,.14.78,1.65,1.65,0,0,0,.43.61,1.81,1.81,0,0,0,.72.41,3,3,0,0,0,1,.15A3.62,3.62,0,0,0,75.86,91.05Z"/><path class="cls-3" d="M82.37,81.29H84.1l1.32,7.27.24,1.63.28-1.63,1.82-7.27H89l1.81,7.27.3,1.79.29-1.79,1.26-7.27h1.73L92,92.69H90.45l-1.78-7-.3-1.77-.28,1.77-1.76,7H84.79Z"/><path class="cls-3" d="M103.94,92.13c0-.22-.07-.45-.1-.69a4.44,4.44,0,0,1-.65.56,5.25,5.25,0,0,1-.8.47,5.45,5.45,0,0,1-.94.31,4.44,4.44,0,0,1-1,.12,4.74,4.74,0,0,1-1.64-.27,3.66,3.66,0,0,1-1.24-.71,3.12,3.12,0,0,1-1.07-2.39,3.58,3.58,0,0,1,.37-1.65,3.41,3.41,0,0,1,1.06-1.18A4.94,4.94,0,0,1,99.53,86a8.92,8.92,0,0,1,2.15-.23h2.13v-.9a2.1,2.1,0,0,0-.19-.92,2,2,0,0,0-.53-.71,2.54,2.54,0,0,0-.85-.44,3.61,3.61,0,0,0-1.12-.16,3.3,3.3,0,0,0-1,.15,2.48,2.48,0,0,0-.78.39,1.63,1.63,0,0,0-.48.57,1.42,1.42,0,0,0-.18.69h-2A2.88,2.88,0,0,1,97,83.23a3.66,3.66,0,0,1,.9-1.09,4.92,4.92,0,0,1,1.42-.77,5.88,5.88,0,0,1,1.9-.29,6.42,6.42,0,0,1,1.8.24,4.18,4.18,0,0,1,1.45.71,3.37,3.37,0,0,1,.94,1.2,3.8,3.8,0,0,1,.35,1.67v5.3a7.55,7.55,0,0,0,.11,1.21,5.27,5.27,0,0,0,.29,1.11v.17h-2A2.29,2.29,0,0,1,103.94,92.13Zm-2.19-1.08a3.31,3.31,0,0,0,.9-.39,3.21,3.21,0,0,0,.7-.55,2.5,2.5,0,0,0,.46-.65v-2.3H102a7.67,7.67,0,0,0-1.76.17,3,3,0,0,0-1.2.53,1.72,1.72,0,0,0-.48.6,1.83,1.83,0,0,0-.16.79,2.21,2.21,0,0,0,.14.78,1.65,1.65,0,0,0,.43.61,1.84,1.84,0,0,0,.71.41,3,3,0,0,0,1,.15A3.69,3.69,0,0,0,101.75,91.05Z"/><path class="cls-3" d="M118.17,81.15a3.61,3.61,0,0,1,.88.2l-.26,1.91a9.35,9.35,0,0,0-1.08-.18,9.2,9.2,0,0,0-1.07-.06,4.76,4.76,0,0,0-1.3.17,3.08,3.08,0,0,0-1.69,1.23,4.28,4.28,0,0,0-.47,1v7.31h-2V81.29h1.85l.08,1.53v.28a5.34,5.34,0,0,1,1.67-1.48,4.5,4.5,0,0,1,2.22-.54A8.74,8.74,0,0,1,118.17,81.15Z"/><path class="cls-3" d="M125.36,92.49a5.09,5.09,0,0,1-1.73-1.15,5.28,5.28,0,0,1-1.11-1.75,5.86,5.86,0,0,1-.4-2.2V87a6.4,6.4,0,0,1,.44-2.47,5.54,5.54,0,0,1,1.18-1.85,5.11,5.11,0,0,1,1.66-1.15,4.74,4.74,0,0,1,1.91-.4,5,5,0,0,1,2.15.43A4.18,4.18,0,0,1,131,82.68a5.26,5.26,0,0,1,.91,1.78,7.82,7.82,0,0,1,.3,2.21v.88h-8.14v.07a4.82,4.82,0,0,0,.33,1.46,3.51,3.51,0,0,0,.71,1.12,3.32,3.32,0,0,0,1.11.81,3.45,3.45,0,0,0,1.45.3,3.86,3.86,0,0,0,1.85-.43,4.07,4.07,0,0,0,1.35-1.11l1.19.93a5.22,5.22,0,0,1-1.7,1.53,5.5,5.5,0,0,1-2.8.67A5.82,5.82,0,0,1,125.36,92.49Zm.83-9.59a3.05,3.05,0,0,0-1,.62,3.92,3.92,0,0,0-.71,1,5,5,0,0,0-.4,1.4h6.13v-.1a3.69,3.69,0,0,0-.2-1.13,3.39,3.39,0,0,0-.56-1,2.92,2.92,0,0,0-.9-.72,3.09,3.09,0,0,0-2.41,0Z"/><path class="cls-3" d="M135.47,81.29h1.75l.14,1.69a4.38,4.38,0,0,1,.55-.66,3.47,3.47,0,0,1,.64-.52,4.15,4.15,0,0,1,1.1-.53,4.62,4.62,0,0,1,1.26-.19,4.92,4.92,0,0,1,1.62.25,3.07,3.07,0,0,1,1.25.79,3.76,3.76,0,0,1,.8,1.37,6.31,6.31,0,0,1,.27,2v7.24h-1.94v-7.2a4.31,4.31,0,0,0-.17-1.28,2.08,2.08,0,0,0-.5-.86,2,2,0,0,0-.81-.47,3.7,3.7,0,0,0-1.1-.15,2.91,2.91,0,0,0-1,.16,3.59,3.59,0,0,0-.86.41,4.22,4.22,0,0,0-.58.54,3.51,3.51,0,0,0-.47.67v8.18h-1.95Z"/><path class="cls-3" d="M151.24,92.49a5.14,5.14,0,0,1-1.72-1.15,5.3,5.3,0,0,1-1.12-1.75,6.06,6.06,0,0,1-.4-2.2V87a6.4,6.4,0,0,1,.45-2.47,5.39,5.39,0,0,1,1.18-1.85,5.07,5.07,0,0,1,1.65-1.15,4.79,4.79,0,0,1,1.92-.4,5,5,0,0,1,2.15.43,4.15,4.15,0,0,1,1.53,1.17,5.09,5.09,0,0,1,.91,1.78,7.82,7.82,0,0,1,.3,2.21v.88H150v.07a5.14,5.14,0,0,0,.33,1.46A3.53,3.53,0,0,0,151,90.2a3.22,3.22,0,0,0,1.11.81,3.44,3.44,0,0,0,1.44.3,3.87,3.87,0,0,0,1.86-.43,4.07,4.07,0,0,0,1.35-1.11l1.19.93a5.22,5.22,0,0,1-1.7,1.53,5.5,5.5,0,0,1-2.8.67A5.87,5.87,0,0,1,151.24,92.49Zm.84-9.59a2.94,2.94,0,0,0-1,.62,3.69,3.69,0,0,0-.71,1A4.69,4.69,0,0,0,150,86h6.13v-.1a3.44,3.44,0,0,0-.21-1.13,3.18,3.18,0,0,0-.55-1,2.66,2.66,0,0,0-2.19-1A2.8,2.8,0,0,0,152.08,82.9Z"/><path class="cls-3" d="M168.79,89a1.29,1.29,0,0,0-.46-.51,3.44,3.44,0,0,0-.86-.43,8.83,8.83,0,0,0-1.34-.35,14.85,14.85,0,0,1-1.79-.49,6,6,0,0,1-1.37-.68,3,3,0,0,1-.9-.92,2.4,2.4,0,0,1-.31-1.24,2.67,2.67,0,0,1,.33-1.3,3.16,3.16,0,0,1,.91-1.06,4.68,4.68,0,0,1,1.41-.72,6,6,0,0,1,1.79-.26,6.18,6.18,0,0,1,1.9.27,4.52,4.52,0,0,1,1.43.76,3.49,3.49,0,0,1,.91,1.13,3.06,3.06,0,0,1,.32,1.4h-1.94a1.55,1.55,0,0,0-.19-.72,2.12,2.12,0,0,0-.53-.63,2.79,2.79,0,0,0-.82-.44,3.31,3.31,0,0,0-1.08-.17,4,4,0,0,0-1.09.14,2.21,2.21,0,0,0-.77.37,1.47,1.47,0,0,0-.47.53,1.35,1.35,0,0,0-.16.64,1.46,1.46,0,0,0,.12.6,1.33,1.33,0,0,0,.45.47,3,3,0,0,0,.82.38q.53.16,1.32.33a13.15,13.15,0,0,1,1.89.51,5.54,5.54,0,0,1,1.4.69,3,3,0,0,1,.87.94,2.54,2.54,0,0,1,.3,1.25,2.94,2.94,0,0,1-.34,1.38,3.23,3.23,0,0,1-1,1.06,4.59,4.59,0,0,1-1.46.68,6.49,6.49,0,0,1-1.86.25,6.58,6.58,0,0,1-2.07-.31,5.08,5.08,0,0,1-1.53-.83,3.48,3.48,0,0,1-1-1.18,3.16,3.16,0,0,1-.33-1.4h1.95a2,2,0,0,0,.32,1,2.1,2.1,0,0,0,.7.66,2.76,2.76,0,0,0,.92.36,4.86,4.86,0,0,0,1,.11,4.19,4.19,0,0,0,1.35-.19,2.15,2.15,0,0,0,.91-.51,1.47,1.47,0,0,0,.31-.44,1.42,1.42,0,0,0,0-1.14Z"/><path class="cls-3" d="M181.74,89a1.32,1.32,0,0,0-.47-.51,3.27,3.27,0,0,0-.86-.43,8.52,8.52,0,0,0-1.34-.35,14.18,14.18,0,0,1-1.78-.49,5.92,5.92,0,0,1-1.38-.68,3,3,0,0,1-.89-.92,2.41,2.41,0,0,1-.32-1.24,2.67,2.67,0,0,1,.33-1.3,3.28,3.28,0,0,1,.91-1.06,4.93,4.93,0,0,1,1.41-.72,6,6,0,0,1,1.8-.26,6.16,6.16,0,0,1,1.89.27,4.52,4.52,0,0,1,1.43.76,3.53,3.53,0,0,1,.92,1.13,3.19,3.19,0,0,1,.32,1.4h-2a1.44,1.44,0,0,0-.19-.72,2,2,0,0,0-.53-.63,2.61,2.61,0,0,0-.81-.44,3.31,3.31,0,0,0-1.08-.17,3.9,3.9,0,0,0-1.09.14,2.26,2.26,0,0,0-.78.37,1.47,1.47,0,0,0-.47.53,1.35,1.35,0,0,0-.16.64,1.32,1.32,0,0,0,.13.6,1.21,1.21,0,0,0,.44.47,3.08,3.08,0,0,0,.83.38,12.59,12.59,0,0,0,1.32.33,13,13,0,0,1,1.88.51,5.37,5.37,0,0,1,1.4.69,3,3,0,0,1,.87.94,2.54,2.54,0,0,1,.3,1.25,2.82,2.82,0,0,1-.34,1.38,3.31,3.31,0,0,1-.95,1.06,4.75,4.75,0,0,1-1.47.68,6.49,6.49,0,0,1-1.86.25,6.62,6.62,0,0,1-2.07-.31,4.9,4.9,0,0,1-1.52-.83,3.63,3.63,0,0,1-1-1.18,3.16,3.16,0,0,1-.33-1.4h1.95a2.08,2.08,0,0,0,.32,1,2.2,2.2,0,0,0,.7.66,2.85,2.85,0,0,0,.92.36,4.94,4.94,0,0,0,1,.11,4.3,4.3,0,0,0,1.36-.19,2.11,2.11,0,0,0,.9-.51,1.31,1.31,0,0,0,.31-.44,1.27,1.27,0,0,0,.1-.52A1.38,1.38,0,0,0,181.74,89Z"/><path d="M936.81,442.62a12.74,12.74,0,0,1-2.28,4.47,9.56,9.56,0,0,1-3.64,2.78,12.35,12.35,0,0,1-4.93.94,12.5,12.5,0,0,1-4.94-.93,9.53,9.53,0,0,1-3.69-2.79,12.45,12.45,0,0,1-2.31-4.47,21.82,21.82,0,0,1-.79-6.11v-8.45A21.72,21.72,0,0,1,915,422a12.6,12.6,0,0,1,2.31-4.5,9.58,9.58,0,0,1,3.66-2.79,12,12,0,0,1,4.91-1,12.14,12.14,0,0,1,5,1,9.88,9.88,0,0,1,3.68,2.79,12.89,12.89,0,0,1,2.28,4.5,21.36,21.36,0,0,1,.79,6.11v8.45A21.46,21.46,0,0,1,936.81,442.62Zm-3.92-17.81a13.16,13.16,0,0,0-.7-3.16,6.58,6.58,0,0,0-1.38-2.29,5.29,5.29,0,0,0-2.07-1.42,7.93,7.93,0,0,0-2.84-.47A7.59,7.59,0,0,0,923,418a5.69,5.69,0,0,0-2.12,1.47,7.9,7.9,0,0,0-1.55,3.14,17.4,17.4,0,0,0-.51,4.45v8.55Zm.1,7.56V429.2l-14,10.73a11.94,11.94,0,0,0,.79,3.18,6.5,6.5,0,0,0,1.49,2.27,5.45,5.45,0,0,0,2,1.28,8.48,8.48,0,0,0,5.45,0,5.54,5.54,0,0,0,2.06-1.36,7.42,7.42,0,0,0,1.67-3.18,17.45,17.45,0,0,0,.53-4.61Z"/><path d="M955.87,447.75a12.75,12.75,0,0,1-3.15,4.34l-2.85-1.56a11.35,11.35,0,0,0,1.69-3.7,16.42,16.42,0,0,0,.49-4.06v-4.44h5v4.37A12.3,12.3,0,0,1,955.87,447.75ZM952,416.57a3.36,3.36,0,0,1,2.7-1,3.45,3.45,0,0,1,2.71,1,3.64,3.64,0,0,1,.93,2.52,3.41,3.41,0,0,1-.94,2.45,3.56,3.56,0,0,1-2.7,1,3.43,3.43,0,0,1-2.69-1,3.54,3.54,0,0,1-.9-2.44A3.71,3.71,0,0,1,952,416.57Z"/><path d="M997.21,425.26c0-6.29-5-10.58-11.46-10.58s-11.41,4.33-11.41,10.63,5,10.5,11.46,10.5S997.21,431.61,997.21,425.26Zm-19.35,0c0-4.29,3.42-7.34,7.89-7.34,4.71,0,8,3.05,8,7.39s-3.24,7.26-7.9,7.26C981.33,432.57,977.86,429.56,977.86,425.26Z"/><polygon points="984.11 439.82 980.41 439.82 980.41 452.93 1009.12 452.93 1009.12 449.87 984.11 449.87 984.11 439.82"/><rect x="1004.38" y="411.89" width="3.7" height="30.99"/><path d="M1028.19,424.63c1.68,4.33,6.43,8.17,10.63,10l2.19-2.92c-5.11-1.74-11-6.94-11-13.74v-4.38h-3.75v4.51c0,6.76-5.15,12.51-11.18,15l2.28,3C1022.66,433.39,1026.91,429,1028.19,424.63Z"/><polygon points="1021.75 442.56 1046.35 442.56 1046.35 454.34 1050.05 454.34 1050.05 439.51 1021.75 439.51 1021.75 442.56"/><rect x="1046.35" y="411.89" width="3.7" height="25.29"/><path class="cls-3" d="M777.22,501.5a16.57,16.57,0,0,1-.26-1.78,14.31,14.31,0,0,1-1.7,1.44,12.08,12.08,0,0,1-2,1.19,12.53,12.53,0,0,1-2.42.82,11.78,11.78,0,0,1-2.71.3,12.51,12.51,0,0,1-4.23-.68,9.67,9.67,0,0,1-3.19-1.85,7.74,7.74,0,0,1-2-2.73,8.22,8.22,0,0,1-.72-3.44,8.92,8.92,0,0,1,1-4.23,8.66,8.66,0,0,1,2.73-3.05,12.91,12.91,0,0,1,4.26-1.79,23.66,23.66,0,0,1,5.55-.6h5.49v-2.31a5.61,5.61,0,0,0-.49-2.39,5.33,5.33,0,0,0-1.38-1.82,6.5,6.5,0,0,0-2.19-1.14,9.65,9.65,0,0,0-2.89-.41,8.85,8.85,0,0,0-2.68.38,6.7,6.7,0,0,0-2,1A4.55,4.55,0,0,0,764,479.9a3.76,3.76,0,0,0-.45,1.78h-5a7,7,0,0,1,.83-3.15,8.81,8.81,0,0,1,2.32-2.8,12,12,0,0,1,3.65-2,14.94,14.94,0,0,1,4.91-.75,16.79,16.79,0,0,1,4.64.61,10.61,10.61,0,0,1,3.72,1.83,8.88,8.88,0,0,1,2.45,3.1,9.75,9.75,0,0,1,.9,4.32v13.66a19.14,19.14,0,0,0,.27,3.11,13.55,13.55,0,0,0,.76,2.87v.43H777.7A5.47,5.47,0,0,1,777.22,501.5Zm-5.67-2.79a10.31,10.31,0,0,0,2.34-1,8.27,8.27,0,0,0,1.79-1.43,6.81,6.81,0,0,0,1.2-1.67v-5.95h-4.67a20.29,20.29,0,0,0-4.55.45,7.5,7.5,0,0,0-3.09,1.37,4.36,4.36,0,0,0-1.23,1.55,4.77,4.77,0,0,0-.42,2,5.52,5.52,0,0,0,.36,2,4.14,4.14,0,0,0,1.1,1.57,5,5,0,0,0,1.85,1.06,7.79,7.79,0,0,0,2.58.38A9.31,9.31,0,0,0,771.55,498.71Z"/><path class="cls-3" d="M788.35,473.53h4.45l3.42,18.74.6,4.22.74-4.22,4.7-18.74h3.23l4.67,18.74.79,4.62.73-4.62,3.26-18.74h4.46l-6.25,29.39h-4l-4.59-18-.76-4.56-.73,4.56-4.54,18h-4Z"/><path class="cls-3" d="M844,501.5a14.39,14.39,0,0,1-.26-1.78,14.31,14.31,0,0,1-1.7,1.44,12.08,12.08,0,0,1-2,1.19,12.76,12.76,0,0,1-2.42.82,11.78,11.78,0,0,1-2.71.3,12.51,12.51,0,0,1-4.23-.68,9.67,9.67,0,0,1-3.19-1.85,7.74,7.74,0,0,1-2.05-2.73,8.22,8.22,0,0,1-.72-3.44,8.92,8.92,0,0,1,1-4.23,8.47,8.47,0,0,1,2.73-3.05,12.94,12.94,0,0,1,4.25-1.79,23.75,23.75,0,0,1,5.56-.6h5.49v-2.31a5.77,5.77,0,0,0-.49-2.39,5.36,5.36,0,0,0-1.39-1.82,6.35,6.35,0,0,0-2.18-1.14,9.67,9.67,0,0,0-2.9-.41,8.78,8.78,0,0,0-2.67.38,6.58,6.58,0,0,0-2,1,4.55,4.55,0,0,0-1.26,1.48,3.76,3.76,0,0,0-.45,1.78h-5.05a7,7,0,0,1,.82-3.15,9,9,0,0,1,2.33-2.8,11.88,11.88,0,0,1,3.65-2A14.88,14.88,0,0,1,837,473a16.82,16.82,0,0,1,4.65.61,10.61,10.61,0,0,1,3.72,1.83,9,9,0,0,1,2.45,3.1,9.75,9.75,0,0,1,.89,4.32v13.66a18.14,18.14,0,0,0,.28,3.11,13.55,13.55,0,0,0,.76,2.87v.43h-5.25A5.49,5.49,0,0,1,844,501.5Zm-5.67-2.79a10.71,10.71,0,0,0,2.34-1,8.52,8.52,0,0,0,1.79-1.43,6.81,6.81,0,0,0,1.2-1.67v-5.95H839a20.42,20.42,0,0,0-4.55.45,7.51,7.51,0,0,0-3.08,1.37,4.39,4.39,0,0,0-1.24,1.55,4.77,4.77,0,0,0-.42,2,5.52,5.52,0,0,0,.37,2,4,4,0,0,0,1.1,1.57,4.92,4.92,0,0,0,1.85,1.06,7.79,7.79,0,0,0,2.58.38A9.31,9.31,0,0,0,838.33,498.71Z"/><path class="cls-3" d="M880.7,473.17a8.9,8.9,0,0,1,2.27.52l-.68,4.92a26.64,26.64,0,0,0-2.78-.48,24.45,24.45,0,0,0-2.76-.15,11.53,11.53,0,0,0-3.34.45,7.92,7.92,0,0,0-4.36,3.18,10.9,10.9,0,0,0-1.24,2.46v18.85h-5V473.53h4.78l.22,3.94,0,.73a13.49,13.49,0,0,1,4.31-3.81,11.46,11.46,0,0,1,5.72-1.4A24.36,24.36,0,0,1,880.7,473.17Z"/><path class="cls-3" d="M899.23,502.41a13,13,0,0,1-4.44-3,13.61,13.61,0,0,1-2.88-4.51,15.26,15.26,0,0,1-1-5.68v-1.14a16.79,16.79,0,0,1,1.14-6.37,14.5,14.5,0,0,1,3-4.77,13.06,13.06,0,0,1,4.28-3,12.32,12.32,0,0,1,4.93-1,13,13,0,0,1,5.55,1.1,11,11,0,0,1,4,3,13.26,13.26,0,0,1,2.35,4.6,20.35,20.35,0,0,1,.77,5.7v2.26h-21v.19a12.82,12.82,0,0,0,.86,3.77,9.18,9.18,0,0,0,1.83,2.88,8.48,8.48,0,0,0,2.88,2.09,8.87,8.87,0,0,0,3.72.76,10.23,10.23,0,0,0,4.78-1.08,10.42,10.42,0,0,0,3.48-2.88l3.07,2.39a13,13,0,0,1-4.39,3.95,14,14,0,0,1-7.21,1.73A15,15,0,0,1,899.23,502.41Zm2.16-24.74a7.58,7.58,0,0,0-2.45,1.62,9.59,9.59,0,0,0-1.83,2.65,12.46,12.46,0,0,0-1.05,3.6h15.82v-.25a9.49,9.49,0,0,0-.52-2.92,8.3,8.3,0,0,0-1.44-2.7,7.06,7.06,0,0,0-2.32-1.85,7.36,7.36,0,0,0-3.33-.71A7.54,7.54,0,0,0,901.39,477.67Z"/><path class="cls-3" d="M925.32,473.53h4.51l.36,4.34a13,13,0,0,1,1.42-1.69,10.38,10.38,0,0,1,1.65-1.35,10.58,10.58,0,0,1,2.84-1.34,11.09,11.09,0,0,1,3.24-.5,12.68,12.68,0,0,1,4.2.65,8,8,0,0,1,3.22,2,9.3,9.3,0,0,1,2,3.52,15.89,15.89,0,0,1,.72,5.07v18.66h-5V484.37a11,11,0,0,0-.43-3.32,5.41,5.41,0,0,0-1.28-2.2,5.13,5.13,0,0,0-2.1-1.22,9.81,9.81,0,0,0-2.84-.38,8.21,8.21,0,0,0-2.58.39,9.19,9.19,0,0,0-2.2,1.08,9.37,9.37,0,0,0-1.51,1.38,9.65,9.65,0,0,0-1.21,1.74v21.08h-5Z"/><path class="cls-3" d="M966,502.41a13.19,13.19,0,0,1-4.45-3,13.43,13.43,0,0,1-2.87-4.51,15.26,15.26,0,0,1-1-5.68v-1.14a16.79,16.79,0,0,1,1.14-6.37,14.69,14.69,0,0,1,3.05-4.77,13.06,13.06,0,0,1,4.28-3,12.32,12.32,0,0,1,4.93-1,13,13,0,0,1,5.55,1.1,10.83,10.83,0,0,1,3.95,3,12.93,12.93,0,0,1,2.35,4.6,20,20,0,0,1,.78,5.7v2.26h-21v.19a13.16,13.16,0,0,0,.85,3.77,9.39,9.39,0,0,0,1.84,2.88,8.48,8.48,0,0,0,2.88,2.09,8.87,8.87,0,0,0,3.72.76,10.26,10.26,0,0,0,4.78-1.08,10.42,10.42,0,0,0,3.48-2.88l3.07,2.39a13,13,0,0,1-4.39,3.95,14,14,0,0,1-7.21,1.73A15,15,0,0,1,966,502.41Zm2.16-24.74a7.58,7.58,0,0,0-2.45,1.62,9.59,9.59,0,0,0-1.83,2.65,12.46,12.46,0,0,0-1,3.6h15.81v-.25a9.46,9.46,0,0,0-.51-2.92,8.7,8.7,0,0,0-1.44-2.7,7,7,0,0,0-2.33-1.85,7.29,7.29,0,0,0-3.32-.71A7.5,7.5,0,0,0,968.17,477.67Z"/><path class="cls-3" d="M1011.28,493.51a3.57,3.57,0,0,0-1.19-1.32,9.64,9.64,0,0,0-2.23-1.1,24,24,0,0,0-3.45-.91,34,34,0,0,1-4.61-1.25,15,15,0,0,1-3.54-1.76,7.46,7.46,0,0,1-2.31-2.38,6.15,6.15,0,0,1-.82-3.19,6.88,6.88,0,0,1,.85-3.36,8.6,8.6,0,0,1,2.36-2.73,11.92,11.92,0,0,1,3.63-1.85,15.06,15.06,0,0,1,4.63-.67,15.82,15.82,0,0,1,4.89.7,11,11,0,0,1,3.69,2,8.74,8.74,0,0,1,2.35,2.92,7.87,7.87,0,0,1,.83,3.6h-5a3.92,3.92,0,0,0-.49-1.86,5.35,5.35,0,0,0-1.36-1.62,7,7,0,0,0-2.11-1.14,8.32,8.32,0,0,0-2.78-.44,9.83,9.83,0,0,0-2.81.36,6,6,0,0,0-2,.95,4.06,4.06,0,0,0-1.22,1.38,3.55,3.55,0,0,0-.41,1.63,3.5,3.5,0,0,0,.33,1.55,3.06,3.06,0,0,0,1.14,1.23,8.21,8.21,0,0,0,2.13,1,30.36,30.36,0,0,0,3.41.84,43,43,0,0,1,4.86,1.32,15.08,15.08,0,0,1,3.62,1.78,7.73,7.73,0,0,1,2.24,2.45,6.5,6.5,0,0,1,.77,3.2,7.23,7.23,0,0,1-.88,3.56,8.36,8.36,0,0,1-2.46,2.75,11.79,11.79,0,0,1-3.78,1.76,17.37,17.37,0,0,1-4.8.63,16.5,16.5,0,0,1-5.33-.8,12.45,12.45,0,0,1-3.94-2.14,8.86,8.86,0,0,1-2.48-3,8,8,0,0,1-.86-3.61h5a5.31,5.31,0,0,0,.83,2.61,5.91,5.91,0,0,0,1.81,1.71,7.4,7.4,0,0,0,2.36.92,12.73,12.73,0,0,0,2.59.27,11.86,11.86,0,0,0,3.5-.47,5.77,5.77,0,0,0,2.34-1.32,3.62,3.62,0,0,0,.78-1.14,3.33,3.33,0,0,0,.27-1.33A3.57,3.57,0,0,0,1011.28,493.51Z"/><path class="cls-3" d="M1044.67,493.51a3.65,3.65,0,0,0-1.19-1.32,9.84,9.84,0,0,0-2.23-1.1,24.77,24.77,0,0,0-3.45-.91,34,34,0,0,1-4.61-1.25,15,15,0,0,1-3.54-1.76,7.46,7.46,0,0,1-2.31-2.38,6.06,6.06,0,0,1-.82-3.19,7,7,0,0,1,.84-3.36,8.63,8.63,0,0,1,2.37-2.73,12,12,0,0,1,3.62-1.85A15.17,15.17,0,0,1,1038,473a15.82,15.82,0,0,1,4.89.7,11,11,0,0,1,3.69,2,8.74,8.74,0,0,1,2.35,2.92,8,8,0,0,1,.83,3.6h-5a3.92,3.92,0,0,0-.49-1.86,5.35,5.35,0,0,0-1.36-1.62,7,7,0,0,0-2.11-1.14,8.32,8.32,0,0,0-2.78-.44,9.83,9.83,0,0,0-2.81.36,5.91,5.91,0,0,0-2,.95,4.06,4.06,0,0,0-1.22,1.38,3.43,3.43,0,0,0-.41,1.63,3.5,3.5,0,0,0,.33,1.55,3.06,3.06,0,0,0,1.14,1.23,8.21,8.21,0,0,0,2.13,1,29.81,29.81,0,0,0,3.41.84,43,43,0,0,1,4.86,1.32,14.81,14.81,0,0,1,3.61,1.78,7.5,7.5,0,0,1,2.24,2.45,6.4,6.4,0,0,1,.78,3.2,7.34,7.34,0,0,1-.88,3.56,8.36,8.36,0,0,1-2.46,2.75,11.79,11.79,0,0,1-3.78,1.76,17.44,17.44,0,0,1-4.81.63,16.48,16.48,0,0,1-5.32-.8,12.45,12.45,0,0,1-3.94-2.14,8.89,8.89,0,0,1-2.49-3,8.07,8.07,0,0,1-.85-3.61h5a5.31,5.31,0,0,0,.83,2.61,5.8,5.8,0,0,0,1.81,1.71,7.31,7.31,0,0,0,2.36.92,12.71,12.71,0,0,0,2.58.27,11.88,11.88,0,0,0,3.51-.47,5.73,5.73,0,0,0,2.33-1.32,3.49,3.49,0,0,0,.79-1.14,3.33,3.33,0,0,0,.27-1.33A3.57,3.57,0,0,0,1044.67,493.51Z"/><rect class="cls-2" x="579.8" y="963.78" width="472.68" height="45.58" transform="translate(1632.28 1973.14) rotate(180)"/><path d="M607.38,992.23a13.36,13.36,0,0,1-4.77-6,12.22,12.22,0,0,1-5.09,6.47l-1.47-1.76a11.28,11.28,0,0,0,5.28-9.53V978h2.48v3.28a10.51,10.51,0,0,0,5,9.15Zm3.5,4.82V976.19h2.4v20.86Z"/><path d="M627.4,987.43a37.29,37.29,0,0,1-7.55.53h-2.73v-6.45h6.74v-2.26H617.1v-1.9h9.15v6h-6.73V986a41.3,41.3,0,0,0,7.57-.48Zm6.12,2.51v7.15h-2.4v-5.24H619.35v-1.91Zm-5.77-10.85h3.35v-2.9h2.39v12.6H631.1v-3.34h-3.35v-2h3.35v-2.44h-3.35Z"/><path d="M639.56,990.09a31,31,0,0,0,6.38-.48l.36,1.87c-2.12.46-4.14.59-9.13.57v-13.4h8.07v1.92h-5.68v3.56h4.14v2h-4.14Zm5.39-4v-2h2.76V976.6H650v19.46h-2.26v-9.95Zm6.91,10.94V976.19h2.29v20.86Z"/><path d="M656.81,994.29v-1.93h18.84v1.93Zm17.1-6.51c-3.08-.81-6.6-3.19-7.68-5.72-1,2.58-4.56,5-7.7,5.72l-1.19-2c3.41-.55,7.66-3.38,7.66-7v-1.39h2.5v1.39c0,3.56,4.52,6.49,7.66,7.06Z"/><path d="M695.89,994.41H677.05v-1.92h18.84Zm-14-10.28v2.66h11.79v1.89H679.47V977.79h14v1.92h-11.6v2.53h10.89v1.89Z"/><path d="M697.29,987.56v-1.8h18.84v1.8Zm2.4,9.33v-4.82h11.64v-1.4H699.62v-1.74h14.11v4.82H702.09v1.43h12.19v1.71Zm.09-12.39v-4.68H711.2V978.5H699.73v-1.76h13.86v4.71H702.18v1.29h11.88v1.76Z"/><path d="M726.51,989.61a12,12,0,0,0,3.3-.38l.26,1.87a25.09,25.09,0,0,1-5.9.47V978.32h5.31v1.92h-3Zm6.44,0a16.58,16.58,0,0,0,3.83-.4l.22,1.87a29.6,29.6,0,0,1-6.4.47V978.32h5.57v1.92H733Zm7.35-5.39h2.8v2h-2.8v10.81H738V976.19h2.33Z"/><path d="M756.34,991.5a62.64,62.64,0,0,1-9.33.71H744.7v-8.43h6.93V980h-7V978H754v7.68H747.1v4.51a56.5,56.5,0,0,0,9-.66Zm3.78-5.17v10.72H757.7V976.19h2.42v8.14h3.13v2Z"/><path d="M776.23,986.62c-2.91,0-5.33-1.83-5.33-4.67a5,5,0,0,1,5.33-4.88c3,0,5.34,2,5.34,4.86S779.26,986.62,776.23,986.62Zm5.26,9.85a32.81,32.81,0,0,1-6.08.51h-2.33v-5.17h4.56v-1.59h-4.56v-1.78H780v5h-4.56v1.71a25.72,25.72,0,0,0,5.79-.51Zm-5.26-17.38a2.91,2.91,0,0,0-3,2.84,3,3,0,1,0,3-2.84Zm11.31,9.35v8.67h-2.4V990.2H781v-1.76Zm-2.45-1.1V976.19h2.4v11.15Z"/><path d="M796.05,977.64c3.39,0,5.32,3,5.32,7.44s-1.93,7.39-5.32,7.39-5.3-3-5.3-7.42S792.7,977.64,796.05,977.64Zm0,1.94c-1.72,0-2.95,2.15-2.95,5.5s1.23,5.47,2.95,5.47,3-2.15,3-5.47S797.83,979.58,796.05,979.58Zm9.28,17.47V986h-3.19v-2h3.19v-7.79h2.42v20.86Z"/><path d="M821.39,988.2v4.29h8.25v1.92H810.81v-1.92H819V988.2h-5.83V977.68h2.4v3.37h9.33v-3.39h2.4V988.2Zm3.5-5.26h-9.33v3.35h9.33Z"/><path d="M831.05,988.53v-1.94h18.83v1.94Zm2.44,8v-6.14h2.4v4.2h11.82v1.94ZM833.6,984v-7.17H836v5.24h11.57V984Z"/><path d="M865.63,990.11v-2.44h-8.18v-1.93h18.83v1.93H868v2.44h5.83v7h-2.39v-5.06H859.65v-1.94Zm8.76-5.69c-2.88-.47-6.49-2.31-7.5-4.65-1,2.34-4.42,4.12-7.53,4.6l-1-1.87c3.41-.35,7.3-2.44,7.3-5.5v-.64h2.51V977c0,3.06,4.36,5.33,7.31,5.52Z"/><path d="M885.87,997v-7.41h-8.18v-1.92h18.83v1.92h-8.25V997Zm2.56-18c.41,2.58,4.09,4.47,7.21,4.8l-1.07,1.89c-2.93-.42-6.39-2.38-7.44-4.31-1,2-4.38,3.94-7.46,4.4l-1.15-1.89c3.22-.33,6.91-2.29,7.33-4.89h-6.42V977h15.33V979Z"/><path d="M912,991.72a133.25,133.25,0,0,1-13.86.73l-.36-2.07c2.21,0,4.49,0,6.91-.11,3-.13,5.33-.29,7.13-.49Zm-7.48-4.16c-3,0-5.35-1.91-5.35-4.75a5.06,5.06,0,0,1,5.35-5c3.08,0,5.45,2,5.45,5S907.57,987.56,904.51,987.56Zm0-7.68a2.89,2.89,0,0,0-3,2.91,3,3,0,0,0,6,0A2.85,2.85,0,0,0,904.51,979.88Zm10.87,17.17H913V976.19h2.4Z"/><path d="M930.25,986.79c-3,0-5.33-1.8-5.33-4.73a5,5,0,0,1,5.33-4.93c3,0,5.34,2,5.34,4.93S933.28,986.79,930.25,986.79Zm0-7.68a2.8,2.8,0,0,0-2.93,2.91,2.94,2.94,0,0,0,5.88,0A2.77,2.77,0,0,0,930.25,979.11Zm-2.36,17.67v-8.29h2.4v2.18h8.82v-2.23h2.4v8.34Zm11.22-4.2h-8.82v2.27h8.82Zm0-5.24V976.19h2.4v11.15Z"/><path d="M955.83,996.06v-9.8h-2.09c-.22,3.48-1.6,6.28-4.44,6.28-3.13,0-4.49-3.37-4.49-7.33s1.36-7.29,4.49-7.29c2.86,0,4.25,2.82,4.44,6.34h2.09v-7.68h2.27v19.48ZM949.32,980c-1.47,0-2.2,2.23-2.2,5.24s.73,5.19,2.2,5.19,2.2-2.18,2.2-5.19S950.82,980,949.32,980Zm10.54,17.06V976.19h2.29v20.86Z"/><path d="M986.81,993.86h-11v1.29h12V997H973.39v-7.9h5.76v-1.87H971V985.3H989.8v1.91h-8.25v1.87h5.88v1.85H975.79v1.23h11Zm-13.4-10.24v-7.19h2.4v1.8H985v-1.85h2.4v7.24Zm11.57-3.5h-9.17v1.61H985Z"/><path d="M991.21,988.53v-1.94H1010v1.94Zm2.44,8v-6.14h2.4v4.2h11.81v1.94Zm.11-12.46v-7.17h2.4v5.24h11.57V984Z"/><path d="M1023.59,991.24a48.15,48.15,0,0,1-9.11.7h-2.2v-13.8h9.49v2h-7.11v9.84a43.11,43.11,0,0,0,8.63-.66Zm4-5.06v10.87h-2.4V976.19h2.4v8h3.15v2Z"/><path d="M1032.63,991.94h2.58v2.53h-2.58Z"/><text class="cls-5" transform="translate(743.75 1038.8)">시력 테스트를 통해 병원체에 노출되는 단계로 <tspan x="-155.3" y="30">바이러스 표면의 단백질은 특정한 숙주의 세포를 인식하도록 도와준다.</tspan></text><circle class="cls-6" cx="692.44" cy="422.16" r="41.5"/><path d="M575.4,455.55a1.62,1.62,0,0,1,1.13-2h0a1.62,1.62,0,0,1,2,1.12h0a1.62,1.62,0,0,1-1.13,2h0a1.71,1.71,0,0,1-.84,0h0A1.65,1.65,0,0,1,575.4,455.55Zm19.15-5.42a1.62,1.62,0,0,1,1.12-2h0a1.63,1.63,0,0,1,2,1.12h0a1.63,1.63,0,0,1-1.13,2h0a1.6,1.6,0,0,1-.84,0h0A1.63,1.63,0,0,1,594.55,450.13Zm19.15-5.42a1.62,1.62,0,0,1,1.12-2h0a1.63,1.63,0,0,1,2,1.12h0a1.64,1.64,0,0,1-1.11,2h0a1.76,1.76,0,0,1-.85,0h0A1.62,1.62,0,0,1,613.7,444.71Zm19.14-5.41a1.62,1.62,0,0,1,1.12-2h0a1.62,1.62,0,0,1,2,1.12h0a1.63,1.63,0,0,1-1.13,2h0a1.6,1.6,0,0,1-.84,0h0A1.61,1.61,0,0,1,632.84,439.3Z"/><path d="M557.42,462.11a1.5,1.5,0,0,1-.57-.27,1.61,1.61,0,0,1-.61-1.7,1.65,1.65,0,0,1,.75-1,1.63,1.63,0,0,1,1.53-.07l.27.16a2.29,2.29,0,0,1,.23.21,2.26,2.26,0,0,1,.2.26,1.6,1.6,0,0,1,.13.3.73.73,0,0,1,.07.29,1.22,1.22,0,0,1,0,.33,1.87,1.87,0,0,1,0,.32,1.82,1.82,0,0,1-.27.56,1.65,1.65,0,0,1-.48.43,1.39,1.39,0,0,1-.6.21A1.35,1.35,0,0,1,557.42,462.11Z"/><polygon points="557.89 452.09 546.59 463.71 562.31 467.69 557.89 452.09"/><path class="cls-6" d="M550,485.41a241.46,241.46,0,0,1-19.22,129.47C476.1,737.24,332.6,792.1,210.25,737.43S33,539.26,87.69,416.91,285.87,239.69,408.22,294.36a242,242,0,0,1,132.2,147.85"/><path class="cls-3" d="M221.57,272l-.49-1.46,7.21-6.68.67,2-5.32,4.49-.47.35h.59l6.94.28.66,2Z"/><path class="cls-3" d="M244.65,269.46l.46,1.6L236,273.67l-4.23-14.83,1.89-.54,3.76,13.23Z"/><path class="cls-3" d="M253.72,253.19l.38,1.66-3.6.83,2.7,11.71,3.6-.83.38,1.65-9.08,2.09-.38-1.65,3.52-.81-2.7-11.71-3.52.81-.38-1.66Z"/><path class="cls-3" d="M261.56,260.43l1.19,6.7-1.95.34-2.7-15.17,9.32-1.66.29,1.65-7.37,1.31.93,5.19,6.31-1.12.29,1.63Z"/><path class="cls-3" d="M274.41,258l.68,5.42,7.44-.94.21,1.65-9.39,1.18L271.43,250l9.3-1.16.2,1.66-7.35.92.62,4.92,6.38-.81.21,1.65Z"/><path class="cls-3" d="M285.88,265.45l-.12-1.59,9.69-.72.11,1.59Z"/><path class="cls-3" d="M308.11,260.1a4.94,4.94,0,0,1-1,1.55,4.65,4.65,0,0,1-1.55,1,5.58,5.58,0,0,1-2,.4,5.29,5.29,0,0,1-1.73-.23,4.64,4.64,0,0,1-1.4-.72,4.7,4.7,0,0,1-1.08-1.1,6.41,6.41,0,0,1-.76-1.39,7.59,7.59,0,0,1-.47-1.58,10.68,10.68,0,0,1-.2-1.69l-.05-2.15a12,12,0,0,1,.12-1.7,8.43,8.43,0,0,1,.4-1.61,7,7,0,0,1,.69-1.43,5.14,5.14,0,0,1,1-1.15,4.68,4.68,0,0,1,1.36-.78,5.44,5.44,0,0,1,1.73-.31,5.85,5.85,0,0,1,2.07.31,4.58,4.58,0,0,1,1.59,1,5.1,5.1,0,0,1,1.09,1.55,6.85,6.85,0,0,1,.57,2l-2,0a5.21,5.21,0,0,0-.36-1.29,3.69,3.69,0,0,0-.64-1,3,3,0,0,0-1-.69,3.28,3.28,0,0,0-1.34-.23,3.09,3.09,0,0,0-1.23.26,2.58,2.58,0,0,0-.9.64,3.13,3.13,0,0,0-.63.92,5.86,5.86,0,0,0-.4,1.11,9.39,9.39,0,0,0-.2,1.2c0,.41,0,.8,0,1.18l.05,2.17a9.89,9.89,0,0,0,.1,1.18,8.12,8.12,0,0,0,.25,1.19,6.31,6.31,0,0,0,.44,1.1,3.31,3.31,0,0,0,.67.89,2.78,2.78,0,0,0,.93.61,3.22,3.22,0,0,0,1.25.2,3.18,3.18,0,0,0,1.33-.28,2.64,2.64,0,0,0,.94-.7,3.2,3.2,0,0,0,.6-1,5.34,5.34,0,0,0,.3-1.31l2,0A6.71,6.71,0,0,1,308.11,260.1Z"/><path class="cls-3" d="M320.07,247.6l2.22.06-5.06,9.53-.2,5.74-1.82-.05.13-5.74-4.52-9.8,2.23.06,3.29,7.84Z"/><path class="cls-3" d="M334,261.31a5.24,5.24,0,0,1-1.18,1.44,4.51,4.51,0,0,1-1.65.87,5.42,5.42,0,0,1-2,.2,5.24,5.24,0,0,1-1.7-.41,4.47,4.47,0,0,1-1.32-.85,4.83,4.83,0,0,1-1-1.2,6.72,6.72,0,0,1-.61-1.46,8.11,8.11,0,0,1-.32-1.63,12,12,0,0,1,0-1.7l.17-2.15a11.91,11.91,0,0,1,.29-1.67,8,8,0,0,1,.57-1.56,6.61,6.61,0,0,1,.83-1.35,4.89,4.89,0,0,1,1.14-1,4.63,4.63,0,0,1,1.43-.64,5.22,5.22,0,0,1,1.75-.13,5.46,5.46,0,0,1,2,.52,4.5,4.5,0,0,1,1.49,1.12,5,5,0,0,1,.92,1.64,7,7,0,0,1,.37,2.05l-2-.16a5.6,5.6,0,0,0-.22-1.32,3.42,3.42,0,0,0-.54-1.1,2.74,2.74,0,0,0-.9-.79,3.2,3.2,0,0,0-1.31-.37,3.32,3.32,0,0,0-1.25.13,2.84,2.84,0,0,0-1,.55,3.49,3.49,0,0,0-.72.85,6.57,6.57,0,0,0-.51,1.07,9.18,9.18,0,0,0-.32,1.17,9.93,9.93,0,0,0-.16,1.17l-.17,2.16a11.47,11.47,0,0,0,0,1.18,8.15,8.15,0,0,0,.14,1.21,6,6,0,0,0,.32,1.14,3.3,3.3,0,0,0,.57,1,2.83,2.83,0,0,0,.87.7,3.12,3.12,0,0,0,1.22.33,3.41,3.41,0,0,0,1.35-.14,2.66,2.66,0,0,0,1-.61,3.35,3.35,0,0,0,.7-1,5.58,5.58,0,0,0,.43-1.27l2,.16A6.8,6.8,0,0,1,334,261.31Z"/><path class="cls-3" d="M347,263.94l-.22,1.65-9.41-1.23,2-15.28,1.95.25L339.56,263Z"/><path class="cls-3" d="M353.16,259.44l-1,5.37,7.38,1.35-.3,1.64L350,266.09l2.77-15.16,9.22,1.69-.3,1.64-7.29-1.33-.89,4.87,6.33,1.16-.3,1.63Z"/><path class="cls-3" d="M377,263.63a5.48,5.48,0,0,1,1.51-1.49,4.87,4.87,0,0,1,1.91-.73,5.12,5.12,0,0,1,2.21.17,5.34,5.34,0,0,1,2,1,4.82,4.82,0,0,1,1.23,1.65,5.51,5.51,0,0,1,.48,2.06,7.27,7.27,0,0,1-.3,2.31l-.06.22a7,7,0,0,1-1,2.11,5.41,5.41,0,0,1-1.5,1.48,4.57,4.57,0,0,1-1.91.72,5.12,5.12,0,0,1-2.21-.17,5.2,5.2,0,0,1-2-1,4.54,4.54,0,0,1-1.23-1.63,5.37,5.37,0,0,1-.48-2.06A7,7,0,0,1,376,266l.07-.22A7.06,7.06,0,0,1,377,263.63Zm.58,4.49a3.86,3.86,0,0,0,.21,1.46,3,3,0,0,0,.72,1.17,2.92,2.92,0,0,0,1.28.72,2.78,2.78,0,0,0,1.45.07,3,3,0,0,0,1.24-.6,4.26,4.26,0,0,0,.95-1.13,6.06,6.06,0,0,0,.65-1.49l.06-.23a5.85,5.85,0,0,0,.25-1.59,4.36,4.36,0,0,0-.21-1.47,3.2,3.2,0,0,0-.72-1.17,3.1,3.1,0,0,0-2.73-.79,3,3,0,0,0-1.23.6,4.26,4.26,0,0,0-1,1.13,6,6,0,0,0-.64,1.49l-.07.22A6.49,6.49,0,0,0,377.59,268.12Z"/><path class="cls-3" d="M393.23,266.7l-3-1,.5-1.43,3,1,.26-.76a5.22,5.22,0,0,1,.94-1.72,3.79,3.79,0,0,1,1.32-1,3.87,3.87,0,0,1,1.61-.34,5.63,5.63,0,0,1,1.83.33,5.92,5.92,0,0,1,.77.32l.74.38.46.28.47.3-.75,1.46a7.71,7.71,0,0,0-.87-.58,7.86,7.86,0,0,0-1.13-.51,4.1,4.1,0,0,0-1.17-.23,2.19,2.19,0,0,0-1,.19,2.13,2.13,0,0,0-.8.65,4.13,4.13,0,0,0-.59,1.13l-.26.76,4.18,1.44-.5,1.44-4.17-1.44-3.24,9.39L390,276.1Z"/><path class="cls-3" d="M416.63,269.82l1.9.88-1.75,11.87-.12.77.54-.6,7.91-9,1.89.88-10.87,11.95-1.55-.72Z"/><path class="cls-3" d="M438.17,280.41l-.79,1.51-3.27-1.71-5.58,10.63,3.27,1.72-.79,1.5-8.25-4.33.79-1.5,3.19,1.68,5.59-10.64-3.2-1.68.79-1.51Z"/><path class="cls-3" d="M439,291.38l-3.2,5.41-1.68-1L442,282.53l3.89,2.3a7.39,7.39,0,0,1,1.6,1.3,5,5,0,0,1,1,1.59,3.9,3.9,0,0,1,.23,1.8,4.44,4.44,0,0,1-.68,2,4,4,0,0,1-.88,1.08,4.27,4.27,0,0,1-1.09.67,4.41,4.41,0,0,1-1.25.31,5.48,5.48,0,0,1-1.34,0l-.53,7.34-.08.1-1.77-1.05.59-6.95Zm3.08-.05a3.82,3.82,0,0,0,1.17.45,3.09,3.09,0,0,0,1.17,0,2.75,2.75,0,0,0,1.05-.43,2.85,2.85,0,0,0,.85-.93,3.27,3.27,0,0,0,.45-1.25,2.62,2.62,0,0,0-.11-1.15,2.81,2.81,0,0,0-.6-1,4.24,4.24,0,0,0-1-.84l-2.22-1.31-3,5.08Z"/><path class="cls-3" d="M455.88,303.55a5.46,5.46,0,0,1-1.43,1.48,5.34,5.34,0,0,1-1.78.79,4.86,4.86,0,0,1-1.94.06,5.15,5.15,0,0,1-1.91-.78,5.07,5.07,0,0,1-1.49-1.46,4.79,4.79,0,0,1-.7-1.8,5.08,5.08,0,0,1,.05-1.94,5.63,5.63,0,0,1,.8-1.9l5.78-8.7,1.55,1-5.72,8.73a4.51,4.51,0,0,0-.55,1.23,3.4,3.4,0,0,0-.12,1.26,2.84,2.84,0,0,0,1.31,2.16,2.87,2.87,0,0,0,1.27.49,2.75,2.75,0,0,0,1.24-.13,3.42,3.42,0,0,0,1.1-.61,5,5,0,0,0,.92-1l5.78-8.69,1.58,1Z"/><path class="cls-3" d="M465,310a2.91,2.91,0,0,0-.18-1.16,5.31,5.31,0,0,0-.57-1.11c-.24-.36-.47-.69-.7-1q-.5-.71-1-1.5a7.74,7.74,0,0,1-.69-1.64,4.46,4.46,0,0,1-.16-1.7,3.26,3.26,0,0,1,.67-1.65,3.59,3.59,0,0,1,1.41-1.18,4.43,4.43,0,0,1,1.71-.38,5.27,5.27,0,0,1,1.78.29,6.16,6.16,0,0,1,1.63.85,5.73,5.73,0,0,1,1.36,1.42A5.34,5.34,0,0,1,471,303a4.66,4.66,0,0,1,.07,1.86,4.59,4.59,0,0,1-.77,1.82l-1.62-1.2a4.34,4.34,0,0,0,.45-1.17,2.93,2.93,0,0,0,0-1.14,2.84,2.84,0,0,0-.41-1.05,3.36,3.36,0,0,0-.89-.92,3.63,3.63,0,0,0-1-.52,2.77,2.77,0,0,0-1.05-.18,2.29,2.29,0,0,0-1,.23,2.19,2.19,0,0,0-.84.72,2,2,0,0,0-.4,1.11,2.75,2.75,0,0,0,.21,1.12,5.21,5.21,0,0,0,.56,1.07c.23.35.46.67.67,1a14.92,14.92,0,0,1,1,1.53,6.43,6.43,0,0,1,.7,1.7,4.21,4.21,0,0,1,.12,1.73,3.66,3.66,0,0,1-.73,1.72,3.49,3.49,0,0,1-1.44,1.18,4.25,4.25,0,0,1-1.72.33,5.19,5.19,0,0,1-1.79-.36,6.8,6.8,0,0,1-1.64-.88,6.35,6.35,0,0,1-1.52-1.58,5.42,5.42,0,0,1-.86-2,4.7,4.7,0,0,1,0-1.79,4.22,4.22,0,0,1,.72-1.72l1.61,1.19a3.73,3.73,0,0,0-.44,1.26,3.06,3.06,0,0,0,.06,1.21,3.1,3.1,0,0,0,.51,1.11,4.3,4.3,0,0,0,1,.94,4.37,4.37,0,0,0,1,.56,3.09,3.09,0,0,0,1.06.22,2.4,2.4,0,0,0,1-.19A2.36,2.36,0,0,0,465,310Z"/><path class="cls-3" d="M468.62,314l6.94,2.34.6.26-.36-.56-3.7-6.3,1.28-1.57,4.71,9-1,1.19-9.78-2.81Z"/><path class="cls-3" d="M555.36,572,568,574.88l-.6-4.27,1.74.4.89,6.18,0,.16-15-3.43Z"/><path class="cls-3" d="M426.58,739.46l.63,1.26-2,7.28c-.18.65-.32,1.21-.42,1.7a7.39,7.39,0,0,0-.17,1.29,4,4,0,0,0,.06,1,3.25,3.25,0,0,0,.3.86,2.92,2.92,0,0,0,.65.88,2.57,2.57,0,0,0,.86.55,2.76,2.76,0,0,0,1,.14,2.8,2.8,0,0,0,1.11-.32,3.52,3.52,0,0,0,1.1-.8,2.43,2.43,0,0,0,.62-2.12,4.29,4.29,0,0,0-.41-1.24l1.76-.88a5.09,5.09,0,0,1,.52,1.79,4.5,4.5,0,0,1-.21,1.79,4.79,4.79,0,0,1-.94,1.62,5.48,5.48,0,0,1-1.72,1.28,5.55,5.55,0,0,1-1.9.59,4.24,4.24,0,0,1-1.72-.14,3.82,3.82,0,0,1-1.43-.8,4.28,4.28,0,0,1-1.05-1.38,4,4,0,0,1-.4-1.32,7.15,7.15,0,0,1,0-1.47,13.09,13.09,0,0,1,.25-1.57c.12-.54.26-1.09.42-1.64l1.7-5.86-6.92,3.45-.72-1.43Z"/><path class="cls-3" d="M203.47,754.61a3.91,3.91,0,0,0-1.28-.35,3,3,0,0,0-1.1.11,2.29,2.29,0,0,0-.87.53,2.73,2.73,0,0,0-.62.89,3.59,3.59,0,0,0-.33,1.17,2.09,2.09,0,0,0,.7,1.79,3.74,3.74,0,0,0,1,.62,3.15,3.15,0,0,0,1.12.29,2.26,2.26,0,0,0,1-.13A2.32,2.32,0,0,0,204,759a2.94,2.94,0,0,0,.63-.91l1.79.81a4.12,4.12,0,0,1-1,1.37,4,4,0,0,1-1.44.84,4.68,4.68,0,0,1-1.74.22,5.62,5.62,0,0,1-1.91-.49,6.45,6.45,0,0,1-1.61-1,4.16,4.16,0,0,1-1-1.36,3.61,3.61,0,0,1-.31-1.64,4.79,4.79,0,0,1,.46-1.86,3.32,3.32,0,0,1,.5-.78,3.27,3.27,0,0,1,.76-.67,4,4,0,0,1,1-.48,3.9,3.9,0,0,1,1.25-.16,4.26,4.26,0,0,1-.88-1.09,3.41,3.41,0,0,1-.38-1.14,3.45,3.45,0,0,1,0-1.11,4.85,4.85,0,0,1,.32-1,4.7,4.7,0,0,1,1.13-1.6,3.88,3.88,0,0,1,1.51-.86,4.22,4.22,0,0,1,1.78-.17,5.8,5.8,0,0,1,1.88.51,6.31,6.31,0,0,1,1.63,1,4.55,4.55,0,0,1,1.07,1.4,3.86,3.86,0,0,1,.4,1.65,4.12,4.12,0,0,1-.38,1.81l-1.79-.8a2.89,2.89,0,0,0,.26-1.09,2.3,2.3,0,0,0-.19-1,2.45,2.45,0,0,0-.62-.87,3.6,3.6,0,0,0-1-.67,4,4,0,0,0-1.17-.34,2.33,2.33,0,0,0-1.06.12,2.4,2.4,0,0,0-.91.57,3.61,3.61,0,0,0-.7,1.07,3,3,0,0,0-.29,1.23,2.4,2.4,0,0,0,.24,1.07,3,3,0,0,0,.74.9,5,5,0,0,0,1.16.7l1.27.58-.65,1.44Z"/><path class="cls-3" d="M59.29,578.56l1.54-.42.57,2.07,3.45-.94.52,1.89-3.46.94,1.85,6.79-1.11.3-12.12-3.85-.55-2,9.88-2.7Zm1.08,4-7.36,2,.65.15,8,2.53Z"/><path class="cls-3" d="M88.89,363.63l4.58-6.45,1.55,1.1-3.62,5.11,3.09,2.73a5.72,5.72,0,0,1,.26-1.16,5.17,5.17,0,0,1,2.1-2.67,4.19,4.19,0,0,1,1.68-.57,4.79,4.79,0,0,1,1.85.2,7.33,7.33,0,0,1,3.41,2.39,4.59,4.59,0,0,1,.8,1.67,4.13,4.13,0,0,1,0,1.85,5.46,5.46,0,0,1-.92,2,6,6,0,0,1-1.25,1.3,4.5,4.5,0,0,1-1.5.75,4.24,4.24,0,0,1-1.71.1,5,5,0,0,1-1.83-.66l1.08-1.52a3.09,3.09,0,0,0,2.18.37,3,3,0,0,0,1.73-1.26,2.89,2.89,0,0,0,.51-1.16,2.49,2.49,0,0,0-.06-1.15,3,3,0,0,0-.58-1.09,5.31,5.31,0,0,0-1.06-1,4.36,4.36,0,0,0-1.22-.61,3.12,3.12,0,0,0-1.24-.14,2.82,2.82,0,0,0-1.14.36,3.15,3.15,0,0,0-1,.92,5.47,5.47,0,0,0-.43.73,2.91,2.91,0,0,0-.21.63,3.26,3.26,0,0,0-.06.62c0,.2,0,.42,0,.65l-1.23,1Z"/><path class="cls-3" d="M697.09,426.59a5.54,5.54,0,0,1-1,1.91,4.22,4.22,0,0,1-1.56,1.19,5.36,5.36,0,0,1-2.11.4,5.21,5.21,0,0,1-2.1-.4,4,4,0,0,1-1.58-1.19,5.4,5.4,0,0,1-1-1.91,9.4,9.4,0,0,1-.33-2.61v-3.61a9.4,9.4,0,0,1,.33-2.61,5.45,5.45,0,0,1,1-1.92,4.07,4.07,0,0,1,1.56-1.19,5.61,5.61,0,0,1,4.21,0,4.21,4.21,0,0,1,1.58,1.19,5.59,5.59,0,0,1,1,1.92,9,9,0,0,1,.34,2.61V424A9,9,0,0,1,697.09,426.59ZM695.42,419a6.12,6.12,0,0,0-.3-1.35,2.88,2.88,0,0,0-.59-1,2.3,2.3,0,0,0-.89-.6,3.45,3.45,0,0,0-1.21-.2,3.14,3.14,0,0,0-1.23.22,2.33,2.33,0,0,0-.91.63,3.46,3.46,0,0,0-.66,1.33,7.77,7.77,0,0,0-.22,1.91v3.65Zm0,3.23v-1.35l-6,4.58a4.75,4.75,0,0,0,.34,1.36,2.81,2.81,0,0,0,.63,1,2.29,2.29,0,0,0,.87.54,3.17,3.17,0,0,0,1.14.19,3.37,3.37,0,0,0,1.19-.2,2.55,2.55,0,0,0,.88-.58,3.2,3.2,0,0,0,.71-1.36,7.61,7.61,0,0,0,.23-2Z"/></g></g></svg>