<svg xmlns="http://www.w3.org/2000/svg" viewBox="0 0 684.64 514.38"><defs><style>.cls-1,.cls-2{fill:none;stroke:#000;stroke-miterlimit:10;}.cls-2{stroke-width:0.3px;}</style></defs><g id="레이어_2" data-name="레이어 2"><g id="그래픽"><circle class="cls-1" cx="642.64" cy="175.06" r="41.5"/><path d="M525.6,208.45a1.63,1.63,0,0,1,1.13-2h0a1.62,1.62,0,0,1,2,1.12h0a1.62,1.62,0,0,1-1.12,2h0a1.71,1.71,0,0,1-.84,0h0A1.66,1.66,0,0,1,525.6,208.45ZM544.75,203a1.64,1.64,0,0,1,1.12-2h0a1.63,1.63,0,0,1,2,1.13h0a1.62,1.62,0,0,1-1.12,2h0a1.6,1.6,0,0,1-.84,0h0A1.64,1.64,0,0,1,544.75,203Zm19.15-5.42a1.63,1.63,0,0,1,1.12-2h0a1.63,1.63,0,0,1,2,1.12h0a1.62,1.62,0,0,1-1.11,2h0a1.51,1.51,0,0,1-.84,0h0A1.61,1.61,0,0,1,563.9,197.61ZM583,192.2a1.63,1.63,0,0,1,1.12-2h0a1.62,1.62,0,0,1,2,1.12h0a1.62,1.62,0,0,1-1.12,2h0a1.6,1.6,0,0,1-.84,0h0A1.63,1.63,0,0,1,583,192.2Z"/><path d="M507.63,215a1.38,1.38,0,0,1-.57-.28,1.45,1.45,0,0,1-.43-.46,1.56,1.56,0,0,1-.18-1.23,1.62,1.62,0,0,1,2.27-1.07,1.2,1.2,0,0,1,.27.16,1.64,1.64,0,0,1,.24.21,1.43,1.43,0,0,1,.19.26,1.58,1.58,0,0,1,.21.59,1.83,1.83,0,0,1,0,.33,1.67,1.67,0,0,1,0,.31,1.5,1.5,0,0,1-.27.57,1.75,1.75,0,0,1-.47.43,1.59,1.59,0,0,1-.6.21A1.49,1.49,0,0,1,507.63,215Z"/><polygon points="508.1 204.99 496.8 216.61 512.52 220.59 508.1 204.99"/><path class="cls-1" d="M500.2,238.31A241.46,241.46,0,0,1,481,367.78C426.31,490.13,282.8,545,160.45,490.33S-16.77,292.16,37.9,169.81,236.07-7.41,358.42,47.26A242,242,0,0,1,490.63,195.1"/><path class="cls-2" d="M171.78,24.92l-.5-1.46,7.21-6.68.67,2-5.32,4.49-.47.35H174l6.94.28.67,2Z"/><path class="cls-2" d="M194.86,22.36l.45,1.6-9.13,2.6L182,11.74l1.88-.54,3.77,13.23Z"/><path class="cls-2" d="M203.92,6.09l.38,1.66-3.6.83,2.71,11.71,3.6-.83.38,1.65-9.08,2.09-.38-1.65,3.51-.81L198.74,9l-3.51.81-.39-1.66Z"/><path class="cls-2" d="M211.76,13.32,213,20l-1.95.34L208.31,5.2l9.31-1.66.3,1.65L210.55,6.5l.92,5.19,6.32-1.13.29,1.64Z"/><path class="cls-2" d="M224.61,10.92l.68,5.42,7.45-.93.2,1.65-9.39,1.18-1.92-15.3,9.3-1.16.21,1.65-7.35.93.61,4.91,6.39-.8.21,1.65Z"/><path class="cls-2" d="M236.09,18.35,236,16.76l9.68-.72.12,1.59Z"/><path class="cls-2" d="M258.32,13a4.9,4.9,0,0,1-1,1.56,4.68,4.68,0,0,1-1.54,1,5.58,5.58,0,0,1-2,.41,5.31,5.31,0,0,1-1.74-.24,4.51,4.51,0,0,1-1.4-.71,5.13,5.13,0,0,1-1.08-1.1,6.38,6.38,0,0,1-.75-1.39,8.15,8.15,0,0,1-.48-1.59,10.41,10.41,0,0,1-.19-1.69L248,7.13a10.63,10.63,0,0,1,.11-1.7,8.44,8.44,0,0,1,.41-1.61,6.51,6.51,0,0,1,.69-1.43,4.7,4.7,0,0,1,1-1.15,4.5,4.5,0,0,1,1.35-.78,5.44,5.44,0,0,1,1.73-.31,5.72,5.72,0,0,1,2.08.31,4.44,4.44,0,0,1,1.58,1A4.89,4.89,0,0,1,258.11,3a7,7,0,0,1,.57,2l-1.95,0a6.35,6.35,0,0,0-.36-1.3,3.81,3.81,0,0,0-.65-1,2.69,2.69,0,0,0-1-.69,3.5,3.5,0,0,0-2.58,0,2.78,2.78,0,0,0-.9.64,3.57,3.57,0,0,0-.63.92,6.62,6.62,0,0,0-.39,1.11,7.91,7.91,0,0,0-.2,1.2,9.43,9.43,0,0,0,0,1.18l.05,2.17c0,.38,0,.77.09,1.18a7.75,7.75,0,0,0,.26,1.18,5.38,5.38,0,0,0,.44,1.1,3.32,3.32,0,0,0,.66.9,2.82,2.82,0,0,0,.94.61,3.17,3.17,0,0,0,1.24.2,3.31,3.31,0,0,0,1.33-.28,2.58,2.58,0,0,0,.95-.71,3.42,3.42,0,0,0,.6-1,6.6,6.6,0,0,0,.3-1.31l1.95,0A6.56,6.56,0,0,1,258.32,13Z"/><path class="cls-2" d="M270.27.5l2.23.06-5.07,9.53-.19,5.74-1.82-.05.13-5.75L261,.24l2.23.06,3.28,7.83Z"/><path class="cls-2" d="M284.23,14.21A5.27,5.27,0,0,1,283,15.65a4.83,4.83,0,0,1-1.65.87,5.39,5.39,0,0,1-2,.2,5.24,5.24,0,0,1-1.71-.41,5,5,0,0,1-1.32-.85,5.07,5.07,0,0,1-1-1.2,6.6,6.6,0,0,1-.61-1.47,7.87,7.87,0,0,1-.31-1.62,10.74,10.74,0,0,1,0-1.7l.17-2.15a10.42,10.42,0,0,1,.29-1.67,7.42,7.42,0,0,1,.56-1.56,7.08,7.08,0,0,1,.83-1.35,4.89,4.89,0,0,1,1.14-1,4.69,4.69,0,0,1,1.44-.64,5.2,5.2,0,0,1,1.75-.13,5.57,5.57,0,0,1,2,.52,4.46,4.46,0,0,1,1.48,1.12,5.18,5.18,0,0,1,.93,1.64,7.39,7.39,0,0,1,.36,2.05l-2-.16a5.52,5.52,0,0,0-.23-1.32,3.58,3.58,0,0,0-.54-1.11,2.69,2.69,0,0,0-.89-.78,3.14,3.14,0,0,0-1.32-.37,3.34,3.34,0,0,0-1.25.13,2.86,2.86,0,0,0-1,.55,3.49,3.49,0,0,0-.72.85,5.51,5.51,0,0,0-.5,1.07,6.52,6.52,0,0,0-.32,1.17,10,10,0,0,0-.17,1.17l-.17,2.16a9.23,9.23,0,0,0,0,1.18A7,7,0,0,0,276.5,12a6,6,0,0,0,.32,1.14,3.33,3.33,0,0,0,.58,1,2.68,2.68,0,0,0,.86.7,3,3,0,0,0,1.22.32,3.47,3.47,0,0,0,1.36-.13,2.7,2.7,0,0,0,1-.61,3.38,3.38,0,0,0,.71-1,6.12,6.12,0,0,0,.43-1.27l1.95.15A6.74,6.74,0,0,1,284.23,14.21Z"/><path class="cls-2" d="M297.23,16.84,297,18.49l-9.42-1.23L289.6,2l1.94.26-1.78,13.63Z"/><path class="cls-2" d="M303.36,12.34l-1,5.37,7.39,1.35-.3,1.63L300.16,19l2.77-15.16,9.21,1.68-.3,1.65-7.29-1.33-.89,4.87L310,11.86l-.29,1.63Z"/><path class="cls-2" d="M327.22,16.53A5.35,5.35,0,0,1,328.73,15a4.72,4.72,0,0,1,1.91-.73,5.47,5.47,0,0,1,4.18,1.21,4.91,4.91,0,0,1,1.24,1.64,5.6,5.6,0,0,1,.47,2.06,7.28,7.28,0,0,1-.29,2.32l-.07.22a7.44,7.44,0,0,1-1,2.11,5.69,5.69,0,0,1-1.5,1.48,4.66,4.66,0,0,1-1.92.72,5.47,5.47,0,0,1-4.18-1.21,4.63,4.63,0,0,1-1.23-1.63,5.61,5.61,0,0,1-.49-2.06,7.27,7.27,0,0,1,.3-2.31l.06-.22A7.08,7.08,0,0,1,327.22,16.53Zm.57,4.48a4.36,4.36,0,0,0,.21,1.47,3.09,3.09,0,0,0,.73,1.17,2.88,2.88,0,0,0,1.27.72,2.93,2.93,0,0,0,1.46.07,3.07,3.07,0,0,0,1.23-.6,4.26,4.26,0,0,0,1-1.13,6.44,6.44,0,0,0,.64-1.49l.07-.23a6.33,6.33,0,0,0,.24-1.6,4.3,4.3,0,0,0-.21-1.46,3.06,3.06,0,0,0-.72-1.18A2.88,2.88,0,0,0,332.4,16a2.82,2.82,0,0,0-1.46-.07,3,3,0,0,0-1.22.61,4,4,0,0,0-1,1.13,6.55,6.55,0,0,0-.64,1.48l-.06.23A6.07,6.07,0,0,0,327.79,21Z"/><path class="cls-2" d="M343.43,19.6l-3-1,.49-1.43,3,1,.26-.76a5.4,5.4,0,0,1,.93-1.72,4,4,0,0,1,1.32-1,3.75,3.75,0,0,1,1.61-.34,5.63,5.63,0,0,1,1.83.33,6.71,6.71,0,0,1,.78.32c.25.12.49.25.73.38l.46.28c.16.09.31.19.47.3l-.75,1.45a7.74,7.74,0,0,0-.87-.57,5.86,5.86,0,0,0-1.13-.51,4.1,4.1,0,0,0-1.17-.23,2.11,2.11,0,0,0-1,.19,2,2,0,0,0-.8.65,3.87,3.87,0,0,0-.59,1.13l-.26.76L350,20.25l-.49,1.43-4.18-1.44-3.24,9.4L340.19,29Z"/><path class="cls-2" d="M366.83,22.72l1.9.88L367,35.46l-.11.78.53-.6,7.92-9,1.89.87-10.88,12-1.55-.72Z"/><path class="cls-2" d="M388.38,33.31l-.8,1.51-3.27-1.72-5.58,10.64L382,45.46l-.79,1.5L373,42.63l.79-1.5,3.2,1.68,5.58-10.64-3.19-1.68.79-1.51Z"/><path class="cls-2" d="M389.21,44.28,386,49.69l-1.67-1,7.84-13.27,3.89,2.3a7.57,7.57,0,0,1,1.59,1.3,5,5,0,0,1,1,1.59,4,4,0,0,1,.23,1.8,4.76,4.76,0,0,1-.68,1.95,4.18,4.18,0,0,1-.89,1.08,4.19,4.19,0,0,1-2.33,1,5.47,5.47,0,0,1-1.34,0l-.54,7.34-.07.1-1.78-1.05.59-6.95Zm3.08-.05a3.82,3.82,0,0,0,1.17.45,3.09,3.09,0,0,0,1.17,0,2.79,2.79,0,0,0,1.06-.43,2.86,2.86,0,0,0,.84-.94,3.23,3.23,0,0,0,.45-1.24,2.61,2.61,0,0,0-.1-1.15,3.14,3.14,0,0,0-.61-1,4.45,4.45,0,0,0-1-.83L393,37.81l-3,5.08Z"/><path class="cls-2" d="M406.09,56.45a5.49,5.49,0,0,1-1.44,1.48,5.34,5.34,0,0,1-1.78.79,4.68,4.68,0,0,1-1.94.05A5,5,0,0,1,399,58a5,5,0,0,1-1.48-1.46,4.6,4.6,0,0,1-.7-1.8,4.89,4.89,0,0,1,.05-1.94,5.63,5.63,0,0,1,.8-1.9l5.77-8.7,1.56,1L399.29,52a4.42,4.42,0,0,0-.54,1.22,3.45,3.45,0,0,0-.12,1.27,2.77,2.77,0,0,0,1.31,2.16,2.76,2.76,0,0,0,2.5.36,3.57,3.57,0,0,0,1.11-.61,4.79,4.79,0,0,0,.91-1l5.78-8.69,1.58,1Z"/><path class="cls-2" d="M415.18,62.91a2.91,2.91,0,0,0-.18-1.16,5.83,5.83,0,0,0-.57-1.11c-.24-.36-.48-.7-.71-1a16.55,16.55,0,0,1-1-1.49,7.78,7.78,0,0,1-.7-1.64,4.69,4.69,0,0,1-.16-1.7,3.35,3.35,0,0,1,.68-1.66A3.62,3.62,0,0,1,414,52a4.43,4.43,0,0,1,1.71-.38,5.33,5.33,0,0,1,1.79.29,6.26,6.26,0,0,1,1.62.85,5.73,5.73,0,0,1,1.36,1.42,5.28,5.28,0,0,1,.78,1.73,4.48,4.48,0,0,1,.06,1.86,4.36,4.36,0,0,1-.77,1.81l-1.62-1.19a4.37,4.37,0,0,0,.46-1.17,3.13,3.13,0,0,0,0-1.14,2.77,2.77,0,0,0-.41-1,3.32,3.32,0,0,0-.88-.92,3.72,3.72,0,0,0-1-.53,2.94,2.94,0,0,0-1-.17,2.33,2.33,0,0,0-1,.23,2.19,2.19,0,0,0-.84.72,2,2,0,0,0-.4,1.11,2.94,2.94,0,0,0,.22,1.12,4.76,4.76,0,0,0,.56,1.07c.23.35.45.66.67,1a16.8,16.8,0,0,1,1,1.53,6.75,6.75,0,0,1,.69,1.7,4.38,4.38,0,0,1,.13,1.73,3.77,3.77,0,0,1-.73,1.71,3.41,3.41,0,0,1-1.45,1.19,4,4,0,0,1-1.72.32,5,5,0,0,1-1.79-.35,6.73,6.73,0,0,1-1.63-.88A6.57,6.57,0,0,1,408.27,64a5.47,5.47,0,0,1-.85-2,4.39,4.39,0,0,1,.66-3.51l1.61,1.19a3.73,3.73,0,0,0-.44,1.26,3,3,0,0,0,.06,1.2,3.14,3.14,0,0,0,.52,1.11,4.28,4.28,0,0,0,.95.95,4.38,4.38,0,0,0,1,.55,2.94,2.94,0,0,0,1.07.23,2.4,2.4,0,0,0,1-.19,2.11,2.11,0,0,0,.87-.72A2.14,2.14,0,0,0,415.18,62.91Z"/><path class="cls-2" d="M418.82,66.92l6.94,2.33.61.27L426,69l-3.69-6.3,1.28-1.57,4.7,9-1,1.19-9.77-2.81Z"/><path class="cls-2" d="M505.56,324.91l12.59,2.87-.6-4.27,1.75.4.89,6.18,0,.16-15-3.43Z"/><path class="cls-2" d="M376.78,492.36l.63,1.26-2,7.28c-.18.64-.32,1.21-.42,1.69a8.78,8.78,0,0,0-.17,1.3,4,4,0,0,0,.06,1,4.38,4.38,0,0,0,.3.86,3.05,3.05,0,0,0,.65.88,2.35,2.35,0,0,0,.87.54,2.53,2.53,0,0,0,1,.14,2.82,2.82,0,0,0,1.12-.31,3.68,3.68,0,0,0,1.1-.8,2.46,2.46,0,0,0,.56-1,2.76,2.76,0,0,0,.06-1.15,4.1,4.1,0,0,0-.42-1.25l1.76-.88a4.89,4.89,0,0,1,.52,1.8,4.17,4.17,0,0,1-.21,1.79,4.6,4.6,0,0,1-.93,1.62,5.6,5.6,0,0,1-1.72,1.28,5.85,5.85,0,0,1-1.9.59,4.24,4.24,0,0,1-1.72-.14,3.86,3.86,0,0,1-1.44-.8,4.59,4.59,0,0,1-1.05-1.38,4.22,4.22,0,0,1-.4-1.32,7.17,7.17,0,0,1,0-1.47,9.84,9.84,0,0,1,.25-1.57c.12-.54.26-1.09.42-1.64l1.69-5.87-6.92,3.46-.71-1.43Z"/><path class="cls-2" d="M153.67,507.51a3.86,3.86,0,0,0-1.27-.35,2.81,2.81,0,0,0-1.1.11,2.28,2.28,0,0,0-.88.53,2.78,2.78,0,0,0-.62.89,3.55,3.55,0,0,0-.32,1.17,2,2,0,0,0,.13,1,2.19,2.19,0,0,0,.57.8,3.84,3.84,0,0,0,1,.62,3.38,3.38,0,0,0,1.11.29,2.41,2.41,0,0,0,1.88-.66,2.64,2.64,0,0,0,.63-.91l1.8.81a4.12,4.12,0,0,1-1,1.37,4.19,4.19,0,0,1-1.44.84,4.73,4.73,0,0,1-1.74.22,5.56,5.56,0,0,1-1.91-.49,6.26,6.26,0,0,1-1.62-1,4.1,4.1,0,0,1-1-1.36,3.68,3.68,0,0,1-.31-1.63,5,5,0,0,1,.46-1.86,3.43,3.43,0,0,1,1.27-1.45,4,4,0,0,1,1-.48,3.86,3.86,0,0,1,1.25-.16,4.18,4.18,0,0,1-.89-1.1,3.51,3.51,0,0,1-.38-1.13,3.74,3.74,0,0,1,0-1.11,4.87,4.87,0,0,1,.33-1,4.68,4.68,0,0,1,1.12-1.6,3.82,3.82,0,0,1,1.51-.86,4.38,4.38,0,0,1,1.78-.18,5.81,5.81,0,0,1,1.89.52,6.08,6.08,0,0,1,1.62,1,4.47,4.47,0,0,1,1.08,1.4,4,4,0,0,1,0,3.46l-1.79-.8a2.77,2.77,0,0,0,.27-1.09,2.42,2.42,0,0,0-.19-1,2.61,2.61,0,0,0-.63-.87,3.46,3.46,0,0,0-1-.67,3.59,3.59,0,0,0-1.17-.34,2.48,2.48,0,0,0-1.06.11,2.44,2.44,0,0,0-.9.58,3.62,3.62,0,0,0-.71,1.07,3.13,3.13,0,0,0-.29,1.23,2.41,2.41,0,0,0,.25,1.07,2.83,2.83,0,0,0,.74.9,5,5,0,0,0,1.15.7l1.28.57-.65,1.45Z"/><path class="cls-2" d="M9.5,331.46,11,331l.56,2.07,3.46-.94.51,1.89-3.45.94L14,341.78l-1.12.31L.73,338.24l-.55-2,9.88-2.7Zm1.08,4-7.37,2,.66.15,8,2.53Z"/><path class="cls-2" d="M39.09,116.53l4.58-6.45,1.55,1.1-3.62,5.1L44.7,119a5,5,0,0,1,.94-2.48,4.74,4.74,0,0,1,1.41-1.35,4.15,4.15,0,0,1,1.68-.57,4.82,4.82,0,0,1,1.86.2,6.89,6.89,0,0,1,1.91,1A7,7,0,0,1,54,117.21a4.46,4.46,0,0,1,.81,1.67,4.13,4.13,0,0,1,0,1.85,5.5,5.5,0,0,1-.93,2,6.15,6.15,0,0,1-1.24,1.3,4.34,4.34,0,0,1-1.51.74,4.07,4.07,0,0,1-1.71.11,5,5,0,0,1-1.83-.66l1.08-1.52a3,3,0,0,0,2.18.36,2.93,2.93,0,0,0,1.73-1.26,2.85,2.85,0,0,0,.51-1.15,2.4,2.4,0,0,0,0-1.16,3.17,3.17,0,0,0-.58-1.08,5.1,5.1,0,0,0-1.07-1,4.23,4.23,0,0,0-1.22-.61,3.3,3.3,0,0,0-1.23-.15,2.88,2.88,0,0,0-1.15.37,3.12,3.12,0,0,0-1,.92,4.17,4.17,0,0,0-.43.73,2.74,2.74,0,0,0-.21.63,2.18,2.18,0,0,0-.06.62,5,5,0,0,0,0,.65l-1.24,1Z"/><path class="cls-2" d="M647.29,179.49a5.37,5.37,0,0,1-1,1.91,4,4,0,0,1-1.56,1.18,5.14,5.14,0,0,1-2.1.41,5.4,5.4,0,0,1-2.11-.4A4.11,4.11,0,0,1,639,181.4a5.23,5.23,0,0,1-1-1.91,9,9,0,0,1-.34-2.61v-3.61a9,9,0,0,1,.34-2.61,5.28,5.28,0,0,1,1-1.92,4.12,4.12,0,0,1,1.56-1.19,5.63,5.63,0,0,1,4.22,0,4.08,4.08,0,0,1,1.57,1.19,5.42,5.42,0,0,1,1,1.92,9,9,0,0,1,.34,2.61v3.61A9,9,0,0,1,647.29,179.49Zm-1.67-7.61a5.6,5.6,0,0,0-.3-1.35,2.73,2.73,0,0,0-.59-1,2.16,2.16,0,0,0-.88-.6,3.23,3.23,0,0,0-1.21-.2,3.39,3.39,0,0,0-1.24.21,2.52,2.52,0,0,0-.9.63,3.3,3.3,0,0,0-.66,1.34,7.24,7.24,0,0,0-.22,1.9v3.66Zm0,3.23v-1.36l-6,4.59a5.63,5.63,0,0,0,.34,1.36,2.78,2.78,0,0,0,.64,1,2.33,2.33,0,0,0,.86.54,3.19,3.19,0,0,0,1.15.19,3.32,3.32,0,0,0,1.18-.2,2.35,2.35,0,0,0,.88-.59,3.12,3.12,0,0,0,.72-1.35,7.64,7.64,0,0,0,.22-2Z"/></g></g></svg>