<svg xmlns="http://www.w3.org/2000/svg" viewBox="0 0 1081.27 2497.57"><defs><style>.cls-1,.cls-2,.cls-3{fill:none;}.cls-2,.cls-3{stroke:#000;stroke-miterlimit:10;}.cls-3{stroke-width:0.3px;}</style></defs><g id="레이어_2" data-name="레이어 2"><g id="그래픽"><rect class="cls-1" width="1081.27" height="2497.57"/><circle class="cls-2" cx="692.44" cy="422.16" r="41.5"/><path d="M575.4,455.55a1.62,1.62,0,0,1,1.13-2h0a1.62,1.62,0,0,1,2,1.12h0a1.62,1.62,0,0,1-1.13,2h0a1.71,1.71,0,0,1-.84,0h0A1.65,1.65,0,0,1,575.4,455.55Zm19.15-5.42a1.62,1.62,0,0,1,1.12-2h0a1.63,1.63,0,0,1,2,1.12h0a1.63,1.63,0,0,1-1.13,2h0a1.6,1.6,0,0,1-.84,0h0A1.63,1.63,0,0,1,594.55,450.13Zm19.15-5.42a1.62,1.62,0,0,1,1.12-2h0a1.63,1.63,0,0,1,2,1.12h0a1.64,1.64,0,0,1-1.11,2h0a1.76,1.76,0,0,1-.85,0h0A1.62,1.62,0,0,1,613.7,444.71Zm19.14-5.41a1.62,1.62,0,0,1,1.12-2h0a1.62,1.62,0,0,1,2,1.12h0a1.63,1.63,0,0,1-1.13,2h0a1.6,1.6,0,0,1-.84,0h0A1.61,1.61,0,0,1,632.84,439.3Z"/><path d="M557.42,462.11a1.5,1.5,0,0,1-.57-.27,1.61,1.61,0,0,1-.61-1.7,1.65,1.65,0,0,1,.75-1,1.63,1.63,0,0,1,1.53-.07l.27.16a2.29,2.29,0,0,1,.23.21,2.26,2.26,0,0,1,.2.26,1.6,1.6,0,0,1,.13.3.73.73,0,0,1,.07.29,1.22,1.22,0,0,1,0,.33,1.87,1.87,0,0,1,0,.32,1.82,1.82,0,0,1-.27.56,1.65,1.65,0,0,1-.48.43,1.39,1.39,0,0,1-.6.21A1.35,1.35,0,0,1,557.42,462.11Z"/><polygon points="557.89 452.09 546.59 463.71 562.31 467.69 557.89 452.09"/><path class="cls-2" d="M550,485.41a241.46,241.46,0,0,1-19.22,129.47C476.1,737.24,332.6,792.1,210.25,737.43S33,539.26,87.69,416.91,285.87,239.69,408.22,294.36a242,242,0,0,1,132.2,147.85"/><path class="cls-3" d="M221.57,272l-.49-1.46,7.21-6.68.67,2-5.32,4.49-.47.35h.59l6.94.28.66,2Z"/><path class="cls-3" d="M244.65,269.46l.46,1.6L236,273.67l-4.23-14.83,1.89-.54,3.76,13.23Z"/><path class="cls-3" d="M253.72,253.19l.38,1.66-3.6.83,2.7,11.71,3.6-.83.38,1.65-9.08,2.09-.38-1.65,3.52-.81-2.7-11.71-3.52.81-.38-1.66Z"/><path class="cls-3" d="M261.56,260.43l1.19,6.7-1.95.34-2.7-15.17,9.32-1.66.29,1.65-7.37,1.31.93,5.19,6.31-1.12.29,1.63Z"/><path class="cls-3" d="M274.41,258l.68,5.42,7.44-.94.21,1.65-9.39,1.18L271.43,250l9.3-1.16.2,1.66-7.35.92.62,4.92,6.38-.81.21,1.65Z"/><path class="cls-3" d="M285.88,265.45l-.12-1.59,9.69-.72.11,1.59Z"/><path class="cls-3" d="M308.11,260.1a4.94,4.94,0,0,1-1,1.55,4.65,4.65,0,0,1-1.55,1,5.58,5.58,0,0,1-2,.4,5.29,5.29,0,0,1-1.73-.23,4.64,4.64,0,0,1-1.4-.72,4.7,4.7,0,0,1-1.08-1.1,6.41,6.41,0,0,1-.76-1.39,7.59,7.59,0,0,1-.47-1.58,10.68,10.68,0,0,1-.2-1.69l-.05-2.15a12,12,0,0,1,.12-1.7,8.43,8.43,0,0,1,.4-1.61,7,7,0,0,1,.69-1.43,5.14,5.14,0,0,1,1-1.15,4.68,4.68,0,0,1,1.36-.78,5.44,5.44,0,0,1,1.73-.31,5.85,5.85,0,0,1,2.07.31,4.58,4.58,0,0,1,1.59,1,5.1,5.1,0,0,1,1.09,1.55,6.85,6.85,0,0,1,.57,2l-2,0a5.21,5.21,0,0,0-.36-1.29,3.69,3.69,0,0,0-.64-1,3,3,0,0,0-1-.69,3.28,3.28,0,0,0-1.34-.23,3.09,3.09,0,0,0-1.23.26,2.58,2.58,0,0,0-.9.64,3.13,3.13,0,0,0-.63.92,5.86,5.86,0,0,0-.4,1.11,9.39,9.39,0,0,0-.2,1.2c0,.41,0,.8,0,1.18l.05,2.17a9.89,9.89,0,0,0,.1,1.18,8.12,8.12,0,0,0,.25,1.19,6.31,6.31,0,0,0,.44,1.1,3.31,3.31,0,0,0,.67.89,2.78,2.78,0,0,0,.93.61,3.22,3.22,0,0,0,1.25.2,3.18,3.18,0,0,0,1.33-.28,2.64,2.64,0,0,0,.94-.7,3.2,3.2,0,0,0,.6-1,5.34,5.34,0,0,0,.3-1.31l2,0A6.71,6.71,0,0,1,308.11,260.1Z"/><path class="cls-3" d="M320.07,247.6l2.22.06-5.06,9.53-.2,5.74-1.82-.05.13-5.74-4.52-9.8,2.23.06,3.29,7.84Z"/><path class="cls-3" d="M334,261.31a5.24,5.24,0,0,1-1.18,1.44,4.51,4.51,0,0,1-1.65.87,5.42,5.42,0,0,1-2,.2,5.24,5.24,0,0,1-1.7-.41,4.47,4.47,0,0,1-1.32-.85,4.83,4.83,0,0,1-1-1.2,6.72,6.72,0,0,1-.61-1.46,8.11,8.11,0,0,1-.32-1.63,12,12,0,0,1,0-1.7l.17-2.15a11.91,11.91,0,0,1,.29-1.67,8,8,0,0,1,.57-1.56,6.61,6.61,0,0,1,.83-1.35,4.89,4.89,0,0,1,1.14-1,4.63,4.63,0,0,1,1.43-.64,5.22,5.22,0,0,1,1.75-.13,5.46,5.46,0,0,1,2,.52,4.5,4.5,0,0,1,1.49,1.12,5,5,0,0,1,.92,1.64,7,7,0,0,1,.37,2.05l-2-.16a5.6,5.6,0,0,0-.22-1.32,3.42,3.42,0,0,0-.54-1.1,2.74,2.74,0,0,0-.9-.79,3.2,3.2,0,0,0-1.31-.37,3.32,3.32,0,0,0-1.25.13,2.84,2.84,0,0,0-1,.55,3.49,3.49,0,0,0-.72.85,6.57,6.57,0,0,0-.51,1.07,9.18,9.18,0,0,0-.32,1.17,9.93,9.93,0,0,0-.16,1.17l-.17,2.16a11.47,11.47,0,0,0,0,1.18,8.15,8.15,0,0,0,.14,1.21,6,6,0,0,0,.32,1.14,3.3,3.3,0,0,0,.57,1,2.83,2.83,0,0,0,.87.7,3.12,3.12,0,0,0,1.22.33,3.41,3.41,0,0,0,1.35-.14,2.66,2.66,0,0,0,1-.61,3.35,3.35,0,0,0,.7-1,5.58,5.58,0,0,0,.43-1.27l2,.16A6.8,6.8,0,0,1,334,261.31Z"/><path class="cls-3" d="M347,263.94l-.22,1.65-9.41-1.23,2-15.28,1.95.25L339.56,263Z"/><path class="cls-3" d="M353.16,259.44l-1,5.37,7.38,1.35-.3,1.64L350,266.09l2.77-15.16,9.22,1.69-.3,1.64-7.29-1.33-.89,4.87,6.33,1.16-.3,1.63Z"/><path class="cls-3" d="M377,263.63a5.48,5.48,0,0,1,1.51-1.49,4.87,4.87,0,0,1,1.91-.73,5.12,5.12,0,0,1,2.21.17,5.34,5.34,0,0,1,2,1,4.82,4.82,0,0,1,1.23,1.65,5.51,5.51,0,0,1,.48,2.06,7.27,7.27,0,0,1-.3,2.31l-.06.22a7,7,0,0,1-1,2.11,5.41,5.41,0,0,1-1.5,1.48,4.57,4.57,0,0,1-1.91.72,5.12,5.12,0,0,1-2.21-.17,5.2,5.2,0,0,1-2-1,4.54,4.54,0,0,1-1.23-1.63,5.37,5.37,0,0,1-.48-2.06A7,7,0,0,1,376,266l.07-.22A7.06,7.06,0,0,1,377,263.63Zm.58,4.49a3.86,3.86,0,0,0,.21,1.46,3,3,0,0,0,.72,1.17,2.92,2.92,0,0,0,1.28.72,2.78,2.78,0,0,0,1.45.07,3,3,0,0,0,1.24-.6,4.26,4.26,0,0,0,.95-1.13,6.06,6.06,0,0,0,.65-1.49l.06-.23a5.85,5.85,0,0,0,.25-1.59,4.36,4.36,0,0,0-.21-1.47,3.2,3.2,0,0,0-.72-1.17,3.1,3.1,0,0,0-2.73-.79,3,3,0,0,0-1.23.6,4.26,4.26,0,0,0-1,1.13,6,6,0,0,0-.64,1.49l-.07.22A6.49,6.49,0,0,0,377.59,268.12Z"/><path class="cls-3" d="M393.23,266.7l-3-1,.5-1.43,3,1,.26-.76a5.22,5.22,0,0,1,.94-1.72,3.79,3.79,0,0,1,1.32-1,3.87,3.87,0,0,1,1.61-.34,5.63,5.63,0,0,1,1.83.33,5.92,5.92,0,0,1,.77.32l.74.38.46.28.47.3-.75,1.46a7.71,7.71,0,0,0-.87-.58,7.86,7.86,0,0,0-1.13-.51,4.1,4.1,0,0,0-1.17-.23,2.19,2.19,0,0,0-1,.19,2.13,2.13,0,0,0-.8.65,4.13,4.13,0,0,0-.59,1.13l-.26.76,4.18,1.44-.5,1.44-4.17-1.44-3.24,9.39L390,276.1Z"/><path class="cls-3" d="M416.63,269.82l1.9.88-1.75,11.87-.12.77.54-.6,7.91-9,1.89.88-10.87,11.95-1.55-.72Z"/><path class="cls-3" d="M438.17,280.41l-.79,1.51-3.27-1.71-5.58,10.63,3.27,1.72-.79,1.5-8.25-4.33.79-1.5,3.19,1.68,5.59-10.64-3.2-1.68.79-1.51Z"/><path class="cls-3" d="M439,291.38l-3.2,5.41-1.68-1L442,282.53l3.89,2.3a7.39,7.39,0,0,1,1.6,1.3,5,5,0,0,1,1,1.59,3.9,3.9,0,0,1,.23,1.8,4.44,4.44,0,0,1-.68,2,4,4,0,0,1-.88,1.08,4.27,4.27,0,0,1-1.09.67,4.41,4.41,0,0,1-1.25.31,5.48,5.48,0,0,1-1.34,0l-.53,7.34-.08.1-1.77-1.05.59-6.95Zm3.08-.05a3.82,3.82,0,0,0,1.17.45,3.09,3.09,0,0,0,1.17,0,2.75,2.75,0,0,0,1.05-.43,2.85,2.85,0,0,0,.85-.93,3.27,3.27,0,0,0,.45-1.25,2.62,2.62,0,0,0-.11-1.15,2.81,2.81,0,0,0-.6-1,4.24,4.24,0,0,0-1-.84l-2.22-1.31-3,5.08Z"/><path class="cls-3" d="M455.88,303.55a5.46,5.46,0,0,1-1.43,1.48,5.34,5.34,0,0,1-1.78.79,4.86,4.86,0,0,1-1.94.06,5.15,5.15,0,0,1-1.91-.78,5.07,5.07,0,0,1-1.49-1.46,4.79,4.79,0,0,1-.7-1.8,5.08,5.08,0,0,1,.05-1.94,5.63,5.63,0,0,1,.8-1.9l5.78-8.7,1.55,1-5.72,8.73a4.51,4.51,0,0,0-.55,1.23,3.4,3.4,0,0,0-.12,1.26,2.84,2.84,0,0,0,1.31,2.16,2.87,2.87,0,0,0,1.27.49,2.75,2.75,0,0,0,1.24-.13,3.42,3.42,0,0,0,1.1-.61,5,5,0,0,0,.92-1l5.78-8.69,1.58,1Z"/><path class="cls-3" d="M465,310a2.91,2.91,0,0,0-.18-1.16,5.31,5.31,0,0,0-.57-1.11c-.24-.36-.47-.69-.7-1q-.5-.71-1-1.5a7.74,7.74,0,0,1-.69-1.64,4.46,4.46,0,0,1-.16-1.7,3.26,3.26,0,0,1,.67-1.65,3.59,3.59,0,0,1,1.41-1.18,4.43,4.43,0,0,1,1.71-.38,5.27,5.27,0,0,1,1.78.29,6.16,6.16,0,0,1,1.63.85,5.73,5.73,0,0,1,1.36,1.42A5.34,5.34,0,0,1,471,303a4.66,4.66,0,0,1,.07,1.86,4.59,4.59,0,0,1-.77,1.82l-1.62-1.2a4.34,4.34,0,0,0,.45-1.17,2.93,2.93,0,0,0,0-1.14,2.84,2.84,0,0,0-.41-1.05,3.36,3.36,0,0,0-.89-.92,3.63,3.63,0,0,0-1-.52,2.77,2.77,0,0,0-1.05-.18,2.29,2.29,0,0,0-1,.23,2.19,2.19,0,0,0-.84.72,2,2,0,0,0-.4,1.11,2.75,2.75,0,0,0,.21,1.12,5.21,5.21,0,0,0,.56,1.07c.23.35.46.67.67,1a14.92,14.92,0,0,1,1,1.53,6.43,6.43,0,0,1,.7,1.7,4.21,4.21,0,0,1,.12,1.73,3.66,3.66,0,0,1-.73,1.72,3.49,3.49,0,0,1-1.44,1.18,4.25,4.25,0,0,1-1.72.33,5.19,5.19,0,0,1-1.79-.36,6.8,6.8,0,0,1-1.64-.88,6.35,6.35,0,0,1-1.52-1.58,5.42,5.42,0,0,1-.86-2,4.7,4.7,0,0,1,0-1.79,4.22,4.22,0,0,1,.72-1.72l1.61,1.19a3.73,3.73,0,0,0-.44,1.26,3.06,3.06,0,0,0,.06,1.21,3.1,3.1,0,0,0,.51,1.11,4.3,4.3,0,0,0,1,.94,4.37,4.37,0,0,0,1,.56,3.09,3.09,0,0,0,1.06.22,2.4,2.4,0,0,0,1-.19A2.36,2.36,0,0,0,465,310Z"/><path class="cls-3" d="M468.62,314l6.94,2.34.6.26-.36-.56-3.7-6.3,1.28-1.57,4.71,9-1,1.19-9.78-2.81Z"/><path class="cls-3" d="M555.36,572,568,574.88l-.6-4.27,1.74.4.89,6.18,0,.16-15-3.43Z"/><path class="cls-3" d="M426.58,739.46l.63,1.26-2,7.28c-.18.65-.32,1.21-.42,1.7a7.39,7.39,0,0,0-.17,1.29,4,4,0,0,0,.06,1,3.25,3.25,0,0,0,.3.86,2.92,2.92,0,0,0,.65.88,2.57,2.57,0,0,0,.86.55,2.76,2.76,0,0,0,1,.14,2.8,2.8,0,0,0,1.11-.32,3.52,3.52,0,0,0,1.1-.8,2.43,2.43,0,0,0,.62-2.12,4.29,4.29,0,0,0-.41-1.24l1.76-.88a5.09,5.09,0,0,1,.52,1.79,4.5,4.5,0,0,1-.21,1.79,4.79,4.79,0,0,1-.94,1.62,5.48,5.48,0,0,1-1.72,1.28,5.55,5.55,0,0,1-1.9.59,4.24,4.24,0,0,1-1.72-.14,3.82,3.82,0,0,1-1.43-.8,4.28,4.28,0,0,1-1.05-1.38,4,4,0,0,1-.4-1.32,7.15,7.15,0,0,1,0-1.47,13.09,13.09,0,0,1,.25-1.57c.12-.54.26-1.09.42-1.64l1.7-5.86-6.92,3.45-.72-1.43Z"/><path class="cls-3" d="M203.47,754.61a3.91,3.91,0,0,0-1.28-.35,3,3,0,0,0-1.1.11,2.29,2.29,0,0,0-.87.53,2.73,2.73,0,0,0-.62.89,3.59,3.59,0,0,0-.33,1.17,2.09,2.09,0,0,0,.7,1.79,3.74,3.74,0,0,0,1,.62,3.15,3.15,0,0,0,1.12.29,2.26,2.26,0,0,0,1-.13A2.32,2.32,0,0,0,204,759a2.94,2.94,0,0,0,.63-.91l1.79.81a4.12,4.12,0,0,1-1,1.37,4,4,0,0,1-1.44.84,4.68,4.68,0,0,1-1.74.22,5.62,5.62,0,0,1-1.91-.49,6.45,6.45,0,0,1-1.61-1,4.16,4.16,0,0,1-1-1.36,3.61,3.61,0,0,1-.31-1.64,4.79,4.79,0,0,1,.46-1.86,3.32,3.32,0,0,1,.5-.78,3.27,3.27,0,0,1,.76-.67,4,4,0,0,1,1-.48,3.9,3.9,0,0,1,1.25-.16,4.26,4.26,0,0,1-.88-1.09,3.41,3.41,0,0,1-.38-1.14,3.45,3.45,0,0,1,0-1.11,4.85,4.85,0,0,1,.32-1,4.7,4.7,0,0,1,1.13-1.6,3.88,3.88,0,0,1,1.51-.86,4.22,4.22,0,0,1,1.78-.17,5.8,5.8,0,0,1,1.88.51,6.31,6.31,0,0,1,1.63,1,4.55,4.55,0,0,1,1.07,1.4,3.86,3.86,0,0,1,.4,1.65,4.12,4.12,0,0,1-.38,1.81l-1.79-.8a2.89,2.89,0,0,0,.26-1.09,2.3,2.3,0,0,0-.19-1,2.45,2.45,0,0,0-.62-.87,3.6,3.6,0,0,0-1-.67,4,4,0,0,0-1.17-.34,2.33,2.33,0,0,0-1.06.12,2.4,2.4,0,0,0-.91.57,3.61,3.61,0,0,0-.7,1.07,3,3,0,0,0-.29,1.23,2.4,2.4,0,0,0,.24,1.07,3,3,0,0,0,.74.9,5,5,0,0,0,1.16.7l1.27.58-.65,1.44Z"/><path class="cls-3" d="M59.29,578.56l1.54-.42.57,2.07,3.45-.94.52,1.89-3.46.94,1.85,6.79-1.11.3-12.12-3.85-.55-2,9.88-2.7Zm1.08,4-7.36,2,.65.15,8,2.53Z"/><path class="cls-3" d="M88.89,363.63l4.58-6.45,1.55,1.1-3.62,5.11,3.09,2.73a5.72,5.72,0,0,1,.26-1.16,5.17,5.17,0,0,1,2.1-2.67,4.19,4.19,0,0,1,1.68-.57,4.79,4.79,0,0,1,1.85.2,7.33,7.33,0,0,1,3.41,2.39,4.59,4.59,0,0,1,.8,1.67,4.13,4.13,0,0,1,0,1.85,5.46,5.46,0,0,1-.92,2,6,6,0,0,1-1.25,1.3,4.5,4.5,0,0,1-1.5.75,4.24,4.24,0,0,1-1.71.1,5,5,0,0,1-1.83-.66l1.08-1.52a3.09,3.09,0,0,0,2.18.37,3,3,0,0,0,1.73-1.26,2.89,2.89,0,0,0,.51-1.16,2.49,2.49,0,0,0-.06-1.15,3,3,0,0,0-.58-1.09,5.31,5.31,0,0,0-1.06-1,4.36,4.36,0,0,0-1.22-.61,3.12,3.12,0,0,0-1.24-.14,2.82,2.82,0,0,0-1.14.36,3.15,3.15,0,0,0-1,.92,5.47,5.47,0,0,0-.43.73,2.91,2.91,0,0,0-.21.63,3.26,3.26,0,0,0-.06.62c0,.2,0,.42,0,.65l-1.23,1Z"/><path class="cls-3" d="M697.09,426.59a5.54,5.54,0,0,1-1,1.91,4.22,4.22,0,0,1-1.56,1.19,5.36,5.36,0,0,1-2.11.4,5.21,5.21,0,0,1-2.1-.4,4,4,0,0,1-1.58-1.19,5.4,5.4,0,0,1-1-1.91,9.4,9.4,0,0,1-.33-2.61v-3.61a9.4,9.4,0,0,1,.33-2.61,5.45,5.45,0,0,1,1-1.92,4.07,4.07,0,0,1,1.56-1.19,5.61,5.61,0,0,1,4.21,0,4.21,4.21,0,0,1,1.58,1.19,5.59,5.59,0,0,1,1,1.92,9,9,0,0,1,.34,2.61V424A9,9,0,0,1,697.09,426.59ZM695.42,419a6.12,6.12,0,0,0-.3-1.35,2.88,2.88,0,0,0-.59-1,2.3,2.3,0,0,0-.89-.6,3.45,3.45,0,0,0-1.21-.2,3.14,3.14,0,0,0-1.23.22,2.33,2.33,0,0,0-.91.63,3.46,3.46,0,0,0-.66,1.33,7.77,7.77,0,0,0-.22,1.91v3.65Zm0,3.23v-1.35l-6,4.58a4.75,4.75,0,0,0,.34,1.36,2.81,2.81,0,0,0,.63,1,2.29,2.29,0,0,0,.87.54,3.17,3.17,0,0,0,1.14.19,3.37,3.37,0,0,0,1.19-.2,2.55,2.55,0,0,0,.88-.58,3.2,3.2,0,0,0,.71-1.36,7.61,7.61,0,0,0,.23-2Z"/></g></g></svg>