<svg xmlns="http://www.w3.org/2000/svg" viewBox="0 0 349.03 238.92"><defs><style>.cls-1{fill:none;stroke-width:0.3px;}.cls-1,.cls-2{stroke:#000;stroke-miterlimit:10;}.cls-2{fill:lime;stroke-width:0.36px;}</style></defs><g id="레이어_2" data-name="레이어 2"><g id="그래픽"><path d="M0,205.55V195.32H1v4H6v-4H7v10.23Zm6-5.36H1v4.51H6Zm5.24,1v8.34h-1V193.91h1v6.45h2.66v.82Z"/><path d="M19.37,195.15c2.27,0,3.78,2.13,3.78,5.48s-1.51,5.45-3.78,5.45-3.78-2.15-3.78-5.47S17.1,195.15,19.37,195.15Zm0,.87c-1.68,0-2.77,2-2.77,4.61s1.09,4.58,2.77,4.58,2.77-2,2.77-4.58S21.05,196,19.37,196Zm7.13,13.5V193.91h1v15.61Z"/><path d="M39.1,205.16a54.44,54.44,0,0,1-6.58.5c-.53,0-1.07,0-1.63,0v-5.84h5.88v-3.6H30.89v-.84h6.85v5.27H31.87v4.12a52.45,52.45,0,0,0,7.15-.5ZM42,209.52V201H38.79v-.84H42v-6.26h1v15.61Z"/><path d="M45.71,207.31v-.84H59.82v.84Zm12.88-4.5c-2.9-1-5.36-3.39-5.84-4.74-.4,1.33-2.74,3.76-5.83,4.69l-.5-.77c2.55-.58,5.84-3.18,5.84-5.61V195.3h1v1.08c0,2.43,3.46,5,5.89,5.62Z"/><path d="M65.9,195.65a15.37,15.37,0,0,1-4,10.16l-.87-.6a14,14,0,0,0,3.86-8.72H61.69v-.84Zm4.54,0a18,18,0,0,1-3.73,11.17l-.89-.54c2.75-2.72,3.58-8.09,3.58-9.79H66.59v-.84Zm2.43,13.87V193.91h1v15.61Z"/><path d="M79.65,205.65c-.63,0-1.31,0-2.09,0v-5.74h6.1v-3.7H77.5v-.84h7.12v5.38H78.54v4h.69a42.07,42.07,0,0,0,7.38-.53c.06.3.09.57.12.85A48.5,48.5,0,0,1,79.65,205.65Zm9.63-11.74v15.61h-1V193.91Z"/><path d="M104,205.55a9.88,9.88,0,0,1-3.26-4.82,9,9,0,0,1-3.38,5.2l-.7-.79a8.27,8.27,0,0,0,3.56-6.78v-2.82h1v2.78a8.25,8.25,0,0,0,3.44,6.47Zm5,4v-8.26h-2.42v7.43h-1V194.31h1v6.11h2.42v-6.51h1v15.61Z"/><path d="M112.24,207.49v-.84h6.55v-3.07h-4.65v-4.75h9.28V196h-9.27v-.85h10.24v4.5h-9.28v3.07h9.76v.84h-5.11v3.07h6.58v.84Z"/><path d="M134.28,206.18v-3.3H127.7V202h14.1v.85h-6.56v3.3Zm.47-5.84c-3.44,0-5.31-1.13-5.31-2.94s1.87-3,5.31-3,5.32,1.14,5.32,3S138.19,200.34,134.75,200.34ZM129.59,209V204.7h1v3.41h9.5V209Zm5.16-13.67c-2.69,0-4.3.82-4.3,2.1s1.61,2.08,4.3,2.08,4.33-.8,4.33-2.08S137.43,195.3,134.75,195.3Z"/><path d="M147.86,207.49v-.84h6.54v-3.91h1v3.91H162v.84Zm7.55-11.13v.57c0,2.27,3.58,4.84,5.93,5.32l-.54.83c-2.74-.84-5.26-3-5.89-4.57-.52,1.56-3.08,3.76-5.91,4.53l-.51-.79c2.3-.42,5.9-3,5.9-5.32v-.57h-5.17v-.86H160.6v.86Z"/><path d="M163.28,197.25v-.84h8.88v.84Zm4.38,5.73c-2,0-3.44-.95-3.44-2.49s1.46-2.47,3.44-2.47,3.48.93,3.48,2.47S169.66,203,167.66,203Zm0-4.12c-1.38,0-2.47.62-2.47,1.63s1.11,1.65,2.47,1.65,2.5-.59,2.5-1.65S169.05,198.86,167.66,198.86Zm-2.15-3.73v-.84h4.42v.84Zm0,14.16v-5.56h1v1.75h7.7v-1.73h1v5.54Zm8.68-3h-7.7v2.1h7.7Zm1-6.93V203h-1v-9.07h1v4.65h2.47v.84Z"/><path d="M178.76,201.67v-.81h14.11v.81Zm1.75,7.65v-3.49H190v-1.68h-9.5v-.84h10.46v3.36h-9.45v1.81h10.07v.84Zm5.31-9.64c-3.44,0-5.31-1-5.31-2.67s1.87-2.68,5.31-2.68,5.32,1,5.32,2.68S189.26,199.68,185.82,199.68Zm0-4.51c-2.69,0-4.3.7-4.3,1.84s1.61,1.84,4.3,1.84,4.33-.69,4.33-1.84S188.5,195.17,185.82,195.17Z"/><path d="M206.47,200.53v1.81H213v.85h-14.1v-.85h6.58v-1.81h-4.69V194.8h10.25v.84H201.8v1.53h8.8V198h-8.8v1.68h9.35v.85Zm-.49,9c-3.44,0-5.36-1-5.36-2.67s1.92-2.69,5.36-2.69,5.37,1,5.37,2.69S209.42,209.49,206,209.49Zm0-4.5c-2.69,0-4.35.72-4.35,1.83s1.66,1.81,4.35,1.81,4.38-.7,4.38-1.81S208.66,205,206,205Z"/><path d="M214.4,198.56v-.84h7.82v.84Zm4,7.14a3,3,0,0,1-3.19-2.94,3.2,3.2,0,1,1,3.19,2.94Zm0-5a2.11,2.11,0,1,0,0,4.2,2.12,2.12,0,0,0,2.25-2.12A2.09,2.09,0,0,0,218.41,200.66Zm-2.08-4.57v-.86h4.11v.86Zm10.21,13.43V201.4H224.2v7.29h-1V194.31h1v6.23h2.34v-6.63h1v15.61Z"/><path d="M235.38,202.74V195h1v2.92h4.7V195h1v7.77Zm5.68-4h-4.7v3.17h4.7Zm-3.76,10.21v-4.67h.95v3.81h9.39v.86Zm9.94-3.61h-1V201h-3.34v-.84h3.34v-2.62h-3.34v-.84h3.34v-2.8h1Z"/><path d="M254.56,195.15c2.27,0,3.78,2.13,3.78,5.48s-1.51,5.45-3.78,5.45-3.77-2.15-3.77-5.47S252.3,195.15,254.56,195.15Zm0,.87c-1.67,0-2.77,2-2.77,4.61s1.1,4.58,2.77,4.58,2.77-2,2.77-4.58S256.24,196,254.56,196Zm7.14,13.5V193.91h1v15.61Z"/><path d="M265.45,202.15v-.79h14.11v.79Zm1.78,7v-3.29h9.52v-1.4H267.2v-.84h10.53v3.08h-9.54v1.61H278.3v.84Zm.1-9.27v-3.11h9.36v-1.41H267.3v-.84h10.36v3.09h-9.35V199h9.62v.84Z"/><path d="M293.91,197.9a3.57,3.57,0,0,1-3.86,3.45c-2.1,0-3.88-1.31-3.88-3.43s1.78-3.41,3.88-3.41S293.91,195.79,293.91,197.9Zm-6.77,0a2.7,2.7,0,0,0,2.91,2.56,2.56,2.56,0,1,0,0-5.09A2.68,2.68,0,0,0,287.14,197.9Zm1.31,11.51v-3.85h8.92v-1.88h-9v-.84h9.95v3.56h-8.91v2.17H299v.84Zm8.88-7.39v-8.11h1V202Z"/><path d="M301.07,207.31v-.84h14.1v.84Zm7-4.25c-3.29,0-5.47-1.53-5.47-3.88s2.18-3.88,5.47-3.88,5.49,1.55,5.49,3.88S311.4,203.06,308.1,203.06Zm0-6.88c-2.72,0-4.45,1.31-4.45,3s1.73,3,4.45,3,4.47-1.31,4.47-3S310.84,196.18,308.1,196.18Z"/><path d="M324.77,195.62c0,5.76-2.89,8.75-7,10.93l-.72-.8a11.2,11.2,0,0,0,5.91-5.51l-5.56.6-.29-.94,6.16-.47a10.5,10.5,0,0,0,.53-3h-5.93v-.84Zm3.46,13.9V193.91h1v15.61Z"/><path d="M332,207.14v-.84h5.78v-5.57h1v5.57h7.35v.84ZM344,198a30.23,30.23,0,0,1-.61,6.25l-.94-.19a25.65,25.65,0,0,0,.54-5.65v-2h-9.49v-.83H344Z"/><path d="M347.84,206.57H349l-1.31,3.49h-.57Z"/><path d="M81,236.91v-.84H95.1v.84ZM82.4,226v-.84H93.62V226Zm0,6.45v-.86H85l-.43-4.65,1-.17.32,4.82h4.15l.48-4.8,1,.17L91,231.55h2.64v.86Z"/><path d="M104.24,231.69a36.74,36.74,0,0,1-5.73.5H97.26v-4.37h4.8v-2.48H97.2v-.84H103v4.16h-4.8v2.66a32,32,0,0,0,5.91-.51Zm5.31,2.23v5h-1v-4.15H99v-.84Zm-1-.82v-4.64h-2.3V233h-1v-9.36h1v4h2.3v-4.3h1v9.79Z"/><path d="M114.35,230.07a39.82,39.82,0,0,0,6.28-.42l.14.83a44.42,44.42,0,0,1-6.85.44h-1.36v-6.7h6.93v.83h-6v2h5.79v.84h-5.79v2.19Zm-.18,8.74v-3.75h8.65v-1.69h-8.73v-.84h9.7v3.37h-8.65V238h9.27v.84Zm9.62-11.07v3.88h-1v-8.31h1v3.59h2.47v.84Z"/><path d="M140.33,227.56a3.66,3.66,0,0,1-3.92,3.51,3.5,3.5,0,1,1,0-6.95C138.49,224.12,140.33,225.42,140.33,227.56Zm-6.82,0a2.68,2.68,0,0,0,2.9,2.61,2.6,2.6,0,1,0-2.9-2.61Zm6.68,10.85a26.18,26.18,0,0,1-4.58.39h-1.55v-3.65h4.08v-1.74H134v-.84h5V236H135v2a27.23,27.23,0,0,0,5.09-.39Zm3.61.45v-5.45h-3.86v-.84h4.83v6.29Zm0-7.13v-8.43h1v8.43Z"/><path d="M155.56,225c-.07,5.26-3.51,8.75-7.22,10.68l-.59-.77c4.08-2.08,6.48-5.38,6.77-9.07h-6.06V225Zm3.66,13.9V223.31h1v15.61Z"/><path d="M163,231.55v-.79h14.11v.79Zm1.78,7v-3.29h9.53v-1.4h-9.56V233h10.53v3.08h-9.54v1.61h10.11v.84Zm.11-9.27v-3.11h9.35v-1.41h-9.39v-.84h10.36V227h-9.35v1.43h9.62v.84Z"/><path d="M183.1,228v-.84h9.15V228Zm4.68,7.52a3.17,3.17,0,1,1,3.56-3.14A3.26,3.26,0,0,1,187.78,235.48Zm0-5.45a2.32,2.32,0,1,0,2.59,2.31A2.39,2.39,0,0,0,187.78,230Zm-2.41-4.67v-.86h4.45v.86Zm9.65,5.49v8.07h-1V223.31h1V230h2.65v.82Z"/><path d="M199.28,234.88V225h6.82v9.87Zm5.84-9h-4.87V234h4.87Zm2.07,1.33h3.1v-3.86h1v15.61h-1v-6.6h-3.1v-.78h3.1V228h-3.1Z"/><path d="M221.2,230.07a39.82,39.82,0,0,0,6.28-.42l.13.83a44.33,44.33,0,0,1-6.85.44H219.4v-6.7h6.94v.83h-6v2h5.79v.84h-5.79v2.19Zm-.18,8.74v-3.75h8.64v-1.69h-8.73v-.84h9.71v3.37H222V238h9.27v.84Zm9.62-11.07v3.88h-1v-8.31h1v3.59h2.47v.84Z"/><path d="M235.05,231.37v-6.82h6.07v6.82Zm5.1-6H236v5.14h4.13Zm6.2,13.53V234.2H237v-.82h10.38v5.54Zm0-6.38v-4.26H244v4.11h-1v-8.8h1v3.85h2.3v-4.13h1v9.23Z"/><path d="M258.9,231.5a48.23,48.23,0,0,1-5.56.47c-.94,0-2,0-3,0v-4.47h5.79v-2.37H250.3v-.84h6.77v4h-5.79v2.77h.7a45.09,45.09,0,0,0,6.8-.5Zm2.67,2.27v5.14h-1v-4.3h-9.09v-.84Zm0-5.34v4.45h-1v-9.57h1v4.28H264v.84Z"/><path d="M265.12,231.07v-.81h14.1v.81Zm1.74,7.65v-3.49h9.47v-1.68h-9.5v-.84h10.46v3.36h-9.45v1.81h10.07v.84Zm5.31-9.64c-3.44,0-5.31-1-5.31-2.67s1.87-2.68,5.31-2.68,5.32,1,5.32,2.68S275.61,229.08,272.17,229.08Zm0-4.51c-2.69,0-4.3.7-4.3,1.84s1.61,1.84,4.3,1.84,4.33-.69,4.33-1.84S274.86,224.57,272.17,224.57Z"/><path d="M293.57,227.3a3.57,3.57,0,0,1-3.86,3.45c-2.1,0-3.88-1.31-3.88-3.43s1.78-3.41,3.88-3.41S293.57,225.19,293.57,227.3Zm-6.77,0a2.71,2.71,0,0,0,2.91,2.56,2.57,2.57,0,1,0,0-5.09A2.69,2.69,0,0,0,286.8,227.3Zm1.31,11.51V235H297v-1.88h-9v-.84h10v3.56h-8.92V238h9.56v.84Zm8.89-7.39v-8.11h1v8.11Z"/><path d="M300.73,236.71v-.84h14.11v.84Zm7-4.25c-3.29,0-5.48-1.53-5.48-3.88s2.19-3.88,5.48-3.88,5.49,1.55,5.49,3.88S311.06,232.46,307.77,232.46Zm0-6.88c-2.72,0-4.45,1.31-4.45,3s1.73,3,4.45,3,4.46-1.31,4.46-3S310.51,225.58,307.77,225.58Z"/><path d="M324.05,224.53c-.07,4.35-2.62,7.19-6.75,8.45l-.49-.81a8.51,8.51,0,0,0,5.42-4.06l-5.34.54-.27-.94,5.95-.41a6.45,6.45,0,0,0,.4-1.93h-5.62v-.84Zm-5,14V233.6h1v4.1h9.53v.84Zm8.83-3.9V223.31h1v11.33Z"/><path d="M334.4,234.06a38.22,38.22,0,0,0,6.51-.53l.12.83a45.2,45.2,0,0,1-6.75.55h-1.9v-10h7.09v.84h-6.11v8.3Zm9.13-4.39h2.67v.84h-2.67v8.41h-1V223.31h1Z"/><path d="M347.27,236h1.16v1.11h-1.16Z"/><path d="M230.2,26.19v3.73h-5v8.35h-4.57V29.92H204.2V27.23L220.32,2.32h4.86V26.19Zm-9.59,0V8.4l-.74,1.38-10.6,16.41Z"/><path d="M247.45,39a12.74,12.74,0,0,1-3.14,4.32l-2.84-1.56a11.34,11.34,0,0,0,1.68-3.68,16.26,16.26,0,0,0,.49-4V29.6h5v4.34A12.22,12.22,0,0,1,247.45,39ZM243.62,7.92a3.35,3.35,0,0,1,2.69-1,3.48,3.48,0,0,1,2.71,1,3.6,3.6,0,0,1,.92,2.51,3.42,3.42,0,0,1-.93,2.44,3.56,3.56,0,0,1-2.7,1,3.42,3.42,0,0,1-2.68-1,3.51,3.51,0,0,1-.9-2.43A3.7,3.7,0,0,1,243.62,7.92Z"/><path d="M268.18,36.87V33.78h17.2V23.28h3.69v10.5h17.34v3.09ZM289.25,7.23v.91c0,6.63,9.33,12.86,15.7,14.09L303,25.32c-6.78-1.91-13.75-7.18-15.75-11.82-1.77,4.78-8.78,10-15.79,11.73l-1.78-3.09c6.69-1.18,15.66-7.27,15.66-14V7.23H271.45v-3h31.77v3Z"/><path d="M309.85,9.59v-3h24.66v3ZM322.18,25c-5.73,0-9.83-2.68-9.83-6.82s4-6.86,9.83-6.86S332,13.91,332,18.18,327.91,25,322.18,25ZM316,42V26.59h3.68v4.5h19.25V26.55h3.69V42Zm6.23-27.69c-3.28,0-6.19,1.41-6.19,3.91s3,3.91,6.19,3.91,6.14-1.5,6.14-3.91S325.5,14.27,322.18,14.27Zm-6.1-10.59V.59h12.2V3.68Zm22.8,30.46H319.63v4.73h19.25Zm3.69-19.09V24.5h-3.69V0h3.69V12H349v3.09Z"/><path class="cls-1" d="M109.46,91.71A15.83,15.83,0,0,1,109.2,90a13.16,13.16,0,0,1-1.68,1.43,13,13,0,0,1-2,1.18,12.3,12.3,0,0,1-2.4.8,11.61,11.61,0,0,1-2.69.3A12.22,12.22,0,0,1,96.22,93a9.64,9.64,0,0,1-3.17-1.83,7.7,7.7,0,0,1-2-2.7,8.22,8.22,0,0,1-.71-3.4,8.9,8.9,0,0,1,1-4.19,8.47,8.47,0,0,1,2.71-3,12.61,12.61,0,0,1,4.21-1.77,23.31,23.31,0,0,1,5.5-.59h5.44V73.21a5.56,5.56,0,0,0-.48-2.36,5.26,5.26,0,0,0-1.37-1.8,6.47,6.47,0,0,0-2.17-1.13,9.48,9.48,0,0,0-2.87-.4,8.7,8.7,0,0,0-2.65.37,6.34,6.34,0,0,0-2,1,4.57,4.57,0,0,0-1.25,1.46,3.82,3.82,0,0,0-.44,1.76h-5A7,7,0,0,1,91.72,69,8.88,8.88,0,0,1,94,66.23a12.14,12.14,0,0,1,3.62-2,14.67,14.67,0,0,1,4.86-.75,16.51,16.51,0,0,1,4.6.61,10.61,10.61,0,0,1,3.69,1.81A8.75,8.75,0,0,1,113.21,69a9.72,9.72,0,0,1,.89,4.27V86.78a18.88,18.88,0,0,0,.27,3.08,13.79,13.79,0,0,0,.75,2.83v.43h-5.19A5.28,5.28,0,0,1,109.46,91.71ZM103.85,89a10,10,0,0,0,2.31-1,8.39,8.39,0,0,0,1.78-1.41,6.63,6.63,0,0,0,1.18-1.65V79h-4.63a19.93,19.93,0,0,0-4.5.44,7.35,7.35,0,0,0-3.06,1.36,4.3,4.3,0,0,0-1.23,1.53,4.78,4.78,0,0,0-.41,2,5.38,5.38,0,0,0,.36,2,4.08,4.08,0,0,0,1.09,1.56,5,5,0,0,0,1.83,1,8,8,0,0,0,2.56.38A9.56,9.56,0,0,0,103.85,89Z"/><path class="cls-1" d="M142.87,83.81a3.49,3.49,0,0,0-1.18-1.3,9.46,9.46,0,0,0-2.21-1.09,23.65,23.65,0,0,0-3.42-.9,33.3,33.3,0,0,1-4.56-1.24A14.37,14.37,0,0,1,128,77.54a7.52,7.52,0,0,1-2.29-2.35,6.07,6.07,0,0,1-.81-3.16,6.85,6.85,0,0,1,.84-3.32,8.43,8.43,0,0,1,2.34-2.7,11.78,11.78,0,0,1,3.59-1.83,15.14,15.14,0,0,1,4.59-.67,15.86,15.86,0,0,1,4.85.7,11.18,11.18,0,0,1,3.66,1.93A8.77,8.77,0,0,1,147.08,69a7.86,7.86,0,0,1,.83,3.56h-5a3.9,3.9,0,0,0-.49-1.84,5.33,5.33,0,0,0-1.34-1.6A6.93,6.93,0,0,0,139,68a8.24,8.24,0,0,0-2.76-.43,9.76,9.76,0,0,0-2.79.35,5.92,5.92,0,0,0-2,.94,4,4,0,0,0-1.21,1.36,3.51,3.51,0,0,0-.41,1.62,3.58,3.58,0,0,0,.32,1.53,3.17,3.17,0,0,0,1.14,1.21,8.2,8.2,0,0,0,2.11,1,32.21,32.21,0,0,0,3.38.83,40.24,40.24,0,0,1,4.81,1.3,14.83,14.83,0,0,1,3.59,1.76,7.79,7.79,0,0,1,2.22,2.42,6.52,6.52,0,0,1,.76,3.17,7.17,7.17,0,0,1-.87,3.52,8.41,8.41,0,0,1-2.44,2.72A11.86,11.86,0,0,1,141.15,93a17.08,17.08,0,0,1-4.76.62,16.19,16.19,0,0,1-5.28-.79,12.3,12.3,0,0,1-3.9-2.11,8.85,8.85,0,0,1-2.47-3,8.06,8.06,0,0,1-.84-3.57h5a5.09,5.09,0,0,0,.82,2.58,5.67,5.67,0,0,0,1.79,1.69,7.27,7.27,0,0,0,2.34.91,12.44,12.44,0,0,0,2.56.27,11.65,11.65,0,0,0,3.47-.47,5.56,5.56,0,0,0,2.31-1.3,3.7,3.7,0,0,0,.78-1.13,3.25,3.25,0,0,0,.27-1.32A3.51,3.51,0,0,0,142.87,83.81Z"/><path class="cls-1" d="M176,83.81a3.49,3.49,0,0,0-1.18-1.3,9.46,9.46,0,0,0-2.21-1.09,23.65,23.65,0,0,0-3.42-.9,33.3,33.3,0,0,1-4.56-1.24,14.37,14.37,0,0,1-3.51-1.74,7.52,7.52,0,0,1-2.29-2.35A6.07,6.07,0,0,1,158,72a6.85,6.85,0,0,1,.84-3.32,8.43,8.43,0,0,1,2.34-2.7,11.78,11.78,0,0,1,3.59-1.83,15.14,15.14,0,0,1,4.59-.67,15.86,15.86,0,0,1,4.85.7,11.18,11.18,0,0,1,3.66,1.93A8.77,8.77,0,0,1,180.16,69a7.86,7.86,0,0,1,.83,3.56h-5a3.9,3.9,0,0,0-.49-1.84,5.33,5.33,0,0,0-1.34-1.6A6.93,6.93,0,0,0,172.09,68a8.24,8.24,0,0,0-2.76-.43,9.76,9.76,0,0,0-2.79.35,5.92,5.92,0,0,0-2,.94,4,4,0,0,0-1.21,1.36,3.51,3.51,0,0,0-.41,1.62,3.58,3.58,0,0,0,.32,1.53,3.17,3.17,0,0,0,1.14,1.21,8.2,8.2,0,0,0,2.11,1,32.21,32.21,0,0,0,3.38.83,40.24,40.24,0,0,1,4.81,1.3,14.83,14.83,0,0,1,3.59,1.76,7.79,7.79,0,0,1,2.22,2.42,6.41,6.41,0,0,1,.76,3.17,7.17,7.17,0,0,1-.87,3.52A8.41,8.41,0,0,1,178,91.3,11.86,11.86,0,0,1,174.23,93a17.08,17.08,0,0,1-4.76.62,16.19,16.19,0,0,1-5.28-.79,12.3,12.3,0,0,1-3.9-2.11,8.85,8.85,0,0,1-2.47-3,8.06,8.06,0,0,1-.84-3.57h5a5.09,5.09,0,0,0,.82,2.58,5.67,5.67,0,0,0,1.79,1.69,7.27,7.27,0,0,0,2.34.91,12.44,12.44,0,0,0,2.56.27,11.65,11.65,0,0,0,3.47-.47,5.56,5.56,0,0,0,2.31-1.3,3.7,3.7,0,0,0,.78-1.13,3.25,3.25,0,0,0,.27-1.32A3.51,3.51,0,0,0,176,83.81Z"/><path class="cls-1" d="M197.26,92.61a12.53,12.53,0,0,1-4.4-2.93A13.5,13.5,0,0,1,190,85.22a15.12,15.12,0,0,1-1-5.61V78.48a16.65,16.65,0,0,1,1.13-6.3,14.47,14.47,0,0,1,3-4.72,13.28,13.28,0,0,1,4.24-2.93,12.32,12.32,0,0,1,4.89-1,12.92,12.92,0,0,1,5.5,1.09,10.84,10.84,0,0,1,3.92,3A12.94,12.94,0,0,1,214,72.14a19.92,19.92,0,0,1,.76,5.64V80H194v.19a13,13,0,0,0,.85,3.73,9,9,0,0,0,1.82,2.85,8.25,8.25,0,0,0,2.85,2.07,8.88,8.88,0,0,0,3.69.75,10.08,10.08,0,0,0,4.73-1.07,10.43,10.43,0,0,0,3.45-2.85l3,2.37A13,13,0,0,1,210,92a13.83,13.83,0,0,1-7.14,1.71A14.75,14.75,0,0,1,197.26,92.61Zm2.14-24.46a7.44,7.44,0,0,0-2.43,1.6,9.37,9.37,0,0,0-1.81,2.62,12.19,12.19,0,0,0-1,3.56h15.67v-.24a9,9,0,0,0-.52-2.89,8.36,8.36,0,0,0-1.42-2.68,7.06,7.06,0,0,0-2.3-1.83,8,8,0,0,0-6.15-.14Z"/><path class="cls-1" d="M225.53,66.79a6.52,6.52,0,0,1,2.33-2.39,6.81,6.81,0,0,1,3.48-.89,7.86,7.86,0,0,1,2.09.26,5.18,5.18,0,0,1,1.63.74,4.7,4.7,0,0,1,.93.91,6.21,6.21,0,0,1,.71,1.21,7,7,0,0,1,.89-1.16,6.93,6.93,0,0,1,1.1-.94,7.09,7.09,0,0,1,1.68-.72,8.09,8.09,0,0,1,2-.3,7.94,7.94,0,0,1,2.71.44,5.39,5.39,0,0,1,2,1.31,6.28,6.28,0,0,1,1.4,2.51,12.3,12.3,0,0,1,.48,3.64V93.12h-4.73V71.36a5.55,5.55,0,0,0-.22-1.61,3.06,3.06,0,0,0-.62-1.16,2.58,2.58,0,0,0-1.06-.64,5,5,0,0,0-3,0,3.21,3.21,0,0,0-1.08.65,3,3,0,0,0-.67,1,4.12,4.12,0,0,0-.32,1.22v22.3h-4.74V71.33a6,6,0,0,0-.2-1.61,2.84,2.84,0,0,0-.64-1.16,2.42,2.42,0,0,0-1-.63,4.57,4.57,0,0,0-1.41-.2,5.5,5.5,0,0,0-1.55.2,3.09,3.09,0,0,0-1.72,1.25,3.88,3.88,0,0,0-.42.81V93.12h-4.73V64.05h4.47Z"/><path class="cls-1" d="M280.58,82.58a18.2,18.2,0,0,1-.82,3.29,14.38,14.38,0,0,1-1.89,3.61,9.79,9.79,0,0,1-5.42,3.78,11,11,0,0,1-3.05.4,12.23,12.23,0,0,1-3.43-.45,10,10,0,0,1-2.79-1.32,12.51,12.51,0,0,1-1.13-.94,10.1,10.1,0,0,1-1-1.13l-.24,3.3h-4.58V51.85h5V67.17a9.2,9.2,0,0,1,1.38-1.41,8.76,8.76,0,0,1,1.61-1.09,9.4,9.4,0,0,1,2.37-.86,12.33,12.33,0,0,1,2.8-.3,11.32,11.32,0,0,1,3.47.51,10.48,10.48,0,0,1,2.88,1.43,10,10,0,0,1,2.07,2.08,15.76,15.76,0,0,1,1.62,2.72,18.05,18.05,0,0,1,1.1,3.75,24.26,24.26,0,0,1,.38,4.34v.57A23,23,0,0,1,280.58,82.58Zm-4.87-6.91a15.28,15.28,0,0,0-.52-2.46,11.42,11.42,0,0,0-1.27-2.6A5.94,5.94,0,0,0,272,68.75a6.75,6.75,0,0,0-1.75-.75,8,8,0,0,0-2.15-.27,7.76,7.76,0,0,0-2.37.34,6.77,6.77,0,0,0-1.91.92,7.69,7.69,0,0,0-1.52,1.44,8.69,8.69,0,0,0-1.12,1.79V84.93a10.07,10.07,0,0,0,1.14,1.79,7.71,7.71,0,0,0,1.53,1.43,6.7,6.7,0,0,0,1.93,1,8.08,8.08,0,0,0,2.37.33,7.62,7.62,0,0,0,2.26-.31,5.59,5.59,0,0,0,1.83-.9,6.57,6.57,0,0,0,1.81-1.9,10.43,10.43,0,0,0,1.15-2.58,12.51,12.51,0,0,0,.52-2.32,20.79,20.79,0,0,0,.16-2.52v-.57A19.52,19.52,0,0,0,275.71,75.67Z"/><path class="cls-1" d="M304.93,51.85v37h9.5v4.3H290.05v-4.3H300V56.17h-9.9V51.85Z"/><path class="cls-1" d="M323,104.71l-1.42-.27.8-4.06,1.34.09c.44,0,.78,0,1,0a3.25,3.25,0,0,0,1.87-.57,7.83,7.83,0,0,0,1.53-1.34A10.59,10.59,0,0,0,329.3,97c.32-.55.56-1,.74-1.37l2-3.87-12.54-27.7h5.58l8,18.76,1.29,3.52,1.37-3.42,7.51-18.86h5.57L334,97.61a20.72,20.72,0,0,1-1.31,2.39,12.14,12.14,0,0,1-1.92,2.34,10.26,10.26,0,0,1-2.64,1.8,7.8,7.8,0,0,1-3.47.73A9.7,9.7,0,0,1,323,104.71Z"/><rect class="cls-2" x="27.53" y="135.57" width="321.32" height="45.52" transform="translate(376.38 316.66) rotate(180)"/><path d="M45.36,165.83v-1.9H64.08v1.9Zm1.72-14.35v-1.9H62.27v1.9Zm0,8.41V158h3.22l-.57-5.09,2.39-.24.41,5.33h4.33l.77-5.31L60,153l-.85,5h3.13v1.92Z"/><path d="M75.54,159.17a45,45,0,0,1-7.52.63H66.4v-6.27h5.42v-2.29H66.33v-1.92h7.9v6.07H68.78v2.51a32.38,32.38,0,0,0,6.5-.61Zm5,9.42v-5.07H68.76V161.6H82.94v7Zm.11-8.09v-5.41h-2v5.22H76.4V148.25h2.25v4.85h2v-5.22h2.28V160.5Z"/><path d="M95.21,154.3H88.69v1.9a43.1,43.1,0,0,0,8.35-.59l.35,1.77a42.44,42.44,0,0,1-9,.7H86.32v-9.2h9.26v1.84H88.69v1.75h6.52Zm-6.85,14.13v-5.31H99.3v-1.57H88.23v-1.92H101.7v5.26h-11v1.64h11.64v1.9Zm13.34-14.22v4.37H99.3v-10.7h2.4v4.37h3v2Z"/><path d="M117.71,158.23c-2.88,0-5.29-1.81-5.29-4.63a5,5,0,0,1,5.29-4.85c3,0,5.32,2,5.32,4.83S120.73,158.23,117.71,158.23Zm5.23,9.79a32.38,32.38,0,0,1-6,.5h-2.33v-5.13h4.54v-1.58h-4.54V160h6.85V165h-4.52v1.71a25.4,25.4,0,0,0,5.75-.51Zm-5.23-17.26a2.9,2.9,0,0,0-2.93,2.82,3,3,0,1,0,2.93-2.82ZM129,160v8.61h-2.39v-6.86h-4.09V160ZM126.53,159V147.88h2.39V159Z"/><path d="M142.69,150.06c-.13,6.42-3.34,11.38-9.32,14.64l-1.49-1.82A13.74,13.74,0,0,0,140.13,152h-7v-2Zm4,18.53V147.88h2.39v20.71Z"/><path d="M163,168.19a13.35,13.35,0,0,1-4.23-9.65v-.42a13.34,13.34,0,0,1,4.23-9.63h2a14.41,14.41,0,0,0-3.87,9.44v.63a15.16,15.16,0,0,0,3.87,9.63Z"/><path d="M169.8,149.87h9.5v2h-7.09v5.07h5.49v2h-5.49v6.88H169.8Z"/><path d="M181.68,153.93h2.21v1.33H184a4.31,4.31,0,0,1,3.17-1.48,1.91,1.91,0,0,1,.74.11v2a6.26,6.26,0,0,0-.92-.07,5.74,5.74,0,0,0-3,.85v9.07h-2.29Z"/><path d="M188.92,162.62c0-2.12,1.4-3.16,3.69-3.47l3-.35v-1c0-1.75-.77-2.14-2.84-2.14a13.83,13.83,0,0,0-2.87.33v-1.59a9.87,9.87,0,0,1,3.77-.68c2.68,0,4.24,1.11,4.24,3.51v8.57H196l-.22-1h-.13a3.78,3.78,0,0,1-3.09,1.2C190.45,166,188.92,164.92,188.92,162.62Zm6.69.92v-3.15l-2.47.24c-1.27.16-1.88.66-1.88,1.9s.76,1.77,1.94,1.77A3.78,3.78,0,0,0,195.61,163.54Z"/><path d="M200.18,160.13v-.39c0-4.15,2.49-6.05,5.71-6.05a6,6,0,0,1,3.26.76v1.88a7.17,7.17,0,0,0-3.28-.72c-2,0-3.3,1.33-3.3,3.82V160c0,2.84,1.2,4.07,3.54,4.07a7,7,0,0,0,3.17-.79v1.73a6.15,6.15,0,0,1-3.52.94C202.35,166,200.18,164.07,200.18,160.13Z"/><path d="M212.3,162.93v-7.17h-1.68v-1.83h1.68v-2.8h2.3v2.8h2.87v1.83H214.6v6.84c0,1.07.35,1.47,1.64,1.47a8.07,8.07,0,0,0,1.47-.16v1.53a4.57,4.57,0,0,1-2.13.46C213.61,165.9,212.3,165.09,212.3,162.93Z"/><path d="M219.21,162.62c0-2.12,1.4-3.16,3.7-3.47l3-.35v-1c0-1.75-.77-2.14-2.85-2.14a13.73,13.73,0,0,0-2.86.33v-1.59a9.78,9.78,0,0,1,3.76-.68c2.69,0,4.24,1.11,4.24,3.51v8.57h-1.88l-.22-1H226a3.76,3.76,0,0,1-3.08,1.2C220.74,166,219.21,164.92,219.21,162.62Zm6.7.92v-3.15l-2.48.24c-1.27.16-1.88.66-1.88,1.9s.77,1.77,1.95,1.77A3.83,3.83,0,0,0,225.91,163.54Z"/><path d="M231.24,148.82h2.3v17h-2.3Z"/><path d="M243.14,149.87h5c3.54,0,5.43,1.52,5.43,4.58a4.11,4.11,0,0,1-3,4.15v.11l4.07,7.06H252l-3.72-6.62h-2.69v6.62h-2.41Zm4.75,7.51c2.23,0,3.15-.92,3.15-2.86s-1-2.71-3.17-2.71h-2.32v5.57Z"/><path d="M255.91,160v-.3c0-4.09,2.45-6,5.32-6,3.35,0,4.9,1.94,4.9,5.68v1.11h-7.85c.15,2.71,1.48,3.63,3.8,3.63a7.9,7.9,0,0,0,3.68-.88v1.62a7,7,0,0,1-4.09,1.14C257.84,166,255.91,163.71,255.91,160Zm2.37-1.2h5.47c0-2.38-.9-3.3-2.61-3.3C259.87,155.5,258.45,156.16,258.28,158.8Z"/><path d="M267.75,162.62c0-2.12,1.4-3.16,3.69-3.47l3-.35v-1c0-1.75-.77-2.14-2.84-2.14a13.83,13.83,0,0,0-2.87.33v-1.59a9.82,9.82,0,0,1,3.76-.68c2.69,0,4.25,1.11,4.25,3.51v8.57h-1.88l-.22-1h-.13a3.78,3.78,0,0,1-3.09,1.2C269.28,166,267.75,164.92,267.75,162.62Zm6.69.92v-3.15l-2.47.24c-1.27.16-1.88.66-1.88,1.9s.76,1.77,1.94,1.77A3.78,3.78,0,0,0,274.44,163.54Z"/><path d="M279.08,160.22v-.31c0-4.34,2.23-6.22,5.27-6.22a5.7,5.7,0,0,1,2.95.72v-5.59h2.3v17h-2l-.21-.94h-.12a4.66,4.66,0,0,1-3.39,1.16C281.61,166,279.08,164.54,279.08,160.22Zm8.22,3.08v-7.06a4.47,4.47,0,0,0-2.6-.65c-2,0-3.26,1-3.26,4.06v.48c0,3.1,1.33,4,3.28,4A4.19,4.19,0,0,0,287.3,163.3Z"/><path d="M292.68,149.49H295v2.23h-2.34Zm0,4.44H295v11.84h-2.3Z"/><path d="M298.15,153.93h2.21v1h.11a7.28,7.28,0,0,1,4-1.26c2.32,0,3.43,1,3.43,3.25v8.83h-2.29v-8.28c0-1.31-.4-1.84-2.17-1.84a7.15,7.15,0,0,0-2.95.75v9.37h-2.3Z"/><path d="M309.7,166.66c0-1.24,1-2,2.21-2.44v-.11c-.68-.24-1.2-.53-1.2-1.31a2.67,2.67,0,0,1,1.35-2.19,3.31,3.31,0,0,1-1.49-2.86v-.22c0-2.46,1.93-3.84,4.62-3.84a7.35,7.35,0,0,1,1.8.2h4v1.63h-1.9a2.86,2.86,0,0,1,.63,1.92v.22c0,2.5-2,3.67-4.57,3.67a6.68,6.68,0,0,1-1.93-.24,1.24,1.24,0,0,0-.45.85c0,.62.32.66,1.09.66h3.26c2.23,0,3.81.79,3.81,3.08s-1.71,3.54-5.82,3.54C311.47,169.22,309.7,168.43,309.7,166.66Zm8.86-.63c0-1-.55-1.37-1.95-1.37h-3.19a1.74,1.74,0,0,0-1.38,1.68c0,.94.88,1.18,3,1.18C317.66,167.52,318.56,167.17,318.56,166Zm-1.07-8.28v-.33c0-1.48-.9-2.09-2.32-2.09s-2.32.72-2.32,2v.33c0,1.4.92,2,2.32,2S317.49,159.11,317.49,157.75Z"/><path d="M324.27,168.19a14.4,14.4,0,0,0,3.88-9.46v-.63a15.13,15.13,0,0,0-3.88-9.61h2a13.33,13.33,0,0,1,4.22,9.63v.42a13.27,13.27,0,0,1-4.22,9.65Z"/></g></g></svg>