<svg xmlns="http://www.w3.org/2000/svg" viewBox="0 0 354.15 273"><defs><style>.cls-1{fill:none;stroke-width:0.3px;}.cls-1,.cls-2{stroke:#000;stroke-miterlimit:10;}.cls-2{fill:lime;stroke-width:0.36px;}</style></defs><g id="레이어_2" data-name="레이어 2"><g id="그래픽"><path d="M223.79,18.1a9.17,9.17,0,0,0,3.05-.47,6.51,6.51,0,0,0,2.23-1.29,5.54,5.54,0,0,0,1.36-1.94,6.55,6.55,0,0,0,.47-2.5,8.46,8.46,0,0,0-.42-2.8A4.83,4.83,0,0,0,227.28,6a8.76,8.76,0,0,0-2.68-.38A8,8,0,0,0,222,6a5.7,5.7,0,0,0-2,1.25,5.55,5.55,0,0,0-1.33,2,6.68,6.68,0,0,0-.47,2.54h-4.59a9.53,9.53,0,0,1,.8-3.86,9.63,9.63,0,0,1,2.26-3.17,10.78,10.78,0,0,1,3.49-2.11,12.59,12.59,0,0,1,4.53-.78,14,14,0,0,1,4.42.66,9.36,9.36,0,0,1,3.43,1.93,8.57,8.57,0,0,1,2.22,3.19,11.28,11.28,0,0,1,.79,4.39,7.52,7.52,0,0,1-.32,2.15,7.93,7.93,0,0,1-1,2.14,9.1,9.1,0,0,1-1.72,2,9.44,9.44,0,0,1-2.5,1.55,9.3,9.3,0,0,1,2.92,1.48,8.1,8.1,0,0,1,1.89,2.05,7.86,7.86,0,0,1,1,2.39,11.27,11.27,0,0,1,.29,2.49,10.87,10.87,0,0,1-.87,4.47A9.31,9.31,0,0,1,232.75,36a10.49,10.49,0,0,1-3.62,2.06,14.24,14.24,0,0,1-4.5.7,14.41,14.41,0,0,1-4.46-.67,10.3,10.3,0,0,1-3.61-2A9.4,9.4,0,0,1,214.12,33a9.55,9.55,0,0,1-.9-4.22h4.57a6.6,6.6,0,0,0,.48,2.56,5.46,5.46,0,0,0,1.37,2,6.22,6.22,0,0,0,2.16,1.26,8.71,8.71,0,0,0,2.83.44,9.17,9.17,0,0,0,2.81-.4A5.42,5.42,0,0,0,231,31.29a8.18,8.18,0,0,0,.48-2.95,7,7,0,0,0-.56-2.9,5.57,5.57,0,0,0-1.54-2,6.76,6.76,0,0,0-2.43-1.21,11.79,11.79,0,0,0-3.12-.39h-3.26V18.1Z"/><path d="M256,39a12.72,12.72,0,0,1-3.13,4.32L250,41.74a11.34,11.34,0,0,0,1.68-3.68,16.26,16.26,0,0,0,.49-4V29.6h5v4.34A12.22,12.22,0,0,1,256,39ZM252.12,7.92a3.36,3.36,0,0,1,2.69-1,3.48,3.48,0,0,1,2.71,1,3.6,3.6,0,0,1,.92,2.51,3.42,3.42,0,0,1-.93,2.44,3.56,3.56,0,0,1-2.7,1,3.4,3.4,0,0,1-2.67-1,3.51,3.51,0,0,1-.9-2.43A3.74,3.74,0,0,1,252.12,7.92Z"/><path d="M297.52,17v4.55h17.32v3H276.66v-3h17.18V17H281.52V1h3.68V6.14h21.14V1H310V17Zm12.64,11.82V42.55h-3.68V31.87H280.84V28.82ZM306.34,9.18H285.2V14h21.14Z"/><path d="M337.74,32.28c-3-2.09-7.46-7-8.68-11.5-.87,4.68-4.69,9.72-8.78,12.63l-2.45-2.59a21.74,21.74,0,0,0,9.41-18V8h-8.41V5H339V8h-8.1v4.64a19,19,0,0,0,9.19,17Zm4.41,7.86V18.55h-6.78V15.5h6.78V1h3.59V40.14Zm8.36,2.14V0h3.64V42.28Z"/><path class="cls-1" d="M18.09,67.69a9.43,9.43,0,0,1,2.27.51l-.68,4.92a26.2,26.2,0,0,0-2.78-.48,27.11,27.11,0,0,0-2.76-.14,11.55,11.55,0,0,0-3.34.44,7.83,7.83,0,0,0-2.61,1.32,8,8,0,0,0-1.75,1.86A11.12,11.12,0,0,0,5.2,78.58V97.43h-5V68H4.93L5.15,72l0,.73a13.45,13.45,0,0,1,4.3-3.81,11.49,11.49,0,0,1,5.72-1.4A22.48,22.48,0,0,1,18.09,67.69Z"/><path class="cls-1" d="M36.62,96.91a12.77,12.77,0,0,1-4.44-3,13.61,13.61,0,0,1-2.88-4.51,15.24,15.24,0,0,1-1-5.67V82.63a16.82,16.82,0,0,1,1.14-6.37,14.5,14.5,0,0,1,3-4.77,13.32,13.32,0,0,1,4.28-3,12.32,12.32,0,0,1,4.93-1,13,13,0,0,1,5.55,1.1,10.87,10.87,0,0,1,4,3,13.13,13.13,0,0,1,2.35,4.59,20.3,20.3,0,0,1,.77,5.7v2.25h-21v.19a12.89,12.89,0,0,0,.86,3.78A9.18,9.18,0,0,0,36,91a8.61,8.61,0,0,0,2.88,2.09,8.87,8.87,0,0,0,3.72.76,10.15,10.15,0,0,0,4.78-1.09,10.28,10.28,0,0,0,3.48-2.87l3.07,2.38a13,13,0,0,1-4.39,4A13.94,13.94,0,0,1,42.31,98,14.86,14.86,0,0,1,36.62,96.91Zm2.16-24.73a7.75,7.75,0,0,0-2.45,1.62,9.59,9.59,0,0,0-1.83,2.65,12.46,12.46,0,0,0-1,3.6H49.26V79.8a9.46,9.46,0,0,0-.51-2.92,8.7,8.7,0,0,0-1.44-2.7A7.06,7.06,0,0,0,45,72.33a7.36,7.36,0,0,0-3.33-.7A7.5,7.5,0,0,0,38.78,72.18Z"/><path class="cls-1" d="M62.68,68h4.59l.25,3.21a10,10,0,0,1,1.3-1.38,8.7,8.7,0,0,1,1.52-1,9.33,9.33,0,0,1,2.54-1,12.62,12.62,0,0,1,3-.34,10.79,10.79,0,0,1,5,1.11,10.37,10.37,0,0,1,3.64,3.1,14.25,14.25,0,0,1,2.23,4.74,22.55,22.55,0,0,1,.76,6v.57a21.72,21.72,0,0,1-.76,5.88,14.63,14.63,0,0,1-2.23,4.74A10.19,10.19,0,0,1,76,98a13.54,13.54,0,0,1-3.14-.35,10.35,10.35,0,0,1-2.62-1,9.46,9.46,0,0,1-1.33-.91,9.35,9.35,0,0,1-1.17-1.1v14.13h-5ZM82,78.4A11.06,11.06,0,0,0,80.56,75,7.55,7.55,0,0,0,78,72.63a7.21,7.21,0,0,0-3.64-.87,8.19,8.19,0,0,0-2.16.27,6.69,6.69,0,0,0-1.78.79A6.78,6.78,0,0,0,68.9,74.1a9.24,9.24,0,0,0-1.19,1.68V89.93a9.59,9.59,0,0,0,1.06,1.52,6,6,0,0,0,1.36,1.2,7.51,7.51,0,0,0,1.94.9,8.41,8.41,0,0,0,2.38.32A7.07,7.07,0,0,0,78.06,93a7.39,7.39,0,0,0,2.5-2.38A11,11,0,0,0,82,87.16a17.12,17.12,0,0,0,.48-4.1v-.57A17,17,0,0,0,82,78.4Z"/><path class="cls-1" d="M111.91,55.71V93.08h9.59v4.35H96.88V93.08h10v-33h-10V55.71Z"/><path class="cls-1" d="M145.29,68v25h9.59v4.35H130.27V93.08h10V72.41h-10V68Zm-5.47-8.93a2.39,2.39,0,0,1,.64-1,2.43,2.43,0,0,1,.91-.56,3.78,3.78,0,0,1,1.26-.2,3.68,3.68,0,0,1,1.25.2,2.55,2.55,0,0,1,.9.56,2.37,2.37,0,0,1,.65.95,3.61,3.61,0,0,1,.22,1.25,2.93,2.93,0,0,1-.76,2,3.57,3.57,0,0,1-4.53,0,2.92,2.92,0,0,1-.75-2A3.47,3.47,0,0,1,139.82,59.11Z"/><path class="cls-1" d="M178,93.46a7.68,7.68,0,0,0,2.3-1.22,6.4,6.4,0,0,0,1.61-1.8,4.65,4.65,0,0,0,.64-2.27h4.75a7.68,7.68,0,0,1-1,3.73A10.76,10.76,0,0,1,183.68,95a13.18,13.18,0,0,1-3.81,2.16,12.78,12.78,0,0,1-4.48.8,13.5,13.5,0,0,1-5.84-1.19,12,12,0,0,1-4.16-3.23,13.64,13.64,0,0,1-2.52-4.66,18.39,18.39,0,0,1-.84-5.58V82.17a18.37,18.37,0,0,1,.84-5.57,13.83,13.83,0,0,1,2.52-4.7,12.1,12.1,0,0,1,4.16-3.21,13.5,13.5,0,0,1,5.84-1.19,13.3,13.3,0,0,1,4.8.83A12.3,12.3,0,0,1,184,70.57,10.5,10.5,0,0,1,186.45,74a10.05,10.05,0,0,1,.89,4.18h-4.75a6.19,6.19,0,0,0-.58-2.51,7,7,0,0,0-1.51-2.07,7.11,7.11,0,0,0-2.27-1.42,7.79,7.79,0,0,0-2.84-.51,7.63,7.63,0,0,0-3.92.93A7.78,7.78,0,0,0,168.9,75a10.57,10.57,0,0,0-1.4,3.4,17.24,17.24,0,0,0-.42,3.78v1.14a17.51,17.51,0,0,0,.42,3.81,10.1,10.1,0,0,0,1.4,3.38A7.22,7.22,0,0,0,171.44,93a7.62,7.62,0,0,0,3.95.94A8.23,8.23,0,0,0,178,93.46Z"/><path class="cls-1" d="M215.09,96a16.2,16.2,0,0,1-.26-1.78,13.32,13.32,0,0,1-1.69,1.44,12.52,12.52,0,0,1-2,1.2,13.75,13.75,0,0,1-2.42.81A11.87,11.87,0,0,1,206,98a12.21,12.21,0,0,1-4.22-.68,9.7,9.7,0,0,1-3.2-1.84,7.86,7.86,0,0,1-2.05-2.73,8.25,8.25,0,0,1-.72-3.44,9,9,0,0,1,1-4.24,8.52,8.52,0,0,1,2.73-3,12.85,12.85,0,0,1,4.25-1.79,23.72,23.72,0,0,1,5.55-.6h5.49V77.3a5.61,5.61,0,0,0-.49-2.39,5.21,5.21,0,0,0-1.38-1.82A6.5,6.5,0,0,0,210.69,72a9.62,9.62,0,0,0-2.89-.4,8.55,8.55,0,0,0-2.68.38,6.29,6.29,0,0,0-2,1,4.46,4.46,0,0,0-1.27,1.48,3.76,3.76,0,0,0-.45,1.78h-5a7.12,7.12,0,0,1,.83-3.15,9,9,0,0,1,2.32-2.8,12.26,12.26,0,0,1,3.66-2,14.61,14.61,0,0,1,4.9-.76,16.87,16.87,0,0,1,4.65.61,11,11,0,0,1,3.72,1.83,9.07,9.07,0,0,1,2.44,3.1,9.75,9.75,0,0,1,.9,4.32V91a19.24,19.24,0,0,0,.27,3.11,13.29,13.29,0,0,0,.76,2.86v.44h-5.24A5.56,5.56,0,0,1,215.09,96Zm-5.66-2.78a10,10,0,0,0,2.33-1,8.55,8.55,0,0,0,1.8-1.42,7.25,7.25,0,0,0,1.19-1.67v-6h-4.67a20.29,20.29,0,0,0-4.55.45A7.51,7.51,0,0,0,202.45,85a4.2,4.2,0,0,0-1.24,1.55,4.74,4.74,0,0,0-.42,2,5.23,5.23,0,0,0,.37,2,4,4,0,0,0,1.1,1.58,5.09,5.09,0,0,0,1.84,1.06,8.14,8.14,0,0,0,2.58.38A9.72,9.72,0,0,0,209.43,93.22Z"/><path class="cls-1" d="M241.54,68h11.19v3.89H241.54v16a7.82,7.82,0,0,0,.43,2.82,4.3,4.3,0,0,0,1.2,1.76,4.18,4.18,0,0,0,1.75,1,8,8,0,0,0,2.1.27,14,14,0,0,0,1.69-.1c.58-.06,1.15-.14,1.71-.23s1.05-.18,1.53-.28l1.19-.26.7,3.56a7,7,0,0,1-1.52.66,16.36,16.36,0,0,1-1.95.48,21.37,21.37,0,0,1-2.25.32,23.1,23.1,0,0,1-2.35.11,11.39,11.39,0,0,1-3.65-.56,7.59,7.59,0,0,1-3-1.77,8.34,8.34,0,0,1-2-3.11,13.21,13.21,0,0,1-.72-4.63v-16h-7.71V68h7.71V60.93h5.06Z"/><path class="cls-1" d="M278.83,68v25h9.59v4.35H263.81V93.08h10V72.41h-10V68Zm-5.47-8.93a2.49,2.49,0,0,1,.64-1,2.43,2.43,0,0,1,.91-.56,3.78,3.78,0,0,1,1.26-.2,3.68,3.68,0,0,1,1.25.2,2.55,2.55,0,0,1,.9.56,2.28,2.28,0,0,1,.65.95,3.39,3.39,0,0,1,.22,1.25,2.93,2.93,0,0,1-.76,2,3,3,0,0,1-5.27-2A3.47,3.47,0,0,1,273.36,59.11Z"/><path class="cls-1" d="M295.92,76.56a14.08,14.08,0,0,1,2.66-4.74,12.21,12.21,0,0,1,4.19-3.17,13,13,0,0,1,5.57-1.15A13.18,13.18,0,0,1,314,68.65a12.52,12.52,0,0,1,4.22,3.17,14.19,14.19,0,0,1,2.63,4.74,18.2,18.2,0,0,1,.93,5.9v.6A18,18,0,0,1,320.8,89a14.14,14.14,0,0,1-2.63,4.73A12.3,12.3,0,0,1,314,96.83,13.17,13.17,0,0,1,308.39,98a13.33,13.33,0,0,1-5.61-1.14,12,12,0,0,1-4.2-3.15A14,14,0,0,1,295.92,89a18.28,18.28,0,0,1-.92-5.89v-.6A18.47,18.47,0,0,1,295.92,76.56Zm4.62,10.64a10.59,10.59,0,0,0,1.57,3.47A7.67,7.67,0,0,0,304.72,93a7.49,7.49,0,0,0,3.67.87A7.36,7.36,0,0,0,312,93a8,8,0,0,0,2.62-2.36,11,11,0,0,0,1.55-3.47,16.42,16.42,0,0,0,.51-4.14v-.6a15.44,15.44,0,0,0-.53-4.11,11,11,0,0,0-1.56-3.46A8,8,0,0,0,312,72.51a7.28,7.28,0,0,0-3.65-.88,7.19,7.19,0,0,0-3.64.88,7.76,7.76,0,0,0-2.59,2.38,10.54,10.54,0,0,0-1.57,3.46,15.86,15.86,0,0,0-.52,4.11v.6A16,16,0,0,0,300.54,87.2Z"/><path class="cls-1" d="M329.8,68h4.5l.36,4.35a13.05,13.05,0,0,1,1.42-1.7,10.31,10.31,0,0,1,1.65-1.34A10.92,10.92,0,0,1,340.57,68a11.44,11.44,0,0,1,3.24-.5,12.94,12.94,0,0,1,4.2.65,8,8,0,0,1,3.22,2,9.18,9.18,0,0,1,2,3.51,15.93,15.93,0,0,1,.72,5.07V97.43h-5V78.88a10.9,10.9,0,0,0-.43-3.31,5.34,5.34,0,0,0-1.28-2.2,5.15,5.15,0,0,0-2.1-1.23,9.81,9.81,0,0,0-2.84-.38,8,8,0,0,0-2.58.4,8.8,8.8,0,0,0-2.2,1.07A9.37,9.37,0,0,0,336,74.61a10.18,10.18,0,0,0-1.21,1.74V97.43h-5Z"/><rect class="cls-2" x="23.33" y="142.72" width="330.64" height="45.52" transform="translate(377.3 330.97) rotate(180)"/><path d="M46.33,175.75v-7H38.21v-1.92H56.9v1.92H48.71v7Zm8.17-11.68H40.61V155.9H54.5Zm-2.38-6.25H43v4.33h9.13Z"/><path d="M58.15,160.55v-1.87h12v1.87Zm6,8c-2.79,0-4.89-1.42-4.89-3.58s2.08-3.6,4.89-3.6S69,162.82,69,165,67,168.54,64.17,168.54Zm-3-13h6v1.9h-6Zm0,19.67v-5.57h2.38v3.65H75v1.92Zm3-12c-1.46,0-2.62.68-2.62,1.79s1.16,1.75,2.62,1.75,2.58-.63,2.58-1.75S65.57,163.17,64.17,163.17Zm10.2-1.66h3v2h-3v6.83H72V155h2.38Z"/><path d="M97.08,166.82H78.39V164.9H97.08Zm-2-3.23c-3.1-.37-6.25-2.12-7.36-4.08-1,2-3.93,3.73-7.36,4.1l-1-1.88c3.25-.19,6.35-1.66,7-3.95H80.27v-1.92h15v1.92H89.16c.76,2.29,4.21,3.76,7,3.93Zm-7.36,12.07c-4.59,0-7.18-1.51-7.18-3.78s2.59-3.79,7.16-3.79,7.18,1.52,7.18,3.79S92.3,175.66,87.76,175.66Zm0-5.65c-2.91,0-4.72.69-4.72,1.87s1.81,1.86,4.72,1.86,4.73-.66,4.73-1.86S90.66,170,87.74,170Z"/><path d="M109.6,165.92a9.47,9.47,0,0,1-4.72-4.38,8.74,8.74,0,0,1-4.89,5l-1.46-1.88c3-1.18,5.08-3.64,5.08-6.85V155.9h2.45v1.75a7.12,7.12,0,0,0,4.93,6.44Zm6,2.3v7.53h-2.41v-5.63H101.61v-1.9Zm-2.43-1.07v-12.1h2.4v12.1Z"/><path d="M118.58,165.66v-1.9h18.68v1.9Zm16.59-6.81c0,2.18-2.64,3.67-7.21,3.67s-7.16-1.49-7.16-3.67,2.6-3.69,7.16-3.69S135.17,156.65,135.17,158.85ZM121,175.59v-5.1H132.4v-1.44H120.85v-1.88h13.92v5H123.34v1.51h12.22v1.87Zm2.27-16.74c0,1.09,1.74,1.81,4.73,1.81s4.76-.72,4.76-1.81S131,157,128,157,123.23,157.72,123.23,158.85Z"/><path d="M155.28,164v1.66h8.19v1.92H144.78v-1.92h8.12V164h-5.63v-8.34h13.8v1.9H149.65v1.35h10.7v1.79h-10.7v1.44h11.57V164Zm-1.13,11.94c-4.87,0-7.18-1.51-7.18-3.65s2.31-3.62,7.16-3.62,7.18,1.49,7.18,3.62S159,175.9,154.15,175.9Zm0-5.37c-2.91,0-4.72.65-4.72,1.72s1.81,1.73,4.72,1.73,4.73-.63,4.73-1.73S157.07,170.53,154.13,170.53Z"/><path d="M164.72,160.55v-1.87h12v1.87Zm6,8c-2.8,0-4.89-1.42-4.89-3.58s2.07-3.6,4.89-3.6,4.84,1.46,4.84,3.6S173.52,168.54,170.75,168.54Zm-3-13h6v1.9h-6Zm0,19.67v-5.57h2.38v3.65h11.46v1.92Zm3-12c-1.47,0-2.62.68-2.62,1.79s1.15,1.75,2.62,1.75,2.57-.63,2.57-1.75S172.14,163.17,170.75,163.17Zm10.19-1.66H184v2h-3.06v6.83h-2.38V155h2.38Z"/><path d="M191.08,166.32V164.4h18.69v1.92Zm9.37,9.43c-4.61,0-7.19-1.53-7.19-3.84s2.58-3.87,7.16-3.87,7.21,1.53,7.21,3.87S205.05,175.75,200.45,175.75Zm-6.84-13.45v-6.88H196v5h11.49v1.92Zm6.81,7.66c-2.9,0-4.73.72-4.73,2s1.83,1.92,4.73,1.92,4.76-.7,4.76-1.92S203.37,170,200.42,170Z"/><path d="M213.55,175.57v-4.76H225.1v-1.35H213.49v-1.75h2.4v-1.48h-4.72v-1.81h18.69v1.81h-4.78v1.48h2.4v4.74H215.93v1.38h12.25v1.74Zm.09-12.46v-4.63H225v-1.31H213.6v-1.75h13.75V160H216v1.33h11.87v1.75Zm4.63,4.6h4.43v-1.48h-4.43Z"/><path d="M232,156.36h10.88v2h-4.13v.26a6.56,6.56,0,0,0,4.69,6.09l-1.31,1.88a9.2,9.2,0,0,1-4.6-4.24,8.76,8.76,0,0,1-4.89,4.85l-1.44-1.88a7.29,7.29,0,0,0,5.11-6.61v-.35H232Zm16.36,11.94v7.45H246V170.2H234.39v-1.9Zm-2.41-1.07v-5.06h-3.36v-2h3.36V155h2.38v12.2Z"/><path d="M257.27,166.69a5.07,5.07,0,1,1,5.31-5.07A5,5,0,0,1,257.27,166.69Zm0-8.15a3.07,3.07,0,0,0,0,6.14,2.87,2.87,0,0,0,2.93-3.06A2.83,2.83,0,0,0,257.27,158.54Zm-2.57,16.6v-6.51h2.38v4.58h11.78v1.93Zm11.3-5.09V155h2.38v15Z"/><path d="M288.06,163v2.12h8.19V167H277.56v-1.9h8.12V163H280v-7.59h2.38v2h9.13v-2.08h2.38V163Zm5.79,5.88v7h-2.38v-5H279.75v-1.92Zm-2.38-9.59h-9.13V161h9.13Z"/><path d="M306.5,170.92a10.26,10.26,0,0,1-3.76-5.06,9.88,9.88,0,0,1-4,5.52l-1.48-1.59c2.73-1.81,4.39-4.83,4.39-8.93v-1.53H298v-1.92h9.36v1.92h-3.4v1.46c0,4.11,1.66,7.05,4,8.41Zm2.24,3.82V164.37h-2.81v-2h2.81v-6.94H311v19.29Zm4.09,1V155h2.27v20.7Z"/><path d="M329,170.86a12.22,12.22,0,0,1-5.09-5.85,11.13,11.13,0,0,1-5.11,6.31l-1.48-1.77a10.37,10.37,0,0,0,5.35-9.32v-1.1h-4.33v-1.94h11v1.94H325.1v1.1a9.89,9.89,0,0,0,5.22,8.9Zm4.84-7.71H337v2h-3.15v10.59h-2.38V155h2.38Z"/><path d="M94.24,212.92a25.69,25.69,0,0,1-4.64.51c-.49,0-1,0-1.49,0v-8.89H89v8a25.92,25.92,0,0,0,5-.51Zm4.42,4.52v-7.8H96.22v7H95.3V203.1h.92v5.75h2.44V202.7h.94v14.74Z"/><path d="M108,217.45v-5.11h-6.18v-.81h13.31v.81h-6.21v5.11Zm-4.38-7.87v-6.24h.92v2.23h7.88v-2.23h.92v6.24Zm8.8-3.22h-7.88v2.43h7.88Z"/><path d="M122.85,208.61H125V203h1v13.7h-1v-7.28h-2.14c-.09,2.85-1.21,4.48-3,4.48s-3.09-1.79-3.09-4.9,1.14-4.89,3.09-4.89S122.78,205.75,122.85,208.61Zm-3-3.72c-1.3,0-2.16,1.5-2.16,4.1s.86,4.11,2.16,4.11,2.14-1.51,2.14-4.11S121.08,204.89,119.8,204.89Zm8,12.55V202.7h.93v14.74Z"/><path d="M139.2,213.68a10.49,10.49,0,0,1-3.84-4.75,10.27,10.27,0,0,1-3.8,5.18l-.68-.76c2-1.17,4-4.07,4-6.51V204h.94v2.79a7.55,7.55,0,0,0,4,6.1Zm2.83,3.76V208.9h-3.64v-.78H142V202.7H143v14.74Z"/><path d="M157.09,208.42v2h6.21v.8H150v-.8h6.18v-2H151.8v-5.34h.92v1.86h7.88v-1.86h.91v5.34Zm4.5,4.41v4.74h-.92v-3.93h-9.18v-.81Zm-1-7.1h-7.88v1.9h7.88Z"/><path d="M171.38,213.92a8,8,0,0,1-3-4.31,8.26,8.26,0,0,1-3.24,4.68l-.66-.69a7.55,7.55,0,0,0,3.42-6.1v-2.17h-3v-.79h6.83v.79h-2.89v2.13a7,7,0,0,0,3.22,5.78Zm1.76,2.73V209h-2.52v-.8h2.52v-5.07h.92v13.57Zm2.91.79V202.7H177v14.74Z"/><path d="M179.16,210.48v-.74h13.31v.74Zm1.68,6.59V214h9v-1.32h-9v-.79h9.94v2.9h-9v1.52h9.53v.79Zm.1-8.74V205.4h8.82v-1.33h-8.85v-.8h9.77v2.92h-8.82v1.35h9.07v.79Z"/><path d="M205.3,209v1.71h6.19v.8h-13.3v-.8h6.21V209H200v-5.41h9.66v.8H200.9v1.44h8.3v.79h-8.3v1.58h8.82v.8Zm-.46,8.46c-3.25,0-5.05-1-5.05-2.52s1.8-2.54,5.05-2.54,5.07,1,5.07,2.54S208.09,217.41,204.84,217.41Zm0-4.25c-2.54,0-4.1.68-4.1,1.73s1.56,1.71,4.1,1.71,4.13-.67,4.13-1.71S207.37,213.16,204.84,213.16Z"/><path d="M212.79,207.09v-.79h7.38v.79Zm3.78,6.74a2.8,2.8,0,0,1-3-2.78,3,3,0,1,1,3,2.78Zm0-4.76a2,2,0,1,0,0,4,2,2,0,0,0,2.13-2A2,2,0,0,0,216.57,209.07Zm-2-4.31V204h3.88v.81Zm9.63,12.68v-7.67H222v6.88h-.92V203.08H222V209h2.2V202.7h.92v14.74Z"/><path d="M238,217.45V212h-6.18v-.81H245.1V212h-6.21v5.49Zm5.86-8.17c-2.2-.52-4.58-2.12-5.38-3.76-.73,1.68-3.13,3.31-5.39,3.81l-.51-.83c2.85-.43,5.42-2.56,5.42-4.45v-.62h.94v.62c0,1.87,3,4.15,5.41,4.41Z"/><path d="M246.9,203.91h7.68v.79h-3.37v1.06c0,2,1.85,3.8,3.67,4.39l-.52.78a7.41,7.41,0,0,1-3.64-3.46c-.37,1.35-2.11,3-3.79,3.84l-.51-.69c1.86-.74,3.9-2.86,3.9-4.87V204.7H246.9Zm11.47,8.44v5.07h-.94v-4.29h-8.81v-.78Zm-.94-.79v-4h-3.07v-.8h3.07v-4h.92v8.86Z"/><path d="M267.14,217.45v-5.37H261v-.79h13.31v.79h-6.21v5.37Zm.46-7.71c-3.17,0-5-1.27-5-3.12s1.84-3.14,5-3.14,5,1.28,5,3.14S270.77,209.74,267.6,209.74Zm-4.06-3.12c0,1.38,1.54,2.31,4.06,2.31s4.07-.93,4.07-2.31-1.52-2.33-4.07-2.33S263.54,205.24,263.54,206.62Z"/><path d="M282.34,213.68a9.23,9.23,0,0,1-3.07-4.54,8.51,8.51,0,0,1-3.19,4.91l-.66-.75a7.83,7.83,0,0,0,3.36-6.4v-2.66h.93v2.63A7.76,7.76,0,0,0,283,213Zm1.76,3V209h-2.73v-.79h2.73v-5.09H285v13.57Zm2.91.79V202.7h.92v14.74Z"/><path d="M295.09,203.92h7.73v.8h-3.44v1c0,2,1.85,3.8,3.68,4.39l-.53.77a7.48,7.48,0,0,1-3.64-3.45c-.37,1.35-2.11,3-3.79,3.83l-.5-.68c1.85-.74,3.89-2.86,3.89-4.88v-1h-3.4Zm2.21,13.28v-5h9.26v5Zm8.34-4.25h-7.42v3.46h7.42Zm0-1.6v-3.92h-3.07v-.8h3.07V202.7h.92v8.65Z"/><path d="M317.13,210.69a33.72,33.72,0,0,1-4.67.3h-2.71v-4.18h5.48v-2.3h-5.5v-.79h6.42v3.88h-5.48v2.6h1.79a31.93,31.93,0,0,0,4.58-.3Zm-.84,6.73c-3.23,0-5-1.08-5-2.66s1.74-2.65,5-2.65,5,1.07,5,2.65S319.51,217.42,316.29,217.42Zm-4-2.66c0,1.13,1.47,1.85,4,1.85s4-.72,4-1.85-1.46-1.84-4-1.84S312.3,213.64,312.3,214.76Zm5-9.46h2.89v-2.6h.91V212h-.91V209h-2.89v-.77h2.89v-2.12h-2.89Z"/><path d="M323.7,206.39v-.79h8.38v.79Zm4.13,6c-1.85,0-3.29-1-3.29-2.55s1.42-2.53,3.29-2.53,3.33,1,3.33,2.53S329.72,212.35,327.83,212.35Zm0-4.29c-1.29,0-2.37.68-2.37,1.74s1.09,1.76,2.37,1.76,2.41-.65,2.41-1.76S329.15,208.06,327.83,208.06Zm-2-3.79v-.79H330v.79Zm.11,12.61v-3.63h.92v2.83h8.79v.8Zm9-8.08v4.65H334V202.7H335V208h2.33v.79Z"/><path d="M340.91,212.84a36.39,36.39,0,0,0,6.15-.49l.11.78a41.89,41.89,0,0,1-6.37.52H339v-9.42h6.69V205h-5.77v7.82Zm8.62-4.13h2.52v.79h-2.52v7.94h-.92V202.7h.92Z"/><path d="M353.06,214.65h1.09v1h-1.09Z"/><path d="M16.11,236.16v2h6.21v.8H9v-.8h6.18v-2H10.82v-5.34h.92v1.86h7.87v-1.86h.92v5.34Zm4.5,4.41v4.74h-.92v-3.93H10.5v-.81Zm-1-7.1H11.74v1.9h7.87Z"/><path d="M30.39,241.66a8,8,0,0,1-3-4.31A8.2,8.2,0,0,1,24.12,242l-.67-.68a7.57,7.57,0,0,0,3.43-6.11v-2.17h-3v-.79h6.82v.79H27.81v2.13A7,7,0,0,0,31,241Zm1.76,2.73v-7.7H29.63v-.8h2.52v-5.07h.92v13.57Zm2.92.79V230.45H36v14.73Z"/><path d="M48.19,241.38c-1.12.12-3.1.25-5,.36s-3.54.13-4.63.16l-.17-.87c1,0,2.78,0,4.64-.11s4.15-.23,5.08-.34ZM46.66,235a3.5,3.5,0,0,1-3.79,3.36,3.38,3.38,0,1,1,0-6.7C44.93,231.68,46.66,233,46.66,235Zm-6.61,0a2.59,2.59,0,0,0,2.82,2.52c1.71,0,2.84-1,2.84-2.5a2.54,2.54,0,0,0-2.84-2.52A2.56,2.56,0,0,0,40.05,235Zm10.06-4.57v14.73h-.92V230.45Z"/><path d="M66.5,241.38c-1.44.22-3.45.38-4.73.45-1.48.07-3.35.12-4.63.12l-.19-.88c.66,0,2.34,0,3.42,0v-4.6h.92v4.59a45.17,45.17,0,0,0,5.12-.48Zm-1.28-9.19a35.82,35.82,0,0,1-.51,6.48l-.88-.11a30.88,30.88,0,0,0,.44-5.56H57.76v-.81Zm3.18,5.32v7.67h-.92V230.45h.92v6.27h2.52v.79Z"/><path d="M72.31,231.63h7.74v.79H76.62v1c0,2,1.85,3.8,3.67,4.39l-.52.77a7.35,7.35,0,0,1-3.64-3.45c-.37,1.35-2.11,3-3.79,3.83l-.51-.68c1.86-.74,3.9-2.86,3.9-4.88v-1H72.31Zm6.62,13.53c-3.23,0-5-1.06-5-2.71s1.75-2.71,5-2.71,5,1.07,5,2.71S82.15,245.16,78.93,245.16Zm-4-2.71c0,1.16,1.47,1.9,4,1.9s4-.74,4-1.9-1.46-1.9-4-1.9S74.94,241.3,74.94,242.45Zm4.88-7.36v-.8h3v-3.84h.92v9.1h-.92v-4.46Z"/><path d="M92.83,236.35H95v-5.62h1v13.7H95v-7.28H92.83c-.09,2.85-1.22,4.48-3,4.48s-3.09-1.79-3.09-4.9,1.14-4.89,3.09-4.89S92.75,233.49,92.83,236.35Zm-3-3.72c-1.3,0-2.16,1.51-2.16,4.1s.86,4.11,2.16,4.11,2.13-1.51,2.13-4.11S91.06,232.63,89.78,232.63Zm8,12.55V230.45h.94v14.73Z"/><path d="M109.18,241.42a10.49,10.49,0,0,1-3.84-4.75,10.27,10.27,0,0,1-3.8,5.18l-.68-.76c2-1.17,4-4.07,4-6.51v-2.81h.94v2.79a7.56,7.56,0,0,0,4,6.1Zm2.83,3.76v-8.54h-3.64v-.78H112v-5.41h.92v14.73Z"/><path d="M120.59,241.42v-9.65h.92v3.81h4.74v-3.81h.92v9.65Zm5.66-5h-4.74v4.26h4.74Zm4.94.93v7.88h-.92V230.45h.92v6.08h2.5v.77Z"/><path d="M138.87,231.62c2.14,0,3.56,2,3.56,5.16s-1.42,5.15-3.56,5.15-3.57-2-3.57-5.17S136.73,231.62,138.87,231.62Zm0,.82c-1.59,0-2.62,1.85-2.62,4.34s1,4.33,2.62,4.33,2.61-1.87,2.61-4.33S140.45,232.44,138.87,232.44Zm6.73,12.74V230.45h.92v14.73Z"/><path d="M157.49,241.06a49.56,49.56,0,0,1-6.21.47c-.51,0-1,0-1.54,0V236h5.55v-3.39h-5.55v-.8h6.47v5h-5.55v3.88a48.33,48.33,0,0,0,6.75-.47Zm2.69,4.12v-8h-3v-.8h3v-5.9h.91v14.73Z"/><path d="M163.73,243.09v-.79H177v.79Zm12.15-4.25c-2.74-.92-5.06-3.2-5.52-4.47-.38,1.26-2.58,3.55-5.49,4.42l-.48-.72c2.41-.54,5.51-3,5.51-5.3v-1h.94v1c0,2.3,3.26,4.74,5.56,5.31Z"/><path d="M186.37,245.18V239.7h-3.62v-.81h13.3v.81H192.4v5.48h-.91V239.7h-4.2v5.48Zm3-7.73c-3.16,0-5-1.27-5-3.12s1.84-3.14,5-3.14,5,1.28,5,3.14S192.55,237.45,189.38,237.45Zm-4-3.12c0,1.37,1.54,2.31,4,2.31s4.08-.94,4.08-2.31-1.52-2.33-4.08-2.33S185.33,233,185.33,234.33Z"/><path d="M197.85,232h7.73v.79h-3.42v1.17c0,2,1.84,3.77,3.66,4.38l-.5.76a7.24,7.24,0,0,1-3.65-3.42c-.36,1.34-2.15,3-3.83,3.81l-.51-.69c1.85-.75,3.93-2.86,3.93-4.85v-1.16h-3.41Zm2.08,12.67v-4.45h.9v3.65h8.8v.8Zm8.46-3.39v-5.75h-3v-.8h3v-4.23h.92v10.78Z"/><path d="M219.85,241.65a10.32,10.32,0,0,1-3.75-4.73,10.86,10.86,0,0,1-3.78,5.11l-.66-.76c2-1.26,4-4.06,4-6.47v-2h-3.41v-.79h7.84v.79h-3.5v1.95c0,2.53,2,5,3.9,6.08Zm3.28-4.28v7.81h-.92V230.45h.92v6.13h2.55v.79Z"/><path d="M226.5,239v-.81h13.31V239Zm1.88-3.07v-5h.92v4.22h8.91V236Zm0,8.84v-4.26h.92V244h8.95v.79Z"/><path d="M251.73,240.65v-2.32h-6.21v-.8h13.31v.8h-6.2v2.32h4.49v4.66h-.92v-3.87H247v-.79Zm5.88-4.63a8.22,8.22,0,0,1-5.44-3.47c-.5,1.29-2.59,3-5.35,3.49l-.48-.78c2.47-.27,5.37-2.14,5.37-4.12v-.52h.94v.52c0,2,3.1,3.8,5.42,4.09Z"/><path d="M266.28,245.18v-5.39H260.1V239h13.31v.79H267.2v5.39Zm5.94-7.78c-2.72-.52-4.86-2-5.46-3.33-.53,1.29-2.57,2.84-5.39,3.33l-.46-.79c2.49-.29,5.39-1.89,5.39-3.93v-.27h-4.82v-.79H272v.79h-4.79v.27c0,2.06,3.22,3.64,5.45,3.9Z"/><path d="M284.7,241.38c-1.12.12-3.11.25-5,.36s-3.53.13-4.62.16l-.18-.87c1,0,2.79,0,4.65-.11s4.15-.23,5.08-.34ZM283.16,235a3.81,3.81,0,1,1-3.78-3.34C281.44,231.68,283.16,233,283.16,235Zm-6.6,0a2.59,2.59,0,0,0,2.82,2.52c1.71,0,2.83-1,2.83-2.5a2.53,2.53,0,0,0-2.83-2.52A2.56,2.56,0,0,0,276.56,235Zm10.06-4.57v14.73h-.92V230.45Z"/><path d="M297.34,245.18V239.7h-3.63v-.81H307v.81h-3.66v5.48h-.91V239.7h-4.2v5.48Zm3-7.73c-3.17,0-5-1.27-5-3.12s1.84-3.14,5-3.14,5,1.28,5,3.14S303.52,237.45,300.35,237.45Zm-4.06-3.12c0,1.37,1.54,2.31,4.06,2.31s4.07-.94,4.07-2.31S302.9,232,300.35,232,296.29,233,296.29,234.33Z"/><path d="M308.82,232h7.73v.79h-3.42v1.17c0,2,1.83,3.77,3.65,4.38l-.5.76a7.24,7.24,0,0,1-3.65-3.42c-.36,1.34-2.15,3-3.83,3.81l-.51-.69c1.86-.75,3.93-2.86,3.93-4.85v-1.16h-3.4Zm2.07,12.67v-4.45h.9v3.65h8.8v.8Zm8.46-3.39v-5.75h-3v-.8h3v-4.23h.92v10.78Z"/><path d="M330.81,241.65a10.39,10.39,0,0,1-3.75-4.73,10.84,10.84,0,0,1-3.77,5.11l-.67-.76c2-1.26,4-4.06,4-6.47v-2h-3.41v-.79H331v.79h-3.5v1.95c0,2.53,2,5,3.9,6.08Zm3.28-4.28v7.81h-.92V230.45h.92v6.13h2.55v.79Z"/><path d="M345.62,234.91a3.37,3.37,0,0,1-3.25,3.3v2.64c1.73-.09,3.47-.23,4.36-.36l.08.79c-1,.14-2.92.32-4.76.44s-3.28.15-4.56.15l-.17-.86c1,0,2.52,0,4.15-.09v-2.7a3.39,3.39,0,0,1-3.36-3.29,3.46,3.46,0,0,1,3.75-3.33C343.91,231.6,345.62,232.87,345.62,234.91Zm-6.56,0a2.59,2.59,0,0,0,2.8,2.51,2.52,2.52,0,1,0,0-5A2.56,2.56,0,0,0,339.06,234.91Zm9.58,2.63v7.64h-.91V230.45h.91v6.3h2.54v.79Z"/><path d="M76.06,266a7.1,7.1,0,0,1-3.55-3.69,7.58,7.58,0,0,1-3.67,4.12l-.62-.71A6.1,6.1,0,0,0,72,260.39v-1.48h.93v1.46c0,2.41,2,4.23,3.71,4.86Zm-2.17,7v-4.66H70v-.73h4.74v5.39Zm5.42,0v-4.66H75.67v-.73h4.49v5.39ZM76,262.35v-.81h3.29v-3.35h.92v8.5h-.92v-4.34Z"/><path d="M87.1,259.36c2.14,0,3.56,2,3.56,5.16s-1.42,5.15-3.56,5.15-3.57-2-3.57-5.16S85,259.36,87.1,259.36Zm0,.82c-1.59,0-2.62,1.85-2.62,4.34s1,4.33,2.62,4.33,2.61-1.87,2.61-4.33S88.68,260.18,87.1,260.18Zm6.73,12.74V258.19h.92v14.73Z"/><path d="M97.37,266.77V266h13.31v.81Zm1.89-3.07v-5h.91v4.22h8.91v.79Zm0,8.84v-4.26h.91v3.47h9v.79Z"/><path d="M123.89,259.4c-.35,3.76-3.09,6.47-6.75,7.61l-.54-.81c3.2-.7,5.89-3.48,6.23-6h-5.38v-.8Zm-.38,13.6c-3,0-5-1.08-5-2.76s1.93-2.75,5-2.75,5,1.06,5,2.75S126.53,273,123.51,273Zm-4-2.76c0,1.17,1.6,1.95,4,1.95s4-.78,4-1.95-1.63-1.95-4-1.95S119.51,269.05,119.51,270.24Zm4.41-6h3.53V262H124v-.81h3.41v-3h.92v9.45h-.92v-2.58h-3.53Z"/><path d="M137.15,272.93v-5.37H131v-.79h13.31v.79h-6.21v5.37Zm.46-7.71c-3.16,0-5-1.27-5-3.12s1.84-3.14,5-3.14,5,1.28,5,3.14S140.78,265.22,137.61,265.22Zm-4.05-3.12c0,1.38,1.53,2.31,4.05,2.31s4.07-.93,4.07-2.31-1.52-2.33-4.07-2.33S133.56,260.72,133.56,262.1Z"/><path d="M152.93,259.8c-.07,5-3.09,8.25-6.59,10.08l-.56-.73c3.85-2,5.9-5.07,6.16-8.56h-5.68v-.79Zm3.85,4.69h2.53v.79h-2.53v7.64h-.92V258.19h.92Z"/><path d="M164.58,267.69v-.79h13.31v.79Zm.84-6.64v-.79h11.64v.79Zm1,11.36v-3.75h.92v2.94h9.13v.81Zm4.88-6.51c-3.06,0-4.33-.89-4.33-2.12s1.27-2.11,4.33-2.11,4.33.87,4.33,2.11S174.31,265.9,171.25,265.9Zm0-3.44c-2.41,0-3.37.65-3.37,1.32s1,1.33,3.37,1.33,3.37-.64,3.37-1.33S173.66,262.46,171.25,262.46Zm-2.42-3.32v-.8h5v.8Z"/><path d="M179.13,262.57v-.79h8.64v.79Zm4.42,7.1a3,3,0,1,1,3.36-3A3.07,3.07,0,0,1,183.55,269.67Zm0-5.15a2.19,2.19,0,1,0,2.44,2.19A2.27,2.27,0,0,0,183.55,264.52Zm-2.28-4.4v-.81h4.2v.81Zm9.11,5.18v7.62h-.92V258.19h.92v6.33h2.51v.78Z"/><path d="M201.34,259.8c-.06,5-3.31,8.25-6.81,10.08l-.56-.73c3.85-2,6.12-5.07,6.39-8.56h-5.72v-.79Zm3.45,13.12V258.19h.92v14.73Z"/><path d="M216.83,268.51a14,14,0,0,1-3.41.32v-8.74h3v.8h-2.06V268a10,10,0,0,0,2.36-.27Zm4.12-.12a15.28,15.28,0,0,1-3.63.44v-8.74h3.13v.8h-2.21V268a11.93,11.93,0,0,0,2.58-.38Zm3.43,4.53v-7.76h-2v7h-.92V258.56h.92v5.8h2v-6.17h.92v14.73Z"/><path d="M233.5,269.86v-3.2h-6.15v-.81h13.31v.81h-6.24v3.2ZM229.14,264v-5h9.75v5Zm0,8.38v-4.06h.91v3.25h9v.81ZM238,259.83h-7.91v3.39H238Z"/><path d="M248.4,264.1h2.14v-5.63h1v13.7h-1v-7.28H248.4c-.09,2.85-1.22,4.48-3.06,4.48s-3.09-1.79-3.09-4.9,1.15-4.89,3.09-4.89S248.32,261.23,248.4,264.1Zm-3.06-3.73c-1.3,0-2.15,1.51-2.15,4.1s.85,4.11,2.15,4.11,2.14-1.51,2.14-4.11S246.63,260.37,245.34,260.37Zm8,12.55V258.19h.94v14.73Z"/><path d="M261.75,266.52v-7.34h.92v2.76h4.44v-2.76H268v7.34Zm5.36-3.79h-4.44v3h4.44Zm-3.55,9.63V268h.9v3.6h8.86v.8Zm9.38-3.4H272v-4.07h-3.15v-.79H272v-2.48h-3.15v-.79H272v-2.64h.92Z"/><path d="M279.85,259.36c2.14,0,3.57,2,3.57,5.16s-1.43,5.15-3.57,5.15-3.56-2-3.56-5.16S277.71,259.36,279.85,259.36Zm0,.82c-1.58,0-2.61,1.85-2.61,4.34s1,4.33,2.61,4.33,2.62-1.87,2.62-4.33S281.44,260.18,279.85,260.18Zm6.73,12.74V258.19h.92v14.73Z"/><path d="M297.49,259.8c-.06,5-3.09,8.25-6.59,10.08l-.55-.73c3.85-2,5.89-5.07,6.16-8.56h-5.69v-.79Zm3.85,4.69h2.54v.79h-2.54v7.64h-.92V258.19h.92Z"/><path d="M309.72,269.16v-9.47h.92v3.88h1.69v-3.88h.92v9.47Zm2.61-4.8h-1.69v4h1.69Zm2.17,4.84v-9.51h.92v3.87h1.7v-3.87H318v9.51Zm2.62-4.85h-1.7v4h1.7Zm3.45-.22h2.27v.79h-2.27v8h-.92V258.19h.92Z"/><path d="M323.73,270.81V270H337v.79Zm1.79-3.61v-4.41h8.81v-2.56h-8.79v-.81h9.71v4.17h-8.81v2.82h9.21v.79Z"/><path d="M340.91,268.33a36.3,36.3,0,0,0,6.15-.5l.11.78a41.89,41.89,0,0,1-6.37.52H339v-9.42h6.69v.79h-5.77v7.83Zm8.62-4.14h2.52V265h-2.52v7.94h-.92V258.19h.92Z"/><path d="M353.06,270.13h1.09v1.05h-1.09Z"/></g></g></svg>