<svg xmlns="http://www.w3.org/2000/svg" viewBox="0 0 472.98 232.98"><defs><style>.cls-1{fill:none;}.cls-1,.cls-2{stroke:#000;stroke-miterlimit:10;stroke-width:0.3px;}.cls-2{fill:lime;}</style></defs><g id="레이어_2" data-name="레이어 2"><g id="그래픽"><path class="cls-1" d="M166.37,90.44a14.23,14.23,0,0,1-.25-1.77,13.37,13.37,0,0,1-1.7,1.43,12,12,0,0,1-2,1.19,12.66,12.66,0,0,1-2.41.82,11.7,11.7,0,0,1-2.7.29,12.4,12.4,0,0,1-4.21-.67,9.71,9.71,0,0,1-3.18-1.84,7.89,7.89,0,0,1-2-2.72,8.21,8.21,0,0,1-.72-3.43,8.91,8.91,0,0,1,1-4.22,8.56,8.56,0,0,1,2.72-3A12.73,12.73,0,0,1,155,74.71a23.63,23.63,0,0,1,5.54-.6H166v-2.3a5.68,5.68,0,0,0-.48-2.38,5.33,5.33,0,0,0-1.38-1.81A6.44,6.44,0,0,0,162,66.48a9.59,9.59,0,0,0-2.88-.4,8.79,8.79,0,0,0-2.67.37,6.64,6.64,0,0,0-2,1,4.27,4.27,0,0,0-1.25,1.47,3.75,3.75,0,0,0-.45,1.77h-5a7,7,0,0,1,.82-3.14,8.86,8.86,0,0,1,2.32-2.78,12.09,12.09,0,0,1,3.63-2,14.85,14.85,0,0,1,4.89-.76,17.11,17.11,0,0,1,4.63.61,10.87,10.87,0,0,1,3.7,1.83,9,9,0,0,1,2.44,3.08,9.87,9.87,0,0,1,.89,4.31V85.48a19,19,0,0,0,.27,3.09,13.29,13.29,0,0,0,.76,2.86v.43h-5.22A5.47,5.47,0,0,1,166.37,90.44Zm-5.64-2.77a10.63,10.63,0,0,0,2.33-1,8.75,8.75,0,0,0,1.78-1.42A6.69,6.69,0,0,0,166,83.58V77.66h-4.65a20.82,20.82,0,0,0-4.53.44,7.53,7.53,0,0,0-3.07,1.37A4.22,4.22,0,0,0,152.55,81a4.72,4.72,0,0,0-.42,2,5.43,5.43,0,0,0,.36,2,4,4,0,0,0,1.1,1.57,5,5,0,0,0,1.84,1.06,8,8,0,0,0,2.57.38A9.63,9.63,0,0,0,160.73,87.67Z"/><path class="cls-1" d="M192.71,62.58h11.15v3.87H192.71V82.37a7.78,7.78,0,0,0,.44,2.81,4.29,4.29,0,0,0,1.19,1.76,4.22,4.22,0,0,0,1.74.94,7.56,7.56,0,0,0,2.1.28,16.42,16.42,0,0,0,1.68-.1c.57-.06,1.14-.14,1.7-.23s1.05-.18,1.53-.28l1.18-.26.7,3.54a6.64,6.64,0,0,1-1.51.67,14.66,14.66,0,0,1-2,.47,21.36,21.36,0,0,1-2.23.32,23.18,23.18,0,0,1-2.34.11,11.57,11.57,0,0,1-3.64-.55,7.48,7.48,0,0,1-2.94-1.77,8.28,8.28,0,0,1-2-3.1,13.09,13.09,0,0,1-.72-4.61V66.45H180V62.58h7.68V55.5h5Z"/><path class="cls-1" d="M226,62.58h11.15v3.87H226V82.37a7.8,7.8,0,0,0,.43,2.81,4.38,4.38,0,0,0,1.19,1.76,4.32,4.32,0,0,0,1.75.94,7.48,7.48,0,0,0,2.09.28,16.25,16.25,0,0,0,1.68-.1c.58-.06,1.15-.14,1.71-.23s1.05-.18,1.52-.28l1.18-.26.71,3.54a6.73,6.73,0,0,1-1.52.67,14.3,14.3,0,0,1-2,.47,21,21,0,0,1-2.23.32,23,23,0,0,1-2.34.11,11.61,11.61,0,0,1-3.64-.55,7.48,7.48,0,0,1-2.94-1.77,8.28,8.28,0,0,1-2-3.1,13.1,13.1,0,0,1-.71-4.61V66.45h-7.69V62.58h7.69V55.5h5Z"/><path class="cls-1" d="M266.14,90.44a14.22,14.22,0,0,1-.26-1.77,14,14,0,0,1-1.69,1.43,12.38,12.38,0,0,1-2,1.19,12.91,12.91,0,0,1-2.41.82,11.79,11.79,0,0,1-2.71.29,12.44,12.44,0,0,1-4.21-.67,9.71,9.71,0,0,1-3.18-1.84,7.89,7.89,0,0,1-2-2.72,8.21,8.21,0,0,1-.72-3.43,8.79,8.79,0,0,1,1-4.22,8.53,8.53,0,0,1,2.71-3,12.88,12.88,0,0,1,4.24-1.78,23.49,23.49,0,0,1,5.53-.6h5.47v-2.3a5.54,5.54,0,0,0-.49-2.38,5.09,5.09,0,0,0-1.38-1.81,6.35,6.35,0,0,0-2.18-1.14,9.5,9.5,0,0,0-2.88-.4,8.73,8.73,0,0,0-2.66.37,6.52,6.52,0,0,0-2,1A4.42,4.42,0,0,0,253,68.93a3.75,3.75,0,0,0-.45,1.77h-5a7,7,0,0,1,.83-3.14,9,9,0,0,1,2.31-2.78,12,12,0,0,1,3.64-2,14.75,14.75,0,0,1,4.88-.76,17.11,17.11,0,0,1,4.63.61,11,11,0,0,1,3.71,1.83,9,9,0,0,1,2.43,3.08,9.73,9.73,0,0,1,.89,4.31V85.48a19,19,0,0,0,.27,3.09,13.9,13.9,0,0,0,.76,2.86v.43h-5.22A5.14,5.14,0,0,1,266.14,90.44Zm-5.65-2.77a10.43,10.43,0,0,0,2.33-1,8.82,8.82,0,0,0,1.79-1.42,7.25,7.25,0,0,0,1.19-1.67V77.66h-4.66a20.82,20.82,0,0,0-4.53.44,7.6,7.6,0,0,0-3.07,1.37A4.33,4.33,0,0,0,252.31,81a4.72,4.72,0,0,0-.42,2,5.23,5.23,0,0,0,.37,2,3.94,3.94,0,0,0,1.09,1.57,5.09,5.09,0,0,0,1.84,1.06,8,8,0,0,0,2.57.38A9.53,9.53,0,0,0,260.49,87.67Z"/><path class="cls-1" d="M295.74,87.91A7.51,7.51,0,0,0,298,86.69a6.05,6.05,0,0,0,1.6-1.79,4.61,4.61,0,0,0,.64-2.26H305a7.79,7.79,0,0,1-1,3.72,10.66,10.66,0,0,1-2.64,3.1,13.38,13.38,0,0,1-3.79,2.15,12.66,12.66,0,0,1-4.46.79,13.27,13.27,0,0,1-5.82-1.19A11.81,11.81,0,0,1,283.14,88a13.43,13.43,0,0,1-2.51-4.64,18.21,18.21,0,0,1-.84-5.56V76.65a18.27,18.27,0,0,1,.84-5.54,13.71,13.71,0,0,1,2.51-4.68,11.85,11.85,0,0,1,4.14-3.19A13.27,13.27,0,0,1,293.1,62a13.44,13.44,0,0,1,4.78.83,12.06,12.06,0,0,1,3.77,2.23,10.29,10.29,0,0,1,2.46,3.38,9.83,9.83,0,0,1,.9,4.17h-4.74a6.11,6.11,0,0,0-.58-2.5,6.7,6.7,0,0,0-1.5-2.07,6.87,6.87,0,0,0-2.26-1.41,7.77,7.77,0,0,0-2.83-.51,7.62,7.62,0,0,0-3.91.93,7.71,7.71,0,0,0-2.56,2.42,10.4,10.4,0,0,0-1.39,3.39,17,17,0,0,0-.42,3.75v1.14a17.35,17.35,0,0,0,.42,3.8A10,10,0,0,0,286.63,85a7.33,7.33,0,0,0,2.53,2.45,7.68,7.68,0,0,0,3.94.93A8.2,8.2,0,0,0,295.74,87.91Z"/><path class="cls-1" d="M320.21,65.31A11.11,11.11,0,0,1,321.75,64a9.71,9.71,0,0,1,2.86-1.43,11.52,11.52,0,0,1,3.31-.52,12.26,12.26,0,0,1,4.18.67,7.88,7.88,0,0,1,3.21,2.07,9.31,9.31,0,0,1,2,3.56,16.09,16.09,0,0,1,.72,5.1V91.86h-5V73.38a10.32,10.32,0,0,0-.4-3,5.72,5.72,0,0,0-1.19-2.18,5.12,5.12,0,0,0-2.11-1.42,7.83,7.83,0,0,0-2.92-.45,8.64,8.64,0,0,0-2.57.38,8.07,8.07,0,0,0-2.25,1.08,9.45,9.45,0,0,0-1.5,1.26,10,10,0,0,0-1.23,1.58V91.86h-5V50.3h5V66.94A10.45,10.45,0,0,1,320.21,65.31Z"/><path class="cls-1" d="M349.57,65.35a6.61,6.61,0,0,1,2.34-2.41,6.9,6.9,0,0,1,3.51-.9,7.92,7.92,0,0,1,2.09.26,5.47,5.47,0,0,1,1.64.74,4.82,4.82,0,0,1,.93.93,5.78,5.78,0,0,1,.72,1.21,5.92,5.92,0,0,1,3.69-2.84,8.24,8.24,0,0,1,2.05-.3,7.82,7.82,0,0,1,2.73.45,5.55,5.55,0,0,1,2.06,1.31,6.36,6.36,0,0,1,1.4,2.53,12.17,12.17,0,0,1,.49,3.67V91.86h-4.76V70a5.69,5.69,0,0,0-.22-1.63,3,3,0,0,0-.62-1.16,2.71,2.71,0,0,0-1.07-.65,4.43,4.43,0,0,0-1.48-.22,4.25,4.25,0,0,0-1.54.25,3.19,3.19,0,0,0-1.08.64,3.36,3.36,0,0,0-.68,1,4.27,4.27,0,0,0-.32,1.23V91.86h-4.76V69.92a5.64,5.64,0,0,0-.21-1.62,2.69,2.69,0,0,0-.63-1.17,2.32,2.32,0,0,0-1-.63,4.33,4.33,0,0,0-1.42-.21,5.14,5.14,0,0,0-1.55.21,3,3,0,0,0-1.13.58,3.6,3.6,0,0,0-1,1.48v23.3h-4.77V62.58h4.5Z"/><path class="cls-1" d="M387.66,91.35a13,13,0,0,1-4.43-2.95,13.5,13.5,0,0,1-2.87-4.49,15.39,15.39,0,0,1-1-5.66V77.12a16.72,16.72,0,0,1,1.13-6.35,14.66,14.66,0,0,1,3-4.75,13.31,13.31,0,0,1,4.26-2.95,12.48,12.48,0,0,1,4.92-1,13.05,13.05,0,0,1,5.53,1.1,10.84,10.84,0,0,1,3.93,3,13.12,13.12,0,0,1,2.35,4.57,20.21,20.21,0,0,1,.77,5.68v2.25H384.34v.19a13.16,13.16,0,0,0,.85,3.76A9.44,9.44,0,0,0,387,85.48a8.58,8.58,0,0,0,2.87,2.08,8.81,8.81,0,0,0,3.7.76,10.1,10.1,0,0,0,4.77-1.09,10.27,10.27,0,0,0,3.46-2.86l3.06,2.38a13.11,13.11,0,0,1-4.37,3.94,14,14,0,0,1-7.19,1.71A14.89,14.89,0,0,1,387.66,91.35Zm2.15-24.64a7.57,7.57,0,0,0-2.44,1.61A9.3,9.3,0,0,0,385.55,71a12.42,12.42,0,0,0-1.05,3.58h15.75V74.3a9.4,9.4,0,0,0-.51-2.91,8.45,8.45,0,0,0-1.44-2.69A6.9,6.9,0,0,0,396,66.86a7.25,7.25,0,0,0-3.31-.7A7.45,7.45,0,0,0,389.81,66.71Z"/><path class="cls-1" d="M413.64,62.58h4.5l.35,4.33a12.83,12.83,0,0,1,1.42-1.69,10.34,10.34,0,0,1,1.64-1.34,11.09,11.09,0,0,1,2.82-1.34,11.8,11.8,0,0,1,3.24-.5,12.86,12.86,0,0,1,4.18.65,8,8,0,0,1,3.2,2A9.18,9.18,0,0,1,437,68.23a16,16,0,0,1,.71,5V91.86h-5V73.38a10.85,10.85,0,0,0-.44-3.3A5.24,5.24,0,0,0,431,67.89,5.09,5.09,0,0,0,429,66.67a9.79,9.79,0,0,0-2.83-.38,8.19,8.19,0,0,0-2.57.39,8.91,8.91,0,0,0-2.19,1.07,9.81,9.81,0,0,0-1.51,1.38,9.27,9.27,0,0,0-1.2,1.74v21h-5Z"/><path class="cls-1" d="M458.75,62.58H469.9v3.87H458.75V82.37a7.8,7.8,0,0,0,.43,2.81,4.38,4.38,0,0,0,1.19,1.76,4.32,4.32,0,0,0,1.75.94,7.56,7.56,0,0,0,2.1.28,16.07,16.07,0,0,0,1.67-.1c.58-.06,1.15-.14,1.71-.23s1-.18,1.53-.28l1.17-.26.71,3.54a6.73,6.73,0,0,1-1.52.67,13.94,13.94,0,0,1-1.95.47,20.61,20.61,0,0,1-2.23.32,22.91,22.91,0,0,1-2.34.11,11.61,11.61,0,0,1-3.64-.55,7.52,7.52,0,0,1-2.93-1.77,8.3,8.3,0,0,1-2-3.1,13.33,13.33,0,0,1-.71-4.61V66.45H446V62.58h7.69V55.5h5Z"/><path d="M342.33,38.27V8.15l-9.4,3.58V7.56l13.6-5.24h.37v36Z"/><path d="M372.84,39a12.72,12.72,0,0,1-3.13,4.32l-2.84-1.56a11.34,11.34,0,0,0,1.68-3.68,16.26,16.26,0,0,0,.49-4V29.6h5v4.34A12.07,12.07,0,0,1,372.84,39ZM369,7.92a3.35,3.35,0,0,1,2.69-1,3.47,3.47,0,0,1,2.7,1,3.61,3.61,0,0,1,.93,2.51,3.43,3.43,0,0,1-.94,2.44,3.55,3.55,0,0,1-2.69,1,3.41,3.41,0,0,1-2.68-1,3.51,3.51,0,0,1-.9-2.43A3.7,3.7,0,0,1,369,7.92Z"/><path d="M407.47,42.32V28.37H390.29V25.28h38.18v3.09H411.15v14Zm-12.55-22V1.64h3.69V7.86h21.55V1.64h3.68V20.28Zm25.24-9.41H398.61v6.36h21.55Z"/><path d="M432.68,8.32h22.69v3h-9.32c.32,5.09,5.32,9.32,10.14,10.5l-1.87,2.87a19.06,19.06,0,0,1-10.18-8.46c-1.36,3.77-5.77,8-10.64,9.68l-2-2.82c5.5-1.63,10.41-6.54,10.69-11.77h-9.51Zm31.87,19.5V42.28h-3.68V30.87H437.23V27.82ZM438.19,1.23H450V4.41H438.19Zm26.36,13.09V25.64h-3.63V0h3.63V11.23H471v3.09Z"/><rect class="cls-2" x="0.15" y="125.27" width="472.68" height="45.58" transform="translate(472.98 296.13) rotate(180)"/><path d="M27.73,153.72a13.36,13.36,0,0,1-4.77-6,12.19,12.19,0,0,1-5.09,6.47l-1.47-1.76a11.26,11.26,0,0,0,5.28-9.53v-3.41h2.49v3.28a10.49,10.49,0,0,0,5,9.15Zm3.5,4.82V137.68h2.4v20.86Z"/><path d="M47.75,148.92a36.58,36.58,0,0,1-7.55.53H37.47V143h6.74v-2.26H37.45v-1.9h9.16v6H39.87v2.69a40.47,40.47,0,0,0,7.57-.49Zm6.12,2.51v7.15h-2.4v-5.24H39.7v-1.91ZM48.1,140.58h3.35v-2.9h2.39v12.61H51.45v-3.35H48.1v-2h3.35v-2.44H48.1Z"/><path d="M59.91,151.58a30.45,30.45,0,0,0,6.39-.48l.35,1.87c-2.11.46-4.14.59-9.13.57v-13.4h8.07v1.92H59.91v3.56h4.14v2H59.91Zm5.4-4v-2h2.75v-7.5h2.26v19.45H68.06v-10Zm6.9,10.94V137.68H74.5v20.86Z"/><path d="M77.16,155.79v-1.94H96v1.94Zm17.1-6.52c-3.08-.81-6.6-3.19-7.68-5.72-1,2.58-4.56,4.95-7.7,5.72l-1.19-2c3.41-.55,7.66-3.39,7.66-7V139h2.51v1.39c0,3.56,4.51,6.49,7.65,7.06Z"/><path d="M116.24,155.9H97.4V154h18.84Zm-14-10.28v2.66H114v1.9H99.82v-10.9h14v1.92h-11.6v2.53h10.89v1.89Z"/><path d="M117.64,149.05v-1.8h18.84v1.8Zm2.4,9.33v-4.82h11.64v-1.4H120v-1.74h14.11v4.82H122.44v1.43h12.19v1.71Zm.09-12.38v-4.69h11.42V140H120.08v-1.76H134v4.71H122.53v1.29h11.88V146Z"/><path d="M146.86,151.1a12,12,0,0,0,3.3-.37l.26,1.87a25.68,25.68,0,0,1-5.89.46V139.81h5.3v1.92h-3Zm6.44,0a17.12,17.12,0,0,0,3.83-.39l.22,1.87a30.36,30.36,0,0,1-6.4.46V139.81h5.57v1.92H153.3Zm7.35-5.39h2.8v2h-2.8v10.81h-2.33V137.68h2.33Z"/><path d="M176.69,153a62.64,62.64,0,0,1-9.33.71h-2.31v-8.43H172v-3.83h-7V139.5h9.42v7.68h-6.93v4.51a56.5,56.5,0,0,0,9-.66Zm3.79-5.17v10.72h-2.43V137.68h2.43v8.14h3.12v2Z"/><path d="M196.58,148.11c-2.91,0-5.33-1.83-5.33-4.67a5,5,0,0,1,5.33-4.88c3,0,5.34,2,5.34,4.86S199.61,148.11,196.58,148.11Zm5.26,9.86a32.88,32.88,0,0,1-6.08.5h-2.33V153.3H198v-1.58h-4.56v-1.79h6.89v5h-4.56v1.71a26.37,26.37,0,0,0,5.79-.5Zm-5.26-17.39a2.91,2.91,0,0,0-3,2.84,3,3,0,1,0,3-2.84Zm11.31,9.35v8.67h-2.4v-6.91h-4.12v-1.76Zm-2.44-1.1V137.68h2.39v11.15Z"/><path d="M216.4,139.13c3.39,0,5.32,3,5.32,7.44S219.79,154,216.4,154s-5.3-3-5.3-7.41S213.05,139.13,216.4,139.13Zm0,1.94c-1.72,0-3,2.15-3,5.5s1.23,5.48,3,5.48,3-2.16,3-5.48S218.18,141.07,216.4,141.07Zm9.28,17.47V147.45h-3.19v-2h3.19v-7.79h2.43v20.86Z"/><path d="M241.74,149.69V154H250v1.92H231.16V154h8.19v-4.29h-5.84V139.17h2.4v3.37h9.33v-3.39h2.4v10.54Zm3.5-5.26h-9.33v3.35h9.33Z"/><path d="M251.4,150v-1.93h18.84V150Zm2.44,8v-6.14h2.4v4.2h11.82V158Zm.11-12.46v-7.17h2.4v5.24h11.57v1.93Z"/><path d="M286,151.61v-2.45H277.8v-1.93h18.83v1.93h-8.25v2.45h5.83v7h-2.39v-5.06H280v-1.93Zm8.75-5.7c-2.88-.46-6.49-2.31-7.5-4.64-1,2.33-4.42,4.11-7.53,4.59l-1-1.87c3.41-.35,7.31-2.44,7.31-5.5v-.64h2.5v.64c0,3.06,4.36,5.33,7.31,5.53Z"/><path d="M306.22,158.52V151.1H298v-1.91h18.83v1.91h-8.25v7.42Zm2.56-18.05c.42,2.58,4.09,4.47,7.21,4.8l-1.07,1.89c-2.93-.42-6.38-2.37-7.44-4.31-1,2-4.38,3.94-7.46,4.4l-1.14-1.89c3.21-.33,6.9-2.29,7.32-4.89h-6.42v-1.93h15.33v1.93Z"/><path d="M332.34,153.21a130.55,130.55,0,0,1-13.86.73l-.35-2.07c2.2,0,4.48,0,6.9-.11,3-.13,5.33-.29,7.13-.48Zm-7.48-4.16c-3,0-5.35-1.91-5.35-4.75a5.06,5.06,0,0,1,5.35-5c3.08,0,5.46,2,5.46,5S327.92,149.05,324.86,149.05Zm0-7.68a2.89,2.89,0,0,0-3,2.91,3,3,0,0,0,6,0A2.85,2.85,0,0,0,324.86,141.37Zm10.87,17.17h-2.4V137.68h2.4Z"/><path d="M350.6,148.28c-3,0-5.33-1.8-5.33-4.73a5,5,0,0,1,5.33-4.93c3,0,5.35,2,5.35,4.93S353.63,148.28,350.6,148.28Zm0-7.68a2.8,2.8,0,0,0-2.93,2.91,2.94,2.94,0,0,0,5.88,0A2.77,2.77,0,0,0,350.6,140.6Zm-2.36,17.67V150h2.4v2.18h8.83v-2.23h2.39v8.34Zm11.23-4.2h-8.83v2.27h8.83Zm0-5.24V137.68h2.4v11.15Z"/><path d="M376.18,157.55v-9.79h-2.09c-.22,3.47-1.6,6.27-4.44,6.27-3.12,0-4.49-3.37-4.49-7.33s1.37-7.28,4.49-7.28c2.86,0,4.25,2.81,4.44,6.33h2.09v-7.68h2.27v19.48Zm-6.51-16.07c-1.47,0-2.2,2.23-2.2,5.24s.73,5.19,2.2,5.19,2.2-2.17,2.2-5.19S371.17,141.48,369.67,141.48Zm10.54,17.06V137.68h2.29v20.86Z"/><path d="M407.16,155.35h-11v1.29h12v1.83H393.74v-7.9h5.76V148.7h-8.18v-1.91h18.83v1.91H401.9v1.87h5.88v1.85H396.14v1.23h11Zm-13.4-10.23v-7.2h2.4v1.8h9.18v-1.84h2.39v7.24Zm11.58-3.5h-9.18v1.6h9.18Z"/><path d="M411.56,150v-1.93h18.83V150Zm2.44,8v-6.14h2.4v4.2h11.82V158Zm.11-12.46v-7.17h2.4v5.24h11.57v1.93Z"/><path d="M443.94,152.73a48.11,48.11,0,0,1-9.1.7h-2.21V139.64h9.49v2H435v9.83a43.05,43.05,0,0,0,8.63-.66Zm4-5.06v10.87h-2.4V137.68H448v8h3.15v2Z"/><path d="M453,153.43h2.58V156H453Z"/><path d="M173.05,199.14a10.68,10.68,0,0,1-3.87-4.8,10.43,10.43,0,0,1-3.85,5.23l-.68-.77c2-1.18,4.06-4.11,4.06-6.58v-2.83h.95v2.82a7.64,7.64,0,0,0,4.05,6.16Zm2.86,3.71V188h.93v14.88Z"/><path d="M187.53,195.82a34.36,34.36,0,0,1-4.72.31h-2.74V192h5.54v-2.29h-5.56v-.8h6.49v3.89H181v2.58h1.81a31.1,31.1,0,0,0,4.62-.31Zm4,2.21V203h-.92v-4.15h-9.09V198Zm-.92-.85v-2.86h-3v-.77h3v-2.43h-3v-.77h3V188h.93v9.21Z"/><path d="M200.31,194.56v3.57a23.57,23.57,0,0,0,5.31-.43l.13.81a28.38,28.38,0,0,1-6.37.48v-9.18h5.4v.8h-4.47v3.15H204v.8Zm4.64-.16v-.8h2.34v-5.25h.93v13.7h-.93V194.4Zm5.3,8.45V188h.93v14.88Z"/><path d="M213.38,200.74v-.8h13.45v.8Zm12.28-4.29c-2.77-.93-5.11-3.23-5.57-4.52-.39,1.27-2.61,3.59-5.56,4.47l-.48-.74c2.44-.54,5.57-3,5.57-5.34v-1h.95v1c0,2.32,3.3,4.78,5.62,5.36Z"/><path d="M228.1,200.91v-.8h13.45v.8Zm2.74-7.37v2.68h9v.8h-9.92v-7.53h9.76v.8h-8.83v2.46h8.42v.79Z"/><path d="M242.82,195.82v-.75h13.45v.75Zm1.7,6.66v-3.13h9.07V198h-9.1v-.8h10v2.93h-9.09v1.53h9.64v.8Zm.09-8.83v-3h8.92v-1.35h-8.95v-.8h9.88v3h-8.92v1.36h9.17v.8Z"/><path d="M269.21,194.27V196h6.26v.82H262V196h6.28v-1.73h-4.47v-5.46h9.76v.8h-8.83v1.46h8.39v.8h-8.39v1.6h8.91v.8Zm-.47,8.55c-3.28,0-5.1-1-5.1-2.55s1.82-2.56,5.1-2.56,5.13,1,5.13,2.56S272,202.82,268.74,202.82Zm0-4.29c-2.56,0-4.14.69-4.14,1.74s1.58,1.73,4.14,1.73,4.18-.67,4.18-1.73S271.3,198.53,268.74,198.53Z"/><path d="M276.76,192.4v-.8h7.46v.8Zm3.82,6.8a2.83,2.83,0,0,1-3-2.8,3.05,3.05,0,1,1,3,2.8Zm0-4.8a2,2,0,1,0,0,4,2,2,0,0,0,2.15-2A2,2,0,0,0,280.58,194.4Zm-2-4.35v-.82h3.92v.82Zm9.73,12.8V195.1H286.1v7h-.92v-13.7h.92v5.94h2.23V188h.93v14.88Z"/><path d="M296.74,196.14v-7.29h.93v2.83h4.56v-2.83h.93v7.29Zm5.49-3.66h-4.56v2.86h4.56Zm.93,10.39c-3.12,0-5-1.07-5-2.79s1.87-2.78,5-2.78,5,1,5,2.78S306.28,202.87,303.16,202.87Zm-4-2.79c0,1.2,1.55,2,4,2s4-.76,4-2-1.59-2-4-2S299.14,198.87,299.14,200.08Zm8.9-2.7h-.93v-3.11H304v-.8h3.1V191.1H304v-.8h3.1V188H308Z"/><path d="M314.82,198.59v-2.73c-1.34.08-2.62.09-4.05.12l-.22-.86c1.81,0,3.34-.05,4.94-.1s3.14-.16,4.66-.32l.08.76c-.89.11-2.77.22-4.48.33v2.8Zm.51-4.46c-2.24,0-3.69-1.06-3.69-2.68s1.45-2.73,3.69-2.73,3.69,1.12,3.69,2.72S317.51,194.13,315.33,194.13Zm0-4.58c-1.6,0-2.75.72-2.75,1.89s1.22,1.86,2.75,1.86,2.74-.69,2.74-1.86S317,189.55,315.33,189.55Zm-2.59,12.93v-4.22h.93v3.42h9.38v.8Zm9.05-3.18v-1.68h-3v-.82h3V188h.92V199.3Z"/><path d="M329.57,192.7v1a6,6,0,0,0,3.29,5.15l-.6.75a7.43,7.43,0,0,1-3.15-4,7.54,7.54,0,0,1-3.17,4.37l-.61-.64a6.9,6.9,0,0,0,3.27-5.6v-1h-3v-.8h7v.8Zm-2.43-3.34h3.92v.83h-3.92Zm4.37,5.86v-.8H334v-6.07h.93v13.7H334v-6.83Zm5.46,7.63V188h.93v14.88Z"/><path d="M346.63,193.94h2.16v-5.69h1V202.1h-1v-7.36h-2.16c-.1,2.88-1.23,4.53-3.09,4.53s-3.12-1.81-3.12-5,1.15-4.95,3.12-4.95S346.55,191,346.63,193.94Zm-3.09-3.77c-1.31,0-2.18,1.52-2.18,4.15s.87,4.15,2.18,4.15,2.16-1.53,2.16-4.15S344.84,190.17,343.54,190.17Zm8.13,12.68V188h.95v14.88Z"/><path d="M366.47,195.84V200h6.28v.82H359.3V200h6.24v-4.13h-4.48v-6.48H362V195h9.14v.82Z"/><path d="M375.76,202.66v-3.27h9V198h-9v-.8h4.54v-1.44H374V195h13.45v.8h-6.28v1.44h4.47v3h-9v1.67h9.59v.8Zm10.46-8.44c-2.13-.32-4.74-1.15-5.48-2.54-.7,1.46-3.13,2.24-5.39,2.58l-.43-.77c2.35-.29,4.8-1.07,5.28-2.56h-4.67v-.8H386v.8H381.3c.53,1.49,3.22,2.25,5.35,2.53Zm-7.8-5.21v-.8h4.66v.8Z"/><path d="M394.05,195.26v3.49c1.77-.08,3.62-.24,4.47-.35l.06.8c-1,.11-3,.29-4.78.39s-4,.14-4.82.14l-.16-.9c1,0,2.56,0,4.31,0v-3.53H390V189.5h7.4v.8H391v4.16h6.59v.8Zm5.8,7.59V188h.93v14.88Z"/><path d="M403.46,196.64v-.82h13.45v.82Zm1.9-3.1v-5.06h.93v4.26h9v.8Zm0,8.93v-4.31h.93v3.51h9v.8Z"/><path d="M424.21,195.18h.85a29,29,0,0,0,6-.48l.11.82a33.19,33.19,0,0,1-6.29.48h-1.57v-6.63h6.52v.8h-5.59Zm.77,7.13v-4.45h.91v3.63h8.79v.82Zm9-9.11v5.59h-.93V188H434v4.43h2.35v.8Z"/><path d="M443.69,189.89c-.16,4.4-2.32,7.39-5.7,9.6l-.66-.75a10.24,10.24,0,0,0,5.36-8.05H438v-.8Zm2.51,12.16v-5.3h-2.74V196h2.74v-3h-2.48v-.79h2.48v-3.83h.93v13.7Zm2.77.8V188h.93v14.88Z"/><path d="M452.1,200.91v-.8h6.24v-2.93h-4.43v-4.52h8.85V190h-8.84v-.81h9.77v4.29h-8.85v2.93h9.3v.79h-4.87v2.93h6.28v.8Z"/><path d="M10.07,229.06v-9.75H11v3.84h4.79v-3.84h.92v9.75ZM15.79,224H11v4.31h4.79Zm5,1v7.95h-.93V218h.93v6.14h2.53v.79Z"/><path d="M28.52,219.15c2.16,0,3.6,2,3.6,5.22s-1.44,5.2-3.6,5.2-3.6-2-3.6-5.22S26.36,219.15,28.52,219.15Zm0,.83c-1.6,0-2.64,1.87-2.64,4.39s1,4.37,2.64,4.37,2.64-1.89,2.64-4.37S30.12,220,28.52,220Zm6.8,12.87V218h.93v14.88Z"/><path d="M47.32,228.69a50.21,50.21,0,0,1-6.27.48c-.51,0-1,0-1.56,0v-5.57H45.1v-3.43H39.49v-.8H46v5H40.42v3.92a49.32,49.32,0,0,0,6.82-.48ZM50,232.85v-8.11H47v-.8h3v-6H51v14.88Z"/><path d="M53.61,230.74v-.8H67.05v.8Zm12.27-4.29c-2.77-.93-5.1-3.23-5.57-4.52-.38,1.27-2.61,3.59-5.55,4.47l-.48-.74c2.43-.54,5.57-3,5.57-5.34v-1h.94v1c0,2.32,3.3,4.78,5.62,5.36Z"/><path d="M72.81,230.91v-.8h3.85v-3.53h.93v3.53h3.86v-3.53h.93v3.53h3.87v.8Zm1.34-10.69v-.81H84.84v.81Zm0,5.59V225h2.5l-.45-3.81,1-.11.34,3.92h3.9l.5-3.89.94.1L82.31,225h2.53v.82Z"/><path d="M88.29,226.14v-6.77H94.9v6.77Zm5.7-6H89.22v5.17H94Zm-3.84,12.12v-4.51h.91v3.69H100v.82Zm5.4-10.84v-.8H98.7V218h.93v10.8H98.7v-4H95.55V224H98.7v-2.52Z"/><path d="M112.36,229c-1.13.13-3.14.26-5.06.37-1.77.08-3.57.13-4.67.16l-.18-.88c1,0,2.82,0,4.69-.11s4.2-.23,5.14-.34Zm-1.55-6.42a3.85,3.85,0,1,1-3.83-3.38C109.06,219.21,110.81,220.51,110.81,222.59Zm-6.68,0a2.63,2.63,0,0,0,2.85,2.55c1.73,0,2.87-1,2.87-2.53a2.57,2.57,0,0,0-2.87-2.55A2.6,2.6,0,0,0,104.13,222.59ZM114.3,218v14.88h-.93V218Z"/><path d="M123,225.18h.85a29.12,29.12,0,0,0,6-.48l.11.82a33.25,33.25,0,0,1-6.29.48h-1.57v-6.63h6.51v.8H123Zm.77,7.13v-4.45h.91v3.63h8.79v.82Zm9-9.11v5.59h-.93V218h.93v4.43h2.35v.8Z"/><path d="M137,225.71V219h.92v2.38h3.86V219h.93v6.7Zm4.78-3.52h-3.86v2.72h3.86Zm6,10.66v-4.42h-9v-.8h9.89v5.22Zm0-6v-4.11h-2.19v4h-.93v-8.45h.93v3.66h2.19V218h.93v8.86Z"/><path d="M151.54,219h8v.8H156v.57c0,2,2,3.77,3.81,4.39-.19.24-.35.51-.53.75a7.49,7.49,0,0,1-3.74-3.36c-.39,1.36-2.17,3-3.86,3.76-.16-.22-.34-.48-.51-.7,1.84-.75,3.93-2.8,3.93-4.77v-.64h-3.52Zm2.05,13.78v-3.62h8.5v-1.74h-8.58v-.8H163v3.34h-8.5v2h9.11v.8Zm8.47-7V218H163v7.74Z"/><path d="M165.61,226.61v-.8h13.44v.8Zm6.72-2.4c-3.28,0-5.06-1.07-5.06-2.8s1.78-2.82,5.06-2.82,5.07,1.09,5.07,2.82S175.61,224.21,172.33,224.21Zm-4.92,8.16v-4.1h.93v3.29h9.06v.81Zm4.92-13c-2.56,0-4.1.78-4.1,2s1.54,2,4.1,2,4.13-.77,4.13-2S174.89,219.41,172.33,219.41Z"/><path d="M184.82,226.77V226h13.43v.82Zm11.64,1.55V233h-.91v-3.84h-9.24v-.82Zm-8.92-6.43v1.71h8.84v.8h-9.77v-5.68h9.78v.8h-8.85v1.57H196v.8Z"/><path d="M200.05,219.17h7.83v.8h-3.47v1c0,2,1.87,3.84,3.71,4.43l-.53.79a7.51,7.51,0,0,1-3.68-3.49c-.37,1.36-2.13,3.07-3.82,3.87l-.52-.69c1.88-.75,3.94-2.89,3.94-4.93v-1h-3.46Zm6.69,13.67c-3.26,0-5-1.08-5-2.74s1.76-2.74,5-2.74,5,1.07,5,2.74S210,232.84,206.74,232.84Zm-4-2.74c0,1.17,1.49,1.92,4,1.92s4-.75,4-1.92-1.47-1.92-4-1.92S202.71,228.93,202.71,230.1Zm4.93-7.44v-.81h3.06V218h.93v9.2h-.93v-4.51Z"/><path d="M214.21,221.69v-.8h8.47v.8Zm4.18,6c-1.87,0-3.33-1-3.33-2.57s1.44-2.56,3.33-2.56,3.36,1,3.36,2.56S220.3,227.71,218.39,227.71Zm0-4.33c-1.31,0-2.4.68-2.4,1.76s1.1,1.77,2.4,1.77,2.43-.65,2.43-1.77S219.72,223.38,218.39,223.38Zm-2-3.83v-.8h4.21v.8Zm.11,12.74v-3.66h.93v2.84h8.89v.82Zm9.13-8.16v4.69h-.93V218h.93v5.36h2.35v.8Z"/><path d="M239.72,228.27v-2.33h-6.28v-.82h13.45v.82h-6.26v2.33h4.53V233h-.93v-3.91H235v-.8Zm5.94-4.67a8.26,8.26,0,0,1-5.49-3.51c-.52,1.3-2.63,3-5.41,3.53l-.48-.79c2.49-.27,5.42-2.16,5.42-4.16v-.53h1v.53c0,2,3.13,3.84,5.47,4.13Z"/><path d="M254.41,232.85v-5.44h-6.25v-.8h13.45v.8h-6.27v5.44Zm6-7.86c-2.75-.53-4.91-2.05-5.52-3.36-.53,1.3-2.6,2.87-5.44,3.36l-.47-.8c2.51-.29,5.44-1.9,5.44-4V220h-4.86v-.8H260.2v.8h-4.83v.27c0,2.08,3.25,3.68,5.5,3.94Z"/><path d="M273,229c-1.14.13-3.14.26-5.06.37-1.77.08-3.57.13-4.67.16l-.18-.88c1,0,2.82,0,4.69-.11s4.2-.23,5.14-.34Zm-1.55-6.42a3.85,3.85,0,1,1-3.83-3.38C269.7,219.21,271.45,220.51,271.45,222.59Zm-6.68,0a2.63,2.63,0,0,0,2.85,2.55c1.73,0,2.87-1,2.87-2.53a2.57,2.57,0,0,0-2.87-2.55A2.6,2.6,0,0,0,264.77,222.59ZM274.94,218v14.88H274V218Z"/><path d="M289,229.06a9.4,9.4,0,0,1-3.1-4.6,8.62,8.62,0,0,1-3.22,5l-.67-.76a7.9,7.9,0,0,0,3.39-6.46v-2.69h.94v2.66a7.86,7.86,0,0,0,3.29,6.16Zm1.78,3v-7.76H288v-.8h2.76v-5.14h.93v13.7Zm2.94.8V218h.93v14.88Z"/><path d="M304,226.37v3.74h6.27v.8H296.8v-.8h6.25v-3.74h-4.9v-.8h2.51l-.41-4.24,1-.19.31,4.43h3.9l.56-4.4,1,.17-.64,4.23h2.51v.8Zm-5.83-6v-.81h10.69v.81Z"/><path d="M311.52,225.82v-.75H325v.75Zm1.7,6.66v-3.13h9.08V228h-9.11v-.8h10v2.93h-9.09v1.53h9.64v.8Zm.1-8.83v-3h8.91v-1.35h-9v-.8h9.88v3h-8.91v1.36h9.17v.8Z"/><path d="M338.74,222.56a3.82,3.82,0,1,1-3.81-3.62A3.64,3.64,0,0,1,338.74,222.56Zm-6.74,0a2.85,2.85,0,0,0,2.93,2.82,2.81,2.81,0,1,0,0-5.62A2.84,2.84,0,0,0,332,222.56Zm1.22,9.73v-4.48h.93v3.68h9.07v.8Zm8.68-3.52V218h.92v10.8Z"/><path d="M353.54,225.82A7.14,7.14,0,0,1,350,222.1a7.7,7.7,0,0,1-3.72,4.16l-.62-.72a6.17,6.17,0,0,0,3.81-5.35V218.7h.94v1.47c0,2.44,2.07,4.28,3.75,4.92Zm3.08,7v-4.34H347.7v-.81h9.85v5.15Zm0-6V218h.93v8.88Z"/><path d="M360.13,222.4v-.8h8.73v.8Zm4.47,7.17a3,3,0,1,1,3.39-3A3.11,3.11,0,0,1,364.6,229.57Zm0-5.2a2.21,2.21,0,1,0,2.46,2.21A2.3,2.3,0,0,0,364.6,224.37Zm-2.31-4.45v-.82h4.24v.82Zm9.21,5.23v7.7h-.93V218h.93v6.4H374v.78Z"/><path d="M374.88,230.91v-.8h6.25V226h-4.44v-6.66h9.89v.8h-9v5.06h9v.8h-4.58v4.14h6.28v.8Z"/><path d="M396.77,224.43v1.81h6.28v.8H389.6v-.8h6.25v-1.81H391.4V221h8.91v-1.68h-8.95v-.8h9.88v3.28h-8.92v1.81h9.14v.8Zm4.47,4.2V233h-.91v-3.54h-9.22v-.81Z"/><path d="M408.8,230.91v-.8h6.25V226h-4.44v-6.66h9.89v.8h-9v5.06h9v.8H416v4.14h6.28v.8Z"/><path d="M431.77,222.48a3.41,3.41,0,0,1-3.28,3.33v2.67c1.74-.09,3.5-.24,4.4-.37l.08.8c-1,.15-3,.32-4.8.45s-3.32.15-4.61.15l-.18-.87c1,0,2.54,0,4.19-.09v-2.73a3.43,3.43,0,0,1-3.39-3.32,3.5,3.5,0,0,1,3.79-3.37C430,219.13,431.77,220.41,431.77,222.48Zm-6.63,0A2.62,2.62,0,0,0,428,225c1.72,0,2.84-1,2.84-2.51A2.54,2.54,0,0,0,428,220,2.58,2.58,0,0,0,425.14,222.48Zm9.68,2.66v7.71h-.92V218h.92v6.37h2.56v.8Z"/><path d="M444.49,229.59v-3.08h-6.25v-.81h13.45v.81h-6.28v3.08Zm1-10v.16c0,2,3.23,3.53,5.52,3.81l-.45.8c-2.71-.52-4.9-1.9-5.55-3.2-.53,1.28-2.73,2.69-5.49,3.2l-.45-.81c2.46-.29,5.47-1.76,5.47-3.8v-.16h-4.94v-.8h10.77v.8Zm-5.4,12.71v-4.24H441v3.43h9.24v.81Z"/><path d="M455.59,228.21a36.12,36.12,0,0,0,6.21-.5l.11.79a42.74,42.74,0,0,1-6.43.53h-1.81V219.5h6.75v.8H454.6v7.91ZM464.3,224h2.54v.8H464.3v8h-.93V218h.93Z"/><path d="M467.84,230H469v1.06h-1.11Z"/></g></g></svg>