<svg xmlns="http://www.w3.org/2000/svg" viewBox="0 0 301.42 270.01"><defs><style>.cls-1{fill:none;stroke-width:0.27px;}.cls-1,.cls-2{stroke:#000;stroke-miterlimit:10;}.cls-2{fill:lime;stroke-width:0.36px;}</style></defs><g id="레이어_2" data-name="레이어 2"><g id="그래픽"><path d="M165.32,38.27V35L177.09,21.9c1.06-1.17,1.94-2.21,2.64-3.11a18.77,18.77,0,0,0,1.71-2.52,9.2,9.2,0,0,0,.91-2.16,8.25,8.25,0,0,0,.27-2.11,7.1,7.1,0,0,0-.43-2.5,5.87,5.87,0,0,0-1.25-2,6.18,6.18,0,0,0-2-1.37,6.59,6.59,0,0,0-2.65-.51,8.39,8.39,0,0,0-3.12.52A5.77,5.77,0,0,0,171,7.56a6.09,6.09,0,0,0-1.32,2.32,9.86,9.86,0,0,0-.43,3h-4.59a11.54,11.54,0,0,1,.79-4.28,10.07,10.07,0,0,1,2.29-3.51,10.7,10.7,0,0,1,3.64-2.4,12.94,12.94,0,0,1,4.93-.89,13.21,13.21,0,0,1,4.58.75,10,10,0,0,1,3.44,2.09,9,9,0,0,1,2.16,3.16,10.36,10.36,0,0,1,.75,4,9.75,9.75,0,0,1-.54,3.18,16.63,16.63,0,0,1-1.46,3.09,27.65,27.65,0,0,1-2.15,3c-.82,1-1.68,2-2.59,3l-9.65,10.47h18.05v3.73Z"/><path d="M207.58,39a12.74,12.74,0,0,1-3.14,4.32l-2.84-1.56a11.34,11.34,0,0,0,1.68-3.68,16.26,16.26,0,0,0,.5-4V29.6h5v4.34A12.22,12.22,0,0,1,207.58,39ZM203.75,7.92a3.35,3.35,0,0,1,2.69-1,3.44,3.44,0,0,1,2.7,1,3.61,3.61,0,0,1,.93,2.51,3.39,3.39,0,0,1-.94,2.44,3.52,3.52,0,0,1-2.69,1,3.42,3.42,0,0,1-2.68-1,3.51,3.51,0,0,1-.9-2.43A3.75,3.75,0,0,1,203.75,7.92Z"/><path d="M248.93,24.46a18.44,18.44,0,0,1-10.72-8.55c-1.37,3.82-6.14,7.82-11,9.55l-2-2.91c5.46-1.64,10.87-6.41,11.1-11.68h-9.6v-3h23.05v3h-9.68c.23,5.13,5.64,9.45,10.77,10.59ZM232,41.69V27.23h27.6V41.69Zm.55-37.51V1.09h11.5V4.18Zm23.36,26.1H235.71v8.36h20.22Zm0-5.41V0h3.68V24.87Z"/><path d="M289.69,12c0,6-4.91,9.77-10.86,9.77S268,18,268,12s4.91-9.91,10.87-9.91S289.69,6,289.69,12Zm-18,0c0,4,3,6.72,7.18,6.72C283.15,18.68,286,16,286,12s-2.82-6.73-7.18-6.73C274.69,5.27,271.65,8,271.65,12Zm2.5,29.73V25h3.68v5.36h19.91V25h3.68V41.69Zm23.59-8.37H277.83v5.37h19.91Zm0-10.68V0h3.68V22.64Z"/><path d="M7.38,204.26a3.52,3.52,0,0,1-3.68,3.55,3.54,3.54,0,1,1,0-7.07A3.5,3.5,0,0,1,7.38,204.26Zm-6.46,0A2.69,2.69,0,0,0,3.7,207a2.69,2.69,0,1,0,0-5.38A2.68,2.68,0,0,0,.92,204.26Zm1.44,9.64v-4.58h.92v3.79h8.77v.79ZM8,204.71v-.81h2.82v-4.19h.92v10.77h-.92v-5.77Z"/><path d="M18.2,200.79c2.14,0,3.57,2,3.57,5.17s-1.43,5.15-3.57,5.15-3.57-2-3.57-5.17S16.06,200.79,18.2,200.79Zm0,.82c-1.59,0-2.62,1.86-2.62,4.35s1,4.33,2.62,4.33,2.61-1.87,2.61-4.33S19.78,201.61,18.2,201.61Zm4.31,4.7v-.79h2.92v-5.81h.92v14.75h-.92v-8.15Z"/><path d="M29.48,201.22h7.74V202H33.79v1.18c0,1.95,1.84,3.77,3.67,4.37l-.51.76a7.2,7.2,0,0,1-3.65-3.42c-.36,1.35-2.16,3-3.84,3.82L29,208c1.86-.74,3.94-2.85,3.94-4.85V202H29.48Zm2.08,12.68v-4.45h.9v3.65h8.8v.8ZM40,210.51v-5.76H37V204h3v-4.24h.92v10.8Z"/><path d="M51.13,204a3.66,3.66,0,1,1-3.64-3.41A3.45,3.45,0,0,1,51.13,204Zm-6.39,0a2.63,2.63,0,0,0,2.75,2.62,2.61,2.61,0,1,0,0-5.22A2.62,2.62,0,0,0,44.74,204Zm1.51,10.28V209h9.31v5.2Zm8.4-4.4H47.17v3.59h7.48Zm-3.09-8h3.06v-2.09h.92v8.58h-.92V206H51.56v-.74h3.06v-2.73H51.56Z"/><path d="M63.21,210.7V201h.92v3.81h4.74V201h.92v9.66Zm5.66-5.06H64.13v4.27h4.74Zm4.95.94v7.88H72.9V199.71h.92v6.09h2.5v.78Z"/><path d="M81.5,200.89c2.14,0,3.57,2,3.57,5.17s-1.43,5.15-3.57,5.15-3.57-2-3.57-5.17S79.36,200.89,81.5,200.89Zm0,.82c-1.58,0-2.61,1.85-2.61,4.35s1,4.32,2.61,4.32,2.62-1.87,2.62-4.32S83.09,201.71,81.5,201.71Zm6.74,12.75V199.71h.92v14.75Z"/><path d="M100.14,210.34a51.56,51.56,0,0,1-6.21.47c-.51,0-1,0-1.54,0v-5.52h5.55v-3.39H92.39v-.8h6.47v5H93.31V210a48.29,48.29,0,0,0,6.75-.48Zm2.7,4.12v-8h-3v-.79h3v-5.92h.9v14.75Z"/><path d="M106.38,212.37v-.8H119.7v.8Zm12.16-4.25c-2.74-.92-5.05-3.21-5.51-4.48-.38,1.26-2.59,3.56-5.51,4.43l-.47-.73c2.41-.54,5.52-3,5.52-5.3v-1h.93v1c0,2.3,3.27,4.74,5.57,5.31Z"/><path d="M121,208.31v-.81H134.3v.81Zm1.89-3.08v-5h.92v4.22h8.91v.79Zm0,8.85v-4.27h.92v3.48h9v.79Z"/><path d="M147.61,201.33c-.06,5-3.31,8.26-6.81,10.08l-.56-.73c3.85-2,6.12-5.07,6.39-8.56h-5.72v-.79Zm3.46,13.13V199.71H152v14.75Z"/><path d="M154.62,208.56v-.79h6.18v-2.48h.92v2.48h6.22v.79Zm7.13-7.2v.16c0,2,3.21,3.49,5.47,3.77l-.44.8c-2.68-.53-4.85-1.89-5.5-3.17-.53,1.26-2.7,2.66-5.44,3.17l-.45-.81c2.45-.29,5.43-1.75,5.43-3.76v-.16h-4.9v-.79h10.67v.79ZM156.38,214v-4.07h.9v3.26h9.31V214Z"/><path d="M179.23,210.65c-1.12.13-3.1.26-5,.37-1.76.08-3.53.13-4.63.16l-.17-.88c1,0,2.79,0,4.64-.11s4.16-.22,5.09-.33Zm-1.53-6.36a3.82,3.82,0,1,1-3.79-3.34C176,201,177.7,202.23,177.7,204.29Zm-6.62,0a2.61,2.61,0,0,0,2.83,2.53,2.53,2.53,0,1,0,0-5A2.57,2.57,0,0,0,171.08,204.29Zm10.07-4.58v14.75h-.92V199.71Z"/><path d="M194.47,209.92v-2.31h-6.22v-.81h13.32v.81h-6.2v2.31h4.49v4.67h-.92v-3.87h-9.2v-.8Zm5.88-4.63a8.22,8.22,0,0,1-5.44-3.47c-.51,1.29-2.6,3-5.36,3.49l-.47-.78c2.47-.27,5.37-2.14,5.37-4.12v-.52h.94v.52c0,2,3.11,3.81,5.42,4.09Z"/><path d="M209,214.46v-5.39h-6.18v-.8h13.32v.8H210v5.39Zm5.95-7.79c-2.73-.52-4.87-2-5.47-3.33-.53,1.29-2.57,2.84-5.39,3.33l-.46-.79c2.49-.29,5.39-1.89,5.39-3.93v-.27h-4.82v-.79h10.54v.79H210V202c0,2.06,3.22,3.64,5.46,3.9Z"/><path d="M227.47,210.65c-1.13.13-3.11.26-5,.37s-3.54.13-4.63.16l-.18-.88c1,0,2.79,0,4.65-.11s4.15-.22,5.09-.33Zm-1.54-6.36a3.82,3.82,0,1,1-3.79-3.34C224.2,201,225.93,202.23,225.93,204.29Zm-6.61,0a2.6,2.6,0,0,0,2.82,2.53,2.53,2.53,0,1,0,0-5A2.56,2.56,0,0,0,219.32,204.29Zm10.07-4.58v14.75h-.92V199.71Z"/><path d="M237.24,207.81v-6.7h6.55v6.7Zm5.65-5.91h-4.73V207h4.73Zm-3.81,12v-4.47H240v3.67h8.8v.8Zm5.35-10.73v-.79h3.12v-2.67h.92v10.71h-.92v-4h-3.12v-.79h3.12v-2.49Z"/><path d="M258.66,204a3.66,3.66,0,1,1-3.65-3.41A3.45,3.45,0,0,1,258.66,204Zm-6.39,0a2.63,2.63,0,0,0,2.74,2.62,2.61,2.61,0,1,0,0-5.22A2.62,2.62,0,0,0,252.27,204Zm10.8,5.28v5.23h-.92v-4.42h-8.82v-.81Zm-4-7.45h3.06v-2.08h.92v8.72h-.92V206h-3.06v-.76h3.06v-2.71h-3.06Z"/><path d="M274.28,204.41v.93a5.94,5.94,0,0,0,3.25,5.11l-.59.74a7.43,7.43,0,0,1-3.13-4,7.47,7.47,0,0,1-3.14,4.33l-.6-.64a6.84,6.84,0,0,0,3.24-5.55v-1h-3v-.8h6.91v.8Zm-2.42-3.32h3.89v.83h-3.89Zm4.33,5.81v-.8h2.48v-6h.92v13.58h-.92V206.9Zm5.41,7.56V199.71h.92v14.75Z"/><path d="M291,201.61c-.15,4.37-2.29,7.33-5.64,9.52l-.65-.75a10.13,10.13,0,0,0,5.31-8h-4.61v-.8Zm2.5,12.06v-5.25h-2.72v-.8h2.72v-3H291v-.79h2.46v-3.79h.92v13.58Zm2.74.79V199.71h.92v14.75Z"/><path d="M18,235.64v-.8H31.3v.8Zm12.16-2.09c-2.68-.54-4.85-1.89-5.5-3.17-.53,1.27-2.7,2.63-5.44,3.14l-.45-.78c2.41-.3,5.36-1.69,5.43-3.71h-4.9v-.79H30V229H25.11c.07,2,3.22,3.43,5.47,3.71Zm-.56,4v4.84h-.92v-4H19.47v-.81Z"/><path d="M33,239.43h1.13l-1.24,3.3H32.3Z"/><path d="M47.88,229.1c-.06,5-3.31,8.26-6.82,10.08l-.55-.73c3.85-2,6.12-5.07,6.39-8.56H41.17v-.79Zm3.46,13.12V227.48h.92v14.74Z"/><path d="M54.88,236.33v-.8h6.18v-2.47H62v2.47H68.2v.8Zm7.14-7.2v.16c0,2,3.2,3.48,5.47,3.77l-.45.79c-2.68-.52-4.85-1.88-5.5-3.17-.52,1.27-2.7,2.66-5.44,3.17l-.44-.81c2.44-.28,5.42-1.74,5.42-3.75v-.16h-4.9v-.8H66.85v.8Zm-5.38,12.59v-4.08h.9v3.27h9.31v.81Z"/><path d="M79.5,238.42c-1.13.12-3.11.25-5,.36s-3.54.13-4.63.16l-.18-.87c1,0,2.79,0,4.65-.11s4.15-.22,5.09-.33ZM78,232.06a3.82,3.82,0,1,1-3.79-3.35C76.23,228.71,78,230,78,232.06Zm-6.61,0a2.59,2.59,0,0,0,2.82,2.52c1.71,0,2.84-1,2.84-2.5a2.85,2.85,0,0,0-5.66,0Zm10.07-4.58v14.74H80.5V227.48Z"/><path d="M89.31,235.09v-6.44h5.74v6.44Zm4.82-5.65h-3.9v4.86h3.9ZM100,242.22v-4.45H91.12V237h9.8v5.23Zm0-6v-4H97.79v3.89h-.92v-8.31h.92v3.63H100v-3.9h.92v8.72Z"/><path d="M111.84,235.22a48.3,48.3,0,0,1-5.25.44c-.89,0-1.84,0-2.87,0v-4.22h5.47v-2.23h-5.47v-.8h6.39v3.83h-5.47v2.61h.66a42.37,42.37,0,0,0,6.42-.47Zm2.52,2.14v4.85h-.94v-4.06h-8.58v-.79Zm0-5.05v4.21h-.92v-9h.92v4h2.33v.79Z"/><path d="M122.15,235.79V235h6.2v-2.45h.92V235h6.2v.8Zm12.15-2.7a8.41,8.41,0,0,1-5.49-3.5c-.51,1.28-2.65,3-5.41,3.52l-.47-.78c2.47-.27,5.42-2.12,5.42-4.11v-.54h.94v.54c0,2,3.15,3.79,5.47,4.08Zm-.54,4.55v4.71h-.92v-3.9h-9.2v-.81Z"/><path d="M148.8,232a3.69,3.69,0,1,1-3.68-3.52A3.51,3.51,0,0,1,148.8,232Zm-6.45,0a2.68,2.68,0,0,0,2.77,2.69,2.69,2.69,0,1,0,0-5.37A2.68,2.68,0,0,0,142.35,232Zm1.44,9.64v-4.58h.92v3.79h8.77v.79Zm5.65-9.2v-.81h2.82v-4.18h.92v10.76h-.92v-5.77Z"/><path d="M159.63,228.55c2.14,0,3.57,2,3.57,5.18s-1.43,5.15-3.57,5.15-3.57-2-3.57-5.17S157.49,228.55,159.63,228.55Zm0,.83c-1.59,0-2.62,1.86-2.62,4.35s1,4.32,2.62,4.32,2.61-1.87,2.61-4.32S161.21,229.38,159.63,229.38Zm4.31,4.69v-.79h2.92v-5.8h.92v14.74h-.92v-8.15Z"/><path d="M179,232.17v.94a5.91,5.91,0,0,0,3.25,5.1l-.58.75a7.41,7.41,0,0,1-3.13-4,7.44,7.44,0,0,1-3.14,4.33l-.6-.63a6.86,6.86,0,0,0,3.24-5.55v-1h-3v-.79H182v.79Zm-2.41-3.31h3.89v.82h-3.89Zm4.33,5.8v-.79h2.48v-6h.91v13.57h-.91v-6.77Zm5.41,7.56V227.48h.92v14.74Z"/><path d="M195.67,229.38c-.16,4.36-2.3,7.33-5.64,9.52l-.65-.75a10.15,10.15,0,0,0,5.31-8h-4.62v-.79Zm2.49,12.05v-5.25h-2.71v-.79h2.71v-2.95H195.7v-.79h2.46v-3.79h.92v13.57Zm2.74.79V227.48h.92v14.74Z"/><path d="M204,235.26v-.74h13.32v.74Zm1.68,6.6v-3.11h9v-1.31h-9v-.8h9.94v2.9h-9v1.53h9.54v.79Zm.1-8.75v-2.94h8.83v-1.33h-8.86v-.79h9.78V231h-8.83v1.34h9.08v.8Z"/><path d="M229.25,242.24v-5.17h-6.19v-.79h13.32v.79h-6.21v5.17Zm-4.38-8.18v-5.68h9.72v5.68Zm8.8-4.89h-7.88v4.1h7.88Z"/><path d="M246.21,238a47,47,0,0,1-6.43.6h-1.33v-9.45h.92v8.62a36.09,36.09,0,0,0,6.71-.61Zm2.5-10.53h.92v14.74h-.92v-8.94H244v-.79h4.76Z"/><path d="M252.25,240.16v-.81h13.33v.81Zm6.41-5a28.73,28.73,0,0,1-5.14.46v-6.43h4.78V230h-3.86v4.79a20.78,20.78,0,0,0,4.1-.41Zm.56.42v-6.43h5.06V230h-4.14v4.85h4.28v.8Z"/><path d="M269.7,238.56c-.58,0-1.23,0-2,0v-5.42h5.75v-3.49h-5.82v-.79h6.73V234h-5.74v3.83h.65a39.76,39.76,0,0,0,7-.51c0,.28.08.54.11.81A46.78,46.78,0,0,1,269.7,238.56Zm9.11-11.08v14.74h-.91V227.48Z"/><path d="M281.45,240v-.79h5.45v-5.26h.92v5.26h6.95V240Zm11.38-8.61a28.84,28.84,0,0,1-.57,5.9l-.88-.17a25.11,25.11,0,0,0,.5-5.35v-1.87h-9v-.79h9.91Z"/><path d="M296.43,239.43h1.12l-1.23,3.3h-.54Z"/><path d="M23.16,266.45a10.38,10.38,0,0,1-3.76-4.72,10.84,10.84,0,0,1-3.77,5.11l-.67-.77c2-1.25,4-4.06,4-6.47v-2H15.53v-.79h7.85v.79h-3.5v1.95c0,2.54,2,5,3.9,6.09Zm3.28-4.28V270h-.92V255.24h.92v6.14H29v.79Z"/><path d="M37.84,263.54a7.26,7.26,0,0,1-3.56-3.78A7.74,7.74,0,0,1,30.61,264l-.62-.72a6.23,6.23,0,0,0,3.77-5.39V256.1h.94v1.74a5.79,5.79,0,0,0,3.71,5Zm-5.38,6v-4.43h.91v3.62h8.75v.81ZM40.88,266V255.24h.92V266Z"/><path d="M54.43,266.18c-1.12.13-3.11.26-5,.37s-3.54.13-4.63.16l-.17-.87c1,0,2.79,0,4.64-.11s4.16-.23,5.09-.34Zm-1.54-6.35a3.5,3.5,0,0,1-3.79,3.36,3.38,3.38,0,1,1,0-6.71C51.16,256.48,52.89,257.76,52.89,259.83Zm-6.61,0a2.6,2.6,0,0,0,2.82,2.52c1.72,0,2.84-1,2.84-2.51a2.54,2.54,0,0,0-2.84-2.52A2.56,2.56,0,0,0,46.28,259.83Zm10.07-4.59V270h-.92V255.24Z"/><path d="M67.08,270V264.5H63.45v-.8H76.77v.8H73.11V270H72.2V264.5H68V270Zm3-7.74c-3.17,0-5-1.27-5-3.12s1.84-3.14,5-3.14,5,1.28,5,3.14S73.27,262.25,70.09,262.25ZM66,259.13c0,1.38,1.54,2.31,4.06,2.31s4.08-.93,4.08-2.31-1.52-2.33-4.08-2.33S66,257.75,66,259.13Z"/><path d="M85.66,259.79A3.69,3.69,0,1,1,82,256.27,3.53,3.53,0,0,1,85.66,259.79Zm-6.46,0a2.7,2.7,0,0,0,2.78,2.7,2.69,2.69,0,1,0,0-5.38A2.68,2.68,0,0,0,79.2,259.79Zm1.45,9.64V265h.92v3.6h8.77v.79Zm5.4-11.22v-.75h3.06v-2.22H90V266h-.92v-4H86.05v-.75h3.06v-3Z"/><path d="M92.61,258.94v-.79H101v.79Zm4.14,6c-1.86,0-3.3-1-3.3-2.55s1.43-2.54,3.3-2.54,3.33,1,3.33,2.54S98.64,264.9,96.75,264.9Zm0-4.3c-1.3,0-2.38.68-2.38,1.75s1.1,1.76,2.38,1.76,2.41-.65,2.41-1.76S98.07,260.6,96.75,260.6Zm-2-3.79V256h4.17v.79Zm.11,12.62V265.8h.92v2.83h8.8v.8Zm9-8.08V266H103V255.24h.92v5.31h2.33v.8Z"/><path d="M120.89,263.38c-1.49.25-3.52.39-4.82.46s-3,.11-4.36.11l-.17-.87,3.28,0v-3.37h.92V263a40.52,40.52,0,0,0,5-.41Zm-1.44-6.93a18.74,18.74,0,0,1-.49,5l-.89-.13a14.66,14.66,0,0,0,.41-4.06h-6v-.79Zm-5.61,13.18v-4.25h.92v3.45h8.81v.8Zm9-8.68v5.42H122V255.24h.92v4.92h2.34V261Z"/><path d="M126.75,256.23h7.76V257h-3.44v.57c0,2,2,3.73,3.77,4.35l-.52.74a7.5,7.5,0,0,1-3.71-3.33c-.38,1.35-2.14,2.93-3.82,3.73l-.51-.7c1.82-.75,3.9-2.78,3.9-4.73V257h-3.43Zm2.19,13.65v-3.63h8.42v-1.76h-8.45v-.79h9.37V267h-8.42v2h9v.82Zm8.41-7v-3.36h-3v-.8h3v-3.52h.92v7.68Z"/><path d="M140.88,262.57v-.76H154.2v.76Zm1.65,7.23v-3.3h8.94v-1.58h-9v-.8h9.88v3.17h-8.92V269H153v.79Zm5-9.1c-3.25,0-5-.92-5-2.52s1.76-2.54,5-2.54,5,.93,5,2.54S150.79,260.7,147.54,260.7Zm0-4.27c-2.54,0-4.06.67-4.06,1.75s1.52,1.73,4.06,1.73,4.09-.66,4.09-1.73S150.07,256.43,147.54,256.43Z"/><path d="M164.2,256.16a7.56,7.56,0,0,1-3.56,6.39l-.68-.65a6.44,6.44,0,0,0,3.25-4.94h-2.79v-.8ZM165.69,270v-4.68H162v-.74h4.61V270Zm2.42-13.83a8.75,8.75,0,0,1-3.38,7.3l-.71-.62a7.37,7.37,0,0,0,3.1-5.88H164.8v-.8ZM171,270v-4.68h-3.65v-.74h4.52V270Zm-.06-6.25v-3.85h-2.7v-.79H171v-3.86h.93v8.5Z"/><path d="M178.35,256.32c2.14,0,3.57,2,3.57,5.17s-1.43,5.15-3.57,5.15-3.57-2-3.57-5.17S176.21,256.32,178.35,256.32Zm0,.83c-1.59,0-2.62,1.85-2.62,4.34s1,4.33,2.62,4.33S181,264,181,261.49,179.93,257.15,178.35,257.15Zm4.31,4.69v-.79h2.92v-5.81h.92V270h-.92v-8.15Z"/><path d="M200.58,265.47a25.81,25.81,0,0,1-4.65.51c-.49,0-1,0-1.49,0v-8.9h.92v8a25.21,25.21,0,0,0,5-.5ZM205,270v-7.8h-2.44v7h-.92V255.64h.92v5.76H205v-6.16h.94V270Z"/><path d="M214.33,270v-5.12h-6.18v-.81h13.32v.81h-6.22V270ZM210,262.13v-6.25h.92v2.23h7.88v-2.23h.92v6.25Zm8.8-3.22h-7.88v2.42h7.88Z"/><path d="M229.21,261.16h2.14v-5.63h1v13.71h-1V262h-2.14c-.09,2.86-1.22,4.49-3.06,4.49s-3.09-1.79-3.09-4.9,1.14-4.9,3.09-4.9S229.13,258.29,229.21,261.16Zm-3.06-3.73c-1.3,0-2.15,1.51-2.15,4.11s.85,4.11,2.15,4.11,2.14-1.51,2.14-4.11S227.44,257.43,226.15,257.43ZM234.21,270V255.24h.93V270Z"/><path d="M250,263.54a7,7,0,0,1-3.71-3.14,6.56,6.56,0,0,1-3.79,3.52l-.52-.75c2.09-.68,3.85-2.52,3.85-4.2v-.21H242.5V258h7.69v.79h-3.4V259c0,1.62,2,3.42,3.76,3.81Zm-5.74,6.23v-4.85h9.49v4.85Zm0-13.24v-.81h4v.81Zm8.53,9.18h-7.66V269h7.66Zm0-1.67v-8.8h.92V264Z"/><path d="M264.18,259.33a3.7,3.7,0,0,1-7.37,0,3.71,3.71,0,0,1,7.37,0Zm-6.45,0a2.63,2.63,0,0,0,2.77,2.54,2.53,2.53,0,1,0,0-5A2.61,2.61,0,0,0,257.73,259.33ZM259,269.79V264h.9v2.09h7.6V264h.91v5.81Zm8.5-2.92h-7.6V269h7.6Zm0-3.73v-7.9h.92v7.9Z"/><path d="M271,258.94v-.79h8.38v.79Zm4.13,6c-1.85,0-3.29-1-3.29-2.55s1.42-2.54,3.29-2.54,3.33,1,3.33,2.54S277,264.9,275.08,264.9Zm0-4.3c-1.29,0-2.37.68-2.37,1.75s1.09,1.76,2.37,1.76,2.42-.65,2.42-1.76S276.4,260.6,275.08,260.6Zm-2-3.79V256h4.17v.79Zm.11,12.62V265.8h.92v2.83h8.8v.8Zm9-8.08V266h-.92V255.24h.92v5.31h2.34v.8Z"/><path d="M288.17,265.39a36.61,36.61,0,0,0,6.16-.49l.11.78a42,42,0,0,1-6.38.52h-1.79v-9.43H293v.79h-5.77v7.83Zm8.63-4.14h2.52v.8H296.8V270h-.92V255.24h.92Z"/><path d="M300.33,267.2h1.09v1.05h-1.09Z"/><path class="cls-1" d="M148.59,92.42a12.72,12.72,0,0,1-4.43-2.94A13.43,13.43,0,0,1,141.28,85a15,15,0,0,1-1-5.64V78.24a16.6,16.6,0,0,1,1.14-6.32,14.56,14.56,0,0,1,3-4.73,13.21,13.21,0,0,1,4.28-2.94,12.47,12.47,0,0,1,4.92-1,13.1,13.1,0,0,1,5.54,1.09,11,11,0,0,1,3.94,3,13.07,13.07,0,0,1,2.35,4.56,20.06,20.06,0,0,1,.77,5.66v2.24H145.27V80a12.77,12.77,0,0,0,.85,3.75A9.27,9.27,0,0,0,148,86.57a8.52,8.52,0,0,0,2.87,2.07,8.87,8.87,0,0,0,3.72.76,10.22,10.22,0,0,0,4.77-1.08,10.4,10.4,0,0,0,3.47-2.85l3.06,2.37a12.92,12.92,0,0,1-4.38,3.92,14,14,0,0,1-7.19,1.71A15,15,0,0,1,148.59,92.42Zm2.15-24.54a7.59,7.59,0,0,0-2.44,1.6,9.48,9.48,0,0,0-1.83,2.63,12.25,12.25,0,0,0-1,3.57h15.78v-.24a9.32,9.32,0,0,0-.52-2.9,8.1,8.1,0,0,0-1.44-2.68A6.9,6.9,0,0,0,156.94,68a7.45,7.45,0,0,0-3.32-.7A7.58,7.58,0,0,0,150.74,67.88Z"/><path class="cls-1" d="M174.63,63.77h4.5l.35,4.31a13,13,0,0,1,1.42-1.69,10.17,10.17,0,0,1,1.64-1.33,11,11,0,0,1,2.83-1.34,11.8,11.8,0,0,1,3.24-.49,12.88,12.88,0,0,1,4.19.64,8.21,8.21,0,0,1,3.22,2,9.25,9.25,0,0,1,2,3.5,15.57,15.57,0,0,1,.72,5V92.93h-5V74.52a10.81,10.81,0,0,0-.43-3.29,5.22,5.22,0,0,0-1.28-2.18A5.14,5.14,0,0,0,190,67.83a10.19,10.19,0,0,0-2.84-.37,8.19,8.19,0,0,0-2.57.39,9.13,9.13,0,0,0-2.2,1.06,9.75,9.75,0,0,0-1.5,1.38A9.16,9.16,0,0,0,179.64,72V92.93h-5Z"/><path class="cls-1" d="M219.81,63.77H231v3.85H219.81V83.47a7.68,7.68,0,0,0,.44,2.8,4.29,4.29,0,0,0,2.94,2.7,8,8,0,0,0,2.1.27,14,14,0,0,0,1.68-.1c.58-.06,1.15-.13,1.71-.22s1-.19,1.53-.29.87-.18,1.18-.25l.7,3.53a7,7,0,0,1-1.52.66,15.51,15.51,0,0,1-1.95.47,18.69,18.69,0,0,1-2.23.32,23.24,23.24,0,0,1-2.35.11,11.61,11.61,0,0,1-3.64-.55,7.62,7.62,0,0,1-3-1.76,8.24,8.24,0,0,1-2-3.09,13,13,0,0,1-.72-4.6V67.62h-7.7V63.77h7.7V56.7h5Z"/><path class="cls-1" d="M263.36,63.41a8.81,8.81,0,0,1,2.26.52l-.68,4.87c-1-.21-1.9-.37-2.77-.47a27.11,27.11,0,0,0-2.76-.14,11.52,11.52,0,0,0-3.33.44,7.86,7.86,0,0,0-2.6,1.31,7.68,7.68,0,0,0-1.75,1.84,10.6,10.6,0,0,0-1.23,2.45v18.7h-5.05V63.77h4.77l.22,3.9,0,.73a13.25,13.25,0,0,1,4.3-3.78,11.51,11.51,0,0,1,5.7-1.39A24.36,24.36,0,0,1,263.36,63.41Z"/><path class="cls-1" d="M275.27,104.55c-.63-.11-1.11-.19-1.43-.27l.81-4.07,1.34.1,1,0a3.33,3.33,0,0,0,1.89-.57,7.56,7.56,0,0,0,1.53-1.35,10.74,10.74,0,0,0,1.13-1.62c.31-.55.56-1,.74-1.37l2-3.88L271.7,63.77h5.61l8.05,18.81,1.3,3.53L288,82.69l7.57-18.92h5.6L286.33,97.44A20.05,20.05,0,0,1,285,99.83a12,12,0,0,1-1.94,2.35,10.32,10.32,0,0,1-2.66,1.81,8,8,0,0,1-3.49.72A9.9,9.9,0,0,1,275.27,104.55Z"/><rect class="cls-2" x="69.15" y="133.07" width="232.1" height="45.52" transform="translate(370.4 311.66) rotate(180)"/><path d="M82.21,157V146.67h2.41v3.39h4.8v-3.41H91.8V157Zm7.21-5.06h-4.8v3.16h4.8ZM85,165.48V159.1h2.38v4.46H99.05v1.92Zm13.53-5.07H96.18v-5.24H92.83v-1.94h3.35V150.6H92.83v-1.94h3.35v-3.3h2.39Z"/><path d="M114.5,159.19a107.37,107.37,0,0,1-13.07.79l-.35-2c1.55,0,3.61,0,5.45,0v-1.34c-2.14-.28-3.66-1.31-3.66-2.82,0-1.83,2.08-3,4.84-3s4.86,1.16,4.86,3c0,1.53-1.51,2.56-3.65,2.84v1.25c1.9-.09,4.16-.26,5.38-.44Zm-12.61-8.89v-1.81h11.69v1.81Zm2.43,15.42v-5h2.39v3.1h11.71v1.92Zm.55-20h5.8v1.85h-5.8Zm2.84,6.77c-1.53,0-2.51.5-2.51,1.24s1,1.25,2.51,1.25,2.52-.53,2.52-1.25S109.25,152.53,107.71,152.53Zm10.21-.09h3v2h-3v6.79h-2.39V145.36h2.39Z"/><path d="M122.48,146.61h10.93v2h-4.16v.16a6.58,6.58,0,0,0,4.73,6.09l-1.32,1.9a9.18,9.18,0,0,1-4.64-4.26,8.69,8.69,0,0,1-4.9,4.85l-1.45-1.85c2.91-1.1,5.13-3.57,5.13-6.65v-.24h-4.32Zm2.89,19.2v-7.65h13.51v7.65ZM136.49,160h-8.73v3.89h8.73Zm0-2.93v-4.65H133.1v-2h3.37v-5.09h2.39v11.73Z"/><path d="M146.65,165.68a13.36,13.36,0,0,1-4.23-9.66v-.41a13.37,13.37,0,0,1,4.23-9.64h2a14.43,14.43,0,0,0-3.87,9.44v.64a15.18,15.18,0,0,0,3.87,9.63Z"/><path d="M154.11,149.34h-4.66v-2h11.71v2h-4.64v13.91h-2.41Z"/><path d="M163.26,147h2.34v2.23h-2.34Zm0,4.43h2.3v11.84h-2.3Z"/><path d="M168.73,151.41h2.21v1h.11a5.07,5.07,0,0,1,3.39-1.2c2.59,0,4.84,1.42,4.84,5.79v.33c0,4.39-2.1,6.05-5.36,6.05a5.8,5.8,0,0,1-2.89-.7v4.11h-2.3Zm8.17,6.19v-.49c0-3.1-1.12-4-3.13-4a4.75,4.75,0,0,0-2.74.78v6.93a4.66,4.66,0,0,0,2.63.74C175.69,161.55,176.9,160.61,176.9,157.6Z"/><path d="M181.66,151.41h2.21v1H184a5,5,0,0,1,3.39-1.2c2.58,0,4.84,1.42,4.84,5.79v.33c0,4.39-2.1,6.05-5.37,6.05a5.8,5.8,0,0,1-2.89-.7v4.11h-2.3Zm8.17,6.19v-.49c0-3.1-1.12-4-3.13-4a4.75,4.75,0,0,0-2.74.78v6.93a4.66,4.66,0,0,0,2.63.74C188.63,161.55,189.83,160.61,189.83,157.6Z"/><path d="M194.64,147H197v2.23h-2.35Zm0,4.43H197v11.84h-2.29Z"/><path d="M200.11,151.41h2.21v1h.11a7.32,7.32,0,0,1,4-1.27c2.32,0,3.43,1,3.43,3.26v8.82h-2.3V155c0-1.31-.39-1.83-2.16-1.83a7.35,7.35,0,0,0-3,.74v9.37h-2.3Z"/><path d="M211.67,164.15c0-1.25,1-2,2.21-2.45v-.11c-.68-.24-1.2-.52-1.2-1.31A2.67,2.67,0,0,1,214,158.1a3.31,3.31,0,0,1-1.48-2.87V155c0-2.47,1.92-3.85,4.62-3.85a7.85,7.85,0,0,1,1.79.2h4V153h-1.9a2.84,2.84,0,0,1,.63,1.92v.22c0,2.49-2,3.67-4.58,3.67a7,7,0,0,1-1.92-.24,1.24,1.24,0,0,0-.46.85c0,.61.33.66,1.09.66h3.26c2.24,0,3.81.78,3.81,3.08s-1.7,3.53-5.82,3.53C213.44,166.7,211.67,165.92,211.67,164.15Zm8.87-.64c0-1-.55-1.37-1.95-1.37h-3.2a1.74,1.74,0,0,0-1.38,1.68c0,.94.88,1.18,3.05,1.18C219.64,165,220.54,164.65,220.54,163.51Zm-1.07-8.28v-.32c0-1.49-.9-2.1-2.33-2.1s-2.32.72-2.32,2.06v.32c0,1.4.92,2.06,2.32,2.06S219.47,156.59,219.47,155.23Z"/><path d="M231.28,147.35h5.27c3.66,0,5.46,1.7,5.46,4.78,0,3.28-2.1,5-5.26,5h-3.06v6.11h-2.41Zm5,7.88c2.3,0,3.18-.95,3.18-2.92,0-2.16-.86-3-3.13-3h-2.65v5.94Z"/><path d="M243.53,157.6v-.4c0-3.78,2.24-6,5.54-6,3.46,0,5.48,2.21,5.48,6v.32c0,3.78-2.26,6-5.5,6C245.55,163.47,243.53,161.29,243.53,157.6Zm8.63.1v-.63c0-3.12-1.4-4.06-3.13-4.06-2,0-3.13,1.37-3.13,4v.64c0,3.14,1.42,4.06,3.2,4.06S252.16,160.3,252.16,157.7Z"/><path d="M257,147h2.34v2.23H257Zm0,4.43h2.3v11.84H257Z"/><path d="M262.42,151.41h2.21v1h.11a7.32,7.32,0,0,1,4-1.27c2.32,0,3.43,1,3.43,3.26v8.82h-2.29V155c0-1.31-.4-1.83-2.17-1.83a7.35,7.35,0,0,0-3,.74v9.37h-2.3Z"/><path d="M275.8,160.41v-7.16h-1.69v-1.84h1.69v-2.79h2.3v2.79H281v1.84H278.1v6.84c0,1.07.34,1.46,1.64,1.46a8.81,8.81,0,0,0,1.46-.15v1.52a4.49,4.49,0,0,1-2.12.46C277.11,163.38,275.8,162.58,275.8,160.41Z"/><path d="M282.14,165.68a14.44,14.44,0,0,0,3.88-9.46v-.63a15.13,15.13,0,0,0-3.88-9.62h2a13.36,13.36,0,0,1,4.22,9.64V156a13.28,13.28,0,0,1-4.22,9.66Z"/></g></g></svg>