<svg xmlns="http://www.w3.org/2000/svg" viewBox="0 0 144.71 63.93"><defs><style>.cls-1{fill:lime;stroke-width:0.5px;}.cls-1,.cls-2{stroke:#000;stroke-miterlimit:10;}.cls-2{fill:none;stroke-width:0.3px;}</style></defs><g id="레이어_2" data-name="레이어 2"><g id="그래픽"><polygon class="cls-1" points="81.65 28.03 81.65 0.25 0.25 0.25 0.25 33.88 11.83 33.88 11.83 63.68 144.46 63.68 144.46 28.03 81.65 28.03"/><path d="M23.37,22.6a4.76,4.76,0,0,1-.88,1.74,3.63,3.63,0,0,1-1.41,1.07,4.65,4.65,0,0,1-1.91.37,4.82,4.82,0,0,1-1.91-.36,3.66,3.66,0,0,1-1.44-1.08,4.77,4.77,0,0,1-.89-1.74,8.15,8.15,0,0,1-.31-2.37V17a8.15,8.15,0,0,1,.31-2.37,4.77,4.77,0,0,1,.89-1.74,3.79,3.79,0,0,1,1.42-1.09,4.82,4.82,0,0,1,1.91-.36,4.9,4.9,0,0,1,1.92.36,3.87,3.87,0,0,1,1.42,1.09,4.76,4.76,0,0,1,.88,1.74A8.15,8.15,0,0,1,23.68,17v3.27A8.15,8.15,0,0,1,23.37,22.6Zm-1.51-6.9a5.3,5.3,0,0,0-.28-1.23,2.55,2.55,0,0,0-.53-.88,2,2,0,0,0-.8-.55,3.13,3.13,0,0,0-1.1-.18,3,3,0,0,0-1.12.19,2.09,2.09,0,0,0-.82.57,3,3,0,0,0-.6,1.22,6.83,6.83,0,0,0-.2,1.72v3.32Zm0,2.93V17.4l-5.44,4.16a4.26,4.26,0,0,0,.31,1.23,2.4,2.4,0,0,0,.57.88,2.09,2.09,0,0,0,.79.5,3.06,3.06,0,0,0,1,.17,2.76,2.76,0,0,0,1.07-.19,2.1,2.1,0,0,0,.8-.52,2.9,2.9,0,0,0,.65-1.23,6.82,6.82,0,0,0,.21-1.79Z"/><path d="M30.76,24.6a4.92,4.92,0,0,1-1.22,1.68l-1.1-.61a4.49,4.49,0,0,0,.65-1.43,6.33,6.33,0,0,0,.19-1.58V20.94h1.94v1.69A4.83,4.83,0,0,1,30.76,24.6ZM29.27,12.51a1.31,1.31,0,0,1,1.05-.41,1.36,1.36,0,0,1,1.05.4,1.41,1.41,0,0,1,.36,1,1.34,1.34,0,0,1-.36.95,1.39,1.39,0,0,1-1.05.38,1.32,1.32,0,0,1-1-.39,1.37,1.37,0,0,1-.35-.94A1.44,1.44,0,0,1,29.27,12.51Z"/><path d="M46.79,15.88a4.15,4.15,0,0,0-4.44-4.11,4.14,4.14,0,0,0-4.42,4.12c0,2.46,1.92,4.07,4.44,4.07A4.1,4.1,0,0,0,46.79,15.88Zm-7.5,0a3.08,3.08,0,0,1,6.14,0,2.83,2.83,0,0,1-3.06,2.82A2.88,2.88,0,0,1,39.29,15.88Z"/><polygon points="41.71 21.52 40.28 21.52 40.28 26.6 51.41 26.6 51.41 25.41 41.71 25.41 41.71 21.52"/><rect x="49.57" y="10.69" width="1.43" height="12.01"/><path d="M58.8,15.63a8.06,8.06,0,0,0,4.12,3.89l.85-1.13c-2-.67-4.28-2.69-4.28-5.33v-1.7H58v1.76c0,2.62-2,4.84-4.34,5.82l.89,1.15A8.19,8.19,0,0,0,58.8,15.63Z"/><polygon points="56.3 22.58 65.84 22.58 65.84 27.15 67.27 27.15 67.27 21.4 56.3 21.4 56.3 22.58"/><rect x="65.84" y="10.69" width="1.43" height="9.8"/><path class="cls-2" d="M28.5,52.84a5,5,0,0,1-.1-.69,6.08,6.08,0,0,1-.66.56,4.17,4.17,0,0,1-.8.46,4.63,4.63,0,0,1-.93.32A4.48,4.48,0,0,1,25,53.6a4.65,4.65,0,0,1-1.63-.26,3.66,3.66,0,0,1-1.24-.71,3.07,3.07,0,0,1-.8-1.06A3.3,3.3,0,0,1,21,50.24a3.46,3.46,0,0,1,.38-1.65,3.32,3.32,0,0,1,1.06-1.18,4.8,4.8,0,0,1,1.64-.69,9.06,9.06,0,0,1,2.16-.23h2.13v-.9a2.34,2.34,0,0,0-.19-.93,2.06,2.06,0,0,0-.54-.7,2.45,2.45,0,0,0-.85-.44,3.57,3.57,0,0,0-1.12-.16,3.69,3.69,0,0,0-1,.14,2.44,2.44,0,0,0-.77.4,1.66,1.66,0,0,0-.49.57,1.42,1.42,0,0,0-.18.69h-2a2.58,2.58,0,0,1,.32-1.22,3.38,3.38,0,0,1,.9-1.09,4.86,4.86,0,0,1,1.41-.77,5.92,5.92,0,0,1,1.9-.29,6.55,6.55,0,0,1,1.81.24,4,4,0,0,1,1.44.71,3.4,3.4,0,0,1,.95,1.2,3.77,3.77,0,0,1,.34,1.67v5.3a7.33,7.33,0,0,0,.11,1.2,5.86,5.86,0,0,0,.29,1.12v.16h-2A1.77,1.77,0,0,1,28.5,52.84Zm-2.2-1.08a4.38,4.38,0,0,0,.91-.39,3.15,3.15,0,0,0,.69-.55,2.81,2.81,0,0,0,.47-.65v-2.3H26.55a7.67,7.67,0,0,0-1.76.17,2.79,2.79,0,0,0-1.19.53,1.52,1.52,0,0,0-.48.6A1.83,1.83,0,0,0,23,50a2.21,2.21,0,0,0,.14.78,1.65,1.65,0,0,0,.43.61,1.94,1.94,0,0,0,.72.41,3,3,0,0,0,1,.15A3.62,3.62,0,0,0,26.3,51.76Z"/><path class="cls-2" d="M32.81,42h1.73l1.32,7.27.24,1.63.28-1.63L38.2,42h1.26l1.81,7.27.3,1.79.29-1.79L43.12,42h1.73L42.43,53.39H40.89l-1.78-7-.3-1.77-.28,1.77-1.76,7H35.23Z"/><path class="cls-2" d="M54.38,52.84c0-.22-.07-.45-.1-.69a5.14,5.14,0,0,1-.65.56,4.5,4.5,0,0,1-.8.46,4.73,4.73,0,0,1-.94.32,4.45,4.45,0,0,1-1,.11,4.74,4.74,0,0,1-1.64-.26A3.52,3.52,0,0,1,48,52.63a3.07,3.07,0,0,1-.8-1.06,3.14,3.14,0,0,1-.28-1.33,3.46,3.46,0,0,1,.38-1.65,3.29,3.29,0,0,1,1-1.18A4.94,4.94,0,0,1,50,46.72a9,9,0,0,1,2.16-.23h2.12v-.9a2.18,2.18,0,0,0-.19-.93,1.92,1.92,0,0,0-.53-.7,2.54,2.54,0,0,0-.85-.44,4,4,0,0,0-2.16,0,2.33,2.33,0,0,0-.77.4,1.56,1.56,0,0,0-.49.57,1.42,1.42,0,0,0-.18.69h-2a2.84,2.84,0,0,1,.32-1.22,3.66,3.66,0,0,1,.9-1.09,4.92,4.92,0,0,1,1.42-.77,5.88,5.88,0,0,1,1.9-.29,6.42,6.42,0,0,1,1.8.24,4,4,0,0,1,1.45.71,3.37,3.37,0,0,1,.94,1.2,3.64,3.64,0,0,1,.35,1.67v5.3a7.33,7.33,0,0,0,.11,1.2,5.86,5.86,0,0,0,.29,1.12v.16h-2A2.07,2.07,0,0,1,54.38,52.84Zm-2.19-1.08a4.08,4.08,0,0,0,.9-.39,3.21,3.21,0,0,0,.7-.55,2.5,2.5,0,0,0,.46-.65v-2.3H52.44a7.67,7.67,0,0,0-1.76.17,2.89,2.89,0,0,0-1.2.53,1.72,1.72,0,0,0-.48.6,1.83,1.83,0,0,0-.16.79,2.21,2.21,0,0,0,.14.78,1.65,1.65,0,0,0,.43.61,2,2,0,0,0,.71.41,3.11,3.11,0,0,0,1,.15A3.67,3.67,0,0,0,52.19,51.76Z"/><path class="cls-2" d="M68.61,41.86a3.61,3.61,0,0,1,.88.2L69.23,44a9.47,9.47,0,0,0-1.08-.19c-.34,0-.7-.05-1.07-.05a4.29,4.29,0,0,0-1.29.17,3.25,3.25,0,0,0-1,.51,3.07,3.07,0,0,0-.67.72,3.75,3.75,0,0,0-.48,1v7.3h-2V42h1.85l.09,1.53v.28a5.31,5.31,0,0,1,1.66-1.48,4.5,4.5,0,0,1,2.22-.54A8.74,8.74,0,0,1,68.61,41.86Z"/><path class="cls-2" d="M75.8,53.19a5,5,0,0,1-1.73-1.14A5.28,5.28,0,0,1,73,50.3a5.89,5.89,0,0,1-.4-2.2v-.44A6.37,6.37,0,0,1,73,45.19a5.7,5.7,0,0,1,1.18-1.85,5.11,5.11,0,0,1,1.66-1.15,4.74,4.74,0,0,1,1.91-.4,5,5,0,0,1,2.15.43,4.18,4.18,0,0,1,1.54,1.17,5.26,5.26,0,0,1,.91,1.78,7.82,7.82,0,0,1,.3,2.21v.87H74.51v.08a4.82,4.82,0,0,0,.33,1.46,3.62,3.62,0,0,0,.71,1.12A3.36,3.36,0,0,0,78.11,52,4,4,0,0,0,80,51.59a4.07,4.07,0,0,0,1.35-1.11l1.19.92a5.13,5.13,0,0,1-1.7,1.54,5.5,5.5,0,0,1-2.8.66A5.63,5.63,0,0,1,75.8,53.19Zm.83-9.58a2.9,2.9,0,0,0-.94.62,3.72,3.72,0,0,0-.72,1,5,5,0,0,0-.4,1.39H80.7v-.09a3.69,3.69,0,0,0-.2-1.13,3.1,3.1,0,0,0-.56-1,2.78,2.78,0,0,0-.9-.72,3.09,3.09,0,0,0-2.41,0Z"/><path class="cls-2" d="M85.91,42h1.75l.14,1.68a5.72,5.72,0,0,1,.55-.65A4,4,0,0,1,89,42.5a4.45,4.45,0,0,1,1.1-.52,4.62,4.62,0,0,1,1.26-.19A4.87,4.87,0,0,1,93,42a3.07,3.07,0,0,1,1.25.79A3.55,3.55,0,0,1,95,44.2a6.29,6.29,0,0,1,.28,2v7.23h-2V46.2a4.31,4.31,0,0,0-.17-1.28,2.08,2.08,0,0,0-.5-.86,2,2,0,0,0-.81-.47,3.7,3.7,0,0,0-1.1-.15,3.22,3.22,0,0,0-1,.15,4,4,0,0,0-.86.42,3.68,3.68,0,0,0-.58.54,3.51,3.51,0,0,0-.47.67v8.17h-2Z"/><path class="cls-2" d="M101.68,53.19A5,5,0,0,1,100,52.05a5.3,5.3,0,0,1-1.12-1.75,6.1,6.1,0,0,1-.4-2.2v-.44a6.36,6.36,0,0,1,.45-2.47,5.54,5.54,0,0,1,1.18-1.85,5,5,0,0,1,1.66-1.15,4.71,4.71,0,0,1,1.91-.4,5,5,0,0,1,2.15.43,4.07,4.07,0,0,1,1.53,1.17,5.09,5.09,0,0,1,.91,1.78,7.82,7.82,0,0,1,.3,2.21v.87h-8.14v.08a5.14,5.14,0,0,0,.33,1.46,3.65,3.65,0,0,0,.72,1.12,3.35,3.35,0,0,0,1.11.81A3.45,3.45,0,0,0,104,52a4,4,0,0,0,1.85-.42,4.07,4.07,0,0,0,1.35-1.11l1.19.92a5.13,5.13,0,0,1-1.7,1.54,5.5,5.5,0,0,1-2.8.66A5.68,5.68,0,0,1,101.68,53.19Zm.84-9.58a2.94,2.94,0,0,0-1,.62,3.69,3.69,0,0,0-.71,1,4.72,4.72,0,0,0-.4,1.39h6.13v-.09a3.69,3.69,0,0,0-.2-1.13,3.28,3.28,0,0,0-.56-1,2.78,2.78,0,0,0-.9-.72,2.86,2.86,0,0,0-1.29-.27A2.8,2.8,0,0,0,102.52,43.61Z"/><path class="cls-2" d="M119.23,49.75a1.39,1.39,0,0,0-.46-.52,3.83,3.83,0,0,0-.86-.42,8.83,8.83,0,0,0-1.34-.35,14.18,14.18,0,0,1-1.78-.49,5.92,5.92,0,0,1-1.38-.68,2.81,2.81,0,0,1-.89-.93,2.26,2.26,0,0,1-.32-1.23,2.64,2.64,0,0,1,.33-1.3,3.16,3.16,0,0,1,.91-1.06,4.8,4.8,0,0,1,1.41-.72,6,6,0,0,1,1.79-.26,6.18,6.18,0,0,1,1.9.27,4.33,4.33,0,0,1,1.43.76,3.27,3.27,0,0,1,.91,1.13,3.06,3.06,0,0,1,.32,1.4h-1.94a1.55,1.55,0,0,0-.19-.72,2.12,2.12,0,0,0-.53-.63,2.79,2.79,0,0,0-.82-.44,3.31,3.31,0,0,0-1.08-.17,3.65,3.65,0,0,0-1.09.14,2.21,2.21,0,0,0-.77.37,1.47,1.47,0,0,0-.47.53,1.34,1.34,0,0,0-.16.63,1.4,1.4,0,0,0,.12.6,1.27,1.27,0,0,0,.45.48,3.52,3.52,0,0,0,.82.38,11.41,11.41,0,0,0,1.33.32,16.21,16.21,0,0,1,1.88.51,6.3,6.3,0,0,1,1.4.69,3,3,0,0,1,.87,1,2.51,2.51,0,0,1,.3,1.25,2.76,2.76,0,0,1-.34,1.37,3.26,3.26,0,0,1-1,1.07,4.59,4.59,0,0,1-1.46.68,6.86,6.86,0,0,1-1.86.24,6.3,6.3,0,0,1-2.07-.31,4.69,4.69,0,0,1-1.52-.82,3.39,3.39,0,0,1-1-1.18,3.16,3.16,0,0,1-.33-1.4h2a2,2,0,0,0,.32,1,2.32,2.32,0,0,0,.7.66,2.76,2.76,0,0,0,.92.36,4.86,4.86,0,0,0,1,.11,4.6,4.6,0,0,0,1.36-.19,2.17,2.17,0,0,0,.9-.51,1.47,1.47,0,0,0,.31-.44,1.42,1.42,0,0,0,0-1.14Z"/><path class="cls-2" d="M132.18,49.75a1.42,1.42,0,0,0-.47-.52,3.62,3.62,0,0,0-.86-.42,8.52,8.52,0,0,0-1.34-.35,14.67,14.67,0,0,1-1.78-.49,5.92,5.92,0,0,1-1.38-.68,2.91,2.91,0,0,1-.89-.93,2.35,2.35,0,0,1-.32-1.23,2.64,2.64,0,0,1,.33-1.3,3.19,3.19,0,0,1,.92-1.06,4.74,4.74,0,0,1,1.4-.72,6,6,0,0,1,1.8-.26,6.16,6.16,0,0,1,1.89.27,4.48,4.48,0,0,1,1.44.76,3.52,3.52,0,0,1,.91,1.13,3.19,3.19,0,0,1,.32,1.4h-2a1.44,1.44,0,0,0-.19-.72,2,2,0,0,0-.53-.63,2.61,2.61,0,0,0-.81-.44,3.31,3.31,0,0,0-1.08-.17,3.56,3.56,0,0,0-1.09.14,2.26,2.26,0,0,0-.78.37,1.47,1.47,0,0,0-.47.53,1.34,1.34,0,0,0-.16.63,1.26,1.26,0,0,0,.13.6,1.17,1.17,0,0,0,.44.48,3.42,3.42,0,0,0,.83.38,10.71,10.71,0,0,0,1.32.32,16.21,16.21,0,0,1,1.88.51,5.89,5.89,0,0,1,1.4.69,3,3,0,0,1,.87,1,2.51,2.51,0,0,1,.3,1.25,2.76,2.76,0,0,1-.34,1.37,3.22,3.22,0,0,1-.95,1.07,4.75,4.75,0,0,1-1.47.68,6.81,6.81,0,0,1-1.86.24,6.24,6.24,0,0,1-2.06-.31,4.64,4.64,0,0,1-1.53-.82,3.48,3.48,0,0,1-1-1.18,3,3,0,0,1-.34-1.4h2a2.08,2.08,0,0,0,.32,1,2.32,2.32,0,0,0,.7.66,2.85,2.85,0,0,0,.92.36,4.94,4.94,0,0,0,1,.11,4.6,4.6,0,0,0,1.36-.19,2.11,2.11,0,0,0,.9-.51,1.31,1.31,0,0,0,.31-.44,1.27,1.27,0,0,0,.1-.52A1.38,1.38,0,0,0,132.18,49.75Z"/></g></g></svg>