<svg xmlns="http://www.w3.org/2000/svg" viewBox="0 0 157.76 63.93"><defs><style>.cls-1{fill:lime;stroke-width:0.5px;}.cls-1,.cls-2{stroke:#000;stroke-miterlimit:10;}.cls-2{fill:none;stroke-width:0.3px;}</style></defs><g id="레이어_2" data-name="레이어 2"><g id="그래픽"><polygon class="cls-1" points="81.65 28.03 81.65 0.25 0.25 0.25 0.25 33.88 11.83 33.88 11.83 63.68 157.51 63.68 157.51 28.03 81.65 28.03"/><path class="cls-2" d="M28.83,52.59c0-.22-.08-.45-.1-.69a4.63,4.63,0,0,1-.66.56,4.09,4.09,0,0,1-.79.46,5,5,0,0,1-.94.32,4.44,4.44,0,0,1-1.05.12,4.7,4.7,0,0,1-1.64-.27,3.66,3.66,0,0,1-1.24-.71,3,3,0,0,1-.79-1.06A3.14,3.14,0,0,1,21.34,50a3.46,3.46,0,0,1,.37-1.65,3.32,3.32,0,0,1,1.06-1.18,4.94,4.94,0,0,1,1.65-.69,8.92,8.92,0,0,1,2.15-.23H28.7v-.9a2.18,2.18,0,0,0-.19-.93,2,2,0,0,0-.54-.7,2.4,2.4,0,0,0-.84-.44A3.63,3.63,0,0,0,26,43.11a3.28,3.28,0,0,0-1,.15,2.2,2.2,0,0,0-.78.39,1.77,1.77,0,0,0-.49.57,1.53,1.53,0,0,0-.17.69h-2a2.71,2.71,0,0,1,.32-1.22,3.66,3.66,0,0,1,.9-1.09,4.92,4.92,0,0,1,1.42-.77,5.88,5.88,0,0,1,1.9-.29,6.42,6.42,0,0,1,1.8.24,4,4,0,0,1,1.44.71,3.4,3.4,0,0,1,.95,1.2,3.77,3.77,0,0,1,.35,1.67v5.3a7.28,7.28,0,0,0,.1,1.2,5.18,5.18,0,0,0,.3,1.12v.16H29A2.07,2.07,0,0,1,28.83,52.59Zm-2.19-1.08a4.08,4.08,0,0,0,.9-.39,3.21,3.21,0,0,0,.7-.55,2.76,2.76,0,0,0,.46-.65v-2.3H26.89a7.76,7.76,0,0,0-1.77.17,2.92,2.92,0,0,0-1.19.53,1.72,1.72,0,0,0-.48.6,1.83,1.83,0,0,0-.16.79,2,2,0,0,0,.14.78,1.54,1.54,0,0,0,.43.61,1.9,1.9,0,0,0,.71.41,3,3,0,0,0,1,.15A3.69,3.69,0,0,0,26.64,51.51Z"/><path class="cls-2" d="M39.08,41.75h4.34v1.51H39.08v6.19a3,3,0,0,0,.17,1.09,1.76,1.76,0,0,0,.47.69,1.67,1.67,0,0,0,.68.37,3,3,0,0,0,.81.1l.66,0,.66-.09.59-.12.46-.09.28,1.37a2.69,2.69,0,0,1-.59.26,5.63,5.63,0,0,1-.76.19,7.93,7.93,0,0,1-.87.12c-.31,0-.61,0-.91,0a4.64,4.64,0,0,1-1.42-.22,2.78,2.78,0,0,1-1.14-.69,3.27,3.27,0,0,1-.77-1.21,5.23,5.23,0,0,1-.27-1.79V43.26h-3V41.75h3V39h1.95Z"/><path class="cls-2" d="M52,41.75h4.34v1.51H52v6.19a2.83,2.83,0,0,0,.17,1.09,1.64,1.64,0,0,0,.46.69,1.74,1.74,0,0,0,.68.37,3.12,3.12,0,0,0,.82.1l.65,0,.66-.09.6-.12.46-.09.27,1.37a2.49,2.49,0,0,1-.59.26,5.27,5.27,0,0,1-.76.19,7.31,7.31,0,0,1-.87.12c-.3,0-.61,0-.91,0a4.69,4.69,0,0,1-1.42-.22,2.85,2.85,0,0,1-1.14-.69,3.13,3.13,0,0,1-.76-1.21,5,5,0,0,1-.28-1.79V43.26h-3V41.75h3V39h2Z"/><path class="cls-2" d="M67.66,52.59c0-.22-.08-.45-.1-.69a4.63,4.63,0,0,1-.66.56,4.09,4.09,0,0,1-.79.46,5,5,0,0,1-.94.32,4.44,4.44,0,0,1-1,.12,4.74,4.74,0,0,1-1.64-.27,3.66,3.66,0,0,1-1.24-.71,3,3,0,0,1-.79-1.06A3.14,3.14,0,0,1,60.17,50a3.46,3.46,0,0,1,.37-1.65,3.41,3.41,0,0,1,1.06-1.18,4.94,4.94,0,0,1,1.65-.69,8.92,8.92,0,0,1,2.15-.23h2.13v-.9a2.18,2.18,0,0,0-.19-.93,1.92,1.92,0,0,0-.54-.7,2.4,2.4,0,0,0-.84-.44,3.61,3.61,0,0,0-1.12-.16,3.3,3.3,0,0,0-1,.15,2.2,2.2,0,0,0-.78.39,1.77,1.77,0,0,0-.49.57,1.53,1.53,0,0,0-.17.69h-2a2.84,2.84,0,0,1,.32-1.22,3.66,3.66,0,0,1,.9-1.09A4.92,4.92,0,0,1,63,41.83a5.88,5.88,0,0,1,1.9-.29,6.42,6.42,0,0,1,1.8.24,3.89,3.89,0,0,1,1.44.71,3.4,3.4,0,0,1,.95,1.2,3.77,3.77,0,0,1,.35,1.67v5.3a7.28,7.28,0,0,0,.1,1.2,5.18,5.18,0,0,0,.3,1.12v.16h-2A2.07,2.07,0,0,1,67.66,52.59Zm-2.19-1.08a4.08,4.08,0,0,0,.9-.39,3.21,3.21,0,0,0,.7-.55,2.76,2.76,0,0,0,.46-.65v-2.3H65.72a7.67,7.67,0,0,0-1.76.17,3,3,0,0,0-1.2.53,1.72,1.72,0,0,0-.48.6,1.83,1.83,0,0,0-.16.79,2.21,2.21,0,0,0,.14.78,1.54,1.54,0,0,0,.43.61,1.9,1.9,0,0,0,.71.41,3,3,0,0,0,1,.15A3.69,3.69,0,0,0,65.47,51.51Z"/><path class="cls-2" d="M79.18,51.61a2.73,2.73,0,0,0,.89-.48,2.34,2.34,0,0,0,.63-.7,1.8,1.8,0,0,0,.25-.88h1.84A3.12,3.12,0,0,1,82.4,51a4.23,4.23,0,0,1-1,1.21,5.31,5.31,0,0,1-1.47.84,5.14,5.14,0,0,1-1.74.31,5.2,5.2,0,0,1-2.27-.47,4.63,4.63,0,0,1-1.61-1.25,5.36,5.36,0,0,1-1-1.81A7.28,7.28,0,0,1,73,47.67v-.44a7.38,7.38,0,0,1,.32-2.16,5.41,5.41,0,0,1,1-1.82A4.75,4.75,0,0,1,75.89,42a5.2,5.2,0,0,1,2.27-.46,5.34,5.34,0,0,1,1.86.32,4.69,4.69,0,0,1,1.47.87,4.05,4.05,0,0,1,1,1.32,3.69,3.69,0,0,1,.35,1.62H81a2.35,2.35,0,0,0-.23-1,2.69,2.69,0,0,0-.58-.8,2.73,2.73,0,0,0-.88-.55,3.07,3.07,0,0,0-1.1-.2,3,3,0,0,0-1.52.36,3,3,0,0,0-1,1,4.12,4.12,0,0,0-.54,1.31,6.62,6.62,0,0,0-.16,1.47v.44a6.71,6.71,0,0,0,.16,1.48,4,4,0,0,0,.54,1.31,2.82,2.82,0,0,0,1,.95,3,3,0,0,0,1.53.37A3.21,3.21,0,0,0,79.18,51.61Z"/><path class="cls-2" d="M88.71,42.81a4.06,4.06,0,0,1,.6-.51,3.87,3.87,0,0,1,1.11-.56,4.58,4.58,0,0,1,1.29-.2,4.69,4.69,0,0,1,1.63.26,3.16,3.16,0,0,1,1.25.8A3.7,3.7,0,0,1,95.38,44a6.18,6.18,0,0,1,.28,2v7.17h-2V46a4.18,4.18,0,0,0-.15-1.18,2.18,2.18,0,0,0-.47-.85,2,2,0,0,0-.82-.55,3.1,3.1,0,0,0-1.14-.18,3.32,3.32,0,0,0-1,.15,3.5,3.5,0,0,0-.87.42,3.94,3.94,0,0,0-.59.49,3.66,3.66,0,0,0-.48.62v8.27H86.25V37h1.94v6.47A4.59,4.59,0,0,1,88.71,42.81Z"/><path class="cls-2" d="M100.14,42.82a2.46,2.46,0,0,1,.91-.93,2.64,2.64,0,0,1,1.36-.35,3,3,0,0,1,.82.1,2.2,2.2,0,0,1,.64.29,2,2,0,0,1,.36.36,2.16,2.16,0,0,1,.28.47,2.48,2.48,0,0,1,.35-.45,2.16,2.16,0,0,1,.43-.37,2.86,2.86,0,0,1,.66-.29,3.21,3.21,0,0,1,.79-.11,3.29,3.29,0,0,1,1.07.17,2.29,2.29,0,0,1,.8.51,2.54,2.54,0,0,1,.54,1,4.67,4.67,0,0,1,.19,1.43v8.5h-1.85V44.61a2,2,0,0,0-.09-.63,1.08,1.08,0,0,0-.24-.45,1,1,0,0,0-.41-.25,1.72,1.72,0,0,0-.58-.09,1.57,1.57,0,0,0-.6.1,1.09,1.09,0,0,0-.42.25,1.22,1.22,0,0,0-.26.38,1.55,1.55,0,0,0-.13.48v8.74h-1.85V44.6a2.41,2.41,0,0,0-.08-.63,1.1,1.1,0,0,0-.25-.45.94.94,0,0,0-.39-.25,1.89,1.89,0,0,0-.56-.08,2.13,2.13,0,0,0-.6.08,1.23,1.23,0,0,0-.44.23,1.48,1.48,0,0,0-.24.26,1.59,1.59,0,0,0-.16.32v9.06H98.34V41.75h1.75Z"/><path class="cls-2" d="M115,52.94a5,5,0,0,1-1.72-1.14,5.3,5.3,0,0,1-1.12-1.75,6.1,6.1,0,0,1-.4-2.2v-.44a6.36,6.36,0,0,1,.45-2.47,5.52,5.52,0,0,1,1.17-1.85A5.22,5.22,0,0,1,115,41.94a4.76,4.76,0,0,1,1.92-.4,5,5,0,0,1,2.15.43,4.23,4.23,0,0,1,1.53,1.17,5.09,5.09,0,0,1,.91,1.78,7.82,7.82,0,0,1,.3,2.21V48h-8.14v.07a5.14,5.14,0,0,0,.33,1.46,3.81,3.81,0,0,0,.71,1.12,3.39,3.39,0,0,0,1.12.81,3.44,3.44,0,0,0,1.44.3,4,4,0,0,0,1.86-.43,3.93,3.93,0,0,0,1.34-1.11l1.2.92A5.08,5.08,0,0,1,120,52.69a5.44,5.44,0,0,1-2.79.67A5.69,5.69,0,0,1,115,52.94Zm.84-9.58a2.94,2.94,0,0,0-1,.62,3.69,3.69,0,0,0-.71,1,5,5,0,0,0-.41,1.39h6.13v-.09a3.42,3.42,0,0,0-.2-1.13,3.27,3.27,0,0,0-.55-1,2.66,2.66,0,0,0-2.19-1A2.8,2.8,0,0,0,115.8,43.36Z"/><path class="cls-2" d="M125.08,41.75h1.75l.13,1.68a5.81,5.81,0,0,1,.56-.65,4.43,4.43,0,0,1,.63-.53,4.82,4.82,0,0,1,1.1-.52,4.74,4.74,0,0,1,1.26-.19,4.94,4.94,0,0,1,1.63.25,3.14,3.14,0,0,1,1.25.79,3.53,3.53,0,0,1,.79,1.37,6,6,0,0,1,.28,2v7.23h-2V46a4,4,0,0,0-.17-1.28,2.07,2.07,0,0,0-.49-.86,2.15,2.15,0,0,0-.82-.47,3.66,3.66,0,0,0-1.1-.15,3,3,0,0,0-1,.16,3.52,3.52,0,0,0-.85.41,3.74,3.74,0,0,0-.59.54A4,4,0,0,0,127,45v8.17h-2Z"/><path class="cls-2" d="M142.63,41.75H147v1.51h-4.34v6.19a3,3,0,0,0,.17,1.09A1.71,1.71,0,0,0,144,51.6a3,3,0,0,0,.81.1l.65,0,.67-.09.59-.12.46-.09.27,1.37a2.32,2.32,0,0,1-.59.26,5.13,5.13,0,0,1-.75.19,7.93,7.93,0,0,1-.87.12c-.31,0-.61,0-.91,0a4.64,4.64,0,0,1-1.42-.22,2.78,2.78,0,0,1-1.14-.69,3.15,3.15,0,0,1-.77-1.21,5.21,5.21,0,0,1-.28-1.79V43.26h-3V41.75h3V39h2Z"/><path d="M17.31,25.5V13.78l-3.67,1.39V13.54l5.3-2h.14v14Z"/><path d="M29.18,25.78A5.05,5.05,0,0,1,28,27.46l-1.1-.61a4.61,4.61,0,0,0,.65-1.43,6.33,6.33,0,0,0,.19-1.58V22.12h1.93v1.69A4.78,4.78,0,0,1,29.18,25.78ZM27.69,13.69a1.3,1.3,0,0,1,1-.4,1.36,1.36,0,0,1,1.05.39,1.41,1.41,0,0,1,.36,1,1.34,1.34,0,0,1-.36.95,1.38,1.38,0,0,1-1.05.38,1.32,1.32,0,0,1-1-.39,1.31,1.31,0,0,1-.35-.94A1.44,1.44,0,0,1,27.69,13.69Z"/><path d="M42.66,27.08V21.65H36V20.44H50.83v1.21H44.09v5.43ZM37.78,18.5V11.24h1.43v2.42H47.6V11.24H49V18.5Zm9.82-3.67H39.21v2.48H47.6Z"/><path d="M52.47,13.84H61.3V15H57.68c.12,2,2.07,3.63,3.94,4.09l-.72,1.11a7.4,7.4,0,0,1-4-3.29,7.13,7.13,0,0,1-4.14,3.77L52,19.59C54.15,19,56.07,17,56.17,15h-3.7Zm12.41,7.59v5.63H63.44V22.62h-9.2V21.43ZM54.61,11.08h4.61v1.24H54.61Zm10.27,5.1v4.4H63.46v-10h1.42V15h2.51v1.21Z"/></g></g></svg>