<svg xmlns="http://www.w3.org/2000/svg" viewBox="0 0 94.82 63.93"><defs><style>.cls-1{fill:lime;stroke-width:0.5px;}.cls-1,.cls-2{stroke:#000;stroke-miterlimit:10;}.cls-2{fill:none;stroke-width:0.3px;}</style></defs><g id="레이어_2" data-name="레이어 2"><g id="그래픽"><polygon class="cls-1" points="81.65 28.03 81.65 0.25 0.25 0.25 0.25 33.88 11.83 33.88 11.83 63.68 94.58 63.68 94.58 28.03 81.65 28.03"/><path d="M14.59,25.39V24.11L19.18,19c.41-.46.75-.86,1-1.21a8.44,8.44,0,0,0,.66-1,3.59,3.59,0,0,0,.35-.84,3.26,3.26,0,0,0,.11-.83,2.83,2.83,0,0,0-.17-1,2.18,2.18,0,0,0-.48-.79,2.31,2.31,0,0,0-.79-.54,2.59,2.59,0,0,0-1-.19,3.16,3.16,0,0,0-1.21.2,2.25,2.25,0,0,0-.86.56,2.39,2.39,0,0,0-.51.91,3.91,3.91,0,0,0-.17,1.18H14.33a4.62,4.62,0,0,1,.3-1.67,4.08,4.08,0,0,1,.9-1.37,4.13,4.13,0,0,1,1.41-.93,5,5,0,0,1,1.92-.34,5,5,0,0,1,1.78.29,3.67,3.67,0,0,1,1.34.81,3.46,3.46,0,0,1,.84,1.23,3.93,3.93,0,0,1,.3,1.55,3.74,3.74,0,0,1-.21,1.23,7,7,0,0,1-.57,1.21,11,11,0,0,1-.84,1.17c-.32.39-.65.78-1,1.16l-3.75,4.08h7v1.45Z"/><path d="M31,25.67a4.92,4.92,0,0,1-1.22,1.68l-1.1-.61a4.39,4.39,0,0,0,.65-1.43,6.33,6.33,0,0,0,.19-1.58V22h1.93V23.7A4.78,4.78,0,0,1,31,25.67ZM29.55,13.58a1.31,1.31,0,0,1,1.05-.41,1.36,1.36,0,0,1,1,.4,1.41,1.41,0,0,1,.36,1,1.34,1.34,0,0,1-.36.95,1.35,1.35,0,0,1-1,.38,1.32,1.32,0,0,1-1-.39,1.35,1.35,0,0,1-.35-.94A1.44,1.44,0,0,1,29.55,13.58Z"/><path d="M47.14,20A7.17,7.17,0,0,1,43,16.69a7.34,7.34,0,0,1-4.28,3.71l-.78-1.13c2.13-.64,4.23-2.5,4.32-4.55H38.49V13.54h9v1.18H43.69c.09,2,2.19,3.68,4.19,4.13Zm-6.58,6.71V21.09H51.3v5.63Zm.21-14.6v-1.2h4.48v1.2Zm9.1,10.16H42v3.25h7.88Zm0-2.11V10.49h1.43v9.68Z"/><path d="M63,15.15c0,2.33-1.92,3.8-4.23,3.8s-4.23-1.47-4.23-3.79a4.25,4.25,0,0,1,8.46,0Zm-7,0a2.6,2.6,0,0,0,2.8,2.62,2.62,2.62,0,1,0,0-5.22A2.59,2.59,0,0,0,56,15.15Zm1,11.57V20.21h1.44V22.3h7.75V20.21h1.43v6.51Zm9.19-3.26H58.39v2.09h7.75Zm0-4.15V10.49h1.43v8.82Z"/><path class="cls-2" d="M25,52.51a5,5,0,0,1-1.72-1.15,5.2,5.2,0,0,1-1.12-1.75,5.82,5.82,0,0,1-.4-2.2V47a6.63,6.63,0,0,1,.44-2.47,5.81,5.81,0,0,1,1.18-1.85A5.22,5.22,0,0,1,25,41.5a4.92,4.92,0,0,1,1.91-.4,5.17,5.17,0,0,1,2.16.43,4.37,4.37,0,0,1,1.53,1.18,4.92,4.92,0,0,1,.91,1.78,7.77,7.77,0,0,1,.3,2.21v.87H23.69v.08A5.14,5.14,0,0,0,24,49.11a3.57,3.57,0,0,0,.71,1.11,3.28,3.28,0,0,0,1.12.82,3.53,3.53,0,0,0,1.44.29,3.94,3.94,0,0,0,1.85-.42,3.79,3.79,0,0,0,1.35-1.12l1.19.93A4.92,4.92,0,0,1,30,52.25a5.34,5.34,0,0,1-2.79.67A5.87,5.87,0,0,1,25,52.51Zm.84-9.59a3,3,0,0,0-.95.63,3.64,3.64,0,0,0-.71,1,5.11,5.11,0,0,0-.41,1.4h6.13v-.09a3.47,3.47,0,0,0-.2-1.14,3.15,3.15,0,0,0-.56-1,2.56,2.56,0,0,0-.9-.72,2.86,2.86,0,0,0-1.29-.27A3,3,0,0,0,25.82,42.92Z"/><path class="cls-2" d="M35.1,41.32h1.74L37,43a5.07,5.07,0,0,1,.55-.66,4.42,4.42,0,0,1,.64-.52,4.27,4.27,0,0,1,1.1-.52,4.74,4.74,0,0,1,1.26-.2,4.93,4.93,0,0,1,1.63.26,3.14,3.14,0,0,1,1.25.79,3.7,3.7,0,0,1,.79,1.36,6.08,6.08,0,0,1,.28,2v7.23H42.53V45.52a4.34,4.34,0,0,0-.17-1.29,2,2,0,0,0-.49-.85,1.92,1.92,0,0,0-.82-.47,3.7,3.7,0,0,0-1.1-.15,3.17,3.17,0,0,0-1.85.57,3.67,3.67,0,0,0-.59.53,4.1,4.1,0,0,0-.47.68v8.17H35.1Z"/><path class="cls-2" d="M52.65,41.32H57v1.5H52.65V49a3.1,3.1,0,0,0,.17,1.1,1.64,1.64,0,0,0,.46.68,1.68,1.68,0,0,0,.68.37,3.12,3.12,0,0,0,.82.11,4.82,4.82,0,0,0,.65,0c.23,0,.45,0,.67-.09l.59-.11.46-.1.27,1.38a3,3,0,0,1-.59.26,6.89,6.89,0,0,1-.75.18,7.91,7.91,0,0,1-.87.13c-.31,0-.61,0-.91,0a4.64,4.64,0,0,1-1.42-.21A3,3,0,0,1,51.74,52,3.23,3.23,0,0,1,51,50.81a5.27,5.27,0,0,1-.28-1.8V42.82h-3v-1.5h3V38.56h2Z"/><path class="cls-2" d="M69.57,41.18a3.29,3.29,0,0,1,.88.2l-.26,1.9q-.57-.12-1.08-.18A9.2,9.2,0,0,0,68,43a4.39,4.39,0,0,0-1.3.18,3.08,3.08,0,0,0-1.69,1.23,4.45,4.45,0,0,0-.48.95v7.31H62.62V41.32h1.85l.08,1.52v.29a5.22,5.22,0,0,1,1.67-1.48,4.51,4.51,0,0,1,2.22-.55A8.81,8.81,0,0,1,69.57,41.18Z"/><path class="cls-2" d="M74.2,57.25l-.56-.11L74,55.55l.52,0,.41,0a1.36,1.36,0,0,0,.73-.22,3,3,0,0,0,.59-.53,3.76,3.76,0,0,0,.44-.63l.29-.54.78-1.52L72.81,41.32H75l3.13,7.35.5,1.38.54-1.34,2.94-7.39h2.18L78.5,54.47c-.14.29-.31.61-.51.94a4.65,4.65,0,0,1-.76.91,3.84,3.84,0,0,1-1,.71,3.06,3.06,0,0,1-1.36.28A4.11,4.11,0,0,1,74.2,57.25Z"/></g></g></svg>