<svg xmlns="http://www.w3.org/2000/svg" viewBox="0 0 169.6 63.93"><defs><style>.cls-1{fill:lime;stroke-width:0.5px;}.cls-1,.cls-2{stroke:#000;stroke-miterlimit:10;}.cls-2{fill:none;stroke-width:0.3px;}</style></defs><g id="레이어_2" data-name="레이어 2"><g id="그래픽"><polygon class="cls-1" points="81.65 28.03 81.65 0.25 0.25 0.25 0.25 33.88 12.54 33.88 12.54 63.68 169.35 63.68 169.35 28.03 81.65 28.03"/><path d="M17.63,17.54a3.59,3.59,0,0,0,1.19-.18,2.67,2.67,0,0,0,.87-.51,2.09,2.09,0,0,0,.53-.75,2.58,2.58,0,0,0,.18-1A3.25,3.25,0,0,0,20.24,14a2,2,0,0,0-.48-.78,1.83,1.83,0,0,0-.77-.44,3.3,3.3,0,0,0-1-.15,3.05,3.05,0,0,0-1,.16,2.25,2.25,0,0,0-.79.49,2,2,0,0,0-.52.76,2.4,2.4,0,0,0-.19,1H13.64a3.72,3.72,0,0,1,1.19-2.74,4.12,4.12,0,0,1,1.36-.82,4.92,4.92,0,0,1,1.76-.3,5.5,5.5,0,0,1,1.72.25,3.82,3.82,0,0,1,1.34.75,3.41,3.41,0,0,1,.86,1.24,4.38,4.38,0,0,1,.31,1.71,2.82,2.82,0,0,1-.13.84,3.16,3.16,0,0,1-.38.84,3.66,3.66,0,0,1-.67.77,3.61,3.61,0,0,1-1,.6,3.64,3.64,0,0,1,1.13.58,2.86,2.86,0,0,1,1.12,1.73,4.58,4.58,0,0,1,.11,1,4.19,4.19,0,0,1-.34,1.74,3.49,3.49,0,0,1-.93,1.27,4,4,0,0,1-1.41.81,5.49,5.49,0,0,1-1.75.27,5.75,5.75,0,0,1-1.73-.26,4.07,4.07,0,0,1-1.41-.76,3.69,3.69,0,0,1-1-1.22,3.76,3.76,0,0,1-.35-1.64H15.3a2.51,2.51,0,0,0,.19,1,2.17,2.17,0,0,0,.53.77,2.48,2.48,0,0,0,.84.49,3.75,3.75,0,0,0,2.2,0,2.23,2.23,0,0,0,.83-.49,2.13,2.13,0,0,0,.54-.81,3.27,3.27,0,0,0,.18-1.15,2.73,2.73,0,0,0-.21-1.12,2.41,2.41,0,0,0-.6-.8,2.82,2.82,0,0,0-.95-.47A4.63,4.63,0,0,0,17.63,19H16.37V17.54Z"/><path d="M30.15,25.67a5.05,5.05,0,0,1-1.22,1.68l-1.1-.61a4.39,4.39,0,0,0,.65-1.43,6.33,6.33,0,0,0,.19-1.58V22H30.6V23.7A4.78,4.78,0,0,1,30.15,25.67ZM28.66,13.58a1.31,1.31,0,0,1,1.05-.41,1.36,1.36,0,0,1,1.05.4,1.41,1.41,0,0,1,.36,1,1.34,1.34,0,0,1-.36.95,1.38,1.38,0,0,1-1.05.38,1.32,1.32,0,0,1-1-.39,1.31,1.31,0,0,1-.35-.94A1.44,1.44,0,0,1,28.66,13.58Z"/><path d="M46.33,17.11v1.77h6.75v1.19H38.21V18.88H44.9V17.11H40.11V10.88h1.43v2h8.23v-2H51.2v6.23Zm4.92,4.6v5.35H49.82V22.9h-10V21.71Zm-1.48-7.64H41.54v1.86h8.23Z"/><path d="M62,23.06a9.68,9.68,0,0,1-3.38-4.48,8.69,8.69,0,0,1-3.42,4.92l-.95-1a8.46,8.46,0,0,0,3.66-7V13.61H54.63V12.42h7.83v1.19H59.31v1.8A7.39,7.39,0,0,0,62.89,22Zm1.71,3.06V17.71H61.07V16.53H63.7V10.88h1.4V26.12ZM67,27V10.49h1.41V27Z"/><path class="cls-2" d="M28.53,41.84a3.29,3.29,0,0,1,.88.2l-.26,1.9q-.57-.12-1.08-.18A9.2,9.2,0,0,0,27,43.7a4.76,4.76,0,0,0-1.3.17,3.12,3.12,0,0,0-1,.52,2.93,2.93,0,0,0-.68.72,4.45,4.45,0,0,0-.48,1v7.31h-2V42h1.86l.08,1.53v.29a5.22,5.22,0,0,1,1.67-1.48,4.4,4.4,0,0,1,2.22-.55A8.81,8.81,0,0,1,28.53,41.84Z"/><path class="cls-2" d="M35.71,53.17a5,5,0,0,1-2.83-2.9,5.82,5.82,0,0,1-.4-2.2v-.44a6.44,6.44,0,0,1,.44-2.47,5.64,5.64,0,0,1,1.18-1.85,5,5,0,0,1,1.66-1.15,4.88,4.88,0,0,1,1.91-.4,5.12,5.12,0,0,1,2.15.43,4.17,4.17,0,0,1,1.53,1.17,5.09,5.09,0,0,1,.91,1.78,7.54,7.54,0,0,1,.3,2.22v.87H34.42v.07a4.81,4.81,0,0,0,.34,1.47,3.4,3.4,0,0,0,.71,1.11,3.34,3.34,0,0,0,1.11.82A3.61,3.61,0,0,0,38,52a3.93,3.93,0,0,0,3.2-1.54l1.19.93a5,5,0,0,1-1.7,1.53,5.4,5.4,0,0,1-2.8.67A5.87,5.87,0,0,1,35.71,53.17Zm.84-9.59a2.82,2.82,0,0,0-.95.63,3.86,3.86,0,0,0-.71,1,4.78,4.78,0,0,0-.4,1.4h6.13v-.1a3.75,3.75,0,0,0-.2-1.13,3.51,3.51,0,0,0-.56-1,2.76,2.76,0,0,0-.9-.71,2.85,2.85,0,0,0-1.29-.28A3,3,0,0,0,36.55,43.58Z"/><path class="cls-2" d="M45.82,42H47.6l.09,1.25a4.38,4.38,0,0,1,.51-.54,3.91,3.91,0,0,1,1.57-.78,4.87,4.87,0,0,1,1.17-.14,4.33,4.33,0,0,1,1.94.43,4,4,0,0,1,1.41,1.21,5.53,5.53,0,0,1,.86,1.83,8.74,8.74,0,0,1,.3,2.35v.22a8.38,8.38,0,0,1-.3,2.28,5.79,5.79,0,0,1-.86,1.84,4.13,4.13,0,0,1-1.41,1.22,4.08,4.08,0,0,1-1.91.44,5.24,5.24,0,0,1-1.22-.14,3.93,3.93,0,0,1-1-.39,3.15,3.15,0,0,1-.52-.35,3.64,3.64,0,0,1-.45-.43v5.48h-2Zm7.49,4a4.3,4.3,0,0,0-.56-1.33,3,3,0,0,0-1-.91,2.83,2.83,0,0,0-1.41-.33,3.22,3.22,0,0,0-.84.1,2.17,2.17,0,0,0-.69.31,2.8,2.8,0,0,0-.6.49,3.88,3.88,0,0,0-.46.66v5.48a3.45,3.45,0,0,0,.41.59,2.31,2.31,0,0,0,.52.47,3.09,3.09,0,0,0,.76.34,2.92,2.92,0,0,0,.92.13,2.72,2.72,0,0,0,1.4-.34,2.94,2.94,0,0,0,1-.92,4.36,4.36,0,0,0,.56-1.34,6.41,6.41,0,0,0,.19-1.59v-.22A6.3,6.3,0,0,0,53.31,46Z"/><path class="cls-2" d="M64.9,37.19V51.68h3.72v1.69H59.08V51.68H63V38.89H59.08v-1.7Z"/><path class="cls-2" d="M77.85,42v9.71h3.71v1.69H72V51.68H75.9v-8H72V42Zm-2.13-3.46a1,1,0,0,1,.6-.6,1.53,1.53,0,0,1,.49-.07,1.45,1.45,0,0,1,.49.07,1.1,1.1,0,0,1,.35.22,1,1,0,0,1,.25.37A1.27,1.27,0,0,1,78,39a1.09,1.09,0,0,1-.29.79,1.16,1.16,0,0,1-.88.32,1.12,1.12,0,0,1-.87-.32,1.09,1.09,0,0,1-.29-.79A1.45,1.45,0,0,1,75.72,38.51Z"/><path class="cls-2" d="M90.54,51.83a2.91,2.91,0,0,0,.89-.47,2.46,2.46,0,0,0,.63-.7,1.83,1.83,0,0,0,.25-.88h1.84a3,3,0,0,1-.4,1.45,3.89,3.89,0,0,1-1,1.2,5.23,5.23,0,0,1-1.48.84,4.82,4.82,0,0,1-1.73.31,5.2,5.2,0,0,1-2.27-.46,4.66,4.66,0,0,1-1.61-1.26,5.24,5.24,0,0,1-1-1.8,7.08,7.08,0,0,1-.33-2.17v-.44a7.07,7.07,0,0,1,.33-2.16,5.33,5.33,0,0,1,1-1.82,4.73,4.73,0,0,1,1.61-1.24,5.62,5.62,0,0,1,4.12-.15,4.85,4.85,0,0,1,1.47.87,4,4,0,0,1,1,1.32,3.9,3.9,0,0,1,.35,1.62H92.31a2.47,2.47,0,0,0-.23-1,2.61,2.61,0,0,0-.58-.81,2.92,2.92,0,0,0-.88-.55,3.07,3.07,0,0,0-1.1-.2,3,3,0,0,0-1.53.37,2.88,2.88,0,0,0-1,.94A3.87,3.87,0,0,0,86.46,46a6.54,6.54,0,0,0-.17,1.46v.44a6.72,6.72,0,0,0,.17,1.48A3.74,3.74,0,0,0,87,50.68a2.73,2.73,0,0,0,1,1,3,3,0,0,0,1.54.36A3.21,3.21,0,0,0,90.54,51.83Z"/><path class="cls-2" d="M104.91,52.82a5,5,0,0,1-.1-.69,7.46,7.46,0,0,1-.66.56,5.58,5.58,0,0,1-.8.46,4.62,4.62,0,0,1-.93.31,4.47,4.47,0,0,1-1.06.12,4.89,4.89,0,0,1-1.63-.26,3.86,3.86,0,0,1-1.24-.72,3,3,0,0,1-.8-1.06,3.27,3.27,0,0,1-.28-1.33,3.45,3.45,0,0,1,.38-1.64,3.24,3.24,0,0,1,1.06-1.18,5,5,0,0,1,1.65-.7,9.45,9.45,0,0,1,2.15-.23h2.13v-.89a2.27,2.27,0,0,0-.19-.93,2.1,2.1,0,0,0-.54-.71,2.53,2.53,0,0,0-.85-.44,3.88,3.88,0,0,0-1.12-.16,3.35,3.35,0,0,0-1,.15,2.65,2.65,0,0,0-.77.39,1.77,1.77,0,0,0-.49.57,1.47,1.47,0,0,0-.17.69h-2A2.62,2.62,0,0,1,98,43.91a3.25,3.25,0,0,1,.9-1.08,4.63,4.63,0,0,1,1.41-.77,5.67,5.67,0,0,1,1.91-.3A6.53,6.53,0,0,1,104,42a4.41,4.41,0,0,1,1.44.71,3.4,3.4,0,0,1,.95,1.2,3.85,3.85,0,0,1,.34,1.68v5.29a7.45,7.45,0,0,0,.11,1.21,5.56,5.56,0,0,0,.29,1.11v.17h-2A2.22,2.22,0,0,1,104.91,52.82Zm-2.2-1.08a4.38,4.38,0,0,0,.91-.39,3.19,3.19,0,0,0,.69-.56,2.77,2.77,0,0,0,.47-.64V47.84H103a8.27,8.27,0,0,0-1.76.17,2.92,2.92,0,0,0-1.19.54,1.4,1.4,0,0,0-.48.6,1.8,1.8,0,0,0-.17.79,2,2,0,0,0,.15.78,1.59,1.59,0,0,0,.42.61,2.09,2.09,0,0,0,.72.41,3.06,3.06,0,0,0,1,.14A3.62,3.62,0,0,0,102.71,51.74Z"/><path class="cls-2" d="M115.16,42h4.34v1.51h-4.34v6.19a3.1,3.1,0,0,0,.17,1.1,1.7,1.7,0,0,0,.46.68,1.68,1.68,0,0,0,.68.37,3.12,3.12,0,0,0,.82.11c.21,0,.43,0,.65,0a6.57,6.57,0,0,0,.66-.09c.22,0,.41-.07.6-.11l.46-.1.27,1.38a3,3,0,0,1-.59.26,6.56,6.56,0,0,1-.76.18,7.25,7.25,0,0,1-.87.13,9.1,9.1,0,0,1-.91,0,4.34,4.34,0,0,1-1.41-.22,2.88,2.88,0,0,1-1.15-.69,3.21,3.21,0,0,1-.76-1.2,5.08,5.08,0,0,1-.28-1.8V43.48h-3V42h3V39.22h2Z"/><path class="cls-2" d="M129.62,42v9.71h3.72v1.69H123.8V51.68h3.87v-8H123.8V42Zm-2.12-3.46a.87.87,0,0,1,.25-.38,1.1,1.1,0,0,1,.35-.22,1.49,1.49,0,0,1,.49-.07,1.43,1.43,0,0,1,.48.07,1.1,1.1,0,0,1,.35.22.87.87,0,0,1,.25.37,1.28,1.28,0,0,1,.09.48,1.09,1.09,0,0,1-.3.79,1.17,1.17,0,0,1-2-.79A1.45,1.45,0,0,1,127.5,38.51Z"/><path class="cls-2" d="M136.25,45.28a5.26,5.26,0,0,1,1-1.84,4.71,4.71,0,0,1,1.62-1.23,5.43,5.43,0,0,1,4.33,0,4.79,4.79,0,0,1,1.64,1.23,5.57,5.57,0,0,1,1,1.84,7,7,0,0,1,.36,2.29v.23a7,7,0,0,1-.36,2.28,5.57,5.57,0,0,1-1,1.84,4.82,4.82,0,0,1-1.63,1.22,5.18,5.18,0,0,1-2.16.44,5.27,5.27,0,0,1-2.18-.44,4.69,4.69,0,0,1-1.62-1.22,5.26,5.26,0,0,1-1-1.84,7,7,0,0,1-.36-2.28v-.23A7,7,0,0,1,136.25,45.28ZM138,49.4a4,4,0,0,0,.61,1.35,2.85,2.85,0,0,0,1,.91,3.11,3.11,0,0,0,2.83,0,3,3,0,0,0,1-.91,4.15,4.15,0,0,0,.6-1.35,6,6,0,0,0,.2-1.6v-.23a6.43,6.43,0,0,0-.2-1.6,4.22,4.22,0,0,0-.61-1.34,3.06,3.06,0,0,0-1-.92,2.85,2.85,0,0,0-1.42-.35,2.78,2.78,0,0,0-1.41.35,2.94,2.94,0,0,0-1,.92A3.83,3.83,0,0,0,138,46a6,6,0,0,0-.2,1.6v.23A6,6,0,0,0,138,49.4Z"/><path class="cls-2" d="M149.38,42h1.75l.13,1.69a5.13,5.13,0,0,1,.56-.66,4.35,4.35,0,0,1,.63-.52,4.44,4.44,0,0,1,1.1-.52,4.74,4.74,0,0,1,1.26-.2,4.93,4.93,0,0,1,1.63.26,3.14,3.14,0,0,1,1.25.79,3.49,3.49,0,0,1,.79,1.36,6.05,6.05,0,0,1,.28,2v7.24h-1.95V46.18a4.36,4.36,0,0,0-.16-1.29,2.16,2.16,0,0,0-.5-.85,2,2,0,0,0-.82-.48,4,4,0,0,0-1.1-.14,3.27,3.27,0,0,0-1,.15,3.09,3.09,0,0,0-1.43,1,3.58,3.58,0,0,0-.47.68v8.17h-2Z"/></g></g></svg>