<svg xmlns="http://www.w3.org/2000/svg" viewBox="0 0 133.04 63.93"><defs><style>.cls-1{fill:lime;stroke-width:0.5px;}.cls-1,.cls-2{stroke:#000;stroke-miterlimit:10;}.cls-2{fill:none;stroke-width:0.3px;}</style></defs><g id="레이어_2" data-name="레이어 2"><g id="그래픽"><polygon class="cls-1" points="81.65 28.03 81.65 0.25 0.25 0.25 0.25 33.88 11.99 33.88 11.99 63.68 132.79 63.68 132.79 28.03 81.65 28.03"/><path d="M22.9,20.69v1.45H21v3.25H19.17V22.14H12.79V21.09l6.27-9.69H21v9.29Zm-3.73,0V13.76l-.28.54-4.13,6.39Z"/><path d="M29.61,25.67a5.05,5.05,0,0,1-1.22,1.68l-1.11-.61a4.42,4.42,0,0,0,.66-1.43,6.83,6.83,0,0,0,.19-1.58V22h1.93V23.7A4.78,4.78,0,0,1,29.61,25.67ZM28.12,13.58a1.3,1.3,0,0,1,1-.41,1.37,1.37,0,0,1,1.06.4,1.41,1.41,0,0,1,.36,1,1.3,1.3,0,0,1-.37.95,1.35,1.35,0,0,1-1.05.38,1.34,1.34,0,0,1-1-.39,1.35,1.35,0,0,1-.35-.94A1.44,1.44,0,0,1,28.12,13.58Z"/><path d="M37.67,24.84v-1.2h6.69V19.55h1.43v4.09h6.74v1.2Zm8.19-11.53v.35c0,2.58,3.63,5,6.1,5.49l-.74,1.2c-2.64-.74-5.34-2.8-6.12-4.6-.69,1.86-3.42,3.87-6.14,4.56l-.69-1.2c2.6-.46,6.09-2.83,6.09-5.45v-.35H38.94V12.16H51.29v1.15Z"/><path d="M53.87,14.23V13.06h9.59v1.17Zm4.79,6c-2.23,0-3.82-1.05-3.82-2.66s1.56-2.67,3.82-2.67,3.83,1,3.83,2.67S60.89,20.23,58.66,20.23Zm-2.42,6.6v-6h1.43V22.6h7.49V20.83h1.43v6Zm2.42-10.78c-1.27,0-2.4.55-2.4,1.52s1.15,1.52,2.4,1.52,2.39-.58,2.39-1.52S60,16.05,58.66,16.05Zm-2.37-4.12V10.72H61v1.21Zm8.87,11.85H57.67v1.84h7.49Zm1.43-7.43V20H65.16V10.49h1.43v4.66H69.1v1.2Z"/><path class="cls-2" d="M28.9,52.48c0-.23-.07-.45-.1-.69a5.09,5.09,0,0,1-.65.55,5.25,5.25,0,0,1-.8.47,4.71,4.71,0,0,1-.94.31,4.44,4.44,0,0,1-1.05.12A5,5,0,0,1,23.72,53a3.7,3.7,0,0,1-1.23-.72,3,3,0,0,1-.8-1.06,3.11,3.11,0,0,1-.28-1.33,3.45,3.45,0,0,1,.38-1.64,3.21,3.21,0,0,1,1.05-1.18,5.17,5.17,0,0,1,1.65-.7,9.48,9.48,0,0,1,2.16-.23h2.12v-.89a2.12,2.12,0,0,0-.19-.93,2,2,0,0,0-.53-.71,2.73,2.73,0,0,0-.85-.44A3.61,3.61,0,0,0,26.08,43a3.3,3.3,0,0,0-1,.15,2.53,2.53,0,0,0-.77.39,1.56,1.56,0,0,0-.49.57,1.42,1.42,0,0,0-.18.69h-2A2.88,2.88,0,0,1,22,43.57a3.51,3.51,0,0,1,.9-1.08,4.48,4.48,0,0,1,1.42-.77,5.61,5.61,0,0,1,1.9-.3,6.42,6.42,0,0,1,1.8.24,4.36,4.36,0,0,1,1.45.71,3.37,3.37,0,0,1,.94,1.2,3.71,3.71,0,0,1,.35,1.68v5.29a7.45,7.45,0,0,0,.11,1.21,5.75,5.75,0,0,0,.29,1.11V53h-2A2.2,2.2,0,0,1,28.9,52.48ZM26.71,51.4a4.08,4.08,0,0,0,.9-.39,3.25,3.25,0,0,0,.7-.56,2.46,2.46,0,0,0,.46-.64V47.5H27a8.27,8.27,0,0,0-1.76.17,3,3,0,0,0-1.2.54,1.56,1.56,0,0,0-.48.6,1.8,1.8,0,0,0-.16.79,2.21,2.21,0,0,0,.14.78,1.74,1.74,0,0,0,.43.61,2.14,2.14,0,0,0,.71.41,3.12,3.12,0,0,0,1,.14A3.67,3.67,0,0,0,26.71,51.4Z"/><path class="cls-2" d="M42,49.38a1.37,1.37,0,0,0-.46-.51,3.91,3.91,0,0,0-.87-.43,10,10,0,0,0-1.33-.35,12.85,12.85,0,0,1-1.79-.48,5.48,5.48,0,0,1-1.37-.69,2.91,2.91,0,0,1-.9-.92,2.38,2.38,0,0,1-.32-1.24,2.67,2.67,0,0,1,.33-1.3,3.4,3.4,0,0,1,.92-1.06,4.5,4.5,0,0,1,1.4-.71,5.76,5.76,0,0,1,1.8-.27,6,6,0,0,1,1.9.28,4.25,4.25,0,0,1,1.43.76,3.52,3.52,0,0,1,.91,1.13A3.12,3.12,0,0,1,44,45H42a1.49,1.49,0,0,0-.19-.72,2,2,0,0,0-.52-.62,2.59,2.59,0,0,0-.82-.45A3.31,3.31,0,0,0,39.39,43a3.9,3.9,0,0,0-1.09.14,2.57,2.57,0,0,0-.78.37,1.51,1.51,0,0,0-.47.54,1.4,1.4,0,0,0-.16.63,1.47,1.47,0,0,0,.13.6,1.21,1.21,0,0,0,.44.47,3.23,3.23,0,0,0,.83.38q.52.16,1.32.33A17,17,0,0,1,41.5,47a5.54,5.54,0,0,1,1.4.69,3,3,0,0,1,.87,1,2.47,2.47,0,0,1,.3,1.24,2.77,2.77,0,0,1-.35,1.38,3.19,3.19,0,0,1-.95,1.06,4.59,4.59,0,0,1-1.46.69,6.88,6.88,0,0,1-1.87.24,6.24,6.24,0,0,1-2.06-.31,4.65,4.65,0,0,1-1.53-.83,3.38,3.38,0,0,1-1-1.18,3.14,3.14,0,0,1-.34-1.4h2a2.08,2.08,0,0,0,.32,1,2.24,2.24,0,0,0,.7.67,3.08,3.08,0,0,0,.92.35,4.94,4.94,0,0,0,1,.11,4.62,4.62,0,0,0,1.36-.18,2.27,2.27,0,0,0,.91-.52,1.43,1.43,0,0,0,.3-.44,1.26,1.26,0,0,0,.11-.51A1.42,1.42,0,0,0,42,49.38Z"/><path class="cls-2" d="M54.92,49.38a1.29,1.29,0,0,0-.46-.51,4,4,0,0,0-.86-.43,10.2,10.2,0,0,0-1.34-.35,13.24,13.24,0,0,1-1.79-.48,5.66,5.66,0,0,1-1.37-.69,2.91,2.91,0,0,1-.9-.92,2.38,2.38,0,0,1-.31-1.24,2.78,2.78,0,0,1,.32-1.3,3.54,3.54,0,0,1,.92-1.06,4.45,4.45,0,0,1,1.41-.71,5.65,5.65,0,0,1,1.79-.27,5.93,5.93,0,0,1,1.9.28,4.15,4.15,0,0,1,1.43.76,3.39,3.39,0,0,1,.91,1.13A3,3,0,0,1,56.89,45h-2a1.49,1.49,0,0,0-.19-.72,2,2,0,0,0-.52-.62,2.59,2.59,0,0,0-.82-.45A3.31,3.31,0,0,0,52.33,43a4,4,0,0,0-1.09.14,2.4,2.4,0,0,0-.77.37,1.54,1.54,0,0,0-.48.54,1.39,1.39,0,0,0-.15.63,1.46,1.46,0,0,0,.12.6,1.25,1.25,0,0,0,.45.47,3,3,0,0,0,.82.38q.52.16,1.32.33a16.41,16.41,0,0,1,1.89.51,5.54,5.54,0,0,1,1.4.69,2.89,2.89,0,0,1,.87,1,2.47,2.47,0,0,1,.3,1.24,2.88,2.88,0,0,1-.34,1.38,3.23,3.23,0,0,1-1,1.06,4.39,4.39,0,0,1-1.46.69,6.86,6.86,0,0,1-1.86.24,6.26,6.26,0,0,1-2.07-.31,4.87,4.87,0,0,1-1.53-.83,3.38,3.38,0,0,1-1-1.18,3.13,3.13,0,0,1-.33-1.4h2a1.89,1.89,0,0,0,.32,1,2.13,2.13,0,0,0,.7.67,3,3,0,0,0,.91.35,5,5,0,0,0,1,.11,4.55,4.55,0,0,0,1.35-.18,2.27,2.27,0,0,0,.91-.52,1.43,1.43,0,0,0,.3-.44,1.26,1.26,0,0,0,.11-.51A1.42,1.42,0,0,0,54.92,49.38Z"/><path class="cls-2" d="M63.26,52.83a4.91,4.91,0,0,1-1.72-1.15,5.2,5.2,0,0,1-1.12-1.75,5.82,5.82,0,0,1-.4-2.2v-.44a6.63,6.63,0,0,1,.44-2.47A5.81,5.81,0,0,1,61.64,43a5.22,5.22,0,0,1,1.66-1.15,4.92,4.92,0,0,1,1.91-.4,5.2,5.2,0,0,1,2.16.43A4.34,4.34,0,0,1,68.9,43a5.09,5.09,0,0,1,.91,1.78,7.89,7.89,0,0,1,.3,2.22v.87H62V48a5.13,5.13,0,0,0,.33,1.47A3.57,3.57,0,0,0,63,50.54a3.28,3.28,0,0,0,1.12.82,3.53,3.53,0,0,0,1.44.29,3.94,3.94,0,0,0,1.85-.42,3.88,3.88,0,0,0,1.35-1.12L70,51a5,5,0,0,1-1.7,1.53,5.34,5.34,0,0,1-2.79.67A5.87,5.87,0,0,1,63.26,52.83Zm.84-9.59a2.82,2.82,0,0,0-.95.63,3.64,3.64,0,0,0-.71,1,4.78,4.78,0,0,0-.41,1.4h6.13v-.1a3.46,3.46,0,0,0-.2-1.13A3.3,3.3,0,0,0,67.4,44a2.65,2.65,0,0,0-.9-.71A2.85,2.85,0,0,0,65.21,43,3,3,0,0,0,64.1,43.24Z"/><path class="cls-2" d="M74.32,42.71a2.65,2.65,0,0,1,.91-.94,2.78,2.78,0,0,1,1.37-.35,3.32,3.32,0,0,1,.81.1,2.22,2.22,0,0,1,.64.29,1.75,1.75,0,0,1,.36.36,2,2,0,0,1,.28.47,2.86,2.86,0,0,1,.78-.82,2.79,2.79,0,0,1,.66-.28,3.28,3.28,0,0,1,.8-.12A3,3,0,0,1,82,41.6a2,2,0,0,1,.8.51,2.51,2.51,0,0,1,.55,1,5.05,5.05,0,0,1,.19,1.43V53H81.67V44.5a2,2,0,0,0-.08-.63,1.33,1.33,0,0,0-.24-.46,1.09,1.09,0,0,0-.42-.25,1.91,1.91,0,0,0-.57-.08,1.8,1.8,0,0,0-.6.09,1.23,1.23,0,0,0-.42.25,1.44,1.44,0,0,0-.27.39,1.69,1.69,0,0,0-.12.48V53H77.09V44.49a2,2,0,0,0-.08-.63,1.06,1.06,0,0,0-.24-.46,1,1,0,0,0-.4-.24,1.55,1.55,0,0,0-.55-.08,1.88,1.88,0,0,0-.61.08,1.17,1.17,0,0,0-.43.22,1.22,1.22,0,0,0-.24.27,1.14,1.14,0,0,0-.16.31V53H72.52V41.63h1.75Z"/><path class="cls-2" d="M95.87,48.9a7.16,7.16,0,0,1-.33,1.29,5.56,5.56,0,0,1-.74,1.41,3.77,3.77,0,0,1-2.12,1.48,4.08,4.08,0,0,1-1.19.16,4.67,4.67,0,0,1-1.34-.18,3.77,3.77,0,0,1-1.09-.51,5.54,5.54,0,0,1-.45-.37,4.41,4.41,0,0,1-.4-.45L88.12,53H86.33V36.85h2v6a3.58,3.58,0,0,1,.54-.56,3.46,3.46,0,0,1,.63-.42,3.88,3.88,0,0,1,.92-.34,4.82,4.82,0,0,1,1.1-.12,4.56,4.56,0,0,1,1.36.2,4.2,4.2,0,0,1,1.12.56,3.71,3.71,0,0,1,.81.82,6.18,6.18,0,0,1,.64,1.07,6.85,6.85,0,0,1,.43,1.47,9.19,9.19,0,0,1,.15,1.7v.22A9.55,9.55,0,0,1,95.87,48.9ZM94,46.19a5.62,5.62,0,0,0-.21-1,4.26,4.26,0,0,0-.49-1,2.24,2.24,0,0,0-.75-.72,2.47,2.47,0,0,0-.68-.3,3.25,3.25,0,0,0-.85-.1,3,3,0,0,0-.92.13,2.89,2.89,0,0,0-.75.36,2.94,2.94,0,0,0-.6.57,3.28,3.28,0,0,0-.43.7v5a3.47,3.47,0,0,0,.45.7,3.13,3.13,0,0,0,.59.56,2.44,2.44,0,0,0,.76.37,3,3,0,0,0,.93.14,3.07,3.07,0,0,0,.88-.12,2.43,2.43,0,0,0,.72-.36,2.4,2.4,0,0,0,.7-.75,3.87,3.87,0,0,0,.45-1,4.22,4.22,0,0,0,.2-.9,6.41,6.41,0,0,0,.07-1v-.22A7.22,7.22,0,0,0,94,46.19Z"/><path class="cls-2" d="M105.39,36.85V51.34h3.72V53H99.57V51.34h3.87V38.55H99.57v-1.7Z"/><path class="cls-2" d="M112.48,57.57l-.56-.11.32-1.59.52,0,.4,0a1.3,1.3,0,0,0,.74-.23,2.66,2.66,0,0,0,.59-.52,4.81,4.81,0,0,0,.44-.63l.29-.54.78-1.52-4.91-10.86h2.18L116.4,49l.5,1.38.54-1.33,2.94-7.4h2.18l-5.78,13.16c-.14.29-.31.61-.51.94a4.65,4.65,0,0,1-.76.91,4,4,0,0,1-1,.71,3.09,3.09,0,0,1-1.36.28A4.11,4.11,0,0,1,112.48,57.57Z"/></g></g></svg>