<svg xmlns="http://www.w3.org/2000/svg" viewBox="0 0 352.85 138.48"><defs><style>.cls-1{fill:#fff;stroke:#000;stroke-miterlimit:10;stroke-width:0.3px;}</style></defs><g id="레이어_2" data-name="레이어 2"><g id="그래픽"><polygon class="cls-1" points="352.7 138.33 120.65 138.33 120.65 92.84 47.2 92.84 47.2 72.2 0.15 72.2 0.15 45.02 18.06 45.02 18.06 22.16 289.3 22.16 289.3 0.15 352.7 0.15 352.7 138.33"/><path d="M26.24,41.92v-.6H36.31v.6Zm1-7.82v-.6h8v.6Zm0,4.61V38.1h1.86l-.32-3.32.75-.12.23,3.44h3l.35-3.43.7.12-.4,3.31h1.88v.61Z"/><path d="M37.28,41.91v-.6H42V39.12H38.64v-3.4h6.63v-2H38.65v-.61H46v3.21H39.33v2.2h7v.6H42.65v2.19h4.7v.6Z"/><path d="M48.61,33.17h5v.6H51.49v.66a3.63,3.63,0,0,0,2.38,3.26l-.43.55a4.76,4.76,0,0,1-2.29-2.4,5.37,5.37,0,0,1-2.25,2.7L48.43,38a4.38,4.38,0,0,0,2.37-3.59v-.67H48.61ZM57,43.36V40H50.34v-.59h7.35v3.93Zm-2.06-4.63v-3H53v-.6h1.92V32.46h.69v6.27Zm2,.12V32.21h.69v6.64Z"/><path d="M59.36,41.91v-.6H69.43v.6Zm2-5.53v2h6.74V39H60.72V33.35H68V34H61.41V35.8h6.31v.58Z"/><path d="M75.29,36.68h1.62V32.42h.72V42.8h-.72V37.28H75.29c-.07,2.16-.92,3.4-2.31,3.4S70.64,39.32,70.64,37s.86-3.71,2.34-3.71S75.23,34.51,75.29,36.68ZM73,33.86c-1,0-1.63,1.14-1.63,3.11S72,40.08,73,40.08,74.6,38.94,74.6,37,74,33.86,73,33.86Zm6.09,9.5V32.21h.71V43.36Z"/><path d="M90.7,38.46a5.22,5.22,0,0,1-2.76-2.35,4.94,4.94,0,0,1-2.86,2.66l-.4-.56c1.58-.52,2.91-1.91,2.91-3.18V35H85v-.6h5.78V35H88.29V35c0,1.22,1.51,2.56,2.82,2.85Zm-4.29,4.73V39.48H93.3v3.71Zm0-10v-.61h3v.61Zm6.16,6.94H87.1V42.6h5.52Zm.67-4.14v2.93H92.6V32.21h.69v3.13h1.76v.6Z"/><path d="M98.74,33.07c1.62,0,2.7,1.53,2.7,3.91s-1.08,3.9-2.7,3.9S96,39.35,96,37,97.12,33.07,98.74,33.07Zm0,.63c-1.2,0-2,1.4-2,3.28s.78,3.28,2,3.28,2-1.42,2-3.28S99.94,33.7,98.74,33.7Zm3.18,1.74v-.6h2.28V32.21h.7V43.36h-.7V39.05h-2.28v-.6h2.28v-3Z"/><path d="M106.86,35.53v-.6h6.53v.6Zm3.34,5.37a2.26,2.26,0,1,1,2.55-2.24A2.33,2.33,0,0,1,110.2,40.9Zm0-3.89a1.66,1.66,0,1,0,1.85,1.65A1.71,1.71,0,0,0,110.2,37Zm-1.72-3.34v-.61h3.17v.61Zm6.89,3.92v5.77h-.69V32.21h.69V37h1.9v.58Z"/><path d="M117.92,38.71V38.1H128v.61Zm1.43-2.33V32.59H120v3.19h6.74v.6Zm0,6.69V39.85H120v2.63h6.78v.59Z"/><path d="M137.05,33.65a8.54,8.54,0,0,1-4.27,7.19l-.5-.56a7.66,7.66,0,0,0,4-6h-3.49v-.6ZM141,43.36V37.47h-1.77v5.29h-.7V32.51h.7v4.36H141V32.21h.7V43.36Z"/><path d="M149.37,35.65a2.86,2.86,0,1,1-2.86-2.71A2.73,2.73,0,0,1,149.37,35.65Zm-5.05,0a2.13,2.13,0,0,0,2.19,2.11,2.11,2.11,0,1,0,0-4.21A2.13,2.13,0,0,0,144.32,35.65Zm.91,7.29V39.58h.7v2.76h6.8v.6Zm6.5-2.64V32.21h.7V40.3Z"/><path d="M157.66,33.1c1.62,0,2.7,1.52,2.7,3.91s-1.08,3.89-2.7,3.89S155,39.37,155,37,156,33.1,157.66,33.1Zm0,.62c-1.2,0-2,1.4-2,3.29s.78,3.27,2,3.27,2-1.41,2-3.27S158.86,33.72,157.66,33.72Zm5.1,9.64V32.21h.7V43.36Z"/><path d="M174.34,33.43c0,4.12-1.93,6.29-4.93,7.85l-.5-.6a7.56,7.56,0,0,0,4.16-4l-4,.43-.21-.67,4.4-.34a7.41,7.41,0,0,0,.34-2.12h-4.2v-.6Zm.08,4v-.6h2.74V32.21h.7V43.36h-.7v-6Z"/><path d="M182.61,43.37v-4h-2.77v-.6h10.07v.6h-2.78v4h-.69v-4h-3.15v4Zm-1.4-6.22V32.92h7.35v4.23Zm6.65-3.63h-6v3h6Z"/><path d="M197.87,39.86a32.54,32.54,0,0,1-5.19.53h-1v-7h.69v6.35a27.08,27.08,0,0,0,5.46-.55Zm1.93,3.5h-.69V32.21h.69Z"/><path d="M203.38,39.91a29.52,29.52,0,0,0,5.34-.41l.1.62a32.91,32.91,0,0,1-5.15.42c-.32,0-.66,0-1,0V33.31h5.07v.6h-4.38v2.51h4V37h-4Zm6.91,3.45V32.21h.7V43.36Z"/><path d="M220.54,40.48c-.85.1-2.35.2-3.79.28s-2.67.1-3.5.12l-.13-.66c.74,0,2.11,0,3.51-.08s3.14-.17,3.85-.26Zm-1.16-4.8a2.89,2.89,0,1,1-2.87-2.54A2.65,2.65,0,0,1,219.38,35.68Zm-5,0a2,2,0,0,0,2.13,1.9,1.91,1.91,0,0,0,2.15-1.89,2.15,2.15,0,0,0-4.28,0ZM222,32.21V43.36h-.69V32.21Z"/><path d="M233.4,40.58a8,8,0,0,1-2.9-3.6,7.77,7.77,0,0,1-2.88,3.92l-.51-.57a6.56,6.56,0,0,0,3-4.93V33.28h.71v2.11a5.71,5.71,0,0,0,3,4.61Zm2.45-3.17v6h-.69V32.21h.69v4.6h1.91v.6Z"/><path d="M242.43,39.51v1.21c1.37-.09,2.88-.22,3.51-.32l.05.6c-.77.11-2.68.26-4.06.37s-2.31.11-3.29.13l-.13-.66c.72,0,1.93,0,3.22-.08V39.51c-1.34-.09-2.27-.79-2.27-1.84s1.08-1.86,2.59-1.86,2.59.7,2.59,1.86S243.74,39.39,242.43,39.51Zm-3.63-4.35v-.6h6.69v.6Zm3.25,1.25c-1.08,0-1.87.49-1.87,1.26s.79,1.24,1.87,1.24,1.87-.5,1.87-1.24S243.13,36.41,242.05,36.41Zm-1.57-2.86V33h3.19v.6Zm6.24,9.81V32.21h.7V43.36Z"/><path d="M261.41,33a22.3,22.3,0,0,1-.42,4.77h1.88v.61H258.2v5h-.7v-5h-4.7v-.61h7.47a20.34,20.34,0,0,0,.42-4.17h-6.5V33Z"/><path d="M263.84,41.91v-.6h4.68V38.52h.69v2.79h4.7v.6Zm5.4-7.95v.41c0,1.62,2.55,3.45,4.23,3.8l-.38.59a7.31,7.31,0,0,1-4.21-3.27c-.37,1.12-2.2,2.69-4.22,3.24l-.36-.56c1.64-.3,4.21-2.16,4.21-3.8V34h-3.7v-.61h8.13V34Z"/><path d="M274.88,38.1v-.57H285v.57Zm1.27,5V40.74H283v-1h-6.82v-.6h7.52v2.2h-6.81v1.15h7.22v.6Zm.07-6.62V34.25h6.68v-1h-6.7v-.6h7.4v2.21h-6.68v1h6.87v.6Z"/><path d="M294.65,38.78v2.47h4.7v.6H289.28v-.6H294V38.78c-2.15-.11-3.55-1.22-3.55-2.9S292,33,294.31,33s3.89,1.15,3.89,2.9S296.79,38.67,294.65,38.78Zm-.34-5.23c-1.95,0-3.17,1-3.17,2.33s1.22,2.33,3.17,2.33,3.16-1,3.16-2.33S296.25,33.55,294.31,33.55Z"/><path d="M306.05,35.42a2.77,2.77,0,1,1-2.76-2.58A2.61,2.61,0,0,1,306.05,35.42Zm-4.83,0a2,2,0,0,0,2.07,2,2,2,0,1,0,0-3.94A2,2,0,0,0,301.22,35.42Zm1.14,7.77V39.26h7v3.93Zm6.36-3.32h-5.67v2.71h5.67Zm-2.34-6.08h2.31V32.21h.7V38.7h-.7V37h-2.31v-.56h2.31V34.36h-2.31Z"/><path d="M317.58,40.58a8,8,0,0,1-2.9-3.6,7.77,7.77,0,0,1-2.88,3.92l-.51-.57a6.56,6.56,0,0,0,3-4.93V33.28H315v2.11a5.71,5.71,0,0,0,3,4.61Zm2.15,2.78V32.21h.7V43.36Z"/><path d="M328.29,33.43c0,4.12-2.06,6.25-5,7.81l-.51-.58A7.92,7.92,0,0,0,327,36.73l-4,.43-.21-.67,4.41-.34a8,8,0,0,0,.37-2.12h-4.24v-.6Zm2.47,9.93V32.21h.7V43.36Z"/><path d="M333.44,38.71V38.1h10.07v.61Zm1.43-2.33V32.59h.69v3.19h6.74v.6Zm0,6.69V39.85h.69v2.63h6.78v.59Z"/><path d="M14.89,57a2.66,2.66,0,0,1-2.79,2.69,2.68,2.68,0,1,1,0-5.35A2.65,2.65,0,0,1,14.89,57ZM10,57a2,2,0,0,0,2.1,2,2,2,0,1,0,0-4.07A2,2,0,0,0,10,57Zm1.1,7.29V60.82h.69v2.86h6.63v.6Zm4.26-7v-.61H17.5V53.55h.7v8.14h-.7V57.33Z"/><path d="M23.07,54.36c1.62,0,2.7,1.53,2.7,3.91s-1.08,3.9-2.7,3.9-2.7-1.53-2.7-3.91S21.45,54.36,23.07,54.36Zm0,.63c-1.2,0-2,1.4-2,3.28s.78,3.28,2,3.28,2-1.42,2-3.28S24.27,55,23.07,55Zm3.26,3.55v-.6h2.21V53.55h.7V64.7h-.7V58.54Z"/><path d="M31.6,54.47h5.86v.6H34.85v.75a4,4,0,0,0,2.79,3.32l-.4.59a5.69,5.69,0,0,1-2.76-2.62A5.65,5.65,0,0,1,31.62,60l-.39-.51c1.41-.57,2.95-2.17,2.95-3.7v-.73H31.6Zm1.68,10V60.71h7v3.81Zm6.31-3.21H34v2.61h5.61Zm0-1.21v-3H37.25v-.6h2.33v-3h.7V60.1Z"/><path d="M48,56.76a2.77,2.77,0,1,1-2.76-2.58A2.61,2.61,0,0,1,48,56.76Zm-4.83,0a2,2,0,0,0,2.07,2,2,2,0,1,0,0-3.94A2,2,0,0,0,43.15,56.76Zm1.14,7.77V60.6h7v3.93Zm6.35-3.32H45v2.71h5.66Zm-2.33-6.08h2.31V53.55h.7V60h-.7V58.32H48.31v-.56h2.31V55.7H48.31Z"/><path d="M53.29,60v-.59H63.36V60Zm5-1.79c-2.46,0-3.79-.81-3.79-2.1S55.87,54,58.33,54s3.8.81,3.8,2.11S60.78,58.23,58.33,58.23Zm-3.69,6.11V61.27h.7v2.46h6.79v.61Zm3.69-9.71c-1.92,0-3.07.59-3.07,1.5s1.15,1.48,3.07,1.48,3.09-.57,3.09-1.48S60.24,54.63,58.33,54.63Z"/><path d="M73.61,56.4A2.79,2.79,0,1,1,70.85,54,2.52,2.52,0,0,1,73.61,56.4Zm-4.83,0a1.93,1.93,0,0,0,2.07,1.83,1.84,1.84,0,1,0,0-3.64A1.92,1.92,0,0,0,68.78,56.4Zm.94,8.22V61.87h6.36V60.53H69.66v-.6h7.11v2.54H70.4V64h6.82v.6Zm6.34-5.28V53.55h.7v5.79Z"/><path d="M84.5,59.43a5.37,5.37,0,0,1-2.69-2.8A5.75,5.75,0,0,1,79,59.75l-.47-.54a4.61,4.61,0,0,0,2.85-4V54.15h.71v1a4.26,4.26,0,0,0,2.81,3.68Zm-.79,5.26c-2.3,0-3.67-.81-3.67-2.11s1.37-2.11,3.67-2.11,3.69.8,3.69,2.11S86,64.69,83.71,64.69Zm-2.94-2.11c0,.92,1.12,1.49,2.94,1.49s3-.57,3-1.49-1.15-1.5-3-1.5S80.77,61.64,80.77,62.58Zm6.45-5.24v3h-.7V53.55h.7v3.19H89v.6Z"/><path d="M94.9,59.53a5.7,5.7,0,0,1-2.29-2.47,5.23,5.23,0,0,1-2.29,2.79l-.47-.56a4.3,4.3,0,0,0,2.41-3.55V54.3H93v1.43A3.89,3.89,0,0,0,95.33,59Zm.55,5.12c-2.43,0-3.82-.81-3.82-2s1.39-2,3.82-2,3.85.82,3.85,2S97.89,64.65,95.45,64.65Zm-3.09-2c0,.76,1.07,1.41,3.09,1.41s3.12-.65,3.12-1.41-1.08-1.39-3.12-1.39S92.36,61.91,92.36,62.65Zm6.07-2V57.23H96.71v2.89H96V53.75h.69v2.88h1.72V53.55h.69v7.11Z"/><path d="M104.53,58.83v.52c1.35-.08,2.59-.19,3.29-.28l.05.58c-.81.1-2.2.25-3.61.35s-2.61.12-3.43.12l-.12-.65c.73,0,1.84,0,3.12-.07v-.56c-1.37-.07-2.27-.59-2.27-1.42s1-1.42,2.57-1.42,2.62.52,2.62,1.41S105.86,58.74,104.53,58.83ZM101,55.65v-.6h6.3v.6Zm1.17,8.94V62.24h6.37v-.9H102.2v-.6h7.08v2.1h-6.37V64h6.81v.6Zm1.92-8c-1.26,0-1.86.4-1.86.83s.61.84,1.86.84,1.91-.41,1.91-.84S105.4,56.58,104.13,56.58Zm-1.49-2.2v-.6h3v.6Zm6.64,3.22v2.54h-.7V53.55h.7V57h1.77v.58Z"/><path d="M116.74,58h1.62V53.76h.72V64.14h-.72V58.62h-1.62c-.07,2.16-.92,3.4-2.31,3.4s-2.34-1.36-2.34-3.71.86-3.71,2.34-3.71S116.68,55.85,116.74,58Zm-2.31-2.82c-1,0-1.63,1.14-1.63,3.11s.64,3.11,1.63,3.11,1.62-1.14,1.62-3.11S115.4,55.2,114.43,55.2Zm6.09,9.5V53.55h.71V64.7Z"/><path d="M131.56,61.28a19.69,19.69,0,0,1-3.51.39c-.37,0-.73,0-1.13,0V55h.7V61a18.19,18.19,0,0,0,3.81-.38Zm3.35,3.42V58.8h-1.85v5.29h-.7V53.85h.7V58.2h1.85V53.55h.71V64.7Z"/><path d="M142.43,61.92a6.07,6.07,0,0,1-2.3-3.26,6.19,6.19,0,0,1-2.45,3.54l-.5-.52a5.72,5.72,0,0,0,2.59-4.62V55.67h-2.28v-.6h5.14v.6h-2.15V57a5.32,5.32,0,0,0,2.43,4.37ZM146,64.7V58.84h-1.68V64.1h-.69V53.84h.69v4.41H146v-4.7h.7V64.7Z"/><path d="M152.36,58V59.6c1.31-.05,2.66-.17,3.3-.26l.06.6c-.77.08-2.23.22-3.59.29s-3,.11-3.61.11l-.12-.67c.74,0,2,0,3.26,0V58h-2.25V54.3h5.3v.62h-4.62v2.44h4.68V58Zm-2,6.48V61.26H151v2.57h6.71v.61Zm6.37-2.52V53.55h.69v8.37Z"/><path d="M167.45,55a8.54,8.54,0,0,1-4.27,7.19l-.49-.56a7.66,7.66,0,0,0,4-6h-3.49V55Zm4,9.71V58.81h-1.77V64.1h-.7V53.85h.7v4.36h1.77V53.55h.7V64.7Z"/><path d="M179.78,57a2.86,2.86,0,0,1-5.72,0,2.86,2.86,0,0,1,5.72,0Zm-5.05,0a2.13,2.13,0,0,0,2.19,2.11,2.11,2.11,0,1,0,0-4.21A2.13,2.13,0,0,0,174.73,57Zm.91,7.29V60.92h.7v2.76h6.8v.6Zm6.5-2.64V53.55h.7v8.09Z"/><path d="M192.39,61.82c-.85.1-2.35.2-3.79.28s-2.68.1-3.5.12l-.14-.66c.75,0,2.12,0,3.52-.08s3.14-.17,3.85-.26ZM191.22,57a2.89,2.89,0,1,1-2.86-2.54A2.64,2.64,0,0,1,191.22,57Zm-5,0a2,2,0,0,0,2.14,1.9A1.91,1.91,0,0,0,190.51,57a2.16,2.16,0,0,0-4.29,0Zm7.62-3.47V64.7h-.7V53.55Z"/><path d="M205.43,61.92a8,8,0,0,1-2.9-3.6,7.77,7.77,0,0,1-2.88,3.92l-.51-.57a6.56,6.56,0,0,0,3-4.93V54.62h.71v2.11a5.73,5.73,0,0,0,3,4.61Zm2.15,2.78V53.55h.7V64.7Z"/><path d="M210.64,54.46h5.82v.6h-2.55v.8a4,4,0,0,0,2.78,3.33l-.4.58a5.67,5.67,0,0,1-2.76-2.61,5.65,5.65,0,0,1-2.86,2.9l-.39-.51c1.41-.57,2.95-2.18,2.95-3.7v-.79h-2.59Zm8.69,6.39v3.84h-.71V61.44H212v-.59Zm-.71-.6v-3h-2.33v-.6h2.33V53.55h.7v6.7Z"/><path d="M224.82,54.47h5.81v.6h-2.56v.7a3.94,3.94,0,0,0,2.78,3.32l-.4.59a5.69,5.69,0,0,1-2.76-2.62A5.67,5.67,0,0,1,224.83,60l-.39-.52c1.41-.56,2.95-2.17,2.95-3.69v-.69h-2.57Zm1.44,10V60.67h6.89v3.85Zm6.2-3.25H227v2.65h5.51Zm.68-4.15V60h-.7V53.55h.7v3h1.76v.6Z"/><path d="M240.83,61.92a6.07,6.07,0,0,1-2.3-3.26,6.19,6.19,0,0,1-2.45,3.54l-.5-.52a5.72,5.72,0,0,0,2.59-4.62V55.67h-2.28v-.6H241v.6h-2.15V57a5.32,5.32,0,0,0,2.43,4.37Zm3.54,2.78V58.84h-1.68V64.1H242V53.84h.69v4.41h1.68v-4.7h.7V64.7Z"/><path d="M252.68,59.43a5.37,5.37,0,0,1-2.69-2.8,5.75,5.75,0,0,1-2.78,3.12l-.47-.54a4.61,4.61,0,0,0,2.85-4V54.15h.71v1a4.26,4.26,0,0,0,2.81,3.68Zm-.54,5.28c-2.34,0-3.74-.8-3.74-2.08s1.4-2.09,3.74-2.09,3.76.79,3.76,2.09S254.48,64.71,252.14,64.71Zm-3-2.08c0,.9,1.16,1.46,3,1.46s3-.56,3-1.46-1.19-1.48-3-1.48S249.13,61.72,249.13,62.63Zm3.51-5.84v-.61h2.46V53.55h.7v6.79h-.7V56.79Z"/><path d="M257.77,59.09v-.58h10.07v.58ZM259,64.56v-2.5h6.76v-1.2H259v-.59h7.47v2.39h-6.75V64h7.2v.6Zm3.79-6.89c-2.46,0-3.79-.69-3.79-1.9s1.33-1.92,3.79-1.92,3.8.71,3.8,1.92S265.26,57.67,262.81,57.67Zm0-3.22c-1.92,0-3.07.5-3.07,1.32s1.15,1.3,3.07,1.3,3.09-.49,3.09-1.3S264.72,54.45,262.81,54.45Z"/><path d="M272.17,63.12v-.6h10.07v.6Zm1.35-3.47V54.72h7.39v.6h-6.69v3.73H281v.6Z"/><path d="M289.53,61.58a36.83,36.83,0,0,1-4.7.36c-.39,0-.77,0-1.17,0V57.78h4.2V55.22h-4.2v-.6h4.9v3.76h-4.2v2.94a36.16,36.16,0,0,0,5.11-.36Zm2,3.12V58.62H289.3V58h2.27V53.55h.68V64.7Z"/><path d="M301,61.2a31.83,31.83,0,0,1-5.14.53h-1.05v-7h.7v6.35a26.26,26.26,0,0,0,5.37-.55Zm1.79-3.12h1.89v.6h-1.89v6H302V53.55h.7Z"/><path d="M310,55a8.52,8.52,0,0,1-4.27,7.19l-.49-.56a7.66,7.66,0,0,0,4-6h-3.49V55Zm1.75,9.11V58.8h-2.07v-.6h2.07V53.84h.7V64.1Zm2.21.6V53.55h.7V64.7Z"/><path d="M319.66,56.34v-.6H326v.6Zm3.13,4.51c-1.4,0-2.49-.74-2.49-1.93S321.38,57,322.79,57s2.52.73,2.52,1.92S324.22,60.85,322.79,60.85Zm0-3.25c-1,0-1.79.52-1.79,1.32s.82,1.33,1.79,1.33,1.83-.49,1.83-1.33S323.79,57.6,322.79,57.6Zm-1.53-2.86v-.6h3.15v.6Zm.08,9.54V61.54h.7v2.13h6.66v.61Zm6.84-6.11v3.51h-.7V53.55h.7v4h1.76v.6Z"/><path d="M332.7,61.22a27.29,27.29,0,0,0,4.65-.37l.08.59a32.15,32.15,0,0,1-4.82.4h-1.35V54.7h5.06v.6H332v5.92Zm6.52-3.13h1.91v.6h-1.91v6h-.7V53.55h.7Z"/><path d="M341.89,62.59h.83v.79h-.83Z"/><path d="M62.22,81.77a5.2,5.2,0,0,1-2.75-2.38,5,5,0,0,1-2.87,2.69l-.4-.56c1.59-.52,2.92-1.94,2.92-3.21v-.42H56.56v-.6h5.86v.6H59.81v.42c0,1.22,1.51,2.6,2.82,2.89ZM58,76.05v-.61h3v.61Zm0,9.61v-3.2h.69v2.59h6.6v.61ZM64.37,83V74.89h.7V83Z"/><path d="M71.74,82.61V80.86H67v-.61H77.11v.61H72.42v1.75h3.4v3.53h-.7V83.21h-7v-.6Zm4.45-3.5a6.21,6.21,0,0,1-4.11-2.63A5.62,5.62,0,0,1,68,79.12l-.36-.59c1.87-.2,4.07-1.62,4.07-3.11V75h.71v.4c0,1.51,2.35,2.87,4.1,3.09Z"/><path d="M78.06,77.68v-.6H84.4v.6Zm3.13,4.51c-1.41,0-2.5-.74-2.5-1.93s1.08-1.92,2.5-1.92,2.51.73,2.51,1.92S82.61,82.19,81.19,82.19Zm0-3.25c-1,0-1.8.52-1.8,1.32s.82,1.33,1.8,1.33S83,81.1,83,80.26,82.18,78.94,81.19,78.94Zm-1.54-2.87v-.59h3.16v.59Zm.08,9.55V82.88h.7V85h6.66v.61Zm6.84-6.11V83h-.69V74.89h.69v4h1.76v.6Z"/><path d="M98.4,77.74a2.78,2.78,0,1,1-2.75-2.42A2.51,2.51,0,0,1,98.4,77.74Zm-4.83,0a1.92,1.92,0,0,0,2.08,1.82,1.83,1.83,0,1,0,0-3.63A1.92,1.92,0,0,0,93.57,77.74ZM94.51,86V83.21h6.37V81.87H94.45v-.6h7.11v2.54H95.19v1.55H102V86Zm6.34-5.28V74.89h.7v5.79Z"/><path d="M109.29,80.76A5.35,5.35,0,0,1,106.6,78a5.75,5.75,0,0,1-2.78,3.12l-.47-.54a4.6,4.6,0,0,0,2.86-4V75.49h.7v1a4.27,4.27,0,0,0,2.81,3.68ZM108.5,86c-2.29,0-3.67-.82-3.67-2.11s1.38-2.11,3.67-2.11,3.69.8,3.69,2.11S110.79,86,108.5,86Zm-2.94-2.11c0,.92,1.13,1.49,2.94,1.49s3-.57,3-1.49-1.15-1.5-3-1.5S105.56,83,105.56,83.92ZM112,78.68v3h-.69V74.89H112v3.19h1.76v.6Z"/><path d="M119.45,79.36h1.62V75.1h.72V85.48h-.72V80h-1.62c-.07,2.16-.92,3.39-2.31,3.39s-2.34-1.35-2.34-3.7.86-3.71,2.34-3.71S119.39,77.19,119.45,79.36Zm-2.31-2.82c-1,0-1.63,1.14-1.63,3.11s.64,3.11,1.63,3.11,1.62-1.14,1.62-3.11S118.11,76.54,117.14,76.54Zm6.09,9.5V74.89h.71V86Z"/><path d="M129,81.17v-.6h4.69V78.71h.69v1.86H139v.6Zm9.19-2A6.27,6.27,0,0,1,134,76.48a5.72,5.72,0,0,1-4.09,2.66l-.36-.58c1.87-.21,4.1-1.61,4.1-3.11V75h.71v.41c0,1.51,2.38,2.87,4.13,3.08Zm-.41,3.45v3.56H137v-3h-6.95v-.61Z"/><path d="M140,78.21v-.6h6.53v.6Zm3.34,5.37a2.26,2.26,0,1,1,2.54-2.24A2.33,2.33,0,0,1,143.32,83.58Zm0-3.89a1.66,1.66,0,1,0,1.85,1.65A1.71,1.71,0,0,0,143.32,79.69Zm-1.73-3.34v-.61h3.18v.61Zm6.9,3.92V86h-.69V74.89h.69v4.8h1.9v.58Z"/><path d="M151,81.39v-.61h10.07v.61Zm1.43-2.33V75.27h.69v3.19h6.74v.6Zm0,6.69V82.53h.69v2.62h6.78v.6Z"/><path d="M171.2,78.33a2.79,2.79,0,0,1-5.58,0,2.79,2.79,0,0,1,5.58,0Zm-4.88,0a2,2,0,0,0,2.09,2,2,2,0,1,0,0-4.07A2,2,0,0,0,166.32,78.33Zm1.09,7.29V82.16h.69V85h6.63v.6Zm4.27-7v-.62h2.13V74.89h.7V83h-.7V78.67Z"/><path d="M179.38,75.7c1.62,0,2.7,1.53,2.7,3.91s-1.08,3.9-2.7,3.9-2.7-1.53-2.7-3.91S177.76,75.7,179.38,75.7Zm0,.63c-1.2,0-2,1.4-2,3.28s.78,3.28,2,3.28,2-1.42,2-3.28S180.58,76.33,179.38,76.33Zm3.26,3.55v-.6h2.21V74.89h.7V86h-.7V79.88Z"/><path d="M192.41,79.36H194V75.1h.72V85.48H194V80h-1.62c-.07,2.16-.92,3.39-2.31,3.39s-2.34-1.35-2.34-3.7.86-3.71,2.34-3.71S192.35,77.19,192.41,79.36Zm-2.31-2.82c-1,0-1.63,1.14-1.63,3.11s.64,3.11,1.63,3.11,1.62-1.14,1.62-3.11S191.07,76.54,190.1,76.54Zm6.09,9.5V74.89h.71V86Z"/><path d="M207.65,78.1a2.77,2.77,0,1,1-2.76-2.58A2.58,2.58,0,0,1,207.65,78.1Zm-4.83,0a2,2,0,0,0,2.07,2,2,2,0,1,0,0-3.94A2,2,0,0,0,202.82,78.1ZM207.29,86c-2.44,0-3.79-.8-3.79-2s1.35-2,3.79-2,3.78.8,3.78,2S209.73,86,207.29,86Zm-3-2c0,.87,1.14,1.44,3,1.44s3-.57,3-1.44-1.13-1.44-3-1.44S204.25,83.1,204.25,84ZM208,79.14h2.31V77H208v-.58h2.31V74.89h.7v6.94h-.7v-2.1H208Z"/><path d="M212.94,77.37v-.6h6.34v.6Zm3.2,4.17c-1.41,0-2.46-.69-2.46-1.8s1-1.78,2.46-1.78,2.48.68,2.48,1.78S217.57,81.54,216.14,81.54Zm1.8,4.48c-2.27,0-3.64-.72-3.64-1.92s1.37-1.93,3.64-1.93,3.64.72,3.64,1.93S220.2,86,217.94,86Zm-1.8-7.46c-1,0-1.76.46-1.76,1.18s.79,1.2,1.76,1.2,1.78-.44,1.78-1.2S217.13,78.56,216.14,78.56Zm-1.61-2.72v-.6h3.16v.6ZM215,84.1c0,.81,1.14,1.31,2.93,1.31s2.95-.5,2.95-1.31-1.17-1.32-2.95-1.32S215,83.28,215,84.1Zm8.2-3.95h-1.76V82h-.69V74.89h.69v2.28h1.76v.6h-1.76v1.78h1.76Z"/><path d="M224,80.43v-.58h10.07v.58Zm1.25,5.47V83.4H232V82.2h-6.79v-.6h7.47V84h-6.75v1.3h7.2v.6ZM229,79c-2.46,0-3.79-.69-3.79-1.9s1.33-1.92,3.79-1.92,3.8.7,3.8,1.92S231.5,79,229,79Zm0-3.22c-1.92,0-3.07.5-3.07,1.32s1.15,1.3,3.07,1.3,3.09-.49,3.09-1.3S231,75.79,229,75.79Z"/><path d="M239.07,83.15V76.1h5.05v7.05Zm4.35-6.45h-3.65v5.85h3.65ZM246.73,86V74.89h.69V86Z"/><path d="M255.71,83.73a6.2,6.2,0,0,1-2.77-3.11A6.2,6.2,0,0,1,250.16,84l-.48-.54a5.12,5.12,0,0,0,2.9-4.24v-.88h-2.65v-.6h6v.6h-2.67v.86a4.69,4.69,0,0,0,2.89,3.92Zm-4.41-7.38v-.63h3.2v.63ZM257.81,86V74.89h.7V86Z"/><path d="M261,83.15V76.1h4.87v7.05Zm4.18-6.45h-3.48v5.85h3.48Zm1.47,1h2.22V74.89h.69V86h-.69V81.33h-2.22v-.57h2.22V78.21h-2.22Z"/><path d="M276.63,79.72a28.38,28.38,0,0,0,4.49-.3l.09.59a30.68,30.68,0,0,1-4.89.31h-1V75.54h4.95v.6H276v1.41h4.14v.6H276v1.57ZM276.5,86V83.28h6.18V82.07h-6.24v-.6h6.93v2.41h-6.18v1.48h6.63V86Zm6.87-7.91v2.77h-.69V74.89h.69v2.56h1.76v.6Z"/><path d="M286.52,80.64V75.77h4.34v4.87Zm3.65-4.27h-3V80h3ZM294.59,86V82.67h-6.7v-.59h7.41v4Zm0-4.56v-3h-1.64v2.94h-.7V75.09h.7v2.75h1.64v-3h.69v6.59Z"/><path d="M303.56,80.74a36.6,36.6,0,0,1-4,.34c-.68,0-1.4,0-2.17,0V77.91h4.13V76.22h-4.13v-.6h4.83v2.89h-4.14v2h.5a32.37,32.37,0,0,0,4.86-.36Zm1.9,1.62V86h-.7V83h-6.49v-.6Zm0-3.81v3.17h-.69V74.89h.69V78h1.76v.6Z"/><path d="M308,80.43v-.58h10.07v.58Zm1.25,5.47V83.4H316V82.2h-6.79v-.6h7.47V84h-6.75v1.3h7.2v.6ZM313,79c-2.46,0-3.79-.69-3.79-1.9s1.33-1.92,3.79-1.92,3.8.7,3.8,1.92S315.5,79,313,79Zm0-3.22c-1.92,0-3.07.5-3.07,1.32s1.15,1.3,3.07,1.3,3.09-.49,3.09-1.3S315,75.79,313,75.79Z"/><path d="M327.78,79.61v1.3h4.69v.61H322.4v-.61h4.7v-1.3h-3.34V75.52h7.31v.6h-6.62v1.09h6.28v.6h-6.28V79h6.68v.6ZM327.44,86c-2.46,0-3.83-.72-3.83-1.91s1.37-1.92,3.83-1.92,3.84.73,3.84,1.92S329.9,86,327.44,86Zm0-3.22c-1.92,0-3.11.52-3.11,1.31s1.19,1.3,3.11,1.3,3.13-.51,3.13-1.3S329.36,82.8,327.44,82.8Z"/><path d="M333.42,77.68v-.6h6.34v.6Zm3.13,4.51c-1.41,0-2.5-.74-2.5-1.93s1.08-1.92,2.5-1.92,2.51.73,2.51,1.92S338,82.19,336.55,82.19Zm0-3.25c-1,0-1.8.52-1.8,1.32s.82,1.33,1.8,1.33,1.82-.49,1.82-1.33S337.54,78.94,336.55,78.94ZM335,76.07v-.59h3.16v.59Zm.08,9.55V82.88h.7V85h6.66v.61Zm6.84-6.11V83h-.69V74.89h.69v4h1.76v.6Z"/><path d="M134.11,104.54a7,7,0,0,1-2.33-3.44,6.44,6.44,0,0,1-2.41,3.71l-.51-.56a5.88,5.88,0,0,0,2.55-4.84v-2h.7v2a5.9,5.9,0,0,0,2.46,4.62Zm3.53,2.84v-5.9h-1.72v5.3h-.71V96.52h.71v4.36h1.72V96.23h.7v11.15Z"/><path d="M140,105.93v-.6h4.68v-2.19h-3.32v-3.4H148v-2h-6.62v-.61h7.31v3.21h-6.63v2.2h7v.6h-3.65v2.19h4.7v.6Z"/><path d="M155.74,105v-2.36H151V102h10.07v.6h-4.69V105Zm.34-4.17c-2.46,0-3.79-.8-3.79-2.1s1.33-2.11,3.79-2.11,3.8.82,3.8,2.11S158.54,100.82,156.08,100.82ZM152.4,107v-3h.68v2.43h6.79V107Zm3.68-9.77c-1.92,0-3.07.59-3.07,1.5s1.15,1.49,3.07,1.49,3.09-.58,3.09-1.49S158,97.22,156.08,97.22Z"/><path d="M173,104.5c-.85.1-2.35.19-3.79.28s-2.67.09-3.5.12l-.13-.66c.74,0,2.11,0,3.51-.09s3.14-.16,3.85-.25Zm-1.16-4.81A2.89,2.89,0,1,1,169,97.16,2.63,2.63,0,0,1,171.86,99.69Zm-5,0A2,2,0,0,0,169,101.6a1.91,1.91,0,0,0,2.15-1.89,2.16,2.16,0,0,0-4.28,0Zm7.61-3.46v11.15h-.69V96.23Z"/><path d="M177.15,104.49v-7h5v7ZM181.51,98h-3.66v5.85h3.66Zm3.31,9.34V96.23h.68v11.15Z"/><path d="M187.52,102.12v-.57h10.07v.57Zm1.27,5v-2.36h6.8v-1h-6.82v-.6h7.52v2.19h-6.82v1.16h7.22v.6Zm.07-6.63V98.27h6.68v-1h-6.7v-.6h7.4v2.21h-6.68v1h6.87v.59Z"/><path d="M202.4,102.32v-5h5.06v5Zm4.37-4.39H203.1v3.79h3.67Zm-3.2,9V103.6h.7v2.76h6.66V107Zm6.84-6.76v4.11h-.69V96.23h.69v3.39h1.76v.59Z"/><path d="M213,101.67v-.6H223v.6Zm1.26,5.47V104.6h6.68v-1.21h-6.74v-.6h7.44v2.41h-6.69v1.34h7.16v.6Zm.06-7.22V96.71h7.4v.6H215v2h6.78v.6Z"/><path d="M226.9,97c1.62,0,2.7,1.53,2.7,3.91s-1.08,3.9-2.7,3.9-2.7-1.53-2.7-3.91S225.28,97,226.9,97Zm0,.63c-1.2,0-2,1.4-2,3.28s.78,3.28,2,3.28,2-1.42,2-3.28S228.1,97.67,226.9,97.67Zm3.26,3.55v-.6h2.21V96.23h.7v11.15h-.7v-6.16Z"/><path d="M245.1,103.88a31.83,31.83,0,0,1-5.14.53h-1v-7h.69v6.35a26.26,26.26,0,0,0,5.37-.55Zm1.79-3.12h1.9v.6h-1.9v6h-.69V96.23h.69Z"/><path d="M255,97.45a8.61,8.61,0,0,1-5,7.63l-.42-.55a7.91,7.91,0,0,0,4.66-6.48H250v-.6Zm2.91,3.55h1.92v.6h-1.92v5.78h-.69V96.23h.69Z"/><path d="M260.48,102.73v-.61h10.07v.61Zm1.43-2.33V96.61h.69V99.8h6.74v.6Zm0,6.69v-3.22h.69v2.62h6.78v.6Z"/><path d="M281.92,104.5c-1.09.17-2.61.29-3.59.35s-2.53.09-3.5.09l-.14-.67c.5,0,1.77,0,2.59,0v-3.49H278v3.48a32.33,32.33,0,0,0,3.88-.36Zm-1-7a26.11,26.11,0,0,1-.39,4.9l-.67-.08a23,23,0,0,0,.34-4.21H275.3v-.61Zm2.41,4v5.8h-.7V96.23h.7V101h1.91v.6Z"/><path d="M286.32,97.13h5.86v.6h-2.6v.76a4,4,0,0,0,2.78,3.33l-.4.58a5.65,5.65,0,0,1-2.75-2.61,5.71,5.71,0,0,1-2.87,2.9l-.38-.51c1.4-.57,3-2.17,3-3.7v-.75h-2.59Zm5,10.24c-2.45,0-3.77-.8-3.77-2.05s1.32-2,3.77-2,3.75.8,3.75,2S293.76,107.37,291.33,107.37Zm-3-2.05c0,.87,1.11,1.44,3,1.44s3-.57,3-1.44-1.1-1.44-3-1.44S288.31,104.44,288.31,105.32ZM292,99.74v-.6h2.29V96.23h.7v6.89h-.7V99.74Z"/><path d="M303,99.67A2.86,2.86,0,1,1,300.11,97,2.73,2.73,0,0,1,303,99.67Zm-5.05,0a2.13,2.13,0,0,0,2.19,2.11,2.11,2.11,0,1,0,0-4.21A2.13,2.13,0,0,0,297.92,99.67Zm.91,7.29V103.6h.7v2.76h6.8v.6Zm6.5-2.64V96.23h.7v8.09Z"/><path d="M316.74,100.34v1.57h4.69v.61H311.36v-.61h4.7v-1.57h-3.38V96.76h7.4v.59h-6.71v2.39h6.78v.6Zm-.34,7c-2.46,0-3.83-.71-3.83-1.92s1.37-1.92,3.83-1.92,3.83.71,3.83,1.92S318.86,107.38,316.4,107.38Zm0-3.23c-1.9,0-3.07.47-3.07,1.31s1.17,1.31,3.07,1.31,3.09-.47,3.09-1.31S318.29,104.15,316.4,104.15Z"/><path d="M328.62,104.6a8,8,0,0,1-2.9-3.6,7.77,7.77,0,0,1-2.88,3.92l-.51-.57a6.56,6.56,0,0,0,3-4.93V97.29h.71v2.12a5.71,5.71,0,0,0,3,4.61Zm2.15,2.78V96.23h.7v11.15Z"/><path d="M338.33,100.7H340V96.44h.72v10.38H340V101.3h-1.62c-.07,2.16-.92,3.39-2.31,3.39s-2.34-1.35-2.34-3.7.86-3.71,2.34-3.71S338.27,98.53,338.33,100.7ZM336,97.88c-1,0-1.63,1.14-1.63,3.11s.64,3.11,1.63,3.11,1.62-1.14,1.62-3.11S337,97.88,336,97.88Zm6.09,9.5V96.23h.71v11.15Z"/><path d="M135.24,118.25c-.34,2.75-2.25,4.44-5.07,5.37l-.39-.56c2.71-.83,4.28-2.37,4.64-4.22h-4.08v-.59Zm-3.64,10.4V126H138v-1.43h-6.47v-.58h7.16v2.59h-6.38v1.53h6.83v.59Zm3.81-9.31H138v-1.77h.69v5.72H138v-1.38h-2.66v-.59H138v-1.39h-2.57Z"/><path d="M147.69,125.84c-1.09.17-2.62.29-3.59.35s-2.53.08-3.5.08l-.14-.66c.5,0,1.77,0,2.59,0v-3.49h.69v3.48a32.33,32.33,0,0,0,3.88-.36Zm-1-7a27,27,0,0,1-.39,4.9l-.67-.08a23,23,0,0,0,.34-4.21h-4.93v-.61Zm2.41,4v5.8h-.7V117.57h.7v4.75H151v.6Z"/><path d="M152.08,118.48h5.82v.6h-2.55v.8a3.93,3.93,0,0,0,2.78,3.32l-.4.59a5.67,5.67,0,0,1-2.76-2.61,5.65,5.65,0,0,1-2.86,2.9l-.39-.52c1.41-.56,2.95-2.17,2.95-3.69v-.79h-2.59Zm8.69,6.39v3.84h-.71v-3.25h-6.67v-.59Zm-.71-.6v-3h-2.33v-.6h2.33v-3.06h.7v6.7Z"/><path d="M162.73,127.14v-.6H172.8v.6Zm5-3c-2.35,0-3.91-1.09-3.91-2.77s1.56-2.77,3.91-2.77,3.92,1.11,3.92,2.77S170.1,124.1,167.75,124.1Zm0-4.91c-1.94,0-3.18.93-3.18,2.14s1.24,2.16,3.18,2.16,3.19-.93,3.19-2.16S169.71,119.19,167.75,119.19Z"/><path d="M173.77,127.27v-.6h4.68v-2.19h-3.33v-3.4h6.64v-2h-6.62v-.61h7.31v3.21h-6.63v2.2h7v.6h-3.65v2.19h4.7v.6Z"/><path d="M194.21,125.94a8,8,0,0,1-2.9-3.6,7.77,7.77,0,0,1-2.88,3.92l-.51-.57a6.57,6.57,0,0,0,3-4.93v-2.13h.71v2.12a5.73,5.73,0,0,0,3,4.61Zm2.45-3.17v6H196V117.57h.7v4.6h1.91v.6Z"/><path d="M203.24,124.87v1.21c1.37-.09,2.88-.23,3.51-.32l.05.6c-.77.11-2.69.26-4.07.37s-2.3.11-3.28.13l-.13-.66c.72,0,1.93,0,3.22-.08v-1.25c-1.34-.1-2.28-.79-2.28-1.85s1.08-1.85,2.59-1.85,2.59.7,2.59,1.85S204.55,124.75,203.24,124.87Zm-3.64-4.35v-.6h6.7v.6Zm3.25,1.25c-1.08,0-1.87.49-1.87,1.25s.79,1.25,1.87,1.25,1.87-.5,1.87-1.25S203.93,121.77,202.85,121.77Zm-1.57-2.86v-.6h3.19v.6Zm6.25,9.81V117.57h.7v11.15Z"/><path d="M217.83,125.84c-.85.1-2.35.19-3.79.28s-2.68.09-3.5.12l-.14-.66c.75,0,2.11,0,3.52-.09s3.14-.16,3.85-.25ZM216.66,121a2.89,2.89,0,1,1-2.86-2.53A2.62,2.62,0,0,1,216.66,121Zm-5,0a2,2,0,0,0,2.14,1.91,1.9,1.9,0,0,0,2.14-1.89,1.92,1.92,0,0,0-2.14-1.91A1.94,1.94,0,0,0,211.66,121Zm7.62-3.46v11.15h-.7V117.57Z"/><path d="M233.26,118.38a22.8,22.8,0,0,1-.42,4.76h1.88v.62h-4.67v5h-.7v-5h-4.7v-.62h7.47a20.18,20.18,0,0,0,.42-4.16H226v-.6Z"/><path d="M235.69,127.27v-.6h4.68v-2.79h.69v2.79h4.7v.6Zm5.4-8v.41c0,1.62,2.55,3.45,4.23,3.8l-.39.59a7.36,7.36,0,0,1-4.2-3.27c-.38,1.12-2.2,2.69-4.23,3.24l-.36-.56c1.65-.3,4.21-2.16,4.21-3.8v-.41h-3.69v-.61h8.13v.61Z"/><path d="M251.62,122h1.62v-4.26H254v10.38h-.72v-5.52h-1.62c-.07,2.16-.92,3.39-2.31,3.39s-2.34-1.35-2.34-3.7.86-3.71,2.34-3.71S251.56,119.87,251.62,122Zm-2.31-2.82c-1,0-1.63,1.14-1.63,3.11s.64,3.11,1.63,3.11,1.62-1.14,1.62-3.11S250.28,119.22,249.31,119.22Zm6.09,9.5V117.57h.71v11.15Z"/><path d="M257.77,127.27v-.6h4.68v-3.11h-3.33v-5h7.42v.6h-6.72V123h6.75v.6h-3.43v3.11h4.7v.6Z"/><path d="M277.9,120.78a2.77,2.77,0,0,1-5.53,0,2.77,2.77,0,0,1,5.53,0Zm-4.83,0a2,2,0,0,0,2.07,2,2,2,0,1,0,0-4A2,2,0,0,0,273.07,120.78Zm4.47,7.93c-2.45,0-3.79-.8-3.79-2.05s1.34-2,3.79-2,3.78.8,3.78,2S280,128.71,277.54,128.71Zm-3.05-2.05c0,.87,1.14,1.44,3.05,1.44s3-.57,3-1.44-1.13-1.44-3-1.44S274.49,125.78,274.49,126.66Zm3.73-4.84h2.32v-2.11h-2.32v-.58h2.32v-1.56h.69v6.94h-.69v-2.1h-2.32Z"/><path d="M283.18,120.05v-.6h6.35v.6Zm3.21,4.17c-1.41,0-2.46-.69-2.46-1.8s1-1.78,2.46-1.78,2.48.68,2.48,1.78S287.81,124.22,286.39,124.22Zm1.8,4.48c-2.27,0-3.64-.72-3.64-1.92s1.37-1.93,3.64-1.93,3.64.72,3.64,1.93S290.45,128.7,288.19,128.7Zm-1.8-7.46c-1,0-1.77.46-1.77,1.18s.79,1.2,1.77,1.2,1.78-.44,1.78-1.2S287.38,121.24,286.39,121.24Zm-1.61-2.72v-.6h3.15v.6Zm.48,8.26c0,.81,1.14,1.31,2.93,1.31s2.95-.5,2.95-1.31-1.17-1.32-2.95-1.32S285.26,126,285.26,126.78Zm8.2-4H291.7v1.8H291v-7.06h.7v2.28h1.76v.6H291.7v1.78h1.76Z"/><path d="M294.25,123.11v-.58h10.07v.58Zm1.25,5.47v-2.5h6.76v-1.2h-6.79v-.6h7.47v2.4h-6.75V128h7.2v.6Zm3.79-6.89c-2.46,0-3.79-.69-3.79-1.9s1.33-1.92,3.79-1.92,3.8.7,3.8,1.92S301.74,121.69,299.29,121.69Zm0-3.22c-1.92,0-3.08.5-3.08,1.32s1.16,1.3,3.08,1.3,3.09-.49,3.09-1.3S301.2,118.47,299.29,118.47Z"/><path d="M312,118.81a11,11,0,0,1-2.88,7.26l-.62-.43a10.08,10.08,0,0,0,2.76-6.23H309v-.6Zm3.24,0a12.87,12.87,0,0,1-2.66,8l-.64-.38c2-2,2.55-5.78,2.55-7h-2v-.6Zm1.74,9.91V117.57h.69v11.15Z"/><path d="M325.91,124.45a5.24,5.24,0,0,1-2.76-2.39,4.93,4.93,0,0,1-2.86,2.7l-.4-.56c1.58-.52,2.92-1.94,2.92-3.21v-.42h-2.56V120h5.85v.6h-2.6V121c0,1.22,1.51,2.6,2.82,2.89Zm-4.26-5.72v-.61h3v.61Zm0,9.61v-3.2h.68v2.59H329v.61Zm6.37-2.68v-8.09h.7v8.09Z"/><path d="M332.69,125.24a27.33,27.33,0,0,0,4.66-.37l.08.59a32.27,32.27,0,0,1-4.82.39h-1.35v-7.13h5.06v.6H332v5.92Zm6.53-3.13h1.91v.6h-1.91v6h-.7V117.57h.7Z"/><path d="M341.89,126.61h.83v.79h-.83Z"/></g></g></svg>