<svg xmlns="http://www.w3.org/2000/svg" viewBox="0 0 352.85 164.08"><defs><style>.cls-1{fill:#fff;stroke-width:0.3px;}.cls-1,.cls-2{stroke:#000;stroke-miterlimit:10;}.cls-2{fill:lime;stroke-width:0.5px;}</style></defs><g id="레이어_2" data-name="레이어 2"><g id="그래픽"><polygon class="cls-1" points="352.7 163.93 120.65 163.93 120.65 118.44 47.2 118.44 47.2 97.8 0.15 97.8 0.15 70.62 18.06 70.62 18.06 47.76 289.3 47.76 289.3 25.75 352.7 25.75 352.7 163.93"/><path d="M26.24,67.52v-.6H36.31v.6Zm1-7.82v-.6h8v.6Zm0,4.61V63.7h1.86l-.32-3.32.75-.12.23,3.44h3l.35-3.43.7.12-.4,3.31h1.88v.61Z"/><path d="M37.28,67.51v-.6H42V64.72H38.64v-3.4h6.63v-2H38.65v-.61H46v3.21H39.33v2.2h7v.6H42.65v2.19h4.7v.6Z"/><path d="M48.61,58.77h5v.6H51.49V60a3.63,3.63,0,0,0,2.38,3.26l-.43.55a4.76,4.76,0,0,1-2.29-2.4,5.37,5.37,0,0,1-2.25,2.7l-.47-.51A4.38,4.38,0,0,0,50.8,60v-.67H48.61ZM57,69V65.62H50.34V65h7.35V69Zm-2.06-4.63v-3H53v-.6h1.92V58.06h.69v6.27Zm2,.12V57.81h.69v6.64Z"/><path d="M59.36,67.51v-.6H69.43v.6Zm2-5.53v2h6.74v.6H60.72V59H68v.6H61.41V61.4h6.31V62Z"/><path d="M75.29,62.28h1.62V58h.72V68.4h-.72V62.88H75.29c-.07,2.16-.92,3.4-2.31,3.4s-2.34-1.36-2.34-3.71.86-3.71,2.34-3.71S75.23,60.11,75.29,62.28ZM73,59.46c-1,0-1.63,1.14-1.63,3.11S72,65.68,73,65.68s1.62-1.14,1.62-3.11S74,59.46,73,59.46ZM79.07,69V57.81h.71V69Z"/><path d="M90.7,64.06a5.22,5.22,0,0,1-2.76-2.35,4.94,4.94,0,0,1-2.86,2.66l-.4-.56c1.58-.52,2.91-1.91,2.91-3.18v-.07H85V60h5.78v.6H88.29v.07c0,1.22,1.51,2.56,2.82,2.85ZM86.41,68.8V65.08H93.3V68.8Zm0-10.06v-.61h3v.61Zm6.16,6.94H87.1V68.2h5.52Zm.67-4.14v2.93H92.6V57.81h.69v3.13h1.76v.6Z"/><path d="M98.74,58.67c1.62,0,2.7,1.53,2.7,3.91s-1.08,3.9-2.7,3.9S96,65,96,62.57,97.12,58.67,98.74,58.67Zm0,.63c-1.2,0-2,1.4-2,3.28s.78,3.28,2,3.28,2-1.42,2-3.28S99.94,59.3,98.74,59.3ZM101.92,61v-.6h2.28V57.81h.7V69h-.7V64.65h-2.28v-.6h2.28V61Z"/><path d="M106.86,61.13v-.6h6.53v.6Zm3.34,5.37a2.26,2.26,0,1,1,2.55-2.24A2.33,2.33,0,0,1,110.2,66.5Zm0-3.89a1.66,1.66,0,1,0,1.85,1.65A1.71,1.71,0,0,0,110.2,62.61Zm-1.72-3.34v-.61h3.17v.61Zm6.89,3.92V69h-.69V57.81h.69v4.8h1.9v.58Z"/><path d="M117.92,64.31V63.7H128v.61ZM119.35,62V58.19H120v3.19h6.74V62Zm0,6.69V65.45H120v2.63h6.78v.59Z"/><path d="M137.05,59.25a8.54,8.54,0,0,1-4.27,7.19l-.5-.56a7.66,7.66,0,0,0,4-6h-3.49v-.6ZM141,69V63.07h-1.77v5.29h-.7V58.11h.7v4.36H141V57.81h.7V69Z"/><path d="M149.37,61.25a2.86,2.86,0,1,1-2.86-2.71A2.73,2.73,0,0,1,149.37,61.25Zm-5.05,0a2.13,2.13,0,0,0,2.19,2.11,2.11,2.11,0,1,0,0-4.21A2.13,2.13,0,0,0,144.32,61.25Zm.91,7.29V65.18h.7v2.76h6.8v.6Zm6.5-2.64V57.81h.7V65.9Z"/><path d="M157.66,58.7c1.62,0,2.7,1.52,2.7,3.91s-1.08,3.89-2.7,3.89S155,65,155,62.59,156,58.7,157.66,58.7Zm0,.62c-1.2,0-2,1.4-2,3.29s.78,3.27,2,3.27,2-1.41,2-3.27S158.86,59.32,157.66,59.32Zm5.1,9.64V57.81h.7V69Z"/><path d="M174.34,59c0,4.12-1.93,6.29-4.93,7.85l-.5-.6a7.56,7.56,0,0,0,4.16-4l-4,.43-.21-.67,4.4-.33a7.54,7.54,0,0,0,.34-2.13h-4.2V59Zm.08,4v-.6h2.74V57.81h.7V69h-.7V63Z"/><path d="M182.61,69V65h-2.77v-.6h10.07V65h-2.78v4h-.69V65h-3.15v4Zm-1.4-6.22V58.52h7.35v4.23Zm6.65-3.63h-6v3h6Z"/><path d="M197.87,65.46a32.54,32.54,0,0,1-5.19.53h-1V59h.69v6.35a27.08,27.08,0,0,0,5.46-.55ZM199.8,69h-.69V57.81h.69Z"/><path d="M203.38,65.51a29.52,29.52,0,0,0,5.34-.41l.1.62a32.91,32.91,0,0,1-5.15.42c-.32,0-.66,0-1,0V58.91h5.07v.6h-4.38V62h4v.6h-4ZM210.29,69V57.81h.7V69Z"/><path d="M220.54,66.09c-.85.09-2.35.19-3.79.27s-2.67.1-3.5.12l-.13-.66c.74,0,2.11,0,3.51-.08s3.14-.17,3.85-.26Zm-1.16-4.81a2.89,2.89,0,1,1-2.87-2.54A2.65,2.65,0,0,1,219.38,61.28Zm-5,0a2,2,0,0,0,2.13,1.9,1.91,1.91,0,0,0,2.15-1.89,2.15,2.15,0,0,0-4.28,0ZM222,57.81V69h-.69V57.81Z"/><path d="M233.4,66.18a8,8,0,0,1-2.9-3.6,7.77,7.77,0,0,1-2.88,3.92l-.51-.57a6.56,6.56,0,0,0,3-4.93V58.88h.71V61a5.71,5.71,0,0,0,3,4.61ZM235.85,63V69h-.69V57.81h.69v4.6h1.91V63Z"/><path d="M242.43,65.11v1.21c1.37-.09,2.88-.22,3.51-.32l.05.6c-.77.11-2.68.26-4.06.37s-2.31.11-3.29.13l-.13-.66c.72,0,1.93,0,3.22-.08V65.11c-1.34-.09-2.27-.79-2.27-1.84s1.08-1.86,2.59-1.86,2.59.7,2.59,1.86S243.74,65,242.43,65.11Zm-3.63-4.35v-.6h6.69v.6ZM242.05,62c-1.08,0-1.87.49-1.87,1.26s.79,1.24,1.87,1.24,1.87-.5,1.87-1.24S243.13,62,242.05,62Zm-1.57-2.86v-.6h3.19v.6ZM246.72,69V57.81h.7V69Z"/><path d="M261.41,58.63a22.26,22.26,0,0,1-.42,4.76h1.88V64H258.2v5h-.7V64h-4.7v-.61h7.47a20.34,20.34,0,0,0,.42-4.17h-6.5v-.59Z"/><path d="M263.84,67.51v-.6h4.68V64.12h.69v2.79h4.7v.6Zm5.4-8V60c0,1.62,2.55,3.45,4.23,3.8l-.38.59a7.31,7.31,0,0,1-4.21-3.27c-.37,1.12-2.2,2.69-4.22,3.24l-.36-.56c1.64-.3,4.21-2.16,4.21-3.8v-.41h-3.7V59h8.13v.61Z"/><path d="M274.88,63.7v-.57H285v.57Zm1.27,5V66.34H283v-1h-6.82v-.6h7.52v2.2h-6.81v1.15h7.22v.6Zm.07-6.62V59.85h6.68v-1h-6.7v-.6h7.4v2.21h-6.68v1h6.87v.6Z"/><path d="M294.65,64.38v2.47h4.7v.6H289.28v-.6H294V64.38c-2.15-.11-3.55-1.22-3.55-2.9s1.56-2.9,3.9-2.9,3.89,1.15,3.89,2.9S296.79,64.27,294.65,64.38Zm-.34-5.23c-1.95,0-3.17,1-3.17,2.33s1.22,2.33,3.17,2.33,3.16-1,3.16-2.33S296.25,59.15,294.31,59.15Z"/><path d="M306.05,61a2.77,2.77,0,1,1-2.76-2.58A2.61,2.61,0,0,1,306.05,61Zm-4.83,0a2,2,0,0,0,2.07,2,2,2,0,1,0,0-3.94A2,2,0,0,0,301.22,61Zm1.14,7.78V64.86h7V68.8Zm6.36-3.33h-5.67v2.71h5.67Zm-2.34-6.08h2.31V57.81h.7V64.3h-.7V62.58h-2.31V62h2.31V60h-2.31Z"/><path d="M317.58,66.18a8,8,0,0,1-2.9-3.6,7.77,7.77,0,0,1-2.88,3.92l-.51-.57a6.56,6.56,0,0,0,3-4.93V58.88H315V61a5.71,5.71,0,0,0,3,4.61ZM319.73,69V57.81h.7V69Z"/><path d="M328.29,59c0,4.12-2.06,6.25-5,7.81l-.51-.58A7.92,7.92,0,0,0,327,62.33l-4,.43-.21-.67,4.41-.33a8.12,8.12,0,0,0,.37-2.13h-4.24V59ZM330.76,69V57.81h.7V69Z"/><path d="M333.44,64.31V63.7h10.07v.61ZM334.87,62V58.19h.69v3.19h6.74V62Zm0,6.69V65.45h.69v2.63h6.78v.59Z"/><path d="M14.89,82.59a2.66,2.66,0,0,1-2.79,2.69,2.68,2.68,0,1,1,0-5.35A2.65,2.65,0,0,1,14.89,82.59Zm-4.89,0a2,2,0,0,0,2.1,2,2,2,0,1,0,0-4.07A2,2,0,0,0,10,82.59Zm1.1,7.29V86.42h.69v2.86h6.63v.6Zm4.26-6.95v-.61H17.5V79.15h.7v8.14h-.7V82.93Z"/><path d="M23.07,80c1.62,0,2.7,1.53,2.7,3.91s-1.08,3.9-2.7,3.9-2.7-1.53-2.7-3.91S21.45,80,23.07,80Zm0,.63c-1.2,0-2,1.4-2,3.28s.78,3.28,2,3.28,2-1.42,2-3.28S24.27,80.59,23.07,80.59Zm3.26,3.55v-.6h2.21V79.15h.7V90.3h-.7V84.14Z"/><path d="M31.6,80.07h5.86v.6H34.85v.75a4,4,0,0,0,2.79,3.32l-.4.59a5.69,5.69,0,0,1-2.76-2.62,5.65,5.65,0,0,1-2.86,2.9l-.39-.51c1.41-.57,2.95-2.17,2.95-3.7v-.73H31.6Zm1.68,10.05V86.31h7v3.81Zm6.31-3.21H34v2.61h5.61Zm0-1.21v-3H37.25v-.6h2.33v-3h.7V85.7Z"/><path d="M48,82.36a2.77,2.77,0,1,1-2.76-2.58A2.61,2.61,0,0,1,48,82.36Zm-4.83,0a2,2,0,0,0,2.07,2,2,2,0,1,0,0-3.94A2,2,0,0,0,43.15,82.36Zm1.14,7.77V86.2h7v3.93Zm6.35-3.32H45v2.71h5.66Zm-2.33-6.08h2.31V79.15h.7v6.49h-.7V83.92H48.31v-.56h2.31V81.3H48.31Z"/><path d="M53.29,85.63V85H63.36v.6Zm5-1.8c-2.46,0-3.79-.81-3.79-2.1s1.33-2.11,3.79-2.11,3.8.81,3.8,2.11S60.78,83.83,58.33,83.83Zm-3.69,6.11V86.87h.7v2.46h6.79v.61Zm3.69-9.71c-1.92,0-3.07.59-3.07,1.5s1.15,1.48,3.07,1.48,3.09-.57,3.09-1.48S60.24,80.23,58.33,80.23Z"/><path d="M73.61,82a2.79,2.79,0,1,1-2.76-2.42A2.52,2.52,0,0,1,73.61,82Zm-4.83,0a1.93,1.93,0,0,0,2.07,1.83,1.84,1.84,0,1,0,0-3.64A1.92,1.92,0,0,0,68.78,82Zm.94,8.22V87.47h6.36V86.13H69.66v-.6h7.11v2.54H70.4v1.55h6.82v.6Zm6.34-5.28V79.15h.7v5.79Z"/><path d="M84.5,85a5.37,5.37,0,0,1-2.69-2.8A5.75,5.75,0,0,1,79,85.35l-.47-.54a4.61,4.61,0,0,0,2.85-4v-1h.71v1a4.26,4.26,0,0,0,2.81,3.68Zm-.79,5.26c-2.3,0-3.67-.81-3.67-2.11s1.37-2.11,3.67-2.11,3.69.8,3.69,2.11S86,90.29,83.71,90.29Zm-2.94-2.11c0,.92,1.12,1.49,2.94,1.49s3-.57,3-1.49-1.15-1.5-3-1.5S80.77,87.24,80.77,88.18Zm6.45-5.24v3h-.7V79.15h.7v3.19H89v.6Z"/><path d="M94.9,85.13a5.7,5.7,0,0,1-2.29-2.47,5.23,5.23,0,0,1-2.29,2.79l-.47-.56a4.3,4.3,0,0,0,2.41-3.55V79.9H93v1.43a3.88,3.88,0,0,0,2.37,3.25Zm.55,5.13c-2.43,0-3.82-.82-3.82-2s1.39-2,3.82-2,3.85.82,3.85,2S97.89,90.26,95.45,90.26Zm-3.09-2c0,.76,1.07,1.41,3.09,1.41s3.12-.65,3.12-1.41-1.08-1.39-3.12-1.39S92.36,87.51,92.36,88.25Zm6.07-2V82.83H96.71v2.89H96V79.35h.69v2.88h1.72V79.15h.69v7.11Z"/><path d="M104.53,84.43V85c1.35-.08,2.59-.19,3.29-.28l.05.58c-.81.1-2.2.26-3.61.35s-2.61.12-3.43.12l-.12-.65c.73,0,1.84,0,3.12-.07v-.56c-1.37-.07-2.27-.59-2.27-1.42s1-1.42,2.57-1.42,2.62.52,2.62,1.41S105.86,84.34,104.53,84.43ZM101,81.25v-.6h6.3v.6Zm1.17,8.94V87.84h6.37v-.9H102.2v-.6h7.08v2.1h-6.37v1.15h6.81v.6Zm1.92-8c-1.26,0-1.86.4-1.86.83s.61.84,1.86.84S106,83.44,106,83,105.4,82.18,104.13,82.18ZM102.64,80v-.6h3V80Zm6.64,3.22v2.55h-.7v-6.6h.7v3.47h1.77v.58Z"/><path d="M116.74,83.62h1.62V79.36h.72V89.74h-.72V84.22h-1.62c-.07,2.16-.92,3.4-2.31,3.4s-2.34-1.36-2.34-3.71.86-3.71,2.34-3.71S116.68,81.45,116.74,83.62Zm-2.31-2.82c-1,0-1.63,1.14-1.63,3.11s.64,3.11,1.63,3.11,1.62-1.14,1.62-3.11S115.4,80.8,114.43,80.8Zm6.09,9.5V79.15h.71V90.3Z"/><path d="M131.56,86.88a19.69,19.69,0,0,1-3.51.39c-.37,0-.73,0-1.13,0V80.56h.7v6.08a18.19,18.19,0,0,0,3.81-.38Zm3.35,3.42V84.4h-1.85v5.29h-.7V79.45h.7V83.8h1.85V79.15h.71V90.3Z"/><path d="M142.43,87.52a6.07,6.07,0,0,1-2.3-3.26,6.19,6.19,0,0,1-2.45,3.54l-.5-.52a5.72,5.72,0,0,0,2.59-4.62V81.27h-2.28v-.6h5.14v.6h-2.15v1.36A5.36,5.36,0,0,0,142.91,87ZM146,90.3V84.44h-1.68V89.7h-.69V79.44h.69v4.41H146v-4.7h.7V90.3Z"/><path d="M152.36,83.56v1.65c1.31-.06,2.66-.18,3.3-.27l.06.6c-.77.09-2.23.22-3.59.29s-3,.11-3.61.11l-.12-.67c.74,0,2,0,3.26,0V83.56h-2.25V79.9h5.3v.62h-4.62V83h4.68v.6Zm-2,6.48V86.86H151v2.57h6.71V90Zm6.37-2.52V79.15h.69v8.37Z"/><path d="M167.45,80.59a8.54,8.54,0,0,1-4.27,7.19l-.49-.56a7.66,7.66,0,0,0,4-6h-3.49v-.6Zm4,9.71V84.41h-1.77V89.7h-.7V79.45h.7v4.36h1.77V79.15h.7V90.3Z"/><path d="M179.78,82.59a2.86,2.86,0,0,1-5.72,0,2.86,2.86,0,0,1,5.72,0Zm-5.05,0a2.13,2.13,0,0,0,2.19,2.11,2.11,2.11,0,1,0,0-4.21A2.13,2.13,0,0,0,174.73,82.59Zm.91,7.29V86.52h.7v2.76h6.8v.6Zm6.5-2.64V79.15h.7v8.09Z"/><path d="M192.39,87.42c-.85.1-2.35.2-3.79.28s-2.68.1-3.5.12l-.14-.66c.75,0,2.12,0,3.52-.08s3.14-.17,3.85-.26Zm-1.17-4.8a2.89,2.89,0,1,1-2.86-2.54A2.64,2.64,0,0,1,191.22,82.62Zm-5,0a2,2,0,0,0,2.14,1.9,1.91,1.91,0,0,0,2.15-1.89,2.16,2.16,0,0,0-4.29,0Zm7.62-3.47V90.3h-.7V79.15Z"/><path d="M205.43,87.52a8,8,0,0,1-2.9-3.6,7.77,7.77,0,0,1-2.88,3.92l-.51-.57a6.56,6.56,0,0,0,3-4.93V80.22h.71v2.11a5.73,5.73,0,0,0,3,4.61Zm2.15,2.78V79.15h.7V90.3Z"/><path d="M210.64,80.06h5.82v.6h-2.55v.8a4,4,0,0,0,2.78,3.33l-.4.58a5.67,5.67,0,0,1-2.76-2.61,5.65,5.65,0,0,1-2.86,2.9l-.39-.51c1.41-.57,2.95-2.18,2.95-3.7v-.79h-2.59Zm8.69,6.39v3.84h-.71V87H212v-.59Zm-.71-.6v-3h-2.33v-.6h2.33V79.15h.7v6.7Z"/><path d="M224.82,80.07h5.81v.6h-2.56v.7a3.94,3.94,0,0,0,2.78,3.32l-.4.59a5.69,5.69,0,0,1-2.76-2.62,5.67,5.67,0,0,1-2.86,2.91l-.39-.52c1.41-.56,2.95-2.17,2.95-3.69v-.69h-2.57Zm1.44,10.05V86.27h6.89v3.85Zm6.2-3.25H227v2.65h5.51Zm.68-4.15v2.92h-.7V79.15h.7v3h1.76v.6Z"/><path d="M240.83,87.52a6.07,6.07,0,0,1-2.3-3.26,6.19,6.19,0,0,1-2.45,3.54l-.5-.52a5.72,5.72,0,0,0,2.59-4.62V81.27h-2.28v-.6H241v.6h-2.15v1.36A5.36,5.36,0,0,0,241.31,87Zm3.54,2.78V84.44h-1.68V89.7H242V79.44h.69v4.41h1.68v-4.7h.7V90.3Z"/><path d="M252.68,85a5.37,5.37,0,0,1-2.69-2.8,5.75,5.75,0,0,1-2.78,3.12l-.47-.54a4.61,4.61,0,0,0,2.85-4v-1h.71v1a4.26,4.26,0,0,0,2.81,3.68Zm-.54,5.28c-2.34,0-3.74-.8-3.74-2.08s1.4-2.09,3.74-2.09,3.76.79,3.76,2.09S254.48,90.31,252.14,90.31Zm-3-2.08c0,.9,1.16,1.46,3,1.46s3-.56,3-1.46-1.19-1.48-3-1.48S249.13,87.32,249.13,88.23Zm3.51-5.84v-.61h2.46V79.15h.7v6.79h-.7V82.39Z"/><path d="M257.77,84.69v-.58h10.07v.58ZM259,90.16v-2.5h6.76v-1.2H259v-.59h7.47v2.39h-6.75v1.3h7.2v.6Zm3.79-6.89c-2.46,0-3.79-.69-3.79-1.9s1.33-1.92,3.79-1.92,3.8.71,3.8,1.92S265.26,83.27,262.81,83.27Zm0-3.22c-1.92,0-3.07.5-3.07,1.32s1.15,1.3,3.07,1.3,3.09-.49,3.09-1.3S264.72,80.05,262.81,80.05Z"/><path d="M272.17,88.72v-.6h10.07v.6Zm1.35-3.47V80.32h7.39v.6h-6.69v3.73H281v.6Z"/><path d="M289.53,87.18a36.83,36.83,0,0,1-4.7.36c-.39,0-.77,0-1.17,0V83.38h4.2V80.82h-4.2v-.6h4.9V84h-4.2v2.94a36.16,36.16,0,0,0,5.11-.36Zm2,3.12V84.22H289.3v-.6h2.27V79.15h.68V90.3Z"/><path d="M301,86.8a31.83,31.83,0,0,1-5.14.53h-1.05v-7h.7v6.35a26.26,26.26,0,0,0,5.37-.55Zm1.79-3.12h1.89v.6h-1.89v6H302V79.15h.7Z"/><path d="M310,80.59a8.52,8.52,0,0,1-4.27,7.19l-.49-.56a7.66,7.66,0,0,0,4-6h-3.49v-.6Zm1.75,9.11V84.4h-2.07v-.6h2.07V79.44h.7V89.7Zm2.21.6V79.15h.7V90.3Z"/><path d="M319.66,81.94v-.6H326v.6Zm3.13,4.51c-1.4,0-2.49-.74-2.49-1.93s1.08-1.92,2.49-1.92,2.52.74,2.52,1.92S324.22,86.45,322.79,86.45Zm0-3.25c-1,0-1.79.52-1.79,1.32s.82,1.33,1.79,1.33,1.83-.49,1.83-1.33S323.79,83.2,322.79,83.2Zm-1.53-2.86v-.6h3.15v.6Zm.08,9.54V87.14h.7v2.13h6.66v.61Zm6.84-6.11v3.51h-.7V79.15h.7v4h1.76v.6Z"/><path d="M332.7,86.82a27.29,27.29,0,0,0,4.65-.37l.08.59a32.15,32.15,0,0,1-4.82.4h-1.35V80.3h5.06v.6H332v5.92Zm6.52-3.13h1.91v.6h-1.91v6h-.7V79.15h.7Z"/><path d="M341.89,88.19h.83V89h-.83Z"/><path d="M62.22,107.37A5.2,5.2,0,0,1,59.47,105a5,5,0,0,1-2.87,2.69l-.4-.56c1.59-.52,2.92-1.94,2.92-3.21v-.42H56.56v-.6h5.86v.6H59.81v.42c0,1.22,1.51,2.6,2.82,2.89ZM58,101.65V101h3v.61Zm0,9.61v-3.2h.69v2.59h6.6v.61Zm6.37-2.68v-8.09h.7v8.09Z"/><path d="M71.74,108.21v-1.75H67v-.61H77.11v.61H72.42v1.75h3.4v3.53h-.7v-2.93h-7v-.6Zm4.45-3.5a6.21,6.21,0,0,1-4.11-2.63A5.62,5.62,0,0,1,68,104.72l-.36-.59c1.87-.2,4.07-1.62,4.07-3.11v-.4h.71v.4c0,1.51,2.35,2.87,4.1,3.09Z"/><path d="M78.06,103.28v-.6H84.4v.6Zm3.13,4.51c-1.41,0-2.5-.74-2.5-1.93s1.08-1.92,2.5-1.92,2.51.73,2.51,1.92S82.61,107.79,81.19,107.79Zm0-3.25c-1,0-1.8.52-1.8,1.32s.82,1.33,1.8,1.33S83,106.7,83,105.86,82.18,104.54,81.19,104.54Zm-1.54-2.87v-.59h3.16v.59Zm.08,9.55v-2.74h.7v2.13h6.66v.61Zm6.84-6.11v3.51h-.69v-8.13h.69v4h1.76v.6Z"/><path d="M98.4,103.34a2.78,2.78,0,1,1-2.75-2.42A2.51,2.51,0,0,1,98.4,103.34Zm-4.83,0a1.93,1.93,0,0,0,2.08,1.83,1.83,1.83,0,1,0,0-3.64A1.92,1.92,0,0,0,93.57,103.34Zm.94,8.22v-2.75h6.37v-1.34H94.45v-.6h7.11v2.54H95.19V111H102v.6Zm6.34-5.28v-5.79h.7v5.79Z"/><path d="M109.29,106.36a5.31,5.31,0,0,1-2.69-2.79,5.72,5.72,0,0,1-2.78,3.12l-.47-.54a4.6,4.6,0,0,0,2.86-4v-1h.7v1a4.27,4.27,0,0,0,2.81,3.68Zm-.79,5.27c-2.29,0-3.67-.82-3.67-2.11s1.38-2.11,3.67-2.11,3.69.8,3.69,2.11S110.79,111.63,108.5,111.63Zm-2.94-2.11c0,.92,1.13,1.49,2.94,1.49s3-.57,3-1.49-1.15-1.5-3-1.5S105.56,108.58,105.56,109.52Zm6.45-5.24v3h-.69v-6.83H112v3.19h1.76v.6Z"/><path d="M119.45,105h1.62V100.7h.72v10.38h-.72v-5.52h-1.62c-.07,2.16-.92,3.4-2.31,3.4s-2.34-1.36-2.34-3.71.86-3.71,2.34-3.71S119.39,102.79,119.45,105Zm-2.31-2.82c-1,0-1.63,1.14-1.63,3.11s.64,3.11,1.63,3.11,1.62-1.14,1.62-3.11S118.11,102.14,117.14,102.14Zm6.09,9.5V100.49h.71v11.15Z"/><path d="M129,106.77v-.6h4.69v-1.86h.69v1.86H139v.6Zm9.19-2a6.27,6.27,0,0,1-4.15-2.65,5.76,5.76,0,0,1-4.09,2.67l-.36-.59c1.87-.21,4.1-1.61,4.1-3.11v-.41h.71v.41c0,1.51,2.38,2.87,4.13,3.08Zm-.41,3.45v3.56H137v-2.95h-6.95v-.61Z"/><path d="M140,103.81v-.6h6.53v.6Zm3.34,5.37a2.26,2.26,0,1,1,2.54-2.24A2.33,2.33,0,0,1,143.32,109.18Zm0-3.89a1.66,1.66,0,1,0,1.85,1.65A1.71,1.71,0,0,0,143.32,105.29ZM141.59,102v-.61h3.18V102Zm6.9,3.92v5.77h-.69V100.49h.69v4.8h1.9v.58Z"/><path d="M151,107v-.61h10.07V107Zm1.43-2.33v-3.79h.69v3.19h6.74v.6Zm0,6.69v-3.22h.69v2.62h6.78v.6Z"/><path d="M171.2,103.93a2.79,2.79,0,1,1-2.79-2.66A2.66,2.66,0,0,1,171.2,103.93Zm-4.88,0a2,2,0,0,0,2.09,2,2,2,0,1,0,0-4.07A2,2,0,0,0,166.32,103.93Zm1.09,7.29v-3.46h.69v2.86h6.63v.6Zm4.27-7v-.62h2.13v-3.16h.7v8.14h-.7v-4.36Z"/><path d="M179.38,101.3c1.62,0,2.7,1.53,2.7,3.91s-1.08,3.9-2.7,3.9-2.7-1.53-2.7-3.91S177.76,101.3,179.38,101.3Zm0,.63c-1.2,0-2,1.4-2,3.28s.78,3.28,2,3.28,2-1.42,2-3.28S180.58,101.93,179.38,101.93Zm3.26,3.55v-.6h2.21v-4.39h.7v11.15h-.7v-6.16Z"/><path d="M192.41,105H194V100.7h.72v10.38H194v-5.52h-1.62c-.07,2.16-.92,3.4-2.31,3.4s-2.34-1.36-2.34-3.71.86-3.71,2.34-3.71S192.35,102.79,192.41,105Zm-2.31-2.82c-1,0-1.63,1.14-1.63,3.11s.64,3.11,1.63,3.11,1.62-1.14,1.62-3.11S191.07,102.14,190.1,102.14Zm6.09,9.5V100.49h.71v11.15Z"/><path d="M207.65,103.7a2.77,2.77,0,1,1-2.76-2.58A2.58,2.58,0,0,1,207.65,103.7Zm-4.83,0a2,2,0,0,0,2.07,2,2,2,0,1,0,0-3.94A2,2,0,0,0,202.82,103.7Zm4.47,7.93c-2.44,0-3.79-.8-3.79-2s1.35-2,3.79-2,3.78.8,3.78,2S209.73,111.63,207.29,111.63Zm-3-2c0,.87,1.14,1.44,3,1.44s3-.57,3-1.44-1.13-1.44-3-1.44S204.25,108.7,204.25,109.58Zm3.73-4.83h2.31v-2.12H208v-.58h2.31v-1.56h.7v6.94h-.7v-2.1H208Z"/><path d="M212.94,103v-.6h6.34v.6Zm3.2,4.17c-1.41,0-2.46-.69-2.46-1.8s1-1.78,2.46-1.78,2.48.68,2.48,1.78S217.57,107.14,216.14,107.14Zm1.8,4.48c-2.27,0-3.64-.72-3.64-1.92s1.37-1.93,3.64-1.93,3.64.72,3.64,1.93S220.2,111.62,217.94,111.62Zm-1.8-7.46c-1,0-1.76.47-1.76,1.18s.79,1.2,1.76,1.2,1.78-.44,1.78-1.2S217.13,104.16,216.14,104.16Zm-1.61-2.72v-.6h3.16v.6Zm.48,8.26c0,.81,1.14,1.31,2.93,1.31s2.95-.5,2.95-1.31-1.17-1.32-2.95-1.32S215,108.88,215,109.7Zm8.2-4h-1.76v1.8h-.69v-7.06h.69v2.28h1.76v.6h-1.76v1.78h1.76Z"/><path d="M224,106v-.58h10.07V106Zm1.25,5.47V109H232v-1.2h-6.79v-.6h7.47v2.4h-6.75v1.3h7.2v.6Zm3.79-6.89c-2.46,0-3.79-.69-3.79-1.9s1.33-1.92,3.79-1.92,3.8.71,3.8,1.92S231.5,104.61,229,104.61Zm0-3.22c-1.92,0-3.07.5-3.07,1.32s1.15,1.3,3.07,1.3,3.09-.49,3.09-1.3S231,101.39,229,101.39Z"/><path d="M239.07,108.75v-7h5.05v7Zm4.35-6.45h-3.65v5.85h3.65Zm3.31,9.34V100.49h.69v11.15Z"/><path d="M255.71,109.33a6.2,6.2,0,0,1-2.77-3.11,6.2,6.2,0,0,1-2.78,3.37l-.48-.54a5.12,5.12,0,0,0,2.9-4.24v-.88h-2.65v-.6h6v.6h-2.67v.86a4.69,4.69,0,0,0,2.89,3.92ZM251.3,102v-.63h3.2V102Zm6.51,9.69V100.49h.7v11.15Z"/><path d="M261,108.75v-7h4.87v7Zm4.18-6.45h-3.48v5.85h3.48Zm1.47,1h2.22v-2.76h.69v11.15h-.69v-4.71h-2.22v-.57h2.22v-2.55h-2.22Z"/><path d="M276.63,105.32a28.38,28.38,0,0,0,4.49-.3l.09.59a30.68,30.68,0,0,1-4.89.31h-1v-4.78h4.95v.6H276v1.41h4.14v.6H276v1.57Zm-.13,6.24v-2.68h6.18v-1.21h-6.24v-.6h6.93v2.41h-6.18V111h6.63v.6Zm6.87-7.91v2.77h-.69v-5.93h.69v2.56h1.76v.6Z"/><path d="M286.52,106.24v-4.86h4.34v4.86Zm3.65-4.27h-3v3.67h3Zm4.42,9.67v-3.37h-6.7v-.59h7.41v4Zm0-4.56v-3h-1.64V107h-.7v-6.29h.7v2.75h1.64v-3h.69v6.59Z"/><path d="M303.56,106.34a36.6,36.6,0,0,1-4,.34c-.68,0-1.4,0-2.17,0v-3.19h4.13v-1.69h-4.13v-.6h4.83v2.89h-4.14v2h.5a31.1,31.1,0,0,0,4.86-.36Zm1.9,1.62v3.67h-.7v-3.07h-6.49V108Zm0-3.81v3.17h-.69v-6.83h.69v3.06h1.76v.6Z"/><path d="M308,106v-.58h10.07V106Zm1.25,5.47V109H316v-1.2h-6.79v-.6h7.47v2.4h-6.75v1.3h7.2v.6Zm3.79-6.89c-2.46,0-3.79-.69-3.79-1.9s1.33-1.92,3.79-1.92,3.8.71,3.8,1.92S315.5,104.61,313,104.61Zm0-3.22c-1.92,0-3.07.5-3.07,1.32s1.15,1.3,3.07,1.3,3.09-.49,3.09-1.3S315,101.39,313,101.39Z"/><path d="M327.78,105.21v1.3h4.69v.61H322.4v-.61h4.7v-1.3h-3.34v-4.09h7.31v.6h-6.62v1.09h6.28v.6h-6.28v1.2h6.68v.6Zm-.34,6.41c-2.46,0-3.83-.72-3.83-1.91s1.37-1.92,3.83-1.92,3.84.73,3.84,1.92S329.9,111.62,327.44,111.62Zm0-3.22c-1.92,0-3.11.52-3.11,1.31s1.19,1.3,3.11,1.3,3.13-.51,3.13-1.3S329.36,108.4,327.44,108.4Z"/><path d="M333.42,103.28v-.6h6.34v.6Zm3.13,4.51c-1.41,0-2.5-.74-2.5-1.93s1.08-1.92,2.5-1.92,2.51.73,2.51,1.92S338,107.79,336.55,107.79Zm0-3.25c-1,0-1.8.52-1.8,1.32s.82,1.33,1.8,1.33,1.82-.49,1.82-1.33S337.54,104.54,336.55,104.54ZM335,101.67v-.59h3.16v.59Zm.08,9.55v-2.74h.7v2.13h6.66v.61Zm6.84-6.11v3.51h-.69v-8.13h.69v4h1.76v.6Z"/><path d="M134.11,130.14a7,7,0,0,1-2.33-3.44,6.49,6.49,0,0,1-2.41,3.72l-.51-.57a5.88,5.88,0,0,0,2.55-4.84v-2h.7v2a5.9,5.9,0,0,0,2.46,4.62Zm3.53,2.84v-5.9h-1.72v5.3h-.71V122.12h.71v4.36h1.72v-4.65h.7V133Z"/><path d="M140,131.53v-.6h4.68v-2.19h-3.32v-3.4H148v-2h-6.62v-.61h7.31v3.21h-6.63v2.2h7v.6h-3.65v2.19h4.7v.6Z"/><path d="M155.74,130.59v-2.36H151v-.6h10.07v.6h-4.69v2.36Zm.34-4.17c-2.46,0-3.79-.8-3.79-2.1s1.33-2.11,3.79-2.11,3.8.82,3.8,2.11S158.54,126.42,156.08,126.42Zm-3.68,6.17v-3.05h.68V132h6.79v.62Zm3.68-9.77c-1.92,0-3.07.59-3.07,1.5s1.15,1.49,3.07,1.49,3.09-.58,3.09-1.49S158,122.82,156.08,122.82Z"/><path d="M173,130.1c-.85.1-2.35.2-3.79.28s-2.67.09-3.5.12l-.13-.66c.74,0,2.11,0,3.51-.08s3.14-.17,3.85-.26Zm-1.16-4.81a2.89,2.89,0,1,1-2.87-2.53A2.63,2.63,0,0,1,171.86,125.29Zm-5,0A2,2,0,0,0,169,127.2a1.91,1.91,0,0,0,2.15-1.89,2.16,2.16,0,0,0-4.28,0Zm7.61-3.46V133h-.69V121.83Z"/><path d="M177.15,130.09v-7h5v7Zm4.36-6.45h-3.66v5.85h3.66Zm3.31,9.34V121.83h.68V133Z"/><path d="M187.52,127.72v-.57h10.07v.57Zm1.27,5v-2.36h6.8v-1h-6.82v-.6h7.52V131h-6.82v1.16h7.22v.6Zm.07-6.62v-2.22h6.68v-1h-6.7v-.6h7.4v2.21h-6.68v1h6.87v.6Z"/><path d="M202.4,127.92v-5h5.06v5Zm4.37-4.39H203.1v3.79h3.67Zm-3.2,9V129.2h.7V132h6.66v.61Zm6.84-6.76v4.11h-.69v-8.09h.69v3.39h1.76v.59Z"/><path d="M213,127.27v-.6H223v.6Zm1.26,5.47V130.2h6.68V129h-6.74v-.6h7.44v2.41h-6.69v1.34h7.16v.6Zm.06-7.22v-3.21h7.4v.6H215v2h6.78v.6Z"/><path d="M226.9,122.64c1.62,0,2.7,1.53,2.7,3.91s-1.08,3.9-2.7,3.9-2.7-1.53-2.7-3.91S225.28,122.64,226.9,122.64Zm0,.63c-1.2,0-2,1.4-2,3.28s.78,3.28,2,3.28,2-1.42,2-3.28S228.1,123.27,226.9,123.27Zm3.26,3.55v-.6h2.21v-4.39h.7V133h-.7v-6.16Z"/><path d="M245.1,129.48A31.83,31.83,0,0,1,240,130h-1v-7h.69v6.35a26.26,26.26,0,0,0,5.37-.55Zm1.79-3.12h1.9v.6h-1.9v6h-.69V121.83h.69Z"/><path d="M255,123.05a8.61,8.61,0,0,1-5,7.63l-.42-.55a7.91,7.91,0,0,0,4.66-6.48H250v-.6Zm2.91,3.55h1.92v.6h-1.92V133h-.69V121.83h.69Z"/><path d="M260.48,128.33v-.61h10.07v.61Zm1.43-2.33v-3.79h.69v3.19h6.74v.6Zm0,6.69v-3.22h.69v2.62h6.78v.6Z"/><path d="M281.92,130.1c-1.09.17-2.61.29-3.59.35s-2.53.09-3.5.09l-.14-.66h2.59v-3.5H278v3.48a32.33,32.33,0,0,0,3.88-.36Zm-1-6.95a26.11,26.11,0,0,1-.39,4.9l-.67-.08a23,23,0,0,0,.34-4.21H275.3v-.61Zm2.41,4V133h-.7V121.83h.7v4.75h1.91v.6Z"/><path d="M286.32,122.73h5.86v.6h-2.6v.76a4,4,0,0,0,2.78,3.33l-.4.58a5.65,5.65,0,0,1-2.75-2.61,5.71,5.71,0,0,1-2.87,2.9l-.38-.51c1.4-.57,3-2.17,3-3.7v-.75h-2.59Zm5,10.24c-2.45,0-3.77-.8-3.77-2.05s1.32-2,3.77-2,3.75.8,3.75,2S293.76,133,291.33,133Zm-3-2.05c0,.87,1.11,1.44,3,1.44s3-.57,3-1.44-1.1-1.44-3-1.44S288.31,130,288.31,130.92Zm3.69-5.58v-.6h2.29v-2.91h.7v6.89h-.7v-3.38Z"/><path d="M303,125.27a2.86,2.86,0,1,1-2.86-2.71A2.73,2.73,0,0,1,303,125.27Zm-5.05,0a2.13,2.13,0,0,0,2.19,2.11,2.11,2.11,0,1,0,0-4.21A2.13,2.13,0,0,0,297.92,125.27Zm.91,7.29V129.2h.7V132h6.8v.6Zm6.5-2.64v-8.09h.7v8.09Z"/><path d="M316.74,125.94v1.57h4.69v.61H311.36v-.61h4.7v-1.57h-3.38v-3.58h7.4v.6h-6.71v2.38h6.78v.6Zm-.34,7c-2.46,0-3.83-.71-3.83-1.92s1.37-1.92,3.83-1.92,3.83.71,3.83,1.92S318.86,133,316.4,133Zm0-3.22c-1.9,0-3.07.46-3.07,1.3s1.17,1.31,3.07,1.31,3.09-.47,3.09-1.31S318.29,129.76,316.4,129.76Z"/><path d="M328.62,130.2a8,8,0,0,1-2.9-3.6,7.77,7.77,0,0,1-2.88,3.92l-.51-.57a6.56,6.56,0,0,0,3-4.93v-2.13h.71V125a5.71,5.71,0,0,0,3,4.61Zm2.15,2.78V121.83h.7V133Z"/><path d="M338.33,126.3H340V122h.72v10.38H340V126.9h-1.62c-.07,2.16-.92,3.4-2.31,3.4s-2.34-1.36-2.34-3.71.86-3.71,2.34-3.71S338.27,124.13,338.33,126.3ZM336,123.48c-1,0-1.63,1.14-1.63,3.11s.64,3.11,1.63,3.11,1.62-1.14,1.62-3.11S337,123.48,336,123.48Zm6.09,9.5V121.83h.71V133Z"/><path d="M135.24,143.85c-.34,2.75-2.25,4.44-5.07,5.37l-.39-.56c2.71-.83,4.28-2.37,4.64-4.22h-4.08v-.59Zm-3.64,10.4v-2.7H138v-1.43h-6.47v-.58h7.16v2.59h-6.38v1.53h6.83v.59Zm3.81-9.31H138v-1.77h.69v5.72H138v-1.38h-2.66v-.59H138v-1.39h-2.57Z"/><path d="M147.69,151.44c-1.09.17-2.62.29-3.59.35s-2.53.09-3.5.09l-.14-.67c.5,0,1.77,0,2.59,0v-3.49h.69v3.48a32.33,32.33,0,0,0,3.88-.36Zm-1-6.95a27,27,0,0,1-.39,4.9l-.67-.08a23,23,0,0,0,.34-4.21h-4.93v-.61Zm2.41,4v5.8h-.7V143.17h.7v4.75H151v.6Z"/><path d="M152.08,144.08h5.82v.6h-2.55v.8a3.93,3.93,0,0,0,2.78,3.32l-.4.59a5.67,5.67,0,0,1-2.76-2.61,5.65,5.65,0,0,1-2.86,2.9l-.39-.52c1.41-.56,2.95-2.17,2.95-3.69v-.79h-2.59Zm8.69,6.39v3.84h-.71v-3.25h-6.67v-.59Zm-.71-.6v-3h-2.33v-.6h2.33v-3.06h.7v6.7Z"/><path d="M162.73,152.74v-.6H172.8v.6Zm5-3c-2.35,0-3.91-1.09-3.91-2.77s1.56-2.77,3.91-2.77,3.92,1.11,3.92,2.77S170.1,149.7,167.75,149.7Zm0-4.91c-1.94,0-3.18.93-3.18,2.14s1.24,2.16,3.18,2.16,3.19-.93,3.19-2.16S169.71,144.79,167.75,144.79Z"/><path d="M173.77,152.87v-.6h4.68v-2.19h-3.33v-3.4h6.64v-2h-6.62v-.61h7.31v3.21h-6.63v2.2h7v.6h-3.65v2.19h4.7v.6Z"/><path d="M194.21,151.54a8,8,0,0,1-2.9-3.6,7.77,7.77,0,0,1-2.88,3.92l-.51-.57a6.56,6.56,0,0,0,3-4.93v-2.13h.71v2.12a5.73,5.73,0,0,0,3,4.61Zm2.45-3.17v5.95H196V143.17h.7v4.6h1.91v.6Z"/><path d="M203.24,150.47v1.21c1.37-.09,2.88-.22,3.51-.32l.05.6c-.77.11-2.69.26-4.07.37s-2.3.11-3.28.13l-.13-.66c.72,0,1.93,0,3.22-.08v-1.25c-1.34-.09-2.28-.79-2.28-1.85s1.08-1.85,2.59-1.85,2.59.7,2.59,1.85S204.55,150.35,203.24,150.47Zm-3.64-4.35v-.6h6.7v.6Zm3.25,1.25c-1.08,0-1.87.49-1.87,1.25s.79,1.25,1.87,1.25,1.87-.5,1.87-1.25S203.93,147.37,202.85,147.37Zm-1.57-2.86v-.6h3.19v.6Zm6.25,9.81V143.17h.7v11.15Z"/><path d="M217.83,151.44c-.85.1-2.35.19-3.79.28s-2.68.09-3.5.12l-.14-.66c.75,0,2.11,0,3.52-.09s3.14-.16,3.85-.25Zm-1.17-4.81a2.89,2.89,0,1,1-2.86-2.53A2.62,2.62,0,0,1,216.66,146.63Zm-5,0a2,2,0,0,0,2.14,1.91,1.9,1.9,0,0,0,2.14-1.89,1.92,1.92,0,0,0-2.14-1.91A1.94,1.94,0,0,0,211.66,146.63Zm7.62-3.46v11.15h-.7V143.17Z"/><path d="M233.26,144a22.8,22.8,0,0,1-.42,4.76h1.88v.62h-4.67v5h-.7v-5h-4.7v-.62h7.47a20.18,20.18,0,0,0,.42-4.16H226V144Z"/><path d="M235.69,152.87v-.6h4.68v-2.79h.69v2.79h4.7v.6Zm5.4-8v.41c0,1.62,2.55,3.45,4.23,3.8l-.39.59a7.32,7.32,0,0,1-4.2-3.27c-.38,1.12-2.2,2.69-4.23,3.24l-.36-.56c1.65-.3,4.21-2.16,4.21-3.8v-.41h-3.69v-.61h8.13v.61Z"/><path d="M251.62,147.64h1.62v-4.26H254v10.38h-.72v-5.52h-1.62c-.07,2.16-.92,3.39-2.31,3.39s-2.34-1.35-2.34-3.7.86-3.71,2.34-3.71S251.56,145.47,251.62,147.64Zm-2.31-2.82c-1,0-1.63,1.14-1.63,3.11s.64,3.11,1.63,3.11,1.62-1.14,1.62-3.11S250.28,144.82,249.31,144.82Zm6.09,9.5V143.17h.71v11.15Z"/><path d="M257.77,152.87v-.6h4.68v-3.11h-3.33v-5h7.42v.6h-6.72v3.79h6.75v.6h-3.43v3.11h4.7v.6Z"/><path d="M277.9,146.38a2.77,2.77,0,0,1-5.53,0,2.77,2.77,0,0,1,5.53,0Zm-4.83,0a2,2,0,0,0,2.07,2,2,2,0,1,0,0-3.94A2,2,0,0,0,273.07,146.38Zm4.47,7.93c-2.45,0-3.79-.8-3.79-2.05s1.34-2,3.79-2,3.78.8,3.78,2S280,154.31,277.54,154.31Zm-3.05-2.05c0,.87,1.14,1.44,3.05,1.44s3-.57,3-1.44-1.13-1.44-3-1.44S274.49,151.38,274.49,152.26Zm3.73-4.84h2.32v-2.11h-2.32v-.58h2.32v-1.56h.69v6.94h-.69V148h-2.32Z"/><path d="M283.18,145.65v-.6h6.35v.6Zm3.21,4.17c-1.41,0-2.46-.69-2.46-1.8s1-1.78,2.46-1.78,2.48.68,2.48,1.78S287.81,149.82,286.39,149.82Zm1.8,4.48c-2.27,0-3.64-.72-3.64-1.92s1.37-1.93,3.64-1.93,3.64.72,3.64,1.93S290.45,154.3,288.19,154.3Zm-1.8-7.46c-1,0-1.77.46-1.77,1.18s.79,1.2,1.77,1.2,1.78-.44,1.78-1.2S287.38,146.84,286.39,146.84Zm-1.61-2.72v-.6h3.15v.6Zm.48,8.26c0,.81,1.14,1.31,2.93,1.31s2.95-.5,2.95-1.31-1.17-1.32-2.95-1.32S285.26,151.56,285.26,152.38Zm8.2-3.95H291.7v1.8H291v-7.06h.7v2.28h1.76v.6H291.7v1.78h1.76Z"/><path d="M294.25,148.71v-.58h10.07v.58Zm1.25,5.47v-2.5h6.76v-1.2h-6.79v-.6h7.47v2.4h-6.75v1.3h7.2v.6Zm3.79-6.89c-2.46,0-3.79-.69-3.79-1.9s1.33-1.92,3.79-1.92,3.8.7,3.8,1.92S301.74,147.29,299.29,147.29Zm0-3.22c-1.92,0-3.08.5-3.08,1.32s1.16,1.3,3.08,1.3,3.09-.49,3.09-1.3S301.2,144.07,299.29,144.07Z"/><path d="M312,144.42a11,11,0,0,1-2.88,7.25l-.62-.43a10.08,10.08,0,0,0,2.76-6.23H309v-.59Zm3.24,0a12.86,12.86,0,0,1-2.66,8L312,152c2-1.95,2.55-5.78,2.55-7h-2v-.59Zm1.74,9.9V143.17h.69v11.15Z"/><path d="M325.91,150.05a5.26,5.26,0,0,1-2.76-2.38,5,5,0,0,1-2.86,2.69l-.4-.56c1.58-.52,2.92-1.94,2.92-3.21v-.42h-2.56v-.6h5.85v.6h-2.6v.42c0,1.22,1.51,2.6,2.82,2.89Zm-4.26-5.72v-.61h3v.61Zm0,9.61v-3.2h.68v2.59H329v.61Zm6.37-2.68v-8.09h.7v8.09Z"/><path d="M332.69,150.84a27.33,27.33,0,0,0,4.66-.37l.08.59a32.15,32.15,0,0,1-4.82.4h-1.35v-7.14h5.06v.6H332v5.92Zm6.53-3.13h1.91v.6h-1.91v6h-.7V143.17h.7Z"/><path d="M341.89,152.21h.83V153h-.83Z"/><rect class="cls-2" x="306.72" y="0.25" width="35.78" height="35.78"/><path d="M325.66,14.51v9.71h3.72v1.69h-9.54V24.22h3.87v-8h-3.87v-1.7Zm-2.12-3.46a.82.82,0,0,1,.25-.38.88.88,0,0,1,.35-.22,1.44,1.44,0,0,1,.49-.08,1.42,1.42,0,0,1,.48.08,1,1,0,0,1,.35.22.87.87,0,0,1,.25.37,1.24,1.24,0,0,1,.09.48,1.09,1.09,0,0,1-.3.79,1.36,1.36,0,0,1-1.75,0,1.09,1.09,0,0,1-.29-.79A1.19,1.19,0,0,1,323.54,11.05Z"/></g></g></svg>